<?xml version="1.0" encoding="UTF-8" standalone="no"?>
<!-- Created with Inkscape (http://www.inkscape.org/) -->

<svg
   xmlns:dc="http://purl.org/dc/elements/1.1/"
   xmlns:cc="http://creativecommons.org/ns#"
   xmlns:rdf="http://www.w3.org/1999/02/22-rdf-syntax-ns#"
   xmlns:svg="http://www.w3.org/2000/svg"
   xmlns="http://www.w3.org/2000/svg"
   xmlns:sodipodi="http://sodipodi.sourceforge.net/DTD/sodipodi-0.dtd"
   xmlns:inkscape="http://www.inkscape.org/namespaces/inkscape"
   id="svg4190"
   version="1.1"
   inkscape:version="0.91 r13725"
   width="197"
   height="256"
   viewBox="0 0 197 256"
   sodipodi:docname="About.svg">
  <metadata
     id="metadata4196">
    <rdf:RDF>
      <cc:Work
         rdf:about="">
        <dc:format>image/svg+xml</dc:format>
        <dc:type
           rdf:resource="http://purl.org/dc/dcmitype/StillImage" />
        <dc:title />
      </cc:Work>
    </rdf:RDF>
  </metadata>
  <defs
     id="defs4194" />
  <sodipodi:namedview
     pagecolor="#ffffff"
     bordercolor="#666666"
     borderopacity="1"
     objecttolerance="10"
     gridtolerance="10"
     guidetolerance="10"
     inkscape:pageopacity="0"
     inkscape:pageshadow="2"
     inkscape:window-width="1547"
     inkscape:window-height="876"
     id="namedview4192"
     showgrid="false"
     inkscape:zoom="2.8867188"
     inkscape:cx="98.153586"
     inkscape:cy="197.28281"
     inkscape:window-x="53"
     inkscape:window-y="24"
     inkscape:window-maximized="1"
     inkscape:current-layer="svg4190" />
  <path
     style="fill:#ffb458;fill-opacity:1"
     d="m 73.996902,254.34597 c -25.52402,-3.23261 -44.5961,-7.43338 -61.34258,-13.51117 -10.9036799,-3.95727 -12.65219987,-6.16315 -12.64546987,-15.95309 0.0164,-23.82062 7.44233997,-57.1635 15.63874987,-70.21848 2.99713,-4.77375 11.20654,-10.31413 18.8493,-12.72106 14.78057,-4.65483 30.62678,-12.61125 32.67652,-16.40695 0.8529,-1.57941 1.67162,-0.64936 5.66031,6.43007 10.0153,17.77593 20.99353,24.36322 32.012038,19.20825 5.25798,-2.45992 13.39488,-11.15014 18.29512,-19.53922 2.33002,-3.98893 4.31185,-7.37614 4.40405,-7.52712 0.0922,-0.15098 1.91912,1.46646 4.0598,3.59431 2.72071,2.70439 6.45047,4.83051 12.39216,7.06404 14.52922,5.46167 26.42723,11.08882 31.56635,14.92926 6.22915,4.65502 9.95757,11.97181 14.8339,29.11057 4.53313,15.93252 6.58637,29.55556 6.59385,43.7496 0.006,10.55487 -0.13685,11.34293 -2.57323,14.2384 -4.18688,4.97582 -29.38889,12.3866 -56.42087,16.59083 -14.86296,2.31161 -49.260498,2.82852 -63.999998,0.96176 z m 15.2137,-123.80761 c -4.83381,-1.75211 -13.64167,-8.90959 -17.69276,-14.37755 -4.82569,-6.51348 -9.39309,-16.166157 -10.78152,-22.785511 -0.63376,-3.021472 -1.49196,-5.493586 -1.90711,-5.493586 -1.21671,0 -3.83231,-9.98641 -3.83231,-14.631811 0,-2.690656 0.53642,-4.569005 1.45099,-5.080822 1.21642,-0.680745 1.28116,-2.022444 0.40043,-8.29969 -1.66655,-11.878099 -0.71616,-22.464983 2.59809,-28.941668 3.27209,-6.394271 11.26904,-14.541003 18.16889,-18.509172 2.68488,-1.544103 5.86079,-3.6937159 7.05757,-4.7769174 2.07687,-1.8797567 4.9871,-1.641803 3.78133,0.3091783 -0.31643,0.5119959 0.36535,0.9309017 1.51507,0.9309017 1.14972,0 2.3291,-0.6220466 2.62085,-1.3823258 0.29175,-0.7602792 2.35032,-2.8448124 4.5746,-4.6322962 3.632068,-2.91880981 3.918978,-3.00722291 2.815758,-0.8676742 -1.015968,1.9703423 -0.999718,2.1661424 0.094,1.1322962 1.90952,-1.8049678 2.62847,-1.5572962 3.30509,1.1385831 0.88858,3.540365 6.71621,8.1571293 12.77606,10.1214373 12.04891,3.905668 20.91982,10.992483 25.02242,19.98998 1.88821,4.141086 2.27964,6.717828 2.27861,15 -7.1e-4,5.697133 -0.56905,11.630228 -1.32083,13.788702 -1.04534,3.001292 -1.06446,4.096117 -0.092,5.267862 1.72008,2.07256 0.64514,12.346497 -1.84973,17.679147 -1.09726,2.345359 -2.77052,6.739289 -3.71835,9.764289 -4.44806,14.196077 -15.61709,28.157927 -26.66693,33.335017 -6.28583,2.94504 -14.640608,3.4811 -20.598228,1.32163 z"
     id="path4200"
     inkscape:connector-curvature="0" />
</svg>
