<?xml version="1.0" encoding="UTF-8" standalone="no"?>
<!-- Created with Inkscape (http://www.inkscape.org/) -->

<svg
   xmlns:dc="http://purl.org/dc/elements/1.1/"
   xmlns:cc="http://creativecommons.org/ns#"
   xmlns:rdf="http://www.w3.org/1999/02/22-rdf-syntax-ns#"
   xmlns:svg="http://www.w3.org/2000/svg"
   xmlns="http://www.w3.org/2000/svg"
   xmlns:sodipodi="http://sodipodi.sourceforge.net/DTD/sodipodi-0.dtd"
   xmlns:inkscape="http://www.inkscape.org/namespaces/inkscape"
   id="svg4924"
   version="1.1"
   inkscape:version="0.91 r13725"
   width="225"
   height="225"
   viewBox="0 0 225 225"
   sodipodi:docname="Automation.svg">
  <metadata
     id="metadata4930">
    <rdf:RDF>
      <cc:Work
         rdf:about="">
        <dc:format>image/svg+xml</dc:format>
        <dc:type
           rdf:resource="http://purl.org/dc/dcmitype/StillImage" />
        <dc:title />
      </cc:Work>
    </rdf:RDF>
  </metadata>
  <defs
     id="defs4928" />
  <sodipodi:namedview
     pagecolor="#ffffff"
     bordercolor="#666666"
     borderopacity="1"
     objecttolerance="10"
     gridtolerance="10"
     guidetolerance="10"
     inkscape:pageopacity="0"
     inkscape:pageshadow="2"
     inkscape:window-width="1547"
     inkscape:window-height="876"
     id="namedview4926"
     showgrid="false"
     inkscape:zoom="1.0488889"
     inkscape:cx="-76.049665"
     inkscape:cy="67.888804"
     inkscape:window-x="53"
     inkscape:window-y="24"
     inkscape:window-maximized="1"
     inkscape:current-layer="svg4924" />
  <path
     style="fill:#ffd39e;fill-opacity:1"
     d="M 148.94336 118.74609 C 148.37513 118.61076 146.39164 124.35 144.53516 131.5 C 138.08456 156.34356 128.57167 179.96421 117.82031 197.83594 C 113.34444 205.27605 113.17583 205.44455 111.45508 204.23438 C 109.14967 202.61301 97.631546 180.92491 92.632812 168.79297 C 88.469435 158.68844 80.759261 134.21313 78.994141 125.5 C 78.325622 122.2 77.604587 119.20844 77.392578 118.85156 C 76.877784 117.98498 60.420953 124.72261 45.181641 132.03906 C 35.037275 136.90941 31.755834 139.06082 26.597656 144.22656 C 16.085218 154.75442 8.5208425 172.7626 7.3183594 190.12305 L 6.7207031 198.74609 L 14.609375 201.78711 C 27.785255 206.86318 49.401764 210.75106 76.5 212.91992 C 91.370084 214.11011 131.46405 214.12541 148 212.94727 C 171.75781 211.2546 194.27146 207.36447 207.9375 202.58984 C 218.43448 198.92241 218.37487 199.00306 217.66406 189.51758 C 215.83744 165.14221 203.39003 144.17191 185 134.48438 C 178.51425 131.06781 151.89748 119.44964 148.94336 118.74609 z M 109.4375 140.69336 C 105.77986 140.66179 102.97715 140.82589 102.60938 141.13477 C 101.83102 141.78847 103.03015 150.7816 104.625 156.25 C 105.05099 157.71063 106.34471 158 112.44922 158 L 119.76172 158 L 120.79102 153.75 C 121.3568 151.4125 122.1168 147.63268 122.48047 145.34961 L 123.14258 141.19727 L 113.32031 140.79102 C 111.9699 140.73517 110.65671 140.70388 109.4375 140.69336 z M 111.79688 160.69336 C 110.45592 160.68652 109.1833 160.72355 108.30469 160.80859 C 105.19213 161.10987 105.06739 161.31463 103.42188 168.71094 L 101.73242 176.30273 L 104.44922 181.90234 C 105.94351 184.98157 108.28856 189.43873 109.66016 191.80859 C 112.41477 196.56802 113.76607 196.39251 116.00781 190.98047 C 116.68081 189.3557 117.70034 188.31498 118.27148 188.66797 C 118.85205 189.02678 119.0119 188.82701 118.63477 188.2168 C 118.26377 187.6165 119.15352 184.69125 120.61328 181.71484 L 123.26758 176.30273 L 121.58789 168.74805 L 119.90625 161.19336 L 115.70312 160.84766 C 114.5472 160.75225 113.13781 160.70019 111.79688 160.69336 z "
     id="path5491" />
  <path
     style="fill:#423b38;fill-opacity:1"
     d="m 147.29648,133.52514 -0.01,-4.11545 -3.25408,-1.25978 -3.25408,-1.25978 -2.98036,2.94334 -2.98035,2.94333 -3.03457,-2.99688 -3.03457,-2.99687 3.05461,-2.94404 3.0546,-2.94404 -1.5732,-3.54781 -1.57319,-3.5478 -4.12333,0 -4.12331,0 0,-4.25736 0,-4.25736 4.12331,0 4.12333,0 1.48215,-3.3535 1.48215,-3.35349 -3.05182,-3.013917 -3.05183,-3.013918 2.96298,-3.000248 2.96298,-3.000254 3.14001,3.03118 3.14001,3.031179 3.12206,-1.287273 3.12207,-1.287273 0.16579,-4.296859 0.16579,-4.296853 4.23348,0 4.23349,0 0,4.123317 0,4.123323 3.52507,1.557985 3.52507,1.557984 3.00924,-2.97186 3.00924,-2.971865 2.96069,2.960683 2.96068,2.960688 -2.94961,2.98671 -2.94961,2.98671 1.25978,3.254081 1.25978,3.25408 4.11545,0.01 4.11545,0.01 0,4.25736 0,4.25737 -4.25737,0 c -3.6701,0 -4.25957,0.13702 -4.27335,0.99338 -0.009,0.54636 -0.6086,2.14287 -1.3329,3.5478 l -1.31692,2.55442 3.03585,3.29633 c 1.66972,1.81299 3.03585,3.51741 3.03585,3.78761 0,0.2702 -1.3215,1.64729 -2.93667,3.0602 l -2.93667,2.56893 -3.16555,-3.41089 -3.16555,-3.41089 -2.38508,1.1698 c -1.31179,0.64337 -2.78058,1.16979 -3.26396,1.16979 -0.71531,0 -0.8789,0.79243 -0.8789,4.25736 l 0,4.25736 -4.25736,0 -4.25736,0 -0.01,-4.11545 z m 9.25221,-13.13014 c 2.22609,-0.95518 5.23205,-4.03951 6.04918,-6.20685 0.9897,-2.62512 0.72988,-7.56366 -0.5276,-10.02854 -1.77839,-3.48593 -6.28882,-6.259545 -10.1657,-6.251229 -6.35738,0.01362 -11.96102,5.617269 -11.97465,11.974649 -0.008,3.80584 2.73677,8.34562 6.12951,10.13745 2.52075,1.33129 7.81865,1.52046 10.48926,0.37452 z m -44.15288,8.75696 c -1.83331,-0.7583 -3.72315,-3.13958 -4.45277,-5.61063 -0.4593,-1.55555 -1.31156,-2.72615 -2.63325,-3.61684 -1.07479,-0.7243 -2.72999,-2.42047 -3.67821,-3.76926 -1.657198,-2.35729 -1.735619,-2.74207 -2.022712,-9.92545 -0.182511,-4.5666 -0.59191,-8.02503 -1.052642,-8.892215 -0.414684,-0.780516 -4.249233,-4.867584 -8.521212,-9.082372 -6.245096,-6.161487 -8.183331,-8.464141 -9.890477,-11.750047 -9.954626,-19.160567 -2.633575,-43.23077 16.357115,-53.779049 6.614268,-3.673859 10.417378,-4.575466 19.300038,-4.575466 6.85577,0 8.49274,0.18427 11.92062,1.341841 13.82944,4.670122 23.50542,15.085452 27.05505,29.122366 1.53471,6.068923 1.26044,15.796206 -0.6095,21.617522 l -1.23082,3.831626 -2.38969,0.01391 c -1.31434,0.0076 -3.50904,0.271932 -4.87713,0.58734 -1.36807,0.315403 -2.58515,0.475724 -2.70461,0.356268 -0.11945,-0.119456 0.41642,-1.350844 1.19083,-2.736417 3.5245,-6.306044 4.19054,-17.960484 1.43926,-25.184391 -3.67649,-9.653216 -11.1449,-16.707007 -20.68886,-19.540293 -3.7146,-1.102742 -5.30426,-1.263454 -10.43344,-1.054787 -6.89849,0.280651 -10.9926,1.500056 -15.838106,4.717294 -8.88688,5.90055 -13.675674,14.322214 -14.196679,24.966543 -0.577185,11.792014 1.448888,16.151922 12.658926,27.240732 6.125789,6.059549 8.347669,8.6549 9.354789,10.92723 l 1.32084,2.980153 5.35221,0 c 4.87224,0 5.3161,0.08908 4.94967,0.993385 -0.22139,0.546361 -0.69033,2.462167 -1.04208,4.257357 l -0.63956,3.26398 -4.12748,0 -4.12749,0 0,2.75026 c 0,3.54456 1.03292,4.50532 5.09248,4.73672 l 3.09224,0.17627 0.74333,3.68497 c 0.40884,2.02674 1.49159,5.28393 2.4061,7.2382 l 1.66275,3.55322 -1.64525,0.85079 c -1.77234,0.91652 -5.2587,1.06849 -7.09428,0.30924 z"
     id="path5474"
     inkscape:connector-curvature="0" />
  <rect
     style="fill:#ffd39e;fill-opacity:1;stroke:none;stroke-opacity:1"
     id="rect5501"
     width="6.7796111"
     height="29.726002"
     x="-1.1764842"
     y="46.239624"
     ry="3.3898056"
     transform="matrix(0.5,-0.8660254,0.8660254,0.5,0,0)" />
  <rect
     style="fill:#ffd39e;fill-opacity:1;stroke:none;stroke-opacity:1"
     id="rect5501-3"
     width="6.7796111"
     height="29.726002"
     x="-60.408634"
     y="38.206699"
     ry="3.3898056"
     transform="matrix(0,-1,1,0,0,0)" />
  <rect
     style="fill:#ffd39e;fill-opacity:1;stroke:none;stroke-opacity:1"
     id="rect5501-6"
     width="6.7796111"
     height="29.726002"
     x="-105.19687"
     y="-9.3343134"
     ry="3.3898056"
     transform="matrix(-0.5,-0.8660254,0.8660254,-0.5,0,0)" />
</svg>
