<?xml version="1.0" encoding="UTF-8" standalone="no"?>
<!-- Created with Inkscape (http://www.inkscape.org/) -->

<svg
   xmlns:dc="http://purl.org/dc/elements/1.1/"
   xmlns:cc="http://creativecommons.org/ns#"
   xmlns:rdf="http://www.w3.org/1999/02/22-rdf-syntax-ns#"
   xmlns:svg="http://www.w3.org/2000/svg"
   xmlns="http://www.w3.org/2000/svg"
   xmlns:sodipodi="http://sodipodi.sourceforge.net/DTD/sodipodi-0.dtd"
   xmlns:inkscape="http://www.inkscape.org/namespaces/inkscape"
   version="1.1"
   id="svg894"
   width="373.26505"
   height="89.229706"
   viewBox="0 0 373.26505 89.229706"
   sodipodi:docname="CBC.svg"
   inkscape:version="0.92.3 (2405546, 2018-03-11)">
  <metadata
     id="metadata900">
    <rdf:RDF>
      <cc:Work
         rdf:about="">
        <dc:format>image/svg+xml</dc:format>
        <dc:type
           rdf:resource="http://purl.org/dc/dcmitype/StillImage" />
        <dc:title></dc:title>
      </cc:Work>
    </rdf:RDF>
  </metadata>
  <defs
     id="defs898" />
  <sodipodi:namedview
     pagecolor="#ffffff"
     bordercolor="#666666"
     borderopacity="1"
     objecttolerance="10"
     gridtolerance="10"
     guidetolerance="10"
     inkscape:pageopacity="0"
     inkscape:pageshadow="2"
     inkscape:window-width="1555"
     inkscape:window-height="845"
     id="namedview896"
     showgrid="false"
     fit-margin-top="0"
     fit-margin-left="0"
     fit-margin-right="0"
     fit-margin-bottom="0"
     inkscape:zoom="1.6946565"
     inkscape:cx="129.22973"
     inkscape:cy="31.063867"
     inkscape:window-x="45"
     inkscape:window-y="27"
     inkscape:window-maximized="1"
     inkscape:current-layer="svg894" />
  <path
     style="fill:#ffd39e;fill-opacity:1;stroke-width:1.46341097"
     d="m 134.08007,88.226534 c -0.57284,-0.57283 0.42326,-2.146409 2.21356,-3.496814 l 3.2551,-2.455297 -3.18921,-7.67392 c -3.77804,-9.090713 -3.88748,-10.210409 -0.99819,-10.210409 1.20503,0 3.11174,2.140235 4.23725,4.756058 l 2.0464,4.756115 1.75949,-4.756115 c 1.14028,-3.082243 2.73921,-4.756058 4.54323,-4.756058 1.53106,0 2.78357,0.183645 2.78357,0.408064 0,1.538427 -8.55157,20.235702 -10.11889,22.124348 -2.06147,2.48394 -4.80475,3.031574 -6.53231,1.304028 z M 266.34072,77.121987 v -12.3607 l 6.53542,-0.131231 c 4.07278,-0.0817 7.38116,0.714794 8.78052,2.114088 5.39512,5.395216 0.0201,17.705208 -7.13304,16.337681 -2.50623,-0.47911 -3.21825,0.05706 -3.14955,2.372074 0.0507,1.722817 -0.99716,3.211082 -2.47241,3.509925 -2.27794,0.461462 -2.56094,-0.847738 -2.56094,-11.841877 z m 11.64917,-0.22267 c 2.41042,-2.90451 0.50466,-8.119001 -2.96754,-8.119001 -1.55521,0 -2.91025,0.658551 -3.01087,1.463429 -0.10068,0.804868 -0.30554,2.286568 -0.45561,3.292667 -0.30987,2.078723 1.90492,5.487801 3.56542,5.487801 0.60784,0 1.89865,-0.956205 2.8686,-2.124896 z M 0,61.503491 V 39.592474 L 20.696503,39.186429 C 38.132766,38.844357 41.634895,38.396304 42.928667,36.342086 44.041995,34.574321 43.935326,33.26638 42.540739,31.58602 40.954695,29.675002 37.053036,29.268239 20.308573,29.268239 H 0 V 14.634117 0 H 43.902333 87.804664 V 25.609701 51.21939 H 71.661208 c -13.59588,0 -16.288414,0.377781 -17.062126,2.394026 -2.156254,5.619171 1.304863,7.098174 17.629759,7.533516 l 15.575823,0.415356 V 72.488363 83.41443 H 43.902333 0 Z m 108.29241,8.429275 c 0,-10.455264 0.41045,-12.859763 2.19515,-12.859763 1.36585,0 2.19507,1.38215 2.19507,3.658561 0,3.045154 0.69809,3.65853 4.16343,3.65853 8.29005,0 12.06268,10.210182 5.89571,15.95562 -2.11994,1.97498 -4.91835,2.82687 -8.78049,2.672855 l -5.66887,-0.226064 z m 11.44275,3.476608 c 0.41783,-4.344851 0.1095,-4.808257 -2.91183,-4.378258 -3.46762,0.493531 -5.04607,4.059575 -3.5372,7.991604 1.55837,4.060963 5.94771,1.601654 6.44903,-3.613346 z m 62.18937,8.531441 c -6.68257,-2.692465 -8.64146,-14.501948 -3.34792,-20.183887 5.09388,-5.467569 14.82823,-6.325182 15.77876,-1.390145 0.40102,2.082415 -0.27913,2.375251 -3.85523,1.66002 -5.00705,-1.001398 -10.50062,3.297423 -10.50062,8.216942 0,4.936554 5.38334,9.116336 10.33928,8.027804 3.23357,-0.710158 4.29483,-0.410773 4.29483,1.211524 0,3.727357 -6.45827,4.97629 -12.7091,2.457742 z m 22.97654,-2.487418 c -5.29845,-6.735785 -1.61764,-15.063303 6.65805,-15.063303 8.82783,0 12.23307,9.023247 5.82396,15.432334 -4.66447,4.664469 -8.61491,4.547689 -12.48201,-0.369031 z m 9.97169,-5.404854 c 0.53811,-4.698493 -2.2824,-7.418449 -5.19,-5.005309 -2.01068,1.668762 -2.54644,7.36167 -0.85212,9.055943 2.22379,2.223851 5.5814,-0.02716 6.04212,-4.050634 z m 15.88876,8.420777 c -0.55326,-0.553359 -1.00595,-4.758965 -1.00595,-9.34582 v -8.339697 l 11.73616,-0.04671 c 10.13616,-0.04034 11.94275,0.339378 13.25198,2.785873 2.26471,4.231666 1.1301,15.159818 -1.5735,15.159818 -1.58066,0 -2.32013,-1.946186 -2.64121,-6.951185 -0.30455,-4.745905 -1.09161,-6.951235 -2.48084,-6.951235 -1.38924,0 -2.17627,2.20533 -2.48073,6.951235 -0.32123,5.004999 -1.06081,6.951185 -2.64121,6.951185 -1.58051,0 -2.31986,-1.946186 -2.64113,-6.951185 -0.61234,-9.548136 -4.34058,-9.634096 -4.96163,-0.114374 -0.41803,6.408522 -2.25149,9.162507 -4.56194,6.852183 z m 65.0999,-0.851285 c -2.59709,-2.597099 -2.25809,-17.227941 0.39911,-17.227941 1.48491,0 2.24782,2.070842 2.56103,6.951209 0.32111,5.004992 1.06027,6.951199 2.64108,6.951199 1.58059,0 2.32007,-1.946207 2.64118,-6.951199 0.31324,-4.880367 1.07635,-6.951209 2.56096,-6.951209 1.53307,0 2.17515,2.013175 2.33446,7.317056 0.12108,4.024388 0.28553,8.10689 0.36572,9.072276 0.19605,2.349468 -11.27995,3.062132 -13.50354,0.838609 z m 26.14053,-1.034212 c -0.83319,-1.556835 -1.51499,-4.717802 -1.51499,-7.024374 0,-2.306569 -0.66203,-4.855924 -1.47145,-5.665246 -0.98631,-0.986357 -0.48502,-2.530218 1.52041,-4.68289 3.4775,-3.73253 5.80481,-4.140011 5.80481,-1.01634 0,1.20731 0.98775,2.195121 2.19497,2.195121 1.20715,0 2.19508,0.987812 2.19508,2.195116 0,1.207315 -0.98793,2.195106 -2.19508,2.195106 -1.53304,0 -2.19497,1.544734 -2.19497,5.121951 0,2.817066 0.65865,5.121946 1.46323,5.121946 0.80501,0 1.46354,0.987797 1.46354,2.195144 0,3.177345 -5.48157,2.697895 -7.26555,-0.635534 z m 18.97293,-0.09618 c -5.93658,-5.936505 -2.12283,-16.097528 6.04201,-16.097528 4.52382,0 7.12864,2.513319 7.12864,6.878054 0,2.967846 -0.71332,3.365829 -6.03287,3.365829 -5.333,0 -5.8104,0.268284 -4.11327,2.312798 1.09996,1.325493 3.3316,2.042814 5.22758,1.680348 3.77068,-0.720868 5.90992,2.6303 2.5113,3.934503 -4.12139,1.581538 -7.82068,0.86872 -10.76339,-2.074004 z m 8.78036,-10.819019 c 0,-1.38823 -4.38055,-2.087883 -5.16138,-0.824358 -0.47581,0.769728 0.49054,1.399502 2.14812,1.399502 1.65745,0 3.01326,-0.258824 3.01326,-0.575144 z m 14.63406,4.233663 v -9.512169 h 4.39041 c 4.6628,0 6.17606,3.391769 2.19502,4.919442 -1.50445,0.577281 -2.19502,2.929142 -2.19502,7.473605 0,4.918886 -0.56695,6.631287 -2.19552,6.631287 -1.72575,0 -2.19489,-2.032503 -2.19489,-9.512161 z M 119.44258,54.182944 c -10.02661,-3.209222 -16.0703,-12.940217 -15.97726,-25.724901 0.077,-10.571772 2.81551,-16.530908 10.17736,-22.146061 4.49365,-3.427498 7.02024,-4.154221 15.73329,-4.525436 11.39719,-0.485577 14.81466,0.779473 13.47832,4.98952 -0.74681,2.352902 -2.37533,2.750131 -11.24879,2.743669 -9.8722,-0.0067 -10.58297,0.224314 -14.64921,4.77162 -3.67838,4.113519 -4.27059,5.94794 -4.25208,13.17069 0.026,10.388791 2.2062,14.945379 8.77932,18.354524 3.80972,1.975918 7.00791,2.44049 12.63011,1.834643 6.15635,-0.663465 7.69841,-0.367674 8.46247,1.623147 0.51374,1.338945 0.33014,3.038408 -0.40801,3.776568 -1.93297,1.933215 -17.75922,2.721544 -22.72552,1.132017 z m 30.90624,-1.487001 c -3.1245,-2.457577 -4.00766,-4.390442 -4.00766,-8.769731 0,-7.1282 5.93792,-12.58899 15.19916,-13.977776 5.32126,-0.797972 6.28353,-1.42368 5.68851,-3.698683 -0.80436,-3.07631 -4.9564,-4.857575 -8.81476,-3.781617 -1.40836,0.392817 -4.04242,1.140109 -5.85344,1.660644 -2.77584,0.797892 -3.29246,0.383985 -3.29246,-2.636966 0,-3.025584 1.02455,-3.841476 6.5829,-5.2411 7.50107,-1.88877 15.48779,0.422006 18.00997,5.210712 0.77765,1.476671 1.67789,9.451783 2.00018,17.722449 l 0.58629,15.03759 -5.90686,-0.09283 c -3.24873,-0.05104 -8.21931,0.314937 -11.04526,0.813419 -3.97193,0.70052 -6.04913,0.190405 -9.14657,-2.246033 z m 15.26745,-6.825297 c 1.47171,-1.332032 2.67611,-3.966199 2.67611,-5.853645 0,-2.708377 -0.79161,-3.431728 -3.75489,-3.431728 -5.58512,0 -9.41594,2.60097 -9.41594,6.392953 0,1.849697 0.43909,3.80216 0.97573,4.33874 1.77617,1.776256 6.80159,1.012674 9.51899,-1.44632 z m 29.94636,6.705939 c -3.19623,-2.514239 -3.85574,-2.639402 -3.85574,-0.731709 0,1.479153 -1.30699,2.301351 -3.65849,2.301351 h -3.6585 V 27.073111 0 h 4.39018 4.39015 v 10.470698 c 0,10.323934 0.0398,10.434121 2.88218,7.862335 1.69281,-1.531918 5.37092,-2.673605 8.91246,-2.766461 5.18703,-0.136061 6.72804,0.603228 11.02017,5.286871 4.43778,4.842385 4.98997,6.353636 4.98997,13.655306 0,9.789321 -3.047,15.739791 -9.6692,18.882121 -6.38781,3.03135 -11.16851,2.784088 -15.74318,-0.814285 z m 13.70512,-7.210836 c 3.75383,-3.753454 4.0572,-15.349706 0.50503,-19.274964 -3.03861,-3.357561 -11.1638,-3.507682 -13.86234,-0.256175 -1.15829,1.395705 -2.00836,5.781652 -2.00836,10.361847 0,6.172539 0.6327,8.404558 2.84058,10.018955 4.00102,2.925666 9.09542,2.580095 12.52509,-0.849663 z m 85.35421,8.108574 c -6.74472,-2.933769 -9.88392,-8.588999 -9.88392,-17.805163 0,-9.262935 3.26008,-14.582592 11.42222,-18.638042 4.88168,-2.425553 6.06001,-2.50584 10.72394,-0.730703 6.7679,2.575842 10.59686,7.830957 11.04771,15.162895 l 0.35995,5.853677 -12.80482,0.42283 c -7.04246,0.232558 -12.80487,0.966923 -12.80487,1.631906 0,0.664998 1.40817,2.999166 3.12951,5.187049 2.84765,3.620686 3.86628,3.934143 11.34103,3.490029 7.42966,-0.441433 8.2546,-0.192969 8.65417,2.606644 0.34893,2.4466 -0.53192,3.289289 -4.20734,4.024396 -6.94423,1.388836 -11.80715,1.043527 -16.97758,-1.205518 z M 310.2431,29.268239 c 0,-2.453616 -5.6854,-7.317065 -8.55367,-7.317065 -1.48489,0 -3.68961,1.152433 -4.8993,2.560969 -4.97605,5.794379 -4.66269,6.219488 4.58614,6.219488 4.93565,0 8.86683,-0.648815 8.86683,-1.463392 z m 20.04409,23.379578 c -3.75982,-2.957461 -3.94646,-3.722138 -3.94646,-16.168749 0,-12.088881 -0.21877,-13.064489 -2.92693,-13.064489 -2.1462,0 -2.92684,-0.975605 -2.92684,-3.658523 0,-2.682924 0.78064,-3.658531 2.92684,-3.658531 2.1083,0 2.92693,-0.97562 2.92693,-3.487852 0,-2.379965 1.04585,-3.76813 3.29249,-4.370246 5.17369,-1.386449 5.48784,-1.187875 5.48784,3.467868 0,3.902435 0.48791,4.39023 4.39034,4.39023 3.70708,0 4.39016,0.569111 4.39016,3.658531 0,3.100235 -0.67898,3.658523 -4.44938,3.658523 h -4.44932 l 0.42498,12.073142 c 0.42351,12.028551 0.44018,12.074872 4.53742,12.544696 3.27906,0.375997 4.02035,1.117222 3.65842,3.658512 -0.64478,4.528365 -8.11496,5.064333 -13.33649,0.956888 z m 19.83418,1.531033 c -6.79606,-2.893026 -3.07676,-6.933687 6.21931,-6.757027 6.38817,0.121418 7.37299,-0.253912 7.75878,-2.956757 0.34481,-2.415976 -1.00715,-3.776882 -6.15601,-6.197193 -3.62881,-1.705778 -7.28504,-4.385183 -8.12476,-5.954297 -5.38627,-10.06434 5.57557,-20.152733 17.41366,-16.025985 3.15119,1.098527 4.38827,2.313068 3.8319,3.762558 -0.45155,1.17723 -0.82148,2.728774 -0.82148,3.447897 0,0.727969 -1.70707,0.658404 -3.85155,-0.156971 -4.94089,-1.878468 -9.31895,-0.483907 -9.31895,2.968402 0,1.755612 2.33641,3.828675 6.69055,5.936511 9.63396,4.663666 11.90475,11.516085 6.0661,18.304055 -3.70496,4.307186 -13.76366,6.159293 -19.70755,3.628807 z M 228.2921,35.121865 v -19.02434 h 4.39028 4.39026 v 19.02434 19.024362 h -4.39026 -4.39028 z m 17.561,4.573163 c 0,-7.948147 -0.41157,-16.509104 -0.91471,-19.024341 -0.8639,-4.320078 -0.66832,-4.573162 3.53664,-4.573162 2.44812,0 4.68389,0.698058 4.9683,1.551238 0.33362,1.000902 2.06416,0.744494 4.87805,-0.722689 5.39671,-2.813991 5.74354,-2.814784 11.61991,-0.02634 6.61934,3.141124 8.10669,7.43689 8.10669,23.412928 v 13.833576 h -4.39018 -4.39014 V 40.423013 c 0,-15.159629 -1.19293,-17.569082 -8.29226,-16.748307 -5.71519,0.66078 -7.75812,5.681606 -7.78375,19.130085 -0.0206,11.116179 -0.0934,11.341459 -3.68001,11.341459 -3.65549,0 -3.65854,-0.0083 -3.65854,-14.451204 z M 227.53565,8.70237 c -1.39683,-4.401125 2.72717,-8.558818 6.27177,-6.322953 1.39336,0.878951 2.53345,3.172662 2.53345,5.097138 0,4.903136 -7.315,5.921475 -8.80522,1.225815 z"
     id="path5150"
     inkscape:connector-curvature="0" />
</svg>
