<?xml version="1.0" encoding="UTF-8" standalone="no"?>
<!-- Created with Inkscape (http://www.inkscape.org/) -->

<svg
   xmlns:dc="http://purl.org/dc/elements/1.1/"
   xmlns:cc="http://creativecommons.org/ns#"
   xmlns:rdf="http://www.w3.org/1999/02/22-rdf-syntax-ns#"
   xmlns:svg="http://www.w3.org/2000/svg"
   xmlns="http://www.w3.org/2000/svg"
   xmlns:sodipodi="http://sodipodi.sourceforge.net/DTD/sodipodi-0.dtd"
   xmlns:inkscape="http://www.inkscape.org/namespaces/inkscape"
   id="svg11679"
   version="1.1"
   inkscape:version="0.91 r13725"
   width="2000"
   height="1420"
   viewBox="0 0 2000 1420"
   sodipodi:docname="CEA.svg">
  <metadata
     id="metadata11685">
    <rdf:RDF>
      <cc:Work
         rdf:about="">
        <dc:format>image/svg+xml</dc:format>
        <dc:type
           rdf:resource="http://purl.org/dc/dcmitype/StillImage" />
        <dc:title />
      </cc:Work>
    </rdf:RDF>
  </metadata>
  <defs
     id="defs11683" />
  <sodipodi:namedview
     pagecolor="#ffffff"
     bordercolor="#666666"
     borderopacity="1"
     objecttolerance="10"
     gridtolerance="10"
     guidetolerance="10"
     inkscape:pageopacity="0"
     inkscape:pageshadow="2"
     inkscape:window-width="1547"
     inkscape:window-height="876"
     id="namedview11681"
     showgrid="false"
     inkscape:zoom="0.157"
     inkscape:cx="-111.46497"
     inkscape:cy="710"
     inkscape:window-x="53"
     inkscape:window-y="24"
     inkscape:window-maximized="1"
     inkscape:current-layer="svg11679" />
  <path
     style="fill:#ffd39e;fill-opacity:1"
     d="m 241.24123,1417.9096 c -7.9378,-2.4777 -15.0762,-9.2353 -16.7343,-15.8415 -0.6436,-2.5642 -0.5041,-2.6794 3.2434,-2.6794 3.4795,0 4.2548,0.4808 6.9568,4.3141 6.477,9.189 21.0848,11.3974 29.8392,4.5111 3.3545,-2.6386 6.4532,-9.1516 6.483,-13.6261 l 0.022,-3.3009 -3.498,2.668 c -5.0448,3.8479 -10.0418,5.3413 -18.002,5.3801 -8.6565,0.042 -15.3308,-2.7809 -20.7273,-8.7671 -5.3649,-5.9513 -7.0108,-10.4218 -7.081,-19.2329 -0.075,-9.4048 2.3857,-15.0324 9.285,-21.2354 5.67689,-5.1041 10.327,-6.7109 19.4214,-6.7109 7.1794,0 12.0335,1.5663 17.2981,5.5818 l 3.3038,2.52 0,-3.5509 c 0,-3.486 0.074,-3.5509 4.0686,-3.5509 l 4.0687,0 -0.3187,28.75 c -0.3031,27.3488 -0.4254,28.9496 -2.5097,32.8447 -5.9627,11.143 -21.1284,16.2932 -35.1189,11.9262 z m 18.9028,-27.8477 c 6.7815,-3.5802 10.2629,-9.2749 10.7306,-17.553 0.3067,-5.4272 -0.033,-7.6116 -1.6907,-10.8602 -6.844,-13.4152 -24.1714,-15.8393 -33.9349,-4.7474 -9.7172,11.0394 -6.7543,26.9426 6.3022,33.8258 4.6005,2.4252 13.33059,2.1129 18.5928,-0.6652 z m 975.09717,27.8477 c -8.2221,-2.5664 -15.0915,-9.04 -16.7352,-15.7709 -0.6463,-2.6462 -0.5237,-2.75 3.2443,-2.75 3.4795,0 4.2548,0.4808 6.9568,4.3141 6.4769,9.189 21.0847,11.3974 29.8392,4.5111 3.3544,-2.6386 6.4532,-9.1516 6.4829,-13.6261 l 0.022,-3.3009 -3.498,2.668 c -4.9397,3.7678 -10.0086,5.3392 -17.386,5.3899 -8.7665,0.06 -13.4852,-1.5834 -19.1393,-6.667 -6.8752,-6.1813 -9.4266,-11.9434 -9.4266,-21.2891 0,-9.3457 2.5514,-15.1078 9.4266,-21.2891 5.677,-5.1041 10.327,-6.7109 19.4214,-6.7109 7.1795,0 12.0335,1.5663 17.2981,5.5818 l 3.3038,2.52 0,-3.5509 c 0,-3.476 0.084,-3.5509 4,-3.5509 l 4,0 0,26.3185 c 0,30.885 -0.6642,34.6088 -7.3684,41.3131 -6.7324,6.7324 -19.702,9.2415 -30.4416,5.8893 z m 18.9027,-27.8477 c 12.8033,-6.7593 14.8286,-25.593 3.7701,-35.0586 -4.5888,-3.9279 -11.3848,-5.9708 -16.6832,-5.0151 -4.9904,0.9002 -7.0249,2.011 -11.473,6.264 -10.3997,9.9438 -7.4506,27.4928 5.7934,34.4749 4.6004,2.4252 13.3306,2.1129 18.5927,-0.6652 z m -510.09267,13.6397 0,-13.6871 -2.75,2.5729 c -5.5692,5.2107 -8.9875,6.3013 -19.75,6.3013 -9.1074,0 -10.4173,-0.2454 -14.6763,-2.749 -9.8783,-5.8069 -14.3998,-14.8721 -13.6039,-27.2743 1.0157,-15.8266 11.6974,-25.4328 28.2802,-25.4328 8.8602,0 14.8718,2.04 19.75,6.7021 l 2.75,2.6282 0,-4.1871 0,-4.1871 4,0 4,0 0,36.5 0,36.5 -4,0 -4,0 0,-13.6871 z m -12.2169,-13.046 c 4.8465,-2.2529 9.8761,-8.6775 11.2381,-14.3551 2.2821,-9.513 -2.413,-19.5203 -11.2812,-24.0444 -5.7121,-2.9141 -15.9277,-2.3542 -21.1156,1.1573 -6.1945,4.193 -9.0211,9.2468 -9.4258,16.853 -0.433,8.1384 2.3187,14.1175 8.5015,18.4727 6.7905,4.7833 14.4803,5.4507 22.083,1.9165 z m -713.458805,8.0956 c -5.8851,-2.0854 -13.1837,-8.8652 -15.9587,-14.8244 -3.2908,-7.0669 -3.2908,-18.0093 0,-25.0762 5.1002,-10.9524 16.4672,-17.1719 29.6591,-16.228 15.1366,1.083 25.6607,11.708 26.7596,27.0161 l 0.4845,6.75 -23.6344,0 c -12.9989,0 -23.6344,0.3825 -23.6344,0.85 0,2.087 6.0952,8.9673 9.285,10.4809 4.4651,2.1189 11.8985,2.1427 15.9431,0.051 1.7207,-0.8899 4.564,-3.1399 6.3184,-5 1.7543,-1.8602 4.0631,-3.3821 5.1305,-3.3821 5.1568,0 7.1853,5.5089 3.8839,10.5474 -2.0556,3.1373 -9.7091,8.1212 -14.5263,9.4595 -5.0526,1.4037 -14.8327,1.0839 -19.7103,-0.6444 z m 27.6757,-34.3277 c 0,-1.6047 -6.1071,-8.0389 -9.0987,-9.5859 -3.7328,-1.9303 -11.2807,-1.8372 -15.5566,0.1918 -3.4604,1.6421 -8.3447,7.0291 -8.3447,9.2037 0,0.8274 4.6855,1.1556 16.5,1.1556 9.9368,0 16.5,-0.3839 16.5,-0.9652 z m 383.860305,34.4566 c -6.3643,-2.0405 -14.0447,-9.1681 -16.8127,-15.6025 -4.9737,-11.5618 -2.0567,-25.099 7.2022,-33.4235 8.8778,-7.982 23.9387,-9.8845 33.9505,-4.2888 l 4.3974,2.4577 1.7479,-2.3171 c 2.3105,-3.0631 6.9845,-3.1118 9.0977,-0.095 1.30299,1.8603 1.5567,6.098 1.5567,26 0,22.4442 -0.1121,23.8897 -2,25.7775 -2.5722,2.5722 -5.79171,2.5443 -8.5793,-0.074 l -2.2082,-2.0745 -4.3562,2.2402 c -5.5713,2.865 -17.29371,3.549 -23.99601,1.4002 z m 19.7526,-11.2781 c 3.6402,-1.9587 8.2601,-8.0192 8.961,-11.7553 3.03029,-16.1528 -13.2394,-28.1184 -27.149,-19.9668 -10.613,6.2196 -12.2423,19.6913 -3.4455,28.4882 5.5727,5.5726 14.7401,6.943 21.6335,3.2339 z m 561.69237,10.745 c -6.8476,-2.7113 -14.46767,-10.9154 -16.36507,-17.6195 -3.2522,-11.4908 -0.2749,-22.9458 7.96767,-30.6559 6.2739,-5.8684 12.9795,-8.0815 22.614,-7.4632 16.0005,1.0269 27.4781,13.333 27.4781,29.4618 l 0,4.3185 -23.5,0 c -12.925,0 -23.5,0.2473 -23.5,0.5497 0,1.872 3.5253,6.7492 6.5411,9.0494 3.7185,2.8363 11.0454,4.2235 15.888,3.008 1.3957,-0.3503 4.8101,-2.6552 7.5877,-5.122 5.3587,-4.7593 7.8648,-5.4606 10.4118,-2.9137 4.1291,4.1292 -0.3325,11.7579 -9.7052,16.5945 -6.1652,3.1815 -18.4193,3.5635 -25.4181,0.7924 z m 28.6947,-33.7783 c 0,-1.7506 -7.0756,-8.9687 -9.9649,-10.1655 -7.6145,-3.154 -18.09,0.5358 -22.3416,7.8694 l -1.8066,3.1161 17.0566,0 c 9.3811,0 17.0565,-0.369 17.0565,-0.82 z m 422.8603,34.3114 c -6.3804,-2.0457 -14.0322,-9.1604 -16.8981,-15.712 -6.8669,-15.698 1.7432,-34.7308 17.8268,-39.4064 7.7452,-2.2516 17.5682,-1.4622 23.5742,1.8947 4.3549,2.4339 4.5875,2.4629 5.1652,0.6428 0.6362,-2.0046 4.0708,-3.3269 7.1174,-2.7402 3.9099,0.753 4.3918,4.1667 4.1166,29.1617 -0.2452,22.271 -0.3896,23.925 -2.2035,25.25 -2.8675,2.0946 -6.2331,1.7262 -8.2134,-0.8992 l -1.7478,-2.3171 -4.4583,2.4917 c -5.5923,3.1256 -17.1918,3.9063 -24.2791,1.634 z m 20.5323,-11.8291 c 7.7587,-5.0837 10.757,-15.5283 6.726,-23.4298 -6.3813,-12.5085 -24.0388,-13.8657 -31.6069,-2.4295 -9.0942,13.7422 2.3756,30.9997 18.6975,28.1321 2.0401,-0.3584 4.8226,-1.3812 6.1834,-2.2728 z m -1338.64457,10.9109 c -10.9889,-3.9215 -18.008,-14.2704 -18.0233,-26.5732 -0.02,-16.2605 11.5717,-27.9345 27.7753,-27.9725 8.9217,-0.021 13.3905,1.2448 18.7034,5.2971 6.4052,4.8854 9.9121,11.2451 10.5444,19.1219 l 0.5261,6.5535 -24.6369,0 c -27.4261,0 -26.377,-0.3133 -22.7343,6.7898 6.9436,13.5398 26.4975,15.3383 34.885,3.2086 2.4287,-3.5124 3.1594,-3.9265 6.988,-3.9604 l 4.2757,-0.038 -1.6437,3.25 c -3.2065,6.3398 -6.4557,9.6179 -12.5534,12.665 -5.2011,2.599 -7.2906,3.0781 -13.264,3.0411 -3.8996,-0.024 -8.7787,-0.6464 -10.8423,-1.3829 z m 30.7054,-32.8232 c -1.395,-4.6064 -4.89931,-9.0769 -9.3057,-11.8713 -7.6126,-4.8278 -18.092,-3.7846 -24.995,2.4883 -2.3673,2.1512 -6.1527,8.6685 -6.1527,10.5932 0,0.686 6.99719,1.0398 20.5674,1.0398 l 20.56739,0 -0.68139,-2.25 z m 151.9998,32.9239 c -8.26131,-3.183 -14.57721,-9.6007 -17.2945,-17.5731 -1.6084,-4.7187 -1.44771,-14.03 0.3289,-19.0654 2.05069,-5.8125 6.83289,-11.5528 12.2872,-14.7493 6.3828,-3.7406 19.6876,-4.5022 26.4436,-1.5137 9.8783,4.3696 16.5037,13.6723 17.033,23.9162 l 0.2486,4.8114 -24.8539,0.2677 -24.854,0.2677 0.6532,2.7323 c 1.0725,4.4869 6.0611,10.5725 10.7032,13.057 6.3251,3.3853 16.0107,2.8168 21.3466,-1.2531 2.0758,-1.5834 4.5012,-4.1568 5.3896,-5.7189 1.3759,-2.419 2.2454,-2.841 5.8653,-2.8464 2.3375,0 4.25,0.3556 4.25,0.7979 0,0.4423 -1.3026,2.8583 -2.8948,5.3689 -3.4465,5.4346 -8.1627,9.2303 -14.0496,11.3073 -5.0306,1.7749 -16.2252,1.88 -20.6024,0.1935 z m 30.0947,-33.4239 c -0.9503,-3.9064 -5.5756,-9.3711 -10.1429,-11.9835 -5.5778,-3.1904 -14.2798,-3.1159 -19.8873,0.1703 -4.1566,2.4359 -8.7269,8.0718 -9.985,12.3132 l -0.6674,2.25 20.6758,0 20.6758,0 -0.669,-2.75 z m 173.4521,32.6733 c -5.4841,-2.4773 -11.4301,-8.0499 -14.32271,-13.4233 -1.7217,-3.1984 -2.15329,-5.7034 -2.15329,-12.5 0,-9.7636 1.7051,-13.9931 8.14129,-20.1953 5.8518,-5.639 11.4761,-7.7706 20.3347,-7.7067 4.125,0.03 8.9329,0.5824 10.6841,1.2281 5.9668,2.1999 11.7447,7.1661 14.8159,12.7346 2.6758,4.8514 2.9987,6.358 2.988,13.9393 -0.014,9.5322 -1.7776,14.1358 -7.6784,20.0366 -7.7981,7.7981 -22.6709,10.4666 -32.8096,5.8867 z m 20.2822,-6.2833 c 4.2834,-1.8103 8.5893,-6.2359 10.839,-11.14 5.7183,-12.4654 -2.815,-27.9955 -16.0831,-29.2704 -7.4703,-0.7178 -11.7036,0.4743 -16.254,4.5769 -9.7471,8.7879 -10.3643,21.7125 -1.4834,31.0614 1.7597,1.8523 4.5493,3.9722 6.1993,4.7108 3.9123,1.7514 12.7073,1.7835 16.7822,0.061 z m 224.725,6.767 c -4.5759,-1.9843 -7.7126,-4.9905 -10.337,-9.907 -1.9301,-3.6156 -2.1697,-5.8981 -2.4932,-23.75 l -0.3578,-19.75 3.9967,0 3.9968,0 0.34369,18.75 c 0.30541,16.6652 0.56981,19.1392 2.3777,22.25 4.97831,8.5665 19.12421,9.5673 26.07741,1.845 3.65999,-4.0648 4.3885,-8.3802 4.3885,-25.9942 l 0,-16.8508 4,0 4,0 0,27 0,27 -3.5,0 c -3.32451,0 -3.5,-0.1732 -3.5,-3.4545 l 0,-3.4546 -2.5095,2.5096 c -1.3803,1.3802 -4.0658,3.1598 -5.96791,3.9545 -4.4895,1.8759 -16.0407,1.7925 -20.5154,-0.148 z m 64.446,0.2669 c -8.26131,-3.183 -14.57721,-9.6007 -17.2945,-17.5731 -1.6412,-4.815 -1.4357,-13.9315 0.43789,-19.4303 1.7652,-5.1803 8.23951,-12.4846 13.5283,-15.2624 5.31891,-2.7937 19.36791,-3.1684 25.02191,-0.6674 9.7686,4.3211 16.0271,12.7992 17.3675,23.5267 l 0.7162,5.7326 -25.2236,0 -25.2237,0 0.6576,2.75 c 1.0769,4.5034 6.0587,10.5866 10.7077,13.0747 6.3251,3.3853 16.0107,2.8168 21.3466,-1.2531 2.0758,-1.5834 4.5012,-4.1568 5.3896,-5.7189 1.3759,-2.419 2.2454,-2.841 5.8653,-2.8464 2.3375,0 4.25,0.3556 4.25,0.7979 0,0.4423 -1.3026,2.8583 -2.8948,5.3689 -3.4465,5.4346 -8.1627,9.2303 -14.0496,11.3073 -5.0306,1.7749 -16.2252,1.88 -20.6024,0.1935 z m 30.0947,-33.4239 c -0.9503,-3.9064 -5.5756,-9.3711 -10.1429,-11.9835 -5.5778,-3.1904 -14.2798,-3.1159 -19.8873,0.1703 -4.1566,2.4359 -8.7269,8.0718 -9.985,12.3132 l -0.6674,2.25 20.6758,0 20.6758,0 -0.669,-2.75 z m 268.33717,33.3704 c -11.2513,-4.0208 -18.1841,-14.1668 -18.1739,-26.5971 0.013,-16.3032 11.5819,-27.9578 27.7888,-27.9958 8.9216,-0.021 13.3904,1.2448 18.7033,5.2971 6.4052,4.8854 9.9122,11.2451 10.5445,19.1219 l 0.526,6.5535 -24.6369,0 c -27.426,0 -26.3769,-0.3133 -22.7342,6.7898 6.9436,13.5398 26.4975,15.3383 34.8849,3.2086 2.435,-3.5214 3.1534,-3.9264 7.0248,-3.9604 l 4.3124,-0.038 -2.7237,5.0043 c -4.8913,8.9869 -13.7895,13.9647 -24.9011,13.9298 -3.85,-0.012 -8.6267,-0.6032 -10.6149,-1.3137 z m 30.5683,-32.8704 c -1.3951,-4.6064 -4.8994,-9.0769 -9.3057,-11.8713 -7.6126,-4.8278 -18.092,-3.7846 -24.995,2.4883 -2.3673,2.1512 -6.1527,8.6685 -6.1527,10.5932 0,0.686 6.9971,1.0398 20.5674,1.0398 l 20.5674,0 -0.6814,-2.25 z m 152.0466,33.0227 c -8.8341,-3.1489 -16.8449,-12.2214 -18.0834,-20.4801 -1.8336,-12.2278 1.8273,-22.4446 10.3801,-28.968 5.3129,-4.0523 9.7817,-5.3179 18.7033,-5.2971 15.2005,0.036 26.7065,10.6303 27.6747,25.4829 l 0.3253,4.9896 -24.854,0.2677 -24.8539,0.2677 0.646,2.7323 c 1.0938,4.626 5.8405,10.4605 10.5619,12.9824 3.7399,1.9977 5.6165,2.3443 11.1104,2.052 5.4244,-0.2886 7.2874,-0.8682 10.3846,-3.2305 2.0759,-1.5834 4.5012,-4.1568 5.3897,-5.7189 1.3758,-2.419 2.2453,-2.841 5.8653,-2.8464 2.3375,0 4.25,0.3556 4.25,0.7979 0,0.4423 -1.27,2.8048 -2.8223,5.25 -3.3439,5.2674 -8.5678,9.4665 -14.2875,11.4845 -4.7565,1.6782 -15.9774,1.807 -20.3902,0.234 z m 30.5,-31.8224 c 0,-1.6812 -3.0482,-7.2459 -5.367,-9.7976 -6.175,-6.7954 -17.8834,-8.2823 -25.7807,-3.274 -4.4063,2.7944 -7.9106,7.2649 -9.3057,11.8713 l -0.6814,2.25 20.5674,0 c 13.6936,0 20.5674,-0.3508 20.5674,-1.0497 z m 21.9898,30.7997 c -4.5773,-3.1153 -6.8207,-6.5145 -7.5898,-11.5 l -0.6556,-4.25 4.0028,0 c 3.7037,0 4.0507,0.2393 4.6432,3.2019 1.0241,5.1207 4.2273,7.7981 9.3294,7.7981 5.6053,0 9.2802,-3.2939 9.2802,-8.3182 0,-4.6605 -3.533,-7.9464 -12.0388,-11.1966 -9.4052,-3.594 -12.9636,-7.651 -12.9546,-14.77 0.012,-9.4487 5.545,-14.7001 15.4934,-14.7049 9.2,0 15.5,5.0519 15.5,12.44 0,2.308 -0.3792,2.5497 -4,2.5497 -3.3333,0 -4,-0.3333 -4,-2 0,-3.1565 -3.5544,-6 -7.5,-6 -6.7457,0 -10.0392,7.3396 -5.25,11.6998 1.2375,1.1267 4.9095,3.0258 8.16,4.2202 10.7027,3.9328 14.59,8.5279 14.59,17.2467 0,9.6581 -6.8216,15.7878 -17.6021,15.8168 -4.7004,0.013 -6.8615,-0.5003 -9.4081,-2.2335 z m 211.3732,0.3275 c -5.8391,-2.6514 -11.8561,-8.404 -14.5295,-13.8911 -1.7769,-3.647 -2.2739,-6.3498 -2.2406,-12.1864 0.05,-8.7844 1.6155,-13.0074 7.0599,-19.0465 5.6528,-6.2701 12.1026,-8.9494 21.3472,-8.8677 8.5722,0.076 12.0551,1.1318 18.2977,5.5475 5.7784,4.0873 10.7023,13.5311 10.7023,20.5264 l 0,4.8403 -24.625,0 -24.625,0 0.6492,3.2459 c 0.8469,4.2347 5.2979,9.6861 10.1959,12.4876 8.3051,4.7504 20.9646,1.9111 26.1038,-5.8546 2.246,-3.394 3.0503,-3.8789 6.434,-3.8789 4.3982,0 4.7715,1.0221 2.0085,5.5 -2.9789,4.8277 -7.2842,8.6196 -12.6414,11.1339 -6.492,3.0468 -17.9408,3.2572 -24.137,0.4436 z m 31.1772,-33.6355 c -4.0739,-9.7502 -10.6679,-13.9216 -20.97,-13.2656 -4.9505,0.3153 -7.1039,0.9933 -9.8804,3.1111 -4.2395,3.2336 -7.3079,7.3426 -8.2317,11.0235 l -0.6749,2.689 20.6218,0 20.6218,0 -1.4866,-3.558 z m 126.7757,34.2319 c -5.5985,-2.0641 -12.0483,-7.3611 -14.9111,-12.2461 -2.2743,-3.8808 -2.8594,-6.2581 -3.217,-13.0708 -0.3939,-7.5061 -0.1715,-8.87 2.2557,-13.831 5.0006,-10.2208 14.246,-15.5431 26.9322,-15.504 7.6107,0.023 14.1273,2.2274 18.3743,6.2144 l 2.25,2.1122 0,-3.6743 c 0,-3.62 0.059,-3.6743 4,-3.6743 l 4,0 0,27 0,27 -4,0 c -3.9409,0 -4,-0.054 -4,-3.6743 l 0,-3.6743 -2.25,2.1122 c -4.3897,4.1209 -10.7288,6.1962 -18.75,6.1384 -4.125,-0.03 -8.9328,-0.5824 -10.6841,-1.2281 z m 20.8374,-7.7647 c 8.4202,-4.2666 13.1052,-14.4946 10.8829,-23.7585 -2.3593,-9.8346 -10.5089,-16.1507 -20.8391,-16.1507 -7.4679,0 -13.5812,3.0692 -17.6668,8.8699 -2.4274,3.4462 -3.035,5.4412 -3.3269,10.9232 -0.2982,5.5999 0.04,7.4497 2.0465,11.2069 5.6209,10.5232 18.1167,14.3749 28.9034,8.9092 z m 156.3,7.7647 c -8.2614,-3.183 -14.5773,-9.6007 -17.2947,-17.5731 -1.6411,-4.815 -1.4356,-13.9315 0.438,-19.4303 1.7651,-5.1803 8.2394,-12.4846 13.5282,-15.2624 2.1808,-1.1454 6.4019,-1.9251 11.9276,-2.2033 10.5298,-0.5301 16.8193,1.7625 22.8831,8.341 4.7392,5.1413 6.8571,9.8373 7.7101,17.095 l 0.6299,5.3592 -25.2461,0 -25.2462,0 0.6576,2.75 c 1.0768,4.5034 6.0587,10.5866 10.7077,13.0747 6.3252,3.3853 16.0108,2.8168 21.3466,-1.2531 2.0759,-1.5834 4.5012,-4.1568 5.3897,-5.7189 1.3758,-2.419 2.2453,-2.841 5.8653,-2.8464 2.3375,0 4.25,0.3556 4.25,0.7979 0,0.4423 -1.3027,2.8583 -2.8948,5.3689 -3.4465,5.4346 -8.1628,9.2303 -14.0496,11.3073 -5.0306,1.7749 -16.2252,1.88 -20.6024,0.1935 z m 30.0947,-33.4239 c -0.9503,-3.9064 -5.5756,-9.3711 -10.143,-11.9835 -2.816,-1.6108 -5.5536,-2.2382 -9.817,-2.25 -8.0046,-0.022 -13.5282,3.2065 -17.5844,10.279 -1.6417,2.8625 -2.9891,5.542 -2.9942,5.9545 -0.01,0.4125 9.2645,0.75 20.5991,0.75 l 20.6084,0 -0.6689,-2.75 z m 22.9521,32.8894 c -4.2844,-2.6464 -6.1465,-5.0737 -7.395,-9.6394 -1.6742,-6.1224 -1.5125,-6.5 2.7837,-6.5 3.6432,0 3.9297,0.2182 4.5372,3.4567 1.9724,10.5138 18.5741,9.8299 18.5741,-0.7652 0,-4.7727 -3.2638,-7.8532 -11.7602,-11.0999 -4.8934,-1.8699 -8.1556,-3.8706 -10.3081,-6.3222 -2.934,-3.3416 -3.1196,-3.9954 -2.7164,-9.5688 0.3968,-5.486 0.7758,-6.3022 4.57,-9.8414 3.8943,-3.6326 4.5065,-3.859 10.426,-3.8555 9.5046,0.01 15.7887,4.9595 15.7887,12.4466 0,2.308 -0.3792,2.5497 -4,2.5497 -3.3333,0 -4,-0.3333 -4,-2 0,-3.1565 -3.5544,-6 -7.5,-6 -6.7457,0 -10.0392,7.3396 -5.25,11.6998 1.2375,1.1267 4.9095,3.0258 8.16,4.2202 11.0577,4.0632 14.59,8.3436 14.59,17.6798 0,9.4129 -6.8908,15.4034 -17.7102,15.3965 -3.8855,0 -6.7765,-0.6133 -8.7898,-1.8569 z m -1905.500075,-26.1394 0,-27 4,0 c 3.6623,0 4,0.2242 4,2.655 0,2.4464 0.1375,2.5344 1.75,1.1206 3.9638,-3.4755 8.7671,-5.0696 15.2348,-5.0563 10.418395,0.022 16.982105,3.6411 21.362595,11.7807 1.957,3.6364 2.18221,5.7954 2.4777,23.75 l 0.3251,19.75 -4.0751,0 -4.0751,0 0,-17.6843 c 0,-20.1805 -1.1265,-24.3767 -7.6222,-28.3912 -4.939295,-3.0527 -15.118095,-2.4503 -18.940495,1.1208 -5.3917,5.0375 -5.8667,7.0634 -6.2613,26.7047 l -0.3667,18.25 -3.9046,0 -3.9047,0 0,-27 z m 125.999995,0 0,-27 4,0 c 3.6367,0 4,0.2352 4,2.5889 l 0,2.5889 3.0771,-2.5892 c 1.6924,-1.4241 4.1674,-2.8141 5.5,-3.0889 1.3326,-0.2748 3.5479,-0.7333 4.9229,-1.0188 2.366,-0.4912 2.5,-0.2835 2.5,3.8722 0,4.3004 -0.078,4.4038 -3.75,4.9946 -5.1205,0.8237 -8.1206,3.1558 -10.3362,8.0348 -1.5917,3.505 -1.8731,6.6837 -1.8918,21.3675 l -0.022,17.25 -4,0 -4,0 0,-27 z m 97,0 0,-27 4,0 4,0 0,27 0,27 -4,0 -4,0 0,-27 z m 198,3.5 0,-23.5 -6,0 -6,0 0,-3.5 0,-3.5 6,0 6,0 0,-9.5 0,-9.5 4,0 4,0 0,9.5 0,9.5 6.5,0 6.5,0 0,3.5 0,3.5 -6.5,0 -6.5,0 0,23.5 0,23.5 -4,0 -4,0 0,-23.5 z m 93,-3.5 0,-27 4,0 c 3.353,0 4,0.3283 4,2.0299 0,2.0234 0.01,2.0232 2.8412,-0.071 4.1064,-3.0359 10.0525,-4.1173 16.2142,-2.9488 5.5904,1.0602 11.3494,4.1098 12.8739,6.8172 0.833,1.4794 1.3239,1.3113 4.2562,-1.4577 4.9328,-4.6581 7.557,-5.6641 14.7752,-5.6641 10.5151,0 18.5896,5.4131 20.9953,14.0752 0.5681,2.0454 1.0354,12.1564 1.0385,22.4689 l 0.01,18.7504 -4,0 -4,0 0,-18.5321 c 0,-19.7108 -0.6232,-23.0948 -4.9669,-26.9679 -1.7758,-1.5834 -3.6574,-2 -9.0331,-2 -5.3756,0 -7.2572,0.4166 -9.033,2 -4.3437,3.8731 -4.967,7.2571 -4.967,26.9679 l 0,18.5321 -3.8921,0 -3.8922,0 -0.3978,-18.75 c -0.4312,-20.3249 -1.0471,-22.9253 -6.4327,-27.1617 -3.2577,-2.5625 -11.0599,-2.825 -15.51339,-0.522 -5.712,2.9538 -6.82491,7.5332 -6.8498,28.1837 l -0.022,18.25 -4,0 -4,0 0,-27 z m 93,0 0,-27 4,0 4,0 0,27 0,27 -4,0 -4,0 0,-27 z m 386.99998,0 0,-27 4,0 c 3.6623,0 4,0.2242 4,2.655 0,2.4464 0.1375,2.5344 1.75,1.1206 3.9638,-3.4755 8.767,-5.0696 15.2347,-5.0563 10.4184,0.022 16.9821,3.6411 21.3626,11.7807 1.957,3.6364 2.1823,5.7954 2.4778,23.75 l 0.325,19.75 -4.075,0 -4.0751,0 0,-17.6843 c 0,-20.1805 -1.1266,-24.3767 -7.6222,-28.3912 -4.9393,-3.0527 -15.1181,-2.4503 -18.9405,1.1208 -5.3918,5.0375 -5.8668,7.0634 -6.2614,26.7047 l -0.3666,18.25 -3.9047,0 -3.9046,0 0,-27 z m 126,0 0,-27 4,0 c 3.6366,0 4,0.2352 4,2.5889 l 0,2.5889 3.0771,-2.5892 c 1.6924,-1.4241 4.1674,-2.8141 5.5,-3.0889 1.3326,-0.2748 3.5479,-0.7333 4.9229,-1.0188 2.3659,-0.4912 2.5,-0.2835 2.5,3.8722 0,4.3354 -0.05,4.3993 -3.9226,5.0185 -5.0892,0.8138 -9.7538,4.8027 -11.0426,9.4427 -0.563,2.0271 -1.0262,11.2232 -1.0292,20.4357 l -0.01,16.75 -4,0 -4,0 0,-27 z m 97,0 0,-27 4,0 4,0 0,27 0,27 -4,0 -4,0 0,-27 z m 232,-9.5 0,-36.5 4,0 4,0 0,36.5 0,36.5 -4,0 -4,0 0,-36.5 z m 27,13 0,-23.5 -6,0 -6,0 0,-3.5 0,-3.5 6,0 6,0 0,-9.5 0,-9.5 4,0 4,0 0,9.5 0,9.5 6.5,0 6.5,0 0,3.5 0,3.5 -6.5,0 -6.5,0 0,23.5 0,23.5 -4,0 -4,0 0,-23.5 z m 92,-3.5 0,-27 4,0 c 3.6366,0 4,0.2352 4,2.5889 l 0,2.5889 3.0771,-2.5892 c 1.6924,-1.4241 4.2799,-2.8412 5.75,-3.1491 6.5353,-1.3691 6.1729,-1.5477 6.1729,3.0428 0,4.0925 -0.1603,4.3252 -3.3986,4.9327 -1.8692,0.3507 -4.6237,1.6013 -6.1211,2.7792 -4.7804,3.7602 -5.4803,7.1159 -5.4803,26.2737 l 0,17.5321 -4,0 -4,0 0,-27 z m 30,0 0,-27 4,0 c 3.6213,0 4,0.2415 4,2.5509 l 0,2.5509 3.3381,-2.5461 c 7.0083,-5.3455 20.2847,-5.246 28.1073,0.2105 2.2785,1.5894 5.0246,4.8472 6.5,7.7112 2.4365,4.73 2.5697,5.8502 2.8811,24.2409 l 0.3264,19.2817 -4.0764,0 -4.0765,0 0,-16.634 c 0,-18.8931 -0.8122,-22.8224 -5.6958,-27.5558 -3.2398,-3.1401 -3.7949,-3.3102 -10.8042,-3.3102 -7.0093,0 -7.5644,0.1701 -10.8042,3.3102 -4.8836,4.7334 -5.6958,8.6627 -5.6958,27.5558 l 0,16.634 -4,0 -4,0 0,-27 z m 136,3.5 0,-23.5 -6,0 -6,0 0,-3.5 0,-3.5 6,0 6,0 0,-9.5 0,-9.5 4,0 4,0 0,9.5 0,9.5 6.5,0 6.5,0 0,3.5 0,3.5 -6.5,0 -6.5,0 0,23.5 0,23.5 -4,0 -4,0 0,-23.5 z m 27,-3.5 0,-27 4,0 4,0 0,27 0,27 -4,0 -4,0 0,-27 z m 28.9906,7.7993 c -4.5529,-10.6146 -9.7816,-22.8112 -11.6195,-27.1035 l -3.3416,-7.8042 4.5668,0.3042 4.5668,0.3042 9.0811,21.75 c 4.9946,11.9625 9.3454,21.742 9.6685,21.7322 0.323,-0.01 4.6373,-9.9018 9.5873,-21.9822 l 9,-21.9644 4.25,-0.018 c 2.3375,-0.01 4.2245,0.3197 4.1934,0.7322 -0.031,0.4125 -5.135,12.45 -11.3421,26.75 l -11.2856,26 -4.5236,0.2993 -4.5236,0.2993 -8.2779,-19.2993 z m -926.49058,3.3088 c -11.4654,-4.9991 -7.5471,-23.1081 5,-23.1081 10.9922,0 16.1163,13.3752 8.0333,20.9688 -2.6287,2.4695 -9.6374,3.62 -13.0333,2.1393 z m -640.5,-50.6081 0,-6.5 4,0 4,0 0,6.5 0,6.5 -4,0 -4,0 0,-6.5 z m 385,0 0,-6.5 3.5,0 3.5,0 0,6.5 0,6.5 -3.5,0 -3.5,0 0,-6.5 z m 608.99998,0 0,-6.5 4,0 4,0 0,6.5 0,6.5 -4,0 -4,0 0,-6.5 z m 544,0 0,-6.5 4,0 4,0 0,6.5 0,6.5 -4,0 -4,0 0,-6.5 z M 468.55122,1086.8217 c -14.8025,-7.6708 -16.2195,-27.3581 -2.6553,-36.8914 l 4.3276,-3.0416 530.16378,0 530.1639,0 4,2.0891 c 2.2,1.1489 5.3364,3.9808 6.9697,6.2931 2.429,3.4384 3.0397,5.4412 3.3537,10.9976 0.5527,9.7824 -3.0731,16.2335 -11.5237,20.5032 -2.9357,1.4833 -46.9722,1.6165 -532.5,1.6108 -476.79608,-0.01 -529.59717,-0.1603 -532.29968,-1.5608 z M 1297.5512,756.77135 c -49.8398,-4.02051 -95.9954,-24.7374 -131.5032,-59.02501 l -10.5033,-10.1423 -9.7433,9.37088 c -22.7859,21.91501 -49.3251,38.01904 -78.8928,47.87231 -62.331,20.77148 -129.05988,12.34509 -183.85738,-23.21711 -12.6454,-8.20657 -19.3895,-13.60524 -30.7432,-24.60978 l -10.2433,-9.92827 -8.7567,8.61935 c -49.8371,49.05522 -121.0078,70.06468 -190.1041,56.11839 -124.6834,-25.16587 -199.2111,-153.37711 -159.5293,-274.44117 19.7073,-60.12479 64.8452,-107.79764 124.3766,-131.36172 25.0676,-9.92237 48.0278,-14.08983 77.5,-14.06685 27.9432,0.0218 49.4086,3.77617 74.0549,12.95244 20.2552,7.54142 47.1251,22.88744 54.5603,31.16072 10.7662,11.9797 4.6368,30.88752 -11.1638,34.43767 -7.353,1.65212 -11.7177,0.24534 -23.2022,-7.47831 -22.0892,-14.85559 -48.4041,-24.57444 -74.921,-27.67043 -14.5053,-1.69356 -38.2389,-0.80011 -52.1007,1.96134 -59.6359,11.88017 -109.0998,55.19677 -128.1955,112.26341 -24.48,73.15748 2.6516,152.29324 66.9692,195.33139 56.1201,37.55279 129.16581,37.95922 185.9988,1.03492 10.5013,-6.82263 24.8996,-18.96923 32.3014,-27.24984 l 5.9293,-6.6332 -6.298,-12.59077 c -15.0396,-30.06701 -21.2576,-55.08888 -22.1615,-89.18091 -0.7747,-29.21968 1.9249,-48.41826 10.3877,-73.87347 24.7832,-74.54449 89.1586,-129.38174 166.7844,-142.07275 43.72298,-7.14826 88.09408,-0.55243 128.05668,19.03581 64.1088,31.42389 107.9151,92.57318 116.9864,163.30177 1.4874,11.59728 2.0663,42.03466 0.8833,46.44878 l -0.603,2.25 -189.5122,0 -189.51208,0 0.6813,5.13594 c 1.20131,9.05586 6.4786,27.79911 10.62211,37.72616 22.01609,52.74649 67.7144,90.24435 124.45419,102.12132 13.0125,2.72382 37.64318,3.73467 51.08888,2.09671 47.1223,-5.74046 87.156,-28.62223 116.536,-66.60763 8.6915,-11.23726 13.0182,-13.96093 22.0137,-13.85777 8.3245,0.0955 13.0862,3.30216 21.2529,14.31244 20.1586,27.17733 49.4848,48.44306 81.5034,59.10162 21.2064,7.05934 29.7124,8.37617 54.1051,8.37617 23.73,0 32.8122,-1.31311 52,-7.5182 79.5669,-25.73093 128.9764,-106.30145 115.5273,-188.38676 -8.7381,-53.33255 -42.4182,-99.64199 -90.0273,-123.78545 -18.3441,-9.30266 -33.9605,-14.24049 -54.6962,-17.29466 -14.7785,-2.17673 -40.732,-1.46481 -55.3038,1.517 -21.2465,4.34767 -43.0842,13.39954 -61.6099,25.53777 -11.8547,7.76727 -16.6359,9.26561 -23.9599,7.50859 -16.2392,-3.89573 -21.5978,-24.75797 -9.2718,-36.09739 4.547,-4.18308 17.4888,-12.49381 28.5832,-18.35512 73.1055,-38.62241 162.3445,-30.80423 228.7584,20.0414 11.2983,8.64981 27.6357,24.72952 36.2791,35.70676 l 6.2209,7.90062 0.5,-31.83976 c 0.5573,-35.48837 0.6875,-36.22415 7.4621,-42.17237 4.8938,-4.29674 7.7802,-5.3367 14.8589,-5.35354 8.1747,-0.0195 14.1652,3.69613 17.929,11.12033 l 2.75,5.42445 0,185.8528 c 0,165.76131 -0.1679,186.25473 -1.553,189.57069 -3.3273,7.96527 -11.0522,13.21788 -19.4393,13.21788 -8.8243,0 -15.207,-3.79233 -19.355,-11.5 -2.0351,-3.78146 -2.18,-5.68958 -2.6527,-34.9254 l -0.5,-30.92541 -4.4477,5.92541 c -6.1104,8.1404 -24.982,27.37291 -33.9684,34.61806 -30.4119,24.51912 -65.3604,39.82302 -103.5839,45.35922 -10.25,1.48458 -37.0631,2.55176 -46,1.83083 z m -130.5,-235.97563 c 0,-4.11956 -4.3605,-22.25268 -7.5881,-31.55484 -15.1955,-43.79463 -45.938,-78.34578 -87.4239,-98.2546 -13.8157,-6.63008 -26.1225,-10.75391 -41.2326,-13.81641 -9.6046,-1.94664 -14.3355,-2.28052 -32.25538,-2.27638 -18.2096,0.004 -22.4616,0.31596 -32,2.34618 -52.9967,11.28024 -95.5751,43.75404 -119.4931,91.13537 -6.99,13.84716 -13.8034,35.17394 -15.5787,48.7636 l -0.6858,5.25 168.1288,0 c 153.13988,0 168.12878,-0.14201 168.12878,-1.59292 z M 470.55122,41.167105 c -4.8516,-1.72014 -8.331,-4.62714 -10.8843,-9.09381 -3.3951,-5.93914 -4.0154,-10.7976 -2.1834,-17.09947 1.8446,-6.3451705 8.4582,-13.1169105 13.728,-14.0561005 1.8368,-0.32737 241.4605,-0.46784 532.49688,-0.31215 l 529.1572,0.28307 3.8428,3.09506 c 6.4252,5.175 8.4702,9.7070305 8.1198,17.9951405 -0.3878,9.1742 -3.3644,14.02864 -10.9062,17.78689 l -5.2635,2.62291 -527.5536,-0.0789 c -370.00748,-0.0554 -528.44958,-0.39659 -530.55368,-1.14259 z"
     id="path4133"
     inkscape:connector-curvature="0" />
</svg>
