<?xml version="1.0" encoding="UTF-8" standalone="no"?>
<!-- Created with Inkscape (http://www.inkscape.org/) -->

<svg
   xmlns:dc="http://purl.org/dc/elements/1.1/"
   xmlns:cc="http://creativecommons.org/ns#"
   xmlns:rdf="http://www.w3.org/1999/02/22-rdf-syntax-ns#"
   xmlns:svg="http://www.w3.org/2000/svg"
   xmlns="http://www.w3.org/2000/svg"
   xmlns:sodipodi="http://sodipodi.sourceforge.net/DTD/sodipodi-0.dtd"
   xmlns:inkscape="http://www.inkscape.org/namespaces/inkscape"
   width="256.70047mm"
   height="143.52759mm"
   viewBox="0 0 256.70047 143.52759"
   version="1.1"
   id="svg8"
   inkscape:version="0.92.1 r15371"
   sodipodi:docname="background_CYS.svg">
  <defs
     id="defs2" />
  <sodipodi:namedview
     id="base"
     pagecolor="#ffffff"
     bordercolor="#666666"
     borderopacity="1.0"
     inkscape:pageopacity="0.0"
     inkscape:pageshadow="2"
     inkscape:zoom="0.7"
     inkscape:cx="187.15377"
     inkscape:cy="177.00767"
     inkscape:document-units="mm"
     inkscape:current-layer="layer1"
     showgrid="false"
     inkscape:window-width="1600"
     inkscape:window-height="877"
     inkscape:window-x="-8"
     inkscape:window-y="-8"
     inkscape:window-maximized="1"
     fit-margin-top="0"
     fit-margin-left="0"
     fit-margin-right="0"
     fit-margin-bottom="0" />
  <metadata
     id="metadata5">
    <rdf:RDF>
      <cc:Work
         rdf:about="">
        <dc:format>image/svg+xml</dc:format>
        <dc:type
           rdf:resource="http://purl.org/dc/dcmitype/StillImage" />
        <dc:title></dc:title>
      </cc:Work>
    </rdf:RDF>
  </metadata>
  <g
     inkscape:label="Layer 1"
     inkscape:groupmode="layer"
     id="layer1"
     transform="translate(-15.119051,-104.71348)">
    <text
       xml:space="preserve"
       style="font-style:normal;font-variant:normal;font-weight:normal;font-stretch:normal;font-size:31.75px;line-height:1.25;font-family:Gabriola;-inkscape-font-specification:Gabriola;letter-spacing:0px;word-spacing:0px;fill:#000000;fill-opacity:1;stroke:none;stroke-width:0.26458332"
       x="-39.488075"
       y="175.28456"
       id="text12"
       transform="rotate(-30)"><tspan
         sodipodi:role="line"
         id="tspan10"
         x="-39.488075"
         y="175.28456"
         style="font-style:normal;font-variant:normal;font-weight:normal;font-stretch:normal;font-size:31.75px;font-family:Gabriola;-inkscape-font-specification:Gabriola;stroke-width:0.26458332">Create</tspan></text>
    <text
       xml:space="preserve"
       style="font-style:normal;font-variant:normal;font-weight:normal;font-stretch:normal;font-size:31.75px;line-height:1.25;font-family:Gabriola;-inkscape-font-specification:Gabriola;letter-spacing:0px;word-spacing:0px;fill:#000000;fill-opacity:1;stroke:none;stroke-width:0.26458332"
       x="131.06917"
       y="186.63097"
       id="text16"><tspan
         sodipodi:role="line"
         id="tspan14"
         x="131.06917"
         y="186.63097"
         style="font-style:normal;font-variant:normal;font-weight:normal;font-stretch:normal;font-size:31.75px;font-family:Gabriola;-inkscape-font-specification:Gabriola;stroke-width:0.26458332">Your</tspan></text>
    <text
       xml:space="preserve"
       style="font-style:normal;font-variant:normal;font-weight:normal;font-stretch:normal;font-size:31.75px;line-height:1.25;font-family:Gabriola;-inkscape-font-specification:Gabriola;letter-spacing:0px;word-spacing:0px;fill:#000000;fill-opacity:1;stroke:none;stroke-width:0.26458332"
       x="68.03643"
       y="306.03738"
       id="text20"
       transform="rotate(-30)"><tspan
         sodipodi:role="line"
         id="tspan18"
         x="68.03643"
         y="306.03738"
         style="font-style:normal;font-variant:normal;font-weight:normal;font-stretch:normal;font-size:31.75px;font-family:Gabriola;-inkscape-font-specification:Gabriola;stroke-width:0.26458332">Story</tspan></text>
    <g
       transform="matrix(0.07954523,0.01140815,-0.01140815,0.07954523,-12.509248,154.69956)"
       id="g4578"
       style="fill:#784421;fill-opacity:1;stroke:none;stroke-opacity:1">
      <g
         style="fill:#784421;fill-opacity:1;stroke:none;stroke-opacity:1"
         id="g3698"
         transform="matrix(0.1,0,0,-0.1,11.336182,917.43511)">
        <path
           sodipodi:nodetypes="cccccscccscccccccccscccccccccccccccccssccccccccsccccsccccsscccccsccccccccccccccccccccccccccsc"
           inkscape:connector-curvature="0"
           id="path3692"
           d="m 6953,2335 c 105,14 447,36 710,45 441,15 958,-8 1371,-60 81,-10 150,-20 151,-22 2,-2 -3,-138 -11,-303 -34,-743 -74,-1638 -74,-1674 0,-29 5,-41 18,-45 9,-3 115,-8 234,-12 181,-6 218,-4 223,7 2,8 45,468 95,1024 50,556 94,1052 99,1103 4,51 11,95 14,99 4,3 79,0 167,-7 l 161,-13 32,38 c 40,49 42,59 63,294 14,162 14,203 4,247 -8,32 -19,56 -29,58 -9,3 -97,15 -196,27 -99,11 -181,22 -182,23 -1,1 4,24 12,51 20,66 22,1157 3,1172 -7,6 -129,18 -271,27 -281,19 -317,26 -436,93 -87,48 -165,123 -197,188 -22,46 -26,71 -31,183 -3,72 0,257 7,412 10,238 10,284 -1,291 -23,14 -356,11 -366,-3 -4,-7 -24,-62 -44,-123 -21,-60 -44,-127 -53,-148 l -16,-37 -43,26 c -23,15 -43,28 -45,29 -2,2 4,17 12,34 25,47 20,88 -13,122 -35,35 -77,38 -113,9 -37,-28 -178,-270 -178,-304 0,-40 49,-86 93,-86 38,0 82,29 92,61 8,23 16,21 74,-16 l 41,-25 -16,-33 c -42,-80 -157,-240 -234,-324 l -41,-43 -39,31 c -43,35 -48,50 -25,69 8,7 15,29 15,49 0,48 -33,81 -79,81 -157.7239,-239.6159 -477.4654,-315.5669 -565,-456 -35,-91 64,-161 145,-103 29,20 31,20 50,4 10,-10 19,-21 19,-26 0,-7 -254,-150 -290,-163 -10,-4 -21,5 -33,25 l -17,31 37,33 c 30,26 37,39 37,69 0,48 -40,90 -86,90 -37,0 -234,-116 -280,-165 -38,-39 -37,-81 1,-120 33,-33 67,-37 112,-14 32,17 43,14 59,-16 10,-18 -2,-25 -136,-89 -81,-39 -149,-68 -152,-65 -3,3 -15,22 -28,42 l -23,38 35,30 c 43,38 52,79 25,122 -14,23 -30,34 -56,39 -32,6 -47,-1 -142,-57 -58,-35 -124,-81 -146,-101 -36,-34 -39,-41 -34,-75 11,-69 73,-98 136,-65 l 39,21 14,-22 c 8,-12 17,-27 21,-33 4,-8 -22,-23 -76,-44 -45,-18 -88,-38 -95,-45 -8,-7 51.8845,-128.9025 27.8845,-243.9025 C 6914.254,3407.7642 6533.3388,2190.0508 6953,2335 Z m 946,2307 33,-28 -63,-51 c -35,-27 -86,-64 -112,-82 l -48,-33 -33,38 -33,39 28,26 c 22,20 29,36 29,64 2.3447,71.0055 59.0111,-28.9789 127,30 15,13 30,24 33,24 3,0 20,-12 39,-27 z"
           style="fill:#784421;fill-opacity:1;stroke:none;stroke-opacity:1" />
        <path
           inkscape:connector-curvature="0"
           id="path3694"
           d="m 11125,7029 c -380,-38 -726,-158 -1025,-356 -309,-205 -628,-534 -890,-919 -50,-73 -90,-136 -90,-140 0,-5 21,12 48,38 171,165 541,437 805,592 123,73 335,174 449,215 191,70 415,109 547,96 253,-26 558,-141 769,-292 157,-112 316,-281 382,-407 14,-25 28,-45 32,-44 3,2 146,149 318,328 l 311,325 -33,28 c -18,16 -80,64 -137,107 -439,331 -961,482 -1486,429 z"
           style="fill:#784421;fill-opacity:1;stroke:none;stroke-opacity:1" />
        <path
           inkscape:connector-curvature="0"
           id="path3696"
           d="m 9525,5790 c -288,-46 -467,-209 -545,-496 -31,-112 -39,-334 -15,-423 24,-92 59,-157 119,-217 125,-124 339,-180 601,-155 135,13 241,33 256,48 13,13 151,1090 147,1142 -3,30 -8,36 -43,48 -133,46 -395,72 -520,53 z"
           style="fill:#784421;fill-opacity:1;stroke:none;stroke-opacity:1" />
        <path
           d="m 7663,2380 c 441,15 958,-8 1371,-60 81,-10 150,-20 151,-22 2,-2 -3,-138 -11,-303 -34,-743 -74,-1638 -74,-1674 0,-29 5,-41 18,-45 9,-3 115,-8 234,-12 181,-6 218,-4 223,7 2,8 45,468 95,1024 50,556 94,1052 99,1103 4,51 11,95 14,99 4,3 79,0 167,-7 l 161,-13 32,38 c 40,49 42,59 63,294 14,162 14,203 4,247 -8,32 -19,56 -29,58 -9,3 -97,15 -196,27 -99,11 -181,22 -182,23 -1,1 4,24 12,51 20,66 22,1157 3,1172 -7,6 -129,18 -271,27 -281,19 -317,26 -436,93 -87,48 -165,123 -197,188 -22,46 -26,71 -31,183 -3,72 0,257 7,412 10,238 10,284 -1,291 -23,14 -356,11 -366,-3 -4,-7 -24,-62 -44,-123 -21,-60 -44,-127 -53,-148 l -16,-37 -43,26 c -23,15 -43,28 -45,29 -2,2 4,17 12,34 25,47 20,88 -13,122 -35,35 -77,38 -113,9 -37,-28 -178,-270 -178,-304 0,-40 49,-86 93,-86 38,0 82,29 92,61 8,23 16,21 74,-16 l 41,-25 -16,-33 c -42,-80 -157,-240 -234,-324 l -41,-43 -39,31 c -43,35 -48,50 -25,69 8,7 15,29 15,49 0,48 -33,81 -79,81 -157.7239,-239.6159 -477.4654,-315.5669 -565,-456 -35,-91 64,-161 145,-103 29,20 31,20 50,4 10,-10 19,-21 19,-26 0,-7 -254,-150 -290,-163 -10,-4 -21,5 -33,25 l -17,31 37,33 c 30,26 37,39 37,69 0,48 -40,90 -86,90 -37,0 -234,-116 -280,-165 -38,-39 -37,-81 1,-120 33,-33 67,-37 112,-14 32,17 43,14 59,-16 10,-18 -2,-25 -136,-89 -81,-39 -149,-68 -152,-65 -3,3 -15,22 -28,42 l -23,38 35,30 c 43,38 52,79 25,122 -14,23 -30,34 -56,39 -32,6 -47,-1 -142,-57 -58,-35 -124,-81 -146,-101 -36,-34 -39,-41 -34,-75 11,-69 73,-98 136,-65 l 39,21 14,-22 c 8,-12 17,-27 21,-33 4,-8 -22,-23 -76,-44 -45,-18 -88,-38 -95,-45 -228.1656,-2020.4804 -90.9249,-1500.3458 1181,-1455 z m 236,2262 33,-28 -63,-51 c -35,-27 -86,-64 -112,-82 l -48,-33 -33,38 -33,39 28,26 c 22,20 29,36 29,64 2.3447,71.0055 59.0111,-28.9789 127,30 15,13 30,24 33,24 3,0 20,-12 39,-27 z"
           id="path3758"
           inkscape:connector-curvature="0"
           sodipodi:nodetypes="ccccscccscccccccccscccccccccccccccccssccccccccsccccsccccsscccccscccccccccccccccccccccccccsc"
           style="fill:#784421;fill-opacity:1;stroke:none;stroke-opacity:1" />
      </g>
      <rect
         transform="rotate(6)"
         ry="0"
         y="590.28662"
         x="723.82068"
         height="226.72365"
         width="51.822521"
         id="rect3760"
         style="opacity:1;fill:#784421;fill-opacity:1;stroke:none;stroke-width:2.83464575;stroke-miterlimit:4;stroke-dasharray:none;stroke-opacity:1" />
    </g>
    <text
       xml:space="preserve"
       style="font-style:normal;font-weight:normal;font-size:8.46666622px;line-height:1.25;font-family:sans-serif;letter-spacing:0px;word-spacing:0px;fill:#784421;fill-opacity:1;stroke:none;stroke-width:0.26458332"
       x="-3.6196544"
       y="146.50494"
       id="text5158"
       transform="rotate(-23.415095)"><tspan
         sodipodi:role="line"
         id="tspan5156"
         x="-3.6196544"
         y="146.50494"
         style="font-size:8.46666622px;fill:#784421;fill-opacity:1;stroke-width:0.26458332">Aventure</tspan></text>
    <text
       xml:space="preserve"
       style="font-style:normal;font-weight:normal;font-size:8.46666622px;line-height:1.25;font-family:sans-serif;letter-spacing:0px;word-spacing:0px;fill:#784421;fill-opacity:1;stroke:none;stroke-width:0.26458332"
       x="65.223701"
       y="277.74838"
       id="text5164"
       transform="rotate(-31.961974)"><tspan
         sodipodi:role="line"
         id="tspan5162"
         x="65.223701"
         y="277.74838"
         style="font-size:8.46666622px;fill:#784421;fill-opacity:1;stroke-width:0.26458332">Horror</tspan></text>
    <text
       xml:space="preserve"
       style="font-style:normal;font-weight:normal;font-size:8.46666622px;line-height:1.25;font-family:sans-serif;letter-spacing:0px;word-spacing:0px;fill:#784421;fill-opacity:1;stroke:none;stroke-width:0.26458332"
       x="142.875"
       y="220.27084"
       id="text5168"><tspan
         sodipodi:role="line"
         id="tspan5166"
         x="142.875"
         y="220.27084"
         style="font-size:8.46666622px;fill:#784421;fill-opacity:1;stroke-width:0.26458332">Suspense</tspan></text>
    <text
       xml:space="preserve"
       style="font-style:normal;font-weight:normal;font-size:8.46666622px;line-height:1.25;font-family:sans-serif;letter-spacing:0px;word-spacing:0px;fill:#784421;fill-opacity:1;stroke:none;stroke-width:0.26458332"
       x="123.59819"
       y="137.49405"
       id="text5172"><tspan
         sodipodi:role="line"
         id="tspan5170"
         x="123.59819"
         y="137.49405"
         style="font-size:8.46666622px;fill:#784421;fill-opacity:1;stroke-width:0.26458332">Romantic</tspan></text>
    <text
       xml:space="preserve"
       style="font-style:normal;font-weight:normal;font-size:8.46666622px;line-height:1.25;font-family:sans-serif;letter-spacing:0px;word-spacing:0px;fill:#784421;fill-opacity:1;stroke:none;stroke-width:0.26458332"
       x="193.15103"
       y="104.0528"
       id="text5176"
       transform="rotate(36.754668)"><tspan
         sodipodi:role="line"
         id="tspan5174"
         x="193.15103"
         y="104.0528"
         style="font-size:8.46666622px;fill:#784421;fill-opacity:1;stroke-width:0.26458332">Heroic</tspan></text>
    <text
       xml:space="preserve"
       style="font-style:normal;font-weight:normal;font-size:8.46666622px;line-height:1.25;font-family:sans-serif;letter-spacing:0px;word-spacing:0px;fill:#784421;fill-opacity:1;stroke:none;stroke-width:0.26458332"
       x="249.59764"
       y="29.374199"
       id="text5180"
       transform="rotate(30.236254)"><tspan
         sodipodi:role="line"
         id="tspan5178"
         x="249.59764"
         y="29.374199"
         style="font-size:8.46666622px;fill:#784421;fill-opacity:1;stroke-width:0.26458332">Realistic</tspan></text>
    <text
       xml:space="preserve"
       style="font-style:normal;font-weight:normal;font-size:10.58333302px;line-height:1.25;font-family:sans-serif;letter-spacing:0px;word-spacing:0px;fill:#88aa00;fill-opacity:1;stroke:none;stroke-width:0.26458332"
       x="73.327377"
       y="218.38098"
       id="text5184"><tspan
         sodipodi:role="line"
         id="tspan5182"
         x="73.327377"
         y="218.38098"
         style="fill:#88aa00;stroke-width:0.26458332">A</tspan></text>
    <text
       xml:space="preserve"
       style="font-style:normal;font-weight:normal;font-size:10.58333302px;line-height:1.25;font-family:sans-serif;letter-spacing:0px;word-spacing:0px;fill:#88aa00;fill-opacity:1;stroke:none;stroke-width:0.26458332"
       x="35.529762"
       y="183.98512"
       id="text5188"><tspan
         sodipodi:role="line"
         id="tspan5186"
         x="35.529762"
         y="183.98512"
         style="fill:#88aa00;stroke-width:0.26458332">B</tspan></text>
    <text
       xml:space="preserve"
       style="font-style:normal;font-weight:normal;font-size:10.58333302px;line-height:1.25;font-family:sans-serif;letter-spacing:0px;word-spacing:0px;fill:#88aa00;fill-opacity:1;stroke:none;stroke-width:0.26458332"
       x="109.23512"
       y="112.54763"
       id="text5192"><tspan
         sodipodi:role="line"
         id="tspan5190"
         x="109.23512"
         y="112.54763"
         style="fill:#88aa00;stroke-width:0.26458332">C</tspan></text>
    <text
       xml:space="preserve"
       style="font-style:normal;font-weight:normal;font-size:10.58333302px;line-height:1.25;font-family:sans-serif;letter-spacing:0px;word-spacing:0px;fill:#88aa00;fill-opacity:1;stroke:none;stroke-width:0.26458332"
       x="93.738083"
       y="172.26785"
       id="text5196"><tspan
         sodipodi:role="line"
         id="tspan5194"
         x="93.738083"
         y="172.26785"
         style="fill:#88aa00;stroke-width:0.26458332">D</tspan></text>
    <text
       xml:space="preserve"
       style="font-style:normal;font-weight:normal;font-size:10.58333302px;line-height:1.25;font-family:sans-serif;letter-spacing:0px;word-spacing:0px;fill:#88aa00;fill-opacity:1;stroke:none;stroke-width:0.26458332"
       x="148.16667"
       y="203.26192"
       id="text5200"><tspan
         sodipodi:role="line"
         id="tspan5198"
         x="148.16667"
         y="203.26192"
         style="fill:#88aa00;stroke-width:0.26458332">E</tspan></text>
    <text
       xml:space="preserve"
       style="font-style:normal;font-weight:normal;font-size:10.58333302px;line-height:1.25;font-family:sans-serif;letter-spacing:0px;word-spacing:0px;fill:#88aa00;fill-opacity:1;stroke:none;stroke-width:0.26458332"
       x="252.11012"
       y="181.71727"
       id="text5204"><tspan
         sodipodi:role="line"
         id="tspan5202"
         x="252.11012"
         y="181.71727"
         style="fill:#88aa00;stroke-width:0.26458332">F</tspan></text>
    <text
       xml:space="preserve"
       style="font-style:normal;font-weight:normal;font-size:10.58333302px;line-height:1.25;font-family:sans-serif;letter-spacing:0px;word-spacing:0px;fill:#88aa00;fill-opacity:1;stroke:none;stroke-width:0.26458332"
       x="185.5863"
       y="238.03571"
       id="text5208"><tspan
         sodipodi:role="line"
         id="tspan5206"
         x="185.5863"
         y="238.03571"
         style="fill:#88aa00;stroke-width:0.26458332">G</tspan></text>
    <text
       xml:space="preserve"
       style="font-style:normal;font-weight:normal;font-size:10.58333302px;line-height:1.25;font-family:sans-serif;letter-spacing:0px;word-spacing:0px;fill:#88aa00;fill-opacity:1;stroke:none;stroke-width:0.26458332"
       x="144.76488"
       y="242.57144"
       id="text5212"><tspan
         sodipodi:role="line"
         id="tspan5210"
         x="144.76488"
         y="242.57144"
         style="fill:#88aa00;stroke-width:0.26458332">H</tspan></text>
    <text
       xml:space="preserve"
       style="font-style:normal;font-weight:normal;font-size:10.58333302px;line-height:1.25;font-family:sans-serif;letter-spacing:0px;word-spacing:0px;fill:#88aa00;fill-opacity:1;stroke:none;stroke-width:0.26458332"
       x="32.127975"
       y="140.13988"
       id="text5216"><tspan
         sodipodi:role="line"
         id="tspan5214"
         x="32.127975"
         y="140.13988"
         style="fill:#88aa00;stroke-width:0.26458332">I</tspan></text>
    <text
       xml:space="preserve"
       style="font-style:normal;font-weight:normal;font-size:10.58333302px;line-height:1.25;font-family:sans-serif;letter-spacing:0px;word-spacing:0px;fill:#88aa00;fill-opacity:1;stroke:none;stroke-width:0.26458332"
       x="177.27083"
       y="163.57442"
       id="text5220"><tspan
         sodipodi:role="line"
         id="tspan5218"
         x="177.27083"
         y="163.57442"
         style="fill:#88aa00;stroke-width:0.26458332">J</tspan></text>
    <text
       xml:space="preserve"
       style="font-style:normal;font-weight:normal;font-size:10.58333302px;line-height:1.25;font-family:sans-serif;letter-spacing:0px;word-spacing:0px;fill:#88aa00;fill-opacity:1;stroke:none;stroke-width:0.26458332"
       x="100.91967"
       y="244.08334"
       id="text5224"><tspan
         sodipodi:role="line"
         id="tspan5222"
         x="100.91967"
         y="244.08334"
         style="fill:#88aa00;stroke-width:0.26458332">K</tspan></text>
    <text
       xml:space="preserve"
       style="font-style:normal;font-weight:normal;font-size:10.58333302px;line-height:1.25;font-family:sans-serif;letter-spacing:0px;word-spacing:0px;fill:#88aa00;fill-opacity:1;stroke:none;stroke-width:0.26458332"
       x="237.74702"
       y="236.5238"
       id="text5228"><tspan
         sodipodi:role="line"
         id="tspan5226"
         x="237.74702"
         y="236.5238"
         style="fill:#88aa00;stroke-width:0.26458332">L</tspan></text>
    <text
       xml:space="preserve"
       style="font-style:normal;font-weight:normal;font-size:10.58333302px;line-height:1.25;font-family:sans-serif;letter-spacing:0px;word-spacing:0px;fill:#88aa00;fill-opacity:1;stroke:none;stroke-width:0.26458332"
       x="194.27975"
       y="177.9375"
       id="text5232"><tspan
         sodipodi:role="line"
         id="tspan5230"
         x="194.27975"
         y="177.9375"
         style="fill:#88aa00;stroke-width:0.26458332">M</tspan></text>
    <text
       xml:space="preserve"
       style="font-style:normal;font-weight:normal;font-size:10.58333302px;line-height:1.25;font-family:sans-serif;letter-spacing:0px;word-spacing:0px;fill:#88aa00;fill-opacity:1;stroke:none;stroke-width:0.26458332"
       x="174.625"
       y="119.72918"
       id="text5236"><tspan
         sodipodi:role="line"
         id="tspan5234"
         x="174.625"
         y="119.72918"
         style="fill:#88aa00;stroke-width:0.26458332">N</tspan></text>
    <text
       xml:space="preserve"
       style="font-style:normal;font-weight:normal;font-size:10.58333302px;line-height:1.25;font-family:sans-serif;letter-spacing:0px;word-spacing:0px;fill:#88aa00;fill-opacity:1;stroke:none;stroke-width:0.26458332"
       x="251.73213"
       y="149.58929"
       id="text5240"><tspan
         sodipodi:role="line"
         id="tspan5238"
         x="251.73213"
         y="149.58929"
         style="fill:#88aa00;stroke-width:0.26458332">O</tspan></text>
    <text
       xml:space="preserve"
       style="font-style:normal;font-weight:normal;font-size:10.58333302px;line-height:1.25;font-family:sans-serif;letter-spacing:0px;word-spacing:0px;fill:#88aa00;fill-opacity:1;stroke:none;stroke-width:0.26458332"
       x="68.035713"
       y="240.30359"
       id="text5244"><tspan
         sodipodi:role="line"
         id="tspan5242"
         x="68.035713"
         y="240.30359"
         style="fill:#88aa00;stroke-width:0.26458332">P</tspan></text>
    <text
       xml:space="preserve"
       style="font-style:normal;font-weight:normal;font-size:10.58333302px;line-height:1.25;font-family:sans-serif;letter-spacing:0px;word-spacing:0px;fill:#88aa00;fill-opacity:1;stroke:none;stroke-width:0.26458332"
       x="59.720238"
       y="114.81547"
       id="text5248"><tspan
         sodipodi:role="line"
         id="tspan5246"
         x="59.720238"
         y="114.81547"
         style="fill:#88aa00;stroke-width:0.26458332">Q</tspan></text>
    <text
       xml:space="preserve"
       style="font-style:normal;font-weight:normal;font-size:10.58333302px;line-height:1.25;font-family:sans-serif;letter-spacing:0px;word-spacing:0px;fill:#88aa00;fill-opacity:1;stroke:none;stroke-width:0.26458332"
       x="210.53275"
       y="248.24107"
       id="text5252"><tspan
         sodipodi:role="line"
         id="tspan5250"
         x="210.53275"
         y="248.24107"
         style="fill:#88aa00;stroke-width:0.26458332">R</tspan></text>
    <text
       xml:space="preserve"
       style="font-style:normal;font-weight:normal;font-size:10.58333302px;line-height:1.25;font-family:sans-serif;letter-spacing:0px;word-spacing:0px;fill:#88aa00;fill-opacity:1;stroke:none;stroke-width:0.26458332"
       x="212.8006"
       y="122.75298"
       id="text5256"><tspan
         sodipodi:role="line"
         id="tspan5254"
         x="212.8006"
         y="122.75298"
         style="fill:#88aa00;stroke-width:0.26458332">S</tspan></text>
    <text
       xml:space="preserve"
       style="font-style:normal;font-weight:normal;font-size:10.58333302px;line-height:1.25;font-family:sans-serif;letter-spacing:0px;word-spacing:0px;fill:#88aa00;fill-opacity:1;stroke:none;stroke-width:0.26458332"
       x="15.119051"
       y="212.33334"
       id="text5260"><tspan
         sodipodi:role="line"
         id="tspan5258"
         x="15.119051"
         y="212.33334"
         style="fill:#88aa00;stroke-width:0.26458332">T</tspan></text>
    <text
       xml:space="preserve"
       style="font-style:normal;font-weight:normal;font-size:10.58333302px;line-height:1.25;font-family:sans-serif;letter-spacing:0px;word-spacing:0px;fill:#88aa00;fill-opacity:1;stroke:none;stroke-width:0.26458332"
       x="125.11012"
       y="243.70535"
       id="text5264"><tspan
         sodipodi:role="line"
         id="tspan5262"
         x="125.11012"
         y="243.70535"
         style="fill:#88aa00;stroke-width:0.26458332">U</tspan></text>
    <text
       xml:space="preserve"
       style="font-style:normal;font-weight:normal;font-size:10.58333302px;line-height:1.25;font-family:sans-serif;letter-spacing:0px;word-spacing:0px;fill:#88aa00;fill-opacity:1;stroke:none;stroke-width:0.26458332"
       x="229.43155"
       y="140.89584"
       id="text5268"><tspan
         sodipodi:role="line"
         id="tspan5266"
         x="229.43155"
         y="140.89584"
         style="fill:#88aa00;stroke-width:0.26458332">V</tspan></text>
    <text
       xml:space="preserve"
       style="font-style:normal;font-weight:normal;font-size:10.58333302px;line-height:1.25;font-family:sans-serif;letter-spacing:0px;word-spacing:0px;fill:#88aa00;fill-opacity:1;stroke:none;stroke-width:0.26458332"
       x="35.529766"
       y="118.21727"
       id="text5272"><tspan
         sodipodi:role="line"
         id="tspan5270"
         x="35.529766"
         y="118.21727"
         style="fill:#88aa00;stroke-width:0.26458332">W</tspan></text>
    <text
       xml:space="preserve"
       style="font-style:normal;font-weight:normal;font-size:10.58333302px;line-height:1.25;font-family:sans-serif;letter-spacing:0px;word-spacing:0px;fill:#88aa00;fill-opacity:1;stroke:none;stroke-width:0.26458332"
       x="152.70238"
       y="157.52679"
       id="text5276"><tspan
         sodipodi:role="line"
         id="tspan5274"
         x="152.70238"
         y="157.52679"
         style="fill:#88aa00;stroke-width:0.26458332">X</tspan></text>
    <text
       xml:space="preserve"
       style="font-style:normal;font-weight:normal;font-size:10.58333302px;line-height:1.25;font-family:sans-serif;letter-spacing:0px;word-spacing:0px;fill:#88aa00;fill-opacity:1;stroke:none;stroke-width:0.26458332"
       x="265.33929"
       y="213.46725"
       id="text5280"><tspan
         sodipodi:role="line"
         id="tspan5278"
         x="265.33929"
         y="213.46725"
         style="fill:#88aa00;stroke-width:0.26458332">Y</tspan></text>
    <text
       xml:space="preserve"
       style="font-style:normal;font-weight:normal;font-size:10.58333302px;line-height:1.25;font-family:sans-serif;letter-spacing:0px;word-spacing:0px;fill:#88aa00;fill-opacity:1;stroke:none;stroke-width:0.26458332"
       x="120.95238"
       y="158.66072"
       id="text5284"><tspan
         sodipodi:role="line"
         id="tspan5282"
         x="120.95238"
         y="158.66072"
         style="fill:#88aa00;stroke-width:0.26458332">Z</tspan></text>
  </g>
</svg>
