<?xml version="1.0" encoding="UTF-8" standalone="no"?>
<!-- Created with Inkscape (http://www.inkscape.org/) -->

<svg
   xmlns:dc="http://purl.org/dc/elements/1.1/"
   xmlns:cc="http://creativecommons.org/ns#"
   xmlns:rdf="http://www.w3.org/1999/02/22-rdf-syntax-ns#"
   xmlns:svg="http://www.w3.org/2000/svg"
   xmlns="http://www.w3.org/2000/svg"
   xmlns:sodipodi="http://sodipodi.sourceforge.net/DTD/sodipodi-0.dtd"
   xmlns:inkscape="http://www.inkscape.org/namespaces/inkscape"
   id="svg4190"
   version="1.1"
   inkscape:version="0.91 r13725"
   width="863.19733"
   height="818.08691"
   viewBox="0 0 863.19733 818.08691"
   sodipodi:docname="d3js.svg">
  <metadata
     id="metadata4196">
    <rdf:RDF>
      <cc:Work
         rdf:about="">
        <dc:format>image/svg+xml</dc:format>
        <dc:type
           rdf:resource="http://purl.org/dc/dcmitype/StillImage" />
        <dc:title></dc:title>
      </cc:Work>
    </rdf:RDF>
  </metadata>
  <defs
     id="defs4194" />
  <sodipodi:namedview
     pagecolor="#ffffff"
     bordercolor="#666666"
     borderopacity="1"
     objecttolerance="10"
     gridtolerance="10"
     guidetolerance="10"
     inkscape:pageopacity="0"
     inkscape:pageshadow="2"
     inkscape:window-width="1547"
     inkscape:window-height="876"
     id="namedview4192"
     showgrid="false"
     fit-margin-top="0"
     fit-margin-left="0"
     fit-margin-right="0"
     fit-margin-bottom="0"
     inkscape:zoom="0.77483617"
     inkscape:cx="431.2535"
     inkscape:cy="666.9814"
     inkscape:window-x="53"
     inkscape:window-y="24"
     inkscape:window-maximized="1"
     inkscape:current-layer="svg4190" />
  <path
     style="fill:#ffd39e;fill-opacity:1"
     d="M 0.0018,728.65576 0,639.2246 l 6.564205,0.37941 c 3.610356,0.20869 26.814249,-0.17306 51.564249,-0.84832 40.01259,-1.09168 46.593196,-1.56533 59.374996,-4.27364 46.14324,-9.7772 86.44398,-31.97109 118.87184,-65.46349 31.76076,-32.80338 51.98328,-71.19241 61.26266,-116.29675 3.2766,-15.92662 4.55735,-52.72688 2.43555,-69.98159 -9.84544,-80.06408 -58.27662,-146.90046 -131.5759,-181.5784 -15.93788,-7.54021 -32.10227,-12.9155 -51.61915,-17.16533 -14.48692,-3.15455 -16.74233,-3.28504 -65.937496,-3.8146 L 0.003504,179.63357 0.003353,90.054089 0.003201,0.47459941 49.065854,0.72385541 C 76.050314,0.86094641 104.59725,1.6100834 112.5035,2.3886014 281.54073,19.033489 424.03747,140.55726 467.39564,305.04696 c 25.36511,96.22865 14.53331,198.85183 -30.44035,288.39975 -41.09098,81.81703 -113.03405,150.60756 -196.95179,188.32136 -32.93073,14.79954 -72.76091,26.53255 -108.125,31.85103 -18.00208,2.70736 -34.954796,3.4107 -99.062496,4.10994 l -32.8125,0.35788 -0.0018,-89.43116 z m 324.16809,87.9169 c 0.11475,-0.0836 7.38259,-4.96991 16.15076,-10.85853 8.76819,-5.88863 22.83069,-16.19544 31.25,-22.90404 20.1421,-16.04943 58.4383,-54.45345 74.62538,-74.83549 13.25577,-16.69107 35.19746,-48.95742 42.70352,-62.79766 l 4.22895,-7.79768 64.62598,-0.0149 c 41.97572,-0.01 66.94757,-0.49543 71.25,-1.38605 24.36738,-5.04423 46.47668,-26.28011 52.76878,-50.68421 2.50973,-9.73407 2.53934,-25.27282 0.0662,-34.76764 -5.98953,-22.99533 -25.62976,-42.89915 -49.25039,-49.91134 -5.65386,-1.67845 -13.77736,-2.01555 -48.57123,-2.01555 -37.0695,0 -41.69873,-0.21665 -41.04475,-1.92089 1.29475,-3.37406 5.59888,-35.6497 6.96245,-52.2097 1.67831,-20.38247 1.68225,-48.18675 0.01,-69.68205 -1.24534,-16.00659 -5.53384,-49.34272 -6.94677,-53.99986 -0.62243,-2.0516 1.82269,-2.1875 39.35904,-2.1875 24.18156,0 42.64453,-0.54274 46.64674,-1.37121 12.19531,-2.52453 24.55351,-9.4311 34.22765,-19.1287 36.17727,-36.26499 22.86959,-95.50536 -25.70978,-114.44933 l -8.14392,-3.17573 -68.656,-0.625 -68.65599,-0.625 -5.89025,-10.2505 C 450.47341,106.84234 393.30875,46.865579 332.71449,7.9630854 l -11.66403,-7.48848599 147.28903,-0.363335 c 156.38885,-0.385784 169.33498,-0.03014 196.2263,5.39063299 53.87405,10.8599556 104.79562,41.2546716 140.26426,83.7227016 71.24651,85.306321 77.92041,206.243701 16.42526,297.641551 -5.49846,8.17215 -11.23306,16.40532 -12.74357,18.29595 l -2.74636,3.4375 2.74636,3.4375 c 8.128,10.17342 23.8198,35.16309 29.63051,47.1875 68.34244,141.42432 -10.27822,310.97077 -162.0519,349.46692 -29.40546,7.45847 -27.42369,7.38077 -196.92046,7.72127 -85.36474,0.1715 -155.11474,0.24343 -155,0.15987 z"
     id="path4202"
     inkscape:connector-curvature="0" />
</svg>
