<?xml version="1.0" encoding="UTF-8" standalone="no"?>
<!-- Created with Inkscape (http://www.inkscape.org/) -->

<svg
   xmlns:dc="http://purl.org/dc/elements/1.1/"
   xmlns:cc="http://creativecommons.org/ns#"
   xmlns:rdf="http://www.w3.org/1999/02/22-rdf-syntax-ns#"
   xmlns:svg="http://www.w3.org/2000/svg"
   xmlns="http://www.w3.org/2000/svg"
   xmlns:sodipodi="http://sodipodi.sourceforge.net/DTD/sodipodi-0.dtd"
   xmlns:inkscape="http://www.inkscape.org/namespaces/inkscape"
   id="svg4190"
   version="1.1"
   inkscape:version="0.91 r13725"
   width="200"
   height="169"
   viewBox="0 0 200 169"
   sodipodi:docname="GUI.svg">
  <metadata
     id="metadata4196">
    <rdf:RDF>
      <cc:Work
         rdf:about="">
        <dc:format>image/svg+xml</dc:format>
        <dc:type
           rdf:resource="http://purl.org/dc/dcmitype/StillImage" />
        <dc:title></dc:title>
      </cc:Work>
    </rdf:RDF>
  </metadata>
  <defs
     id="defs4194" />
  <sodipodi:namedview
     pagecolor="#ffffff"
     bordercolor="#666666"
     borderopacity="1"
     objecttolerance="10"
     gridtolerance="10"
     guidetolerance="10"
     inkscape:pageopacity="0"
     inkscape:pageshadow="2"
     inkscape:window-width="1547"
     inkscape:window-height="876"
     id="namedview4192"
     showgrid="false"
     fit-margin-top="0"
     fit-margin-left="0"
     fit-margin-right="0"
     fit-margin-bottom="0"
     inkscape:zoom="2.6127596"
     inkscape:cx="51.199205"
     inkscape:cy="74.459856"
     inkscape:window-x="53"
     inkscape:window-y="24"
     inkscape:window-maximized="1"
     inkscape:current-layer="svg4190" />
  <path
     style="fill:#ffd39e;fill-opacity:1"
     d="m 45.609891,166.63499 c -2.13956,-1.29513 -4.949754,-4.10532 -6.244877,-6.24488 -2.281118,-3.76844 -2.354928,-4.57038 -2.359891,-25.64011 l -0.0051,-21.75 3.5,0 3.5,0 0,21.1 0,21.1 3.4,3.4 3.4,3.4 49.200007,0 49.2,0 3.4,-3.4 3.4,-3.4 0,-21.1 0,-21.1 3.5,0 3.5,0 0,21.61385 c 0,20.53078 -0.11221,21.81349 -2.23925,25.59805 -1.25117,2.22615 -4.0478,5.04409 -6.33786,6.38616 L 150.32431,169 99.912166,168.995 49.500023,168.99 45.609914,166.63524 Z M 87,155.5 87,152 99.999996,152 113,152 l 0,3.5 0,3.5 -13.000004,0 L 87,159 87,155.5 Z M 50,128 l 0,-20 -7.27682,0 -7.276819,0 -6.936256,6.98982 c -6.466268,6.5162 -6.917058,7.2557 -6.652934,10.91382 0.318086,4.40548 -1.897852,9.51258 -4.80178,11.06672 C 15.997242,137.53666 13.042284,138 10.488818,138 6.690786,138 5.314364,137.46821 2.923077,135.07692 0.44852702,132.60237 0,131.36302 0,127 c 0,-4.39215 0.44298402,-5.59683 2.997356,-8.1512 2.643478,-2.64348 3.591966,-2.9658 8.033708,-2.73005 l 5.036352,0.26731 7.738416,-7.69303 L 31.544247,101 40.772124,101 50,101 l 0,-3.000004 0,-3 -15,0 -15,0 0,-3.5 0,-3.5 15,0 15,0 0,-3.5 0,-3.5 -15,0 -15,0 0,-3.5 0,-3.5 15,0 15,0 0,-3 0,-3 -9.227876,0 -9.227877,0 -7.738415,-7.69303 C 16.112741,52.659 16.038959,52.615452 11.208877,52.871812 7.015426,53.094383 5.915687,52.723659 3.175169,50.163632 0.39930802,47.57059 0,46.546685 0,42.021867 0,37.634675 0.44533202,36.400822 2.923077,33.923077 5.314364,31.53179 6.690786,31 10.488818,31 c 2.553466,0 5.508424,0.46334 6.566573,1.029644 2.903928,1.554135 5.119866,6.661235 4.80178,11.066721 -0.264124,3.658118 0.186666,4.397618 6.652934,10.913818 l 6.936256,6.989813 7.276819,0 7.27682,0 L 50,41 50,21 99.999996,21 150,21 l 0,20 0,19.999996 7.27682,0 7.27682,0 6.93625,-6.989813 c 6.46627,-6.5162 6.91706,-7.2557 6.65294,-10.913818 -0.31809,-4.405486 1.89785,-9.512586 4.80178,-11.066721 C 184.00276,31.46334 186.95772,31 189.51118,31 c 3.79803,0 5.17446,0.53179 7.56574,2.923077 2.47775,2.477745 2.92308,3.711598 2.92308,8.09879 0,4.524818 -0.39931,5.548723 -3.17517,8.141765 -2.74052,2.560027 -3.84026,2.930751 -8.03371,2.70818 -4.83008,-0.25636 -4.90386,-0.212812 -12.59695,7.435154 l -7.73842,7.69303 -9.22787,0 -9.22788,0 0,3 0,3 15,0 15,0 0,3.5 0,3.5 -15,0 -15,0 0,3.5 0,3.5 15,0 15,0 0,3.5 0,3.5 -15,0 -15,0 0,3 0,3.000004 9.22788,0 9.22787,0 7.73842,7.69303 7.73841,7.69303 5.03636,-0.26731 c 4.44174,-0.23575 5.39023,0.0866 8.0337,2.73005 C 199.55702,121.40317 200,122.60785 200,127 c 0,4.36302 -0.44853,5.60237 -2.92308,8.07692 -2.39128,2.39129 -3.76771,2.92308 -7.56574,2.92308 -2.55346,0 -5.50842,-0.46334 -6.56657,-1.02964 -2.90393,-1.55414 -5.11987,-6.66124 -4.80178,-11.06672 0.26412,-3.65812 -0.18667,-4.39762 -6.65294,-10.91382 L 164.55364,108 l -7.27682,0 -7.27682,0 0,20 0,20 -50.000004,0 L 50,148 50,128 Z M 143,84.499996 143,28 99.999996,28 57,28 57,84.499996 57,141 99.999996,141 143,141 143,84.499996 Z M 90,118.12078 c -9.644673,-3.16009 -17.748174,-10.20094 -21.836312,-18.972824 -2.229633,-4.7841 -2.632236,-7.02452 -2.632236,-14.64796 0,-7.62344 0.402603,-9.86386 2.632236,-14.64796 3.203163,-6.87299 8.992318,-12.848144 16.05216,-16.567884 C 89.023827,50.750889 90.44619,50.5 99.999996,50.5 c 9.553814,0 10.976174,0.250889 15.784154,2.784152 7.05984,3.71974 12.849,9.694894 16.05216,16.567884 2.22963,4.7841 2.63224,7.02452 2.63224,14.64796 0,7.62344 -0.40261,9.86386 -2.63224,14.64796 -3.22287,6.915294 -9.0401,12.895194 -16.05216,16.501034 -4.39068,2.25784 -6.80592,2.76579 -14.28415,3.0041 -4.95,0.15775 -10.125,-0.0818 -11.5,-0.53231 z m 19.74098,-7.52842 c 1.32232,-1.32233 -2.25867,-6.08725 -5.92805,-7.88794 -3.29011,-1.61457 -4.006404,-1.65042 -7.105262,-0.35564 C 93.277587,103.78196 90,107.35102 90,109.65296 c 0,0.66436 1.0125,1.42897 2.25,1.69913 3.13622,0.68466 16.63282,0.0984 17.49098,-0.75973 z m -24.875432,-7.65074 c 3.554957,-8.031214 16.844142,-11.046594 24.973742,-5.666674 2.16777,1.43456 4.55059,3.984564 5.29516,5.666674 0.74458,1.68211 1.60973,3.05838 1.92257,3.05838 0.31284,0 1.72848,-1.2375 3.14587,-2.75 10.41845,-11.117554 9.65625,-29.142404 -1.65217,-39.071324 -6.41949,-5.63638 -9.27394,-6.661389 -18.550724,-6.661389 -9.276781,0 -12.131231,1.025009 -18.55072,6.661389 -11.308416,9.92892 -12.070613,27.95377 -1.652166,39.071324 1.41739,1.5125 2.833031,2.75 3.14587,2.75 0.312838,0 1.177994,-1.37627 1.922568,-3.05838 z m 6.749331,-14.029924 c -5.677949,-4.46627 -7.286627,-12.65768 -3.655363,-18.61315 5.162694,-8.4671 18.918274,-8.4671 24.080964,0 3.63127,5.95547 2.02259,14.14688 -3.65536,18.61315 -1.99073,1.56591 -4.08827,2.0883 -8.385124,2.0883 -4.296844,0 -6.394388,-0.52239 -8.385117,-2.0883 z m 13.346161,-7.10026 c 2.58432,-2.77394 2.57575,-4.8593 -0.0336,-8.17658 -1.37436,-1.74719 -3.03438,-2.63486 -4.927444,-2.63486 -3.065427,0 -6.999996,3.90439 -6.999996,6.9463 0,2.75483 3.814545,6.0537 6.999996,6.0537 1.718254,0 3.762104,-0.90164 4.961044,-2.18856 z M 13.960131,129.54804 C 16.616587,126.34721 12.714897,121.43027 9.25,123.6123 5.78767,125.79271 7.021174,131 11,131 c 0.965311,0 2.29737,-0.65338 2.960131,-1.45196 z m 177.999999,0 c 2.65646,-3.20083 -1.24523,-8.11777 -4.71013,-5.93574 -3.46233,2.18041 -2.22883,7.3877 1.75,7.3877 0.96531,0 2.29737,-0.65338 2.96013,-1.45196 z M 13.960131,44.548039 c 1.554598,-1.873175 1.0116,-4.536598 -1.210131,-5.935741 -3.464897,-2.182031 -7.366587,2.734907 -4.710131,5.935741 1.54461,1.861141 4.375652,1.861141 5.920262,0 z m 177.999999,0 c 1.5546,-1.873175 1.0116,-4.536598 -1.21013,-5.935741 -3.4649,-2.182031 -7.36659,2.734907 -4.71013,5.935741 1.54461,1.861141 4.37565,1.861141 5.92026,0 z M 7,91.499996 c 0,-3.41667 0.09524,-3.5 4,-3.5 3.904762,0 4,0.0833 4,3.5 0,3.41667 -0.09524,3.5 -4,3.5 -3.904762,0 -4,-0.0833 -4,-3.5 z m 178,0 c 0,-3.41667 0.0952,-3.5 4,-3.5 3.90476,0 4,0.0833 4,3.5 0,3.41667 -0.0952,3.5 -4,3.5 -3.90476,0 -4,-0.0833 -4,-3.5 z m -178,-14 c 0,-3.41666 0.09524,-3.5 4,-3.5 3.904762,0 4,0.0833 4,3.5 0,3.41667 -0.09524,3.5 -4,3.5 -3.904762,0 -4,-0.0833 -4,-3.5 z m 178,0 c 0,-3.41666 0.0952,-3.5 4,-3.5 3.90476,0 4,0.0833 4,3.5 0,3.41667 -0.0952,3.5 -4,3.5 -3.90476,0 -4,-0.0833 -4,-3.5 z M 37,34.386155 C 37,13.855374 37.112208,12.572661 39.239252,8.788097 40.490416,6.561952 43.287049,3.744008 45.57711,2.401943 L 49.675715,0 99.951706,0 c 50.213724,0 50.280924,0.0028 54.260194,2.239252 2.22615,1.251164 5.04409,4.047797 6.38616,6.337858 C 162.93392,12.562962 163,13.271643 163,34.337858 L 163,56 l -3.5,0 -3.5,0 0,-21.1 0,-21.1 -3.4,-3.4 L 149.2,7 99.999996,7 50.8,7 47.4,10.4 44,13.8 44,34.9 44,56 40.5,56 37,56 37,34.386155 Z M 96,13.5 C 96,10.083333 96.09524,10 99.999996,10 103.90476,10 104,10.08333 104,13.5 104,16.916667 103.9048,17 99.999996,17 96.095238,17 96,16.91667 96,13.5 Z"
     id="path4202"
     inkscape:connector-curvature="0" />
</svg>
