<?xml version="1.0" encoding="UTF-8" standalone="no"?>
<!-- Created with Inkscape (http://www.inkscape.org/) -->

<svg
   xmlns:dc="http://purl.org/dc/elements/1.1/"
   xmlns:cc="http://creativecommons.org/ns#"
   xmlns:rdf="http://www.w3.org/1999/02/22-rdf-syntax-ns#"
   xmlns:svg="http://www.w3.org/2000/svg"
   xmlns="http://www.w3.org/2000/svg"
   xmlns:sodipodi="http://sodipodi.sourceforge.net/DTD/sodipodi-0.dtd"
   xmlns:inkscape="http://www.inkscape.org/namespaces/inkscape"
   id="svg6334"
   version="1.1"
   inkscape:version="0.91 r13725"
   width="2000"
   height="2000"
   viewBox="0 0 2000 2000"
   sodipodi:docname="Inkscape.svg">
  <metadata
     id="metadata6340">
    <rdf:RDF>
      <cc:Work
         rdf:about="">
        <dc:format>image/svg+xml</dc:format>
        <dc:type
           rdf:resource="http://purl.org/dc/dcmitype/StillImage" />
        <dc:title />
      </cc:Work>
    </rdf:RDF>
  </metadata>
  <defs
     id="defs6338" />
  <sodipodi:namedview
     pagecolor="#ffffff"
     bordercolor="#666666"
     borderopacity="1"
     objecttolerance="10"
     gridtolerance="10"
     guidetolerance="10"
     inkscape:pageopacity="0"
     inkscape:pageshadow="2"
     inkscape:window-width="1547"
     inkscape:window-height="876"
     id="namedview6336"
     showgrid="false"
     inkscape:zoom="0.1668772"
     inkscape:cx="1643.7276"
     inkscape:cy="1705.5698"
     inkscape:window-x="53"
     inkscape:window-y="24"
     inkscape:window-maximized="1"
     inkscape:current-layer="svg6334" />
  <path
     inkscape:connector-curvature="0"
     id="path6896"
     d="m 973.22261,1873.2051 c -36.758,-4.1636 -64.7561,-17.9547 -79.9411,-39.3767 -5.4835,-7.7358 -8.677,-14.1151 -14.1323,-28.23 -9.1179,-23.5913 -15.6253,-34.6413 -27.3712,-46.478 -17.2012,-17.3342 -33.6272,-24.6849 -83.5554,-37.3916 -32.7073,-8.324 -46.937,-13.0949 -61.6246,-20.6612 -25.7815,-13.2813 -41.2229,-30.5454 -45.4666,-50.8335 -1.5194,-7.2639 -1.4763,-12.2338 0.2407,-27.75 0.4498,-4.0652 0.2712,-5.25 -0.7914,-5.25 -0.7548,0 -7.6292,5.0178 -15.2765,11.1508 -18.0649,14.4876 -27.6015,20.8371 -41.0816,27.3523 -33.1444,16.0194 -63.9304,17.7559 -89.9951,5.0762 -19.8926,-9.6772 -35.4461,-26.3721 -41.5206,-44.5676 -2.6095,-7.8165 -2.9198,-22.0212 -0.6337,-29.0117 6.1458,-18.7932 10.3019,-26.3053 19.7162,-35.6372 20.9694,-20.7859 56.0709,-35.0312 95.1012,-38.595 23.4407,-2.1404 45.0855,1.3426 63.3649,10.1962 10.8908,5.2749 24.4671,16.4564 24.4671,20.1511 0,1.0603 1.1076,3.6056 2.4614,5.6563 5.1096,7.7402 5.6102,18.5349 1.5606,33.6466 -1.1121,4.1499 -2.022,8.4679 -2.022,9.5956 0,1.8671 0.2224,1.9338 2.4885,0.7464 8.6933,-4.5548 29.339,-26.1487 38.0142,-39.76 7.0571,-11.0724 8.9432,-16.4332 8.972,-25.5 0.022,-6.9202 -0.3397,-8.6209 -2.6788,-12.5998 -9.5954,-16.3221 -40.0848,-33.8431 -95.7959,-55.0502 -22.5415,-8.5807 -51.4722,-18.7225 -98,-34.3545 -89.8281,-30.1795 -116.2793,-40.847 -147.5,-59.4855 -29.9394,-17.8736 -44.5586,-33.4886 -46.1947,-49.3415 -0.5604,-5.4296 -0.1725,-7.7743 3.8328,-23.1685 2.5094,-9.6449 12.4777,-20.3188 29.5879,-31.6822 12.0671,-8.0142 22.768,-13.9387 54.774,-30.3253 29.5773,-15.1432 33.5073,-17.5433 41.0085,-25.0444 12.328,-12.3281 11.4842,-19.5187 -3.6232,-30.8751 -20.8602,-15.6809 -50.0071,-26.5276 -131.8853,-49.08 -74.0641,-20.4001 -108.8444,-32.3305 -138.5,-47.5087 -61.7984,-31.6294 -84.8715,-74.0109 -67.9465,-124.80664 9.9466,-29.8517 33.1353,-64.7256 65.9464,-99.1776 13.0721,-13.726 625.295,-640.6158 646.0714,-661.5493 8.7608,-8.827 19.3037,-18.7751 23.4287,-22.1069 36.4338,-29.4271 82.6926,-45.3438 131.7833,-45.3438 52.08119,0 103.71529,18.5727 142.45829,51.2421 10.4865,8.8426 7.0479,5.3416 360.2218,366.7579 154.5189,158.125 290.8655,297.625 302.9923,310 37.5788,38.3477 52.2142,56.9804 68.3358,87 19.675,36.6363 22.8493,71.62284 9.5146,104.86884 -16.4665,41.0543 -58.9335,78.1795 -128.806,112.6036 -46.6346,22.9755 -83.0851,37.1164 -205,79.5294 -85.5259,29.7536 -115.8649,42.4563 -140.9036,58.9954 -5.7676,3.8098 -12.7761,9.5432 -16.3464,13.3725 -5.5054,5.9047 -6.25,7.1794 -6.25,10.6989 0,6.4196 2.4805,10.677 11.2546,19.317 7.0105,6.9032 11.0911,9.7603 27.2454,19.0762 48.29,27.8479 67.7534,42.1361 78.9294,57.9428 5.1278,7.2524 12.2631,23.596 13.7389,31.4691 4.68,24.9673 -15.6627,65.0457 -44.7724,88.209 -13.2375,10.5334 -33.4686,20.7869 -57.2003,28.9901 -6.4326,2.2235 -25.7349,8.2847 -42.894,13.4695 -17.1591,5.1847 -37.4091,11.7337 -45,14.5533 -46.9013,17.4215 -83.2849,40.4225 -106.6011,67.3913 -11.5617,13.3728 -13.7136,20.0436 -9.163,28.4045 3.6527,6.7114 5.9323,8.6195 20.4625,17.1281 15.2734,8.9439 24.052,17.1243 25.7337,23.9804 4.3595,17.7726 4.3178,25.2866 -0.1917,34.5037 -4.8955,10.006 -21.7037,26.0765 -43.042,41.1529 -45.0751,31.8473 -111.926,56.6529 -176,65.3063 -10.9618,1.4804 -46.22589,2.1153 -56.00009,1.0081 z m -399.9538,-330.0642 c 7.0902,-1.3107 11.4538,-3.4017 11.4538,-5.4887 0,-0.8548 -2.0972,-2.4884 -4.75,-3.6999 -8.9762,-4.0995 -33.0302,-2.0604 -34.958,2.9634 -2.0333,5.2987 14.0716,8.847 28.2542,6.2252 z m 422.8906,-275.4212 c 0.8882,-4.7348 -0.3925,-15.4856 -1.8448,-15.4856 -0.6324,0 -4.0404,2.9166 -7.5735,6.4814 l -6.4238,6.4813 2.9527,1.052 c 1.6239,0.5786 4.7526,1.9006 6.9526,2.9377 5.3283,2.5119 5.1836,2.5476 5.9368,-1.4668 z m -28.0671,-10.7356 c 0.3317,-1.2375 0.6092,-7.5678 0.6167,-14.0674 0.013,-10.7931 -0.1381,-11.7715 -1.7364,-11.288 -0.9625,0.2911 -6.925,1.9214 -13.25,3.6227 -6.325,1.7014 -14.65,4.0489 -18.5,5.2168 l -7,2.1233 4.5,1.99 c 16.6107,7.3457 33.5981,14.6325 34.1334,14.6417 0.3483,0.01 0.9047,-1.0016 1.2363,-2.2391 z m -96.9197,-40.5792 c -8.0026,-6.9848 -24.3267,-18.1708 -26.5173,-18.1708 -0.9411,0 -2.7735,0.8706 -4.0719,1.9346 l -2.3608,1.9345 10,4.6093 c 5.5,2.5351 12.7,5.9175 16,7.5165 6.0055,2.91 8.7898,3.7817 6.95,2.1759 z m -75.8759,-578.42074 c 1.9568,-3.9875 22.112,-47.3 44.7894,-96.25 25.7024,-55.4795 41.7548,-89 42.6204,-89 0.9906,0 4.2096,11.039 11.2268,38.5 18.656,73.0075 24.0407,93.5026 24.7798,94.3159 0.4078,0.4488 4.9302,-6.0762 10.0498,-14.5 5.1195,-8.4237 11.0839,-18.0159 13.2543,-21.3159 2.5822,-3.9264 43.7121,-45.8082 119.00579,-121.1816 l 115.0596,-115.1816 -4.5659,-5.3184 c -2.5112,-2.9251 -15.5296,-16.7208 -28.9299,-30.6571 -13.4003,-13.9363 -28.4141,-29.8163 -33.3641,-35.2889 -15.2092,-16.8148 -27.6151,-26.562 -45.1429,-35.4679 -11.7836,-5.9873 -27.4905,-11.3951 -40.3571,-13.8947 -11.6893,-2.2708 -34.21979,-3.0474 -46.60109,-1.6062 -26.7599,3.1149 -53.4462,14.1108 -73.4881,30.2804 -3.624,2.9238 -59.4326,58.641 -124.0192,123.816 -129.3347,130.513 -148.1818,149.7437 -177.4709,181.0828 -10.9564,11.7233 -24.164,25.838 -29.35,31.3661 -18.4068,19.6206 -27.1269,32.3062 -32.1737,46.8049 -7.5239,21.6153 -0.8059,36.5732 17.8344,39.7088 2.6227,0.4412 56.1847,0.855 119.0267,0.9197 l 114.2582,0.1177 3.5577,-7.25 z m 460.42599,-301.28 c 0,-2.4947 -121.2892,-128.2448 -135.1667,-140.138 -16.8108,-14.4072 -39.9214,-27.7144 -59.5555,-34.2924 -12.0393,-4.0335 -13.8261,-3.7915 -3.4313,0.4649 11.3137,4.6325 23.2238,10.4986 31.6535,15.5904 17.1619,10.3662 25.6356,17.8026 57.8753,50.7902 29.6497,30.3376 107.5576,108.1149 108.2964,108.1149 0.1806,0 0.3283,-0.2385 0.3283,-0.53 z m 319.6605,1310.44464 c -27.3052,-3.6942 -50.1449,-21.8458 -57.7736,-45.9147 -3.1365,-9.8956 -2.9279,-24.1055 0.5033,-34.2933 5.1707,-15.3527 13.3286,-28.9468 24.3467,-40.5708 8.0163,-8.4571 8.1358,-8.4782 23.5239,-4.1573 33.6633,9.4525 58.2936,27.2163 70.6394,50.9465 9.075,17.4433 11.7182,32.3875 7.7535,43.8364 -2.1349,6.1648 -9.3928,14.5792 -16.5207,19.1531 -13.6852,8.7818 -35.3304,13.3194 -52.4725,11.0001 z m -9.0616,-97.5286 c 2.6865,-1.2749 3.4011,-2.2085 3.4011,-4.4433 0,-7.1056 -13.8691,-9.1649 -19.5377,-2.9011 -1.4736,1.6283 -1.5818,2.4006 -0.6291,4.4916 2.0374,4.4716 10.3674,5.889 16.7657,2.8528 z m 113.9011,-38.4132 c -25.1159,-2.2434 -51.366,-7.7187 -69.4574,-14.4875 -17.0827,-6.3914 -25.3137,-12.338 -29.9671,-21.6502 -3.7772,-7.5588 -4.0484,-14.4707 -0.9607,-24.4799 9.6228,-31.1933 37.8404,-57.361 75.4114,-69.9331 41.4862,-13.8822 86.4633,-11.9954 120.9738,5.0748 24.6451,12.1903 38.4416,28.114 48.5219,56.003 4.5052,12.4645 4.7276,23.2301 0.6612,32 -8.5652,18.472 -33.609,30.3124 -76.1831,36.0182 -14.187,1.9014 -54.4877,2.751 -69,1.4547 z m 15,-110.7667 c 13.8722,-4.7338 -1.0466,-13.403 -18.0523,-10.4901 -13.2899,2.2765 -15.558,7.9821 -4.5061,11.3357 4.6559,1.4128 17.3329,0.9376 22.5584,-0.8456 z"
     style="fill:#423b38;fill-opacity:1" />
  <path
     inkscape:connector-curvature="0"
     id="path6886"
     d="m 975.03128,1856.676 c -29.4752,-1.8759 -50.6949,-9.5794 -64.5121,-23.42 -8.9011,-8.9161 -12.4473,-16.1092 -16.0345,-32.524 -2.9441,-13.472 -7.175,-26.5091 -11.1962,-34.5 -7.6115,-15.1254 -22.6477,-31.2914 -36.9616,-39.739 -17.2414,-10.1754 -34.1808,-15.3338 -76.2956,-23.2339 -38.4063,-7.2044 -53.5715,-11.8272 -68.0706,-20.75 -20.8449,-12.8281 -29.8216,-28.939 -25.5074,-45.7791 3.4291,-13.3849 10.6741,-23.3235 38.9985,-53.498 21.9026,-23.3332 29.355,-32.8124 34.985,-44.5 3.9089,-8.1146 4.0945,-8.9307 4.0945,-18 0,-11.4925 -1.8618,-16.0364 -10.3087,-25.1601 -9.6997,-10.4768 -25.8148,-20.4093 -51.8084,-31.9319 -32.3871,-14.3567 -55.5201,-22.581 -155.8829,-55.4199 -80.4954,-26.3382 -113.4173,-38.5592 -144,-53.4542 -27.365,-13.328 -43.885,-25.531 -48.0466,-35.4912 -5.9074,-14.1384 5.0453,-28.4279 36.1133,-47.1156 6.0133,-3.6171 31.8583,-17.1 57.4333,-29.962 47.8259,-24.0524 61.1897,-31.8032 70.3159,-40.7823 6.6164,-6.5097 9.0748,-11.5246 8.4344,-17.2057 -0.636,-5.6423 -2.9666,-8.6512 -10.7503,-13.879 -28.0413,-18.8334 -68.9974,-33.8186 -160.5,-58.7246 -73.0777,-19.8909 -98.4689,-27.5547 -124.5,-37.5776 -16.8755,-6.4977 -38.6743,-17.28 -50.3025,-24.8811 -12.3278,-8.0584 -27.5249,-22.9932 -32.9841,-32.4148 -9.6072,-16.5803 -11.1359,-36.22015 -4.5144,-58 6.6612,-21.91075 26.6761,-52.66839 52.9688,-81.39934 18.9873,-20.74807 668.9418,-685.31103 675.1424,-690.31703 26.354,-21.2764 57.2957,-35.0144 94.1898,-41.8199 13.9776,-2.5783 45.98292,-3.1036 62.32992,-1.0229 41.5616,5.29 78.609,20.9721 110.9907,46.9822 7.1438,5.7381 680.588,694.16113 693.6992,709.12848 33.9865,38.79796 49.8751,74.10491 48.1284,106.94849 -1.3888,26.1117 -11.3893,46.8967 -33.6101,69.8544 -21.5962,22.3124 -50.8256,42.0865 -92.5381,62.6035 -42.2904,20.8012 -83.1824,36.7539 -177.2376,69.1433 -85.2661,29.3627 -116.0446,40.689 -148.2624,54.5592 -22.9747,9.891 -48.1584,22.7437 -61.0961,31.1809 -18.0196,11.7514 -21.9477,18.7051 -16.7784,29.7023 5.2821,11.2372 22.7001,23.9227 66.8745,48.7044 46.0446,25.831 62.2249,36.6346 76.1706,50.8596 13.7289,14.0039 17.8573,27.2754 12.8142,41.1926 -6.6184,18.2642 -17.3671,35.2509 -30.8937,48.8232 -20.7291,20.7988 -39.6973,29.5004 -98.9063,45.3727 -15.5733,4.1748 -35.1939,9.8177 -43.6013,12.5399 -52.9798,17.154 -95.3485,42.534 -134.5835,80.6195 -14.4642,14.0404 -18.4608,20.2789 -18.4836,28.8527 -0.014,5.1026 0.4956,6.9722 3.0141,11.0659 4.1315,6.7155 14.0074,13.9156 30.9695,22.5784 27.5866,14.0888 36.5429,20.2035 39.8736,27.2223 3.8115,8.0321 0.981,15.1812 -10.2094,25.7869 -14.2193,13.4762 -34.3854,26.5915 -63.6642,41.4048 -64.5379,32.6524 -139.9019,50.9161 -195.50002,47.3775 z m 73.00002,-40.8688 c 61.7331,-12.7887 103.401,-28.7782 122.328,-46.9419 7.4486,-7.1482 9.2924,-11.0745 11.6648,-24.8396 2.5595,-14.8507 2.4964,-15.0312 -8.7032,-24.9176 -12.0909,-10.6731 -20.6305,-20.8823 -23.2663,-27.8149 -1.2132,-3.1908 -5.1095,-8.5612 -6.2114,-8.5612 -0.4465,0 -0.8119,0.6613 -0.8119,1.4696 0,0.8083 -0.8942,3.0615 -1.987,5.0073 -1.0929,1.9457 -1.9596,3.8543 -1.926,4.2414 0.034,0.387 -0.7598,0.9932 -1.763,1.3472 -2.0816,0.7344 -5.2779,-1.0073 -10.324,-5.6257 -4.143,-3.7918 -6.5035,-5.081 -12.804,-6.9931 -10.7759,-3.2701 -19.0524,-0.3853 -30.0981,10.4908 -16.1367,15.889 -28.0865,24.6911 -36.0979,26.5897 -0.825,0.1955 -3.975,1.0211 -7,1.8347 -14.3753,3.8664 -33.1364,1.4611 -59.54112,-7.6335 -31.0202,-10.6843 -54.6259,-22.7234 -76.4589,-38.9949 -9.8701,-7.3559 -13.7181,-10.4812 -30.4863,-24.7614 -5.5075,-4.6903 -11.1387,-9.3076 -12.5137,-10.2607 -10.4301,-7.2291 -18.2547,-11.414 -28.5,-15.243 -3.85,-1.4388 -9.475,-3.6818 -12.5,-4.9843 -5.4093,-2.3292 -25.9367,-5.2593 -27.9834,-3.9943 -0.5027,0.3106 -2.9908,0.042 -5.5292,-0.5973 -3.5779,-0.9009 -5.1307,-0.8862 -6.9091,0.066 -1.933,1.0345 -2.9526,0.8916 -6.4811,-0.9085 -5.5739,-2.8436 -11.5725,-8.3688 -13.1065,-12.072 -2.5224,-6.0896 -0.8419,-12.179 8.2528,-29.9049 13.0523,-25.4392 16.1829,-37.0023 14.7847,-54.6077 -2.3132,-29.1258 -22.7359,-52.7745 -62.9995,-72.9506 -6.8937,-3.4545 -15.4578,-7.4918 -19.0314,-8.9719 -3.5735,-1.48 -28.7723,-13.8231 -55.9973,-27.429 -70.7195,-35.3427 -109.2492,-52.1901 -148,-64.7141 -21.7886,-7.0419 -24.791,-8.2629 -26.5726,-10.8065 -1.8936,-2.7035 -1.8048,-3.3383 0.5726,-4.0929 1.702,-0.5402 2,-1.513 2,-6.5299 0,-9.4271 3.1014,-16.1805 11.0148,-23.9847 6.794,-6.7003 13.0003,-10.4402 13.7237,-8.2698 1.1995,3.5983 9.3652,13.1011 14.5164,16.8932 14.922,10.9849 26.6532,14.6913 107.2451,33.8835 58.4134,13.9106 103.8132,25.3284 119.3356,30.0123 77.013,23.2388 114.6615,54.285 114.5907,94.4954 -0.021,11.9637 -1.4962,17.4788 -11.0429,41.2861 -9.2769,23.1345 -11.2786,32.366 -9.566,44.1162 2.7357,18.7695 14.4652,34.3525 35.4705,47.1239 9.7108,5.9042 16.7001,8.3813 25.8874,9.1748 5.9774,0.5163 7.1435,0.3022 11.1525,-2.0472 5.9739,-3.5009 9.931,-9.1381 13.7153,-19.5385 1.7242,-4.7384 9.6196,-33.0704 17.5453,-62.9599 7.9258,-29.8895 14.6261,-54.6934 14.8896,-55.1198 0.2635,-0.4263 1.8387,-1.3384 3.5005,-2.0267 1.6618,-0.6884 3.0215,-1.8604 3.0215,-2.6045 0,-0.7442 1.35,-2.0512 3,-2.9044 1.65,-0.8532 3,-1.3148 3,-1.0257 0,0.2891 0.9,-0.3743 2,-1.4743 1.1,-1.1 2.9141,-2 4.0314,-2 1.1173,0 2.3219,-0.7875 2.677,-1.75 0.894,-2.423 2.414,-3.2574 4.8296,-2.6511 1.1301,0.2836 4.0588,-0.1371 6.5083,-0.935 2.4495,-0.7978 8.0537,-1.4815 12.4537,-1.5191 4.40002,-0.038 9.35002,-0.3023 11.00002,-0.5881 4.3781,-0.7582 26.8642,-0.9277 35,-0.2639 11.5002,0.9385 25.7491,5.1123 37.2141,10.9008 9.7943,4.945 11.3197,6.146 22.4003,17.6359 7.6416,7.9239 13.3673,14.8916 16.0241,19.5 2.2737,3.9438 4.9898,8.1178 6.0359,9.2756 2.6092,2.8878 8.3597,19.345 10.26,29.3626 0.9424,4.9681 1.5643,13.6823 1.5625,21.8928 l 0,13.6395 -4.9012,14 c -2.6956,7.7 -6.2776,17.6983 -7.96,22.2183 -4.3455,11.6754 -6.5154,23.2789 -5.7952,30.9905 0.7165,7.6731 3.5807,14.5362 7.0021,16.7779 3.1663,2.0747 3.7302,1.7933 17.6192,-8.7921 9.3382,-7.117 16.6226,-11.4467 17.6052,-10.4641 0.4398,0.4398 -2.4549,8.9125 -3.506,10.2616 -0.7894,1.0133 -1.0709,7.5079 -0.3254,7.5079 1.2854,0 6.3356,-3.664 23.455,-17.0172 31.0237,-24.1984 47.4189,-34.8343 74.6504,-48.4271 28.7963,-14.3739 50.1152,-22.0828 106.8053,-38.6208 18.7787,-5.4782 38.8964,-11.7237 44.7059,-13.8789 40.6215,-15.0694 62.1406,-33.7321 74.8943,-64.9532 6.0343,-14.7718 4.1501,-23.9276 -7.5522,-36.6986 -10.692,-11.6684 -27.8252,-23.3113 -71.1911,-48.3779 -37.8254,-21.864 -50.2067,-30.1683 -61.3905,-41.1751 -20.5838,-20.258 -18.0514,-39.4514 7.4433,-56.4151 18.0075,-11.9817 30.3856,-17.3302 70.4472,-30.4394 74.7025,-24.4447 164.8303,-55.8706 209.7867,-73.1488 62.3766,-23.9734 108.9084,-46.9538 140.7348,-69.5038 5.4882,-3.8885 14.7035,-10.2639 20.4785,-14.1675 14.6488,-9.9016 22.8693,-16.6061 34.8251,-28.4024 13.1359,-12.9608 19.0436,-20.7714 25.1674,-33.2742 6.9631,-14.2163 8.4038,-20.3763 8.4194,-36 0.011,-11.10748 -0.3866,-14.45579 -2.7323,-23 -6.1993,-22.58047 -22.7788,-50.28692 -45.1794,-75.5 -19.4926,-21.94009 -408.5624,-423.49977 -620.8332,-640.76307 -31.8457,-32.5947 -61.2983,-61.9958 -65.4502,-65.3358 -29.0321,-23.3552 -62.4666,-38.2802 -99.8392,-44.5678 -15.0758,-2.5364 -52.59692,-2.5307 -66.37762,0.01 -38.0945,7.0234 -67.6328,20.3541 -94,42.4225 -4.675,3.9128 -22.1982,21.2037 -38.9403,38.4242 -16.7454,17.2201 -61.5213,63.2596 -99.5051,102.3096 -263.3837,270.7767 -506.5108,522.63743 -529.9627,548.99997 -32.5137,36.549 -50.8323,69.83155 -52.2877,95 -1.016,17.56916 3.8973,29.6767 17.6846,43.5791 18.8641,19.0215 48.6543,33.9776 103.008,51.715 20.0411,6.5401 35.4182,11.0242 110.5,32.2231 52.8191,14.9131 88.7332,27.583 113.9859,40.2123 24.4473,12.2266 32.6551,18.2714 37.0745,27.3045 2.2455,4.5895 2.6086,6.4624 2.271,11.7145 -1.2954,20.1561 -20.3133,34.6416 -100.5739,76.6052 -38.5179,20.1388 -58.0253,32.7018 -64.3626,41.4501 -6.7993,9.3862 -2.0171,15.119 25.1051,30.0954 30.9231,17.0751 64.6362,29.9314 172,65.5908 78.1739,25.9645 109.5756,37.135 135.1924,48.0923 37.2726,15.9429 56.4771,29.0044 67.2185,45.7173 10.6451,16.5632 11.0444,31.7968 1.3683,52.2004 -4.6897,9.889 -11.7217,17.3289 -31.3254,33.1429 -21.4062,17.268 -27.3924,25.0939 -27.4281,35.8571 -0.022,6.6707 2.1513,10.6669 8.1743,15.0299 11.1484,8.0759 21.8113,11.3773 54.9734,17.0209 36.4709,6.2066 54.7629,11.8718 72.8982,22.5769 10.1624,5.9989 23.5006,18.3955 28.7702,26.7392 2.3566,3.7315 5.5553,11.2584 7.9428,18.6903 3.9872,12.4117 18.1884,47.0601 23.9565,58.4494 10.4223,20.5795 22.6496,28.8115 51.2589,34.5102 5.775,1.1503 16.35,3.7029 23.5,5.6723 20.5615,5.6637 24.51702,6.2329 41.00002,5.9 12.1751,-0.2459 17.919,-0.9077 30.5,-3.5139 z m 317.019,-413.6632 c -1.9146,-0.8304 -7.3146,-2.4467 -12,-3.5919 -5.1429,-1.2571 -13.4727,-4.5384 -21.019,-8.2799 -51.4283,-25.499 -74,-52.5308 -74,-88.6221 0,-27.0304 11.0666,-49.8024 37.1042,-76.3502 13.1806,-13.4389 14.2988,-14.3414 16.5168,-13.3308 1.6923,0.771 2.379,1.9036 2.379,3.9234 0,1.5617 0.224,2.8395 0.4977,2.8395 0.2737,0 2.6417,-1.5403 5.2621,-3.4229 3.6335,-2.6104 5.1716,-3.195 6.48,-2.4628 1.1901,0.666 2.622,0.4914 4.6746,-0.57 1.6274,-0.8416 3.6415,-1.2682 4.4759,-0.948 0.8343,0.3201 2.5036,-0.109 3.7095,-0.9537 2.0175,-1.4131 2.5596,-1.3403 6.7884,0.9108 2.5278,1.3457 5.1048,2.4466 5.7267,2.4466 1.1314,0 9.4466,3.3077 12.512,4.9772 0.8948,0.4873 3.2623,1.1928 5.261,1.5678 1.9988,0.3749 3.8808,1.0807 4.1822,1.5684 0.3013,0.4876 1.5339,0.9009 2.7389,0.9184 1.2051,0.017 3.0645,0.6925 4.1321,1.5 1.0677,0.8075 3.0927,1.4743 4.5,1.4819 8.0786,0.043 9.3621,3.6727 3.2512,9.1936 -2.0942,1.892 -9.8567,7.1722 -17.25,11.7338 -42.8427,26.4338 -51.7558,33.6927 -58.9516,48.0108 -6.5583,13.0496 -8.0317,23.0399 -5.0717,34.3876 4.5153,17.3099 16.227,30.7016 49.081,56.1212 11.0594,8.5568 18,14.9414 18,16.558 0,0.8602 -2.5465,2.002 -4.3318,1.9422 -0.6425,-0.022 -2.7347,-0.7186 -4.6492,-1.5489 z m -803.50712,-16.4595 c -62.7011,-20.2147 -104.3206,-34.4025 -124.9848,-42.6066 -21.5777,-8.5668 -48.8359,-21.9637 -53.4403,-26.2648 -5.5432,-5.1782 -3.3077,-11.784 5.6998,-16.8427 l 4.027,-2.2616 3.2983,4.1644 c 6.4454,8.1381 18.9828,14.7651 40.3881,21.3486 11.5653,3.557 27.035,8.6292 32.75,10.7381 5.6881,2.0989 2.9273,4.1999 -8.75,6.6588 l -4,0.8423 5.5,2.5068 c 3.025,1.3787 12.25,5.0074 20.5,8.0639 92.8257,34.3899 124.8433,46.8213 120,46.5922 -0.55,-0.026 -18.9946,-5.8488 -40.9881,-12.9394 z m 448.48812,-76.1995 c 0,-1.4162 -0.4869,-1.7333 -1.9488,-1.2692 -1.2113,0.3844 -2.6357,-0.063 -3.7638,-1.1826 -0.9981,-0.9907 -3.0961,-2.3768 -4.66212,-3.0803 -2.233,-1.0032 -2.7276,-1.7583 -2.2925,-3.5 0.3051,-1.2215 1.3017,-5.1459 2.2146,-8.7209 2.67112,-10.4601 0.4105,-30.0455 -3.5474,-30.7334 -0.825,-0.1434 -5.7717,3.1129 -10.9927,7.2363 -5.2209,4.1234 -10.0047,7.4971 -10.6305,7.4971 -0.786,0 -1.2636,-4.9429 -1.5447,-15.9874 -0.2579,-10.1332 -0.8253,-16.4058 -1.5495,-17.13 -0.8568,-0.8568 -6.423,0.064 -22.2535,3.6816 l -21.111,4.8243 -16.2088,-5.4443 c -14.5007,-4.8705 -17.3682,-6.2298 -27.2091,-12.8991 -34.0196,-23.0552 -37.1264,-25.0165 -39.6497,-25.0305 -2.4118,-0.013 -4.4984,1.1787 -16.0499,9.1686 -2.4262,1.6781 -4.5575,2.3948 -6.1925,2.0822 -2.1507,-0.4111 -2.6974,-1.3725 -3.9814,-7.0019 -0.8187,-3.5889 -1.951,-6.9878 -2.5164,-7.5532 -1.3749,-1.3749 -23.3413,-3.3749 -52.1103,-4.7447 -21.481,-1.0227 -25.6479,-1.5379 -48.5,-5.9967 -39.882,-7.7815 -59.6315,-9.85 -76.5,-8.0121 -17.5614,1.9133 -35.1249,6.6708 -55.794,15.113 -5.2923,2.1616 -9.9675,3.9302 -10.3894,3.9302 -0.4219,0 -0.3099,-1.2026 0.249,-2.6724 2.1839,-5.7441 0.4732,-5.7255 -10.412,0.1133 -5.7001,3.0575 -11.0264,5.5591 -11.8361,5.5591 -1.2458,0 -1.4024,-2.0621 -1.0178,-13.4021 0.3929,-11.5848 0.1708,-14.3363 -1.638,-20.2916 -5.4861,-18.0615 -17.7416,-29.1803 -49.6617,-45.0553 -32.8351,-16.3301 -64.8784,-26.8352 -156,-51.1432 -50.0655,-13.3557 -74.9163,-20.5528 -96.5194,-27.953 -45.6803,-15.6478 -73.518,-32.5891 -82.5497,-50.23747 -7.7151,-15.07584 -2.4078,-36.95072 15.3978,-63.46453 15.529,-23.12378 13.2832,-20.77269 201.1868,-210.61637 105.9288,-107.0224 304.6867,-309.0422 432.7347,-439.8364 34.7302,-35.475 65.7567,-66.7066 68.9478,-69.4036 19.6715,-16.6253 46.2854,-29.1122 73.8324,-34.6412 13.9583,-2.8016 41.997,-3.7669 57.37052,-1.9751 23.3631,2.723 50.7564,11.8162 70.3693,23.359 20.7567,12.216 18.6768,10.2377 125.7762,119.6307 123.3177,125.9585 411.7034,418.934 540.431,549.03213 47.0967,47.59819 57.1698,58.7296 68.6731,75.88843 29.0678,43.35881 27.594,74.46041 -5.0738,107.07231 -22.3697,22.3313 -59.3986,45.3202 -97.4158,60.4791 -28.5455,11.3822 -44.4352,12.7466 -40.9512,3.5164 0.8538,-2.262 0.7869,-3.1311 -0.311,-4.0423 -0.7693,-0.6384 -1.3987,-2.0198 -1.3987,-3.0697 0,-1.0499 -0.675,-2.168 -1.5,-2.4846 -0.825,-0.3166 -1.5,-1.5973 -1.5,-2.8461 0,-1.2489 -0.675,-2.8308 -1.5,-3.5155 -0.825,-0.6847 -1.5,-2.0643 -1.5,-3.0657 0,-1.0015 -0.9599,-2.4932 -2.133,-3.3149 -1.4076,-0.9859 -1.9549,-2.1753 -1.6093,-3.497 0.4012,-1.534 -0.153,-2.2388 -2.3669,-3.0106 -1.9212,-0.6697 -2.8908,-1.6961 -2.8908,-3.0598 0,-1.1286 0.45,-2.052 1,-2.052 0.55,0 1.8761,-0.8761 2.9468,-1.9468 1.0708,-1.0708 3.281,-2.6368 4.9116,-3.48 2.061,-1.0658 2.8204,-2.0853 2.4912,-3.3443 -0.3957,-1.5132 0.716,-2.1197 6.7554,-3.6862 6.5223,-1.6916 6.9928,-1.9749 4.8121,-2.8972 -1.4105,-0.5965 -12.6208,-1.0479 -26.9171,-1.0839 -30.0402,-0.075 -43.8285,1.6666 -60.5,7.6443 -6.05,2.1692 -17.975,5.9482 -26.5,8.3978 -8.525,2.4495 -24.05,7.1044 -34.5,10.3441 -10.45,3.2398 -25.183,7.7232 -32.74,9.9631 -25.0211,7.4165 -60.438,20.8275 -84.5223,32.0056 -8.3943,3.8959 -15.4442,7.0835 -15.6665,7.0835 -0.2223,0 -8.7402,4.0309 -18.9286,8.9576 -10.1885,4.9266 -21.5707,9.9891 -25.2938,11.25 -6.0097,2.0352 -7.8509,3.3582 -16.4114,11.7924 -5.3032,5.225 -10.4961,11.3 -11.5398,13.5 -1.3676,2.8829 -3.294,4.7615 -6.8976,6.7265 -5.5645,3.0343 -13.9998,5.7735 -17.7795,5.7735 -1.3594,0 -5.0155,1.125 -8.1246,2.5 -3.1091,1.375 -6.1611,2.5 -6.7823,2.5 -1.4824,0 -23.9055,9.096 -30.3136,12.2968 -2.75,1.3736 -8.375,4.0963 -12.5,6.0505 -7.4643,3.5361 -29.7282,15.1802 -38.7609,20.2721 -2.6065,1.4694 -7.2141,4.0246 -10.2391,5.6782 -3.025,1.6537 -10.172,5.6862 -15.8821,8.9612 -9.1959,5.2742 -10.8191,5.8847 -14.206,5.3431 -3.0144,-0.482 -4.8387,-0.053 -8.6179,2.0271 -2.6367,1.4513 -5.3349,3.0656 -5.996,3.5874 -0.6611,0.5219 -2.1374,0.652 -3.2806,0.2891 -1.363,-0.4326 -3.5926,0.2276 -6.4761,1.9174 -2.4186,1.4174 -5.1117,2.5771 -5.9848,2.5771 -0.873,0 -3.9428,1.5367 -6.8219,3.4148 -3.6008,2.3489 -6.9513,3.6223 -10.7346,4.0796 -5.9274,0.7165 -11.7111,2.3427 -13.8039,3.8814 -0.7172,0.5272 -4.7672,1.7442 -9,2.7044 -10.9259,2.4784 -19.6176,4.8149 -27.6961,7.4453 -3.85,1.2535 -9.3971,2.7758 -12.3268,3.3828 -2.9297,0.6069 -6.3047,1.635 -7.5,2.2846 -1.1953,0.6496 -4.5529,1.5105 -7.4614,1.913 -2.9084,0.4026 -6.9584,1.5965 -9,2.6532 -4.8447,2.5075 -8.4435,3.3559 -15.4618,3.6448 -5.0529,0.2081 -5.75,0.01 -5.75,-1.6509 z m -365.44692,-275.003 57.0129,-57.25 10.1134,-17 c 21.6219,-36.34543 80.7955,-139.0121 160.806,-278.99997 23.5766,-41.25 43.0123,-75.1875 43.1906,-75.4167 0.8869,-1.1404 2.2292,3.5806 10.9767,38.6044 5.1941,20.7967 9.9021,39.5465 10.4621,41.6661 0.8499,3.2167 1.3792,3.7824 3.2017,3.4217 1.2009,-0.2377 31.8835,-19.2619 68.18352,-42.2759 36.3,-23.0141 73.7352,-46.7394 83.1893,-52.723 l 17.1893,-10.8792 4.3107,2.1772 c 2.3709,1.1975 25.2873,13.3706 50.9254,27.0513 25.6381,13.6807 47.3203,24.8741 48.1826,24.8741 0.8624,0 1.7913,-0.7875 2.0642,-1.75 0.273,-0.9625 5.7253,-33.475 12.1164,-72.25 6.391,-38.775 11.9457,-71.3207 12.3436,-72.3237 0.6083,-1.5333 6.7723,3.0701 38.701,28.9025 20.8876,16.8995 48.9161,39.5066 62.2854,50.238 l 24.308,19.5117 2.0103,-2.0102 c 4.1381,-4.1381 7.0776,-14.8905 7.6231,-27.8841 0.7902,-18.8238 -3.9085,-37.2043 -12.5574,-49.1225 -2.0708,-2.8536 -20.1774,-21.9786 -40.2369,-42.5 -20.0595,-20.5215 -74.493,-76.1883 -120.9634,-123.7041 -80.2281,-82.0329 -84.4773,-86.5581 -84.2075,-89.6766 0.261,-3.0163 -0.5022,-3.9845 -9.3489,-11.861 -37.1721,-33.0955 -76.0887,-47.5481 -119.47932,-44.3713 -33.4995,2.4527 -67.4649,17.8264 -96.1445,43.5179 -4.7788,4.2809 -24.5746,24.2084 -43.9908,44.2834 -19.4162,20.075 -71.5511,73.175 -115.8553,118 -87.6776,88.7081 -115.6995,117.6013 -147.4166,152 -11.4103,12.375 -25.7641,27.8853 -31.8974,34.4673 -6.1332,6.582 -73.2513,76.126 -149.1513,154.5421 -173.6448,179.40134 -162.1813,167.3863 -171.3374,179.58083 -23.7801,31.67144 -27.9876,53.54307 -13.7638,71.5472 5.4054,6.84204 17.877,15.39684 30.3033,20.78644 26.1053,11.3225 57.2141,18.3855 156.6774,35.5723 71.0975,12.2853 108.8966,20.088 157.1205,32.4337 12.65,3.2385 23.684,5.9292 24.5201,5.9792 0.836,0.05 27.1759,-25.6716 58.533,-57.1591 z m -106.0833,620.2079 c -18.2707,-2.3892 -37.5664,-14.0004 -49.4114,-29.7333 -24.1028,-32.0146 -2.7518,-65.9961 53.7918,-85.6133 21.3615,-7.4112 39.8657,-10.1527 63.0162,-9.3362 18.598,0.6559 31.0144,3.4194 43.9159,9.7742 8.4962,4.1849 21.2177,14.7697 21.2177,17.654 0,2.9225 -9.0843,20.3145 -15.9036,30.4475 -23.8791,35.4829 -60.5126,61.3426 -94.0646,66.4005 -10.3233,1.5562 -13.3526,1.6108 -22.562,0.4066 z m 45.6103,-13.6451 c 9.9812,-4.9636 20.6282,-13.4662 23.4199,-18.7027 1.9358,-3.631 1.9409,-3.795 0.1609,-5.1062 -2.0844,-1.5354 -2.9402,-1.3239 -20.1471,4.9782 -12.5665,4.6026 -25.9005,7.9349 -40.0138,9.9999 -16.6837,2.441 -18.7028,3.9733 -11.9864,9.0962 5.0063,3.8184 8.1092,4.3276 25.0665,4.1128 l 15.0802,-0.191 8.4198,-4.1872 z m -67.9816,-51.7584 c 12.962,-4.7504 23.3528,-7.5206 52.4015,-13.9703 32.1365,-7.1352 48.779,-9.9528 53.9575,-9.1349 2.2234,0.3511 5.7204,1.7437 7.7711,3.0946 4.2969,2.8306 6.7204,3.051 10.7328,0.9762 7.1951,-3.7208 9.0424,-11.4032 4.716,-19.6127 -10.5159,-19.954 -56.1946,-24.3945 -100.6774,-9.787 -35.9503,11.8056 -57.326,34.7539 -45.9011,49.2783 2.7393,3.4824 5.5788,3.3414 16.9996,-0.8442 z m 1043.30382,41.5377 c -11.7056,-4.2154 -23.6994,-14.7948 -29.2593,-25.8087 -8.9323,-17.695 -5.5445,-37.559 9.5992,-56.2834 9.3517,-11.563 11.4895,-13.3277 15.1664,-12.5201 1.7003,0.3735 3.0897,0.9808 3.0877,1.3496 0,0.3688 -1.9752,1.4811 -4.3847,2.4719 -16.2405,6.6777 -24.4747,34.8869 -15.3559,52.607 5.3406,10.378 17.2063,12.2328 20.2496,3.1653 0.8209,-2.4459 12.3512,-9.8094 18.8366,-12.0294 3.213,-1.0999 8.163,-2.2988 11,-2.6642 8.8055,-1.1342 9.6581,-1.7255 9.6581,-6.6988 0,-5.7626 -3.2216,-14.9206 -7.539,-21.4313 -1.9148,-2.8875 -3.0156,-5.25 -2.4463,-5.25 2.1161,0 14.6852,6.9234 20.4858,11.284 12.2331,9.1964 23.0395,22.7249 27.6142,34.5702 3.0586,7.9198 3.2156,19.8499 0.3133,23.815 -4.1862,5.7193 -17.5112,12.7747 -26.428,13.9933 l -3.5,0.4784 3,-2.2584 c 8.276,-6.2301 17.5,-18.1307 17.5,-22.5783 0,-2.7751 -2.4242,-2.9983 -8.7246,-0.8033 -5.2601,1.8325 -13.9078,3.093 -31.2754,4.5588 -18.7735,1.5844 -22,3.2475 -22,11.3398 0,2.5235 0.8855,4.5394 3.1036,7.0657 l 3.1036,3.5348 -3.3536,-0.036 c -1.8445,-0.02 -5.6476,-0.8621 -8.4513,-1.8718 z m 129.1194,-137.1155 c -51.3185,-3.7767 -89.8803,-12.3354 -100.8502,-22.3834 -4.3944,-4.0251 -4.5084,-5.6562 -1.0079,-14.4226 9.6904,-24.2683 29.9462,-43.3987 57.8724,-54.657 4.8256,-1.9455 8.9005,-3.4104 9.0555,-3.2555 0.1549,0.155 -3.0955,2.0202 -7.2231,4.145 -9.2626,4.7682 -18.7671,13.8863 -23.6353,22.6743 -6.9118,12.4773 -15.8882,33.8585 -15.1677,36.1286 1.0875,3.4265 9.2837,11.562 14.8313,14.7216 6.5993,3.7585 15.7412,6.6269 27.6033,8.6606 18.8188,3.2265 92.3025,2.8302 114,-0.6148 19.9874,-3.1735 33.7251,-11.964 31.6456,-20.2495 -0.75,-2.9881 -2.749,-3.6469 -7.6456,-2.5197 -7.713,1.7754 -23.9995,4.7843 -32.5,6.0042 -13.5857,1.9497 -58.4139,1.6236 -76.5,-0.5565 -27.4313,-3.3066 -45.4854,-7.1219 -47.9918,-10.1421 -1.9269,-2.3217 -0.3556,-6.132 3.5154,-8.5244 7.8168,-4.831 9.8302,-4.9623 75.9764,-4.9524 l 62,0.01 7,2.6048 c 3.85,1.4326 8.6161,2.8136 10.5914,3.0688 3.2509,0.42 3.7124,0.1721 4.8667,-2.6146 1.8958,-4.5768 0.4808,-12.9551 -3.5479,-21.008 -9.7346,-19.4585 -35.154,-32.6043 -69.9102,-36.1547 -7.6183,-0.7782 -7.5027,-0.7955 2.4233,-0.3615 18.0088,0.7874 37.529,5.6773 52.5767,13.1707 20.8068,10.3613 35.8538,27.1015 42.1327,46.8737 5.4734,17.236 1.7949,25.0591 -15.6656,33.3166 -7.8615,3.718 -23.7902,7.5362 -39.9671,9.5804 -14.9024,1.8832 -57.3972,2.7152 -74.4783,1.4582 z"
     style="fill:#ffd39e;fill-opacity:1" />
</svg>
