<?xml version="1.0" encoding="UTF-8" standalone="no"?>
<svg
   xmlns:dc="http://purl.org/dc/elements/1.1/"
   xmlns:cc="http://creativecommons.org/ns#"
   xmlns:rdf="http://www.w3.org/1999/02/22-rdf-syntax-ns#"
   xmlns:svg="http://www.w3.org/2000/svg"
   xmlns="http://www.w3.org/2000/svg"
   xmlns:sodipodi="http://sodipodi.sourceforge.net/DTD/sodipodi-0.dtd"
   xmlns:inkscape="http://www.inkscape.org/namespaces/inkscape"
   version="1"
   width="190.476"
   height="205.89301"
   viewBox="0 0 190.476 205.89301"
   id="svg10423"
   inkscape:version="0.91 r13725"
   sodipodi:docname="IPBS.svg">
  <metadata
     id="metadata10441">
    <rdf:RDF>
      <cc:Work
         rdf:about="">
        <dc:format>image/svg+xml</dc:format>
        <dc:type
           rdf:resource="http://purl.org/dc/dcmitype/StillImage" />
        <dc:title />
      </cc:Work>
    </rdf:RDF>
  </metadata>
  <defs
     id="defs10439" />
  <sodipodi:namedview
     pagecolor="#ffffff"
     bordercolor="#666666"
     borderopacity="1"
     objecttolerance="10"
     gridtolerance="10"
     guidetolerance="10"
     inkscape:pageopacity="0"
     inkscape:pageshadow="2"
     inkscape:window-width="1547"
     inkscape:window-height="876"
     id="namedview10437"
     showgrid="false"
     fit-margin-top="0"
     fit-margin-left="0"
     fit-margin-right="0"
     fit-margin-bottom="0"
     inkscape:zoom="1.0466667"
     inkscape:cx="-127.82661"
     inkscape:cy="73.404593"
     inkscape:window-x="53"
     inkscape:window-y="24"
     inkscape:window-maximized="1"
     inkscape:current-layer="svg10423" />
  <rect
     x="128.989"
     y="75.417"
     width="22.844999"
     height="22.25"
     id="rect10431"
     style="fill:#e3b4e1;fill-opacity:1" />
  <path
     d="M 31.915999,2.6855469e-6 C 29.644999,3.6980027 26.860999,7.3880027 24.762999,11.087003 c -4.525,7.981 -8.564,15.867 -12.185,23.562 -3.62,7.695 -6.798,15.228 -9.513,22.638 -1.227,3.351 -2.022,6.562 -3.0650000375977,9.855 l 0,86.544997 C 1.571999,156.283 3.029999,158.941 5.030999,161.156 c 2.426,2.688 4.969,4.818 7.625,6.393 2.656,1.572 5.368,2.619 8.255,3.078 2.887,0.461 5.923,0.348 9.04,-0.307 3.117,-0.655 6.321,-1.852 9.669,-3.619 3.348,-1.77 6.947,-4.17 10.691,-7.16 3.744,-2.99 7.651,-6.568 11.792,-10.781 4.141,-4.211 8.512,-9.041 13.05,-14.475 4.537,-5.434 9.216,-11.439 14.149,-18.094 L 104.788,95.478003 c 6.856,-9.305 12.965,-16.807 18.475,-22.561 2.754,-2.877 5.364,-5.324 7.782,-7.315 2.418,-1.989 4.679,-3.517 6.761,-4.62 2.081,-1.102 4.146,-1.876 6.132,-2.232 1.985,-0.357 3.927,-0.313 5.816,0.077 1.891,0.39 3.71,1.175 5.503,2.31 1.794,1.135 3.569,2.585 5.268,4.466 1.864,2.067 3.332,4.409 4.56,7.007 1.227,2.598 2.162,5.494 2.751,8.625 0.589,3.129 0.835,6.502 0.786,10.162 -0.049,3.662 -0.414,7.59 -1.101,11.780997 -0.687,4.193 -1.617,8.576 -2.908,13.09 -1.292,4.514 -2.899,9.18 -4.796,14.014 -3.791,9.668 -8.805,19.924 -15.015,30.875 -4.222,7.445 -8.657,14.586 -13.364,21.406 -4.706,6.82 -9.666,13.363 -14.857,19.557 -1.07,1.279 -2.353,2.504 -3.459,3.773 l 29.008,0 c 1.389,-2.076 2.888,-4.053 4.245,-6.16 4.623,-7.174 9.103,-14.506 13.364,-22.021 5.114,-9.018 9.676,-17.764 13.757,-26.178 4.081,-8.416 7.644,-16.52 10.691,-24.332 2.515,-6.447 4.478,-12.52 6.289,-18.557 l 0,-74.612997 c -2.107,-4.04 -4.663,-7.795 -7.704,-11.164 -2.744,-3.04 -5.547,-5.453 -8.49,-7.314 -2.943,-1.862 -5.977,-3.166 -9.119,-3.85 -3.142,-0.685 -6.406,-0.803 -9.748,-0.309 -3.341,0.494 -6.758,1.639 -10.298,3.311 -3.54,1.673 -7.257,3.926 -11.163,6.854 -3.906,2.928 -7.99,6.52 -12.263,10.702 -4.273,4.182 -8.726,8.961 -13.364,14.398 -4.639,5.438 -9.460001,11.479 -14.465001,18.172 l -15.093,20.405 c -7.108,9.488 -13.418,17.122997 -18.866,22.944997 -2.725,2.91 -5.237,5.32 -7.547,7.314 -2.31,1.994 -4.395,3.543 -6.289,4.619 -1.895,1.078 -3.785,1.842 -5.581,2.232 -1.796,0.393 -3.491,0.447 -5.188,0.154 -1.698,-0.293 -3.354,-0.947 -4.953,-1.924 -1.599,-0.979 -3.137,-2.264 -4.638,-3.928 -1.713,-1.898 -3.129,-4.1 -4.245,-6.545 -1.115,-2.445 -1.997,-5.168 -2.516,-8.162 -0.519,-2.991997 -0.708,-6.237997 -0.629,-9.776997 0.079,-3.541 0.503,-7.385 1.18,-11.473 0.676,-4.088 1.597,-8.283 2.83,-12.629 1.232,-4.345 2.77,-8.795 4.559,-13.397 3.579,-9.205 8.268,-18.946 14.072,-29.182 3.815,-6.729 7.787,-13.155 12.027,-19.3270003 1.473,-2.142 3.113,-4.08 4.637,-6.1570000144531 l -25.706,0 z"
     id="path10435"
     inkscape:connector-curvature="0"
     style="fill:#ffd39e;fill-opacity:1" />
</svg>
