<?xml version="1.0" encoding="UTF-8" standalone="no"?>
<!-- Created with Inkscape (http://www.inkscape.org/) -->

<svg
   xmlns:dc="http://purl.org/dc/elements/1.1/"
   xmlns:cc="http://creativecommons.org/ns#"
   xmlns:rdf="http://www.w3.org/1999/02/22-rdf-syntax-ns#"
   xmlns:svg="http://www.w3.org/2000/svg"
   xmlns="http://www.w3.org/2000/svg"
   xmlns:sodipodi="http://sodipodi.sourceforge.net/DTD/sodipodi-0.dtd"
   xmlns:inkscape="http://www.inkscape.org/namespaces/inkscape"
   id="svg11075"
   version="1.1"
   inkscape:version="0.91 r13725"
   width="159.81094"
   height="115.21894"
   viewBox="0 0 159.81094 115.21894"
   sodipodi:docname="IRHS.svg">
  <metadata
     id="metadata11081">
    <rdf:RDF>
      <cc:Work
         rdf:about="">
        <dc:format>image/svg+xml</dc:format>
        <dc:type
           rdf:resource="http://purl.org/dc/dcmitype/StillImage" />
        <dc:title></dc:title>
      </cc:Work>
    </rdf:RDF>
  </metadata>
  <defs
     id="defs11079" />
  <sodipodi:namedview
     pagecolor="#ffffff"
     bordercolor="#666666"
     borderopacity="1"
     objecttolerance="10"
     gridtolerance="10"
     guidetolerance="10"
     inkscape:pageopacity="0"
     inkscape:pageshadow="2"
     inkscape:window-width="1547"
     inkscape:window-height="876"
     id="namedview11077"
     showgrid="false"
     inkscape:zoom="1.9263804"
     inkscape:cx="143.93645"
     inkscape:cy="61.745584"
     inkscape:window-x="53"
     inkscape:window-y="24"
     inkscape:window-maximized="1"
     inkscape:current-layer="svg11075"
     fit-margin-top="0"
     fit-margin-left="0"
     fit-margin-right="0"
     fit-margin-bottom="0" />
  <path
     style="fill:#ffd39e;fill-opacity:1"
     d="m 80.767969,0.00530939 c -1.631273,-0.01057 -3.437117,-0.004700005 -5.433593,0.01172 C 48.567172,0.23710239 34.36626,7.0543434 34.35586,19.690855 c -0.0021,2.58584 -1.274233,7.708293 -3,12.078126 -1.648104,4.173321 -3.01214,8.611289 -3.03125,9.863281 -0.05889,3.849574 -1.573018,2.528509 -2.898438,-2.529297 C 22.352603,27.374293 18.837793,20.568122 10.906641,10.991637 6.5452978,5.7255124 2.2981943,1.4174184 1.4691412,1.4174184 c -2.10494464,0 -1.93082964,8.218657 0.4121094,19.4257806 3.2949664,15.761057 9.3919094,24.694943 18.5507814,27.183594 2.374104,0.64508 4.92855,1.349382 5.675781,1.566406 1.10743,0.321666 1.227597,3.899998 0.650391,19.359375 -0.674185,18.056289 -0.623821,18.885249 1.064453,17.265629 1.517523,-1.45567 1.881336,-4.592826 2.521484,-21.751957 0.620135,-16.623493 1.126654,-21.174889 2.966797,-26.626953 1.22074,-3.61688 2.63976,-7.008492 3.152344,-7.537109 0.512594,-0.528611 0.93164,-1.717471 0.93164,-2.640625 0,-1.383034 1.468284,-1.775322 8.345704,-2.232422 6.793283,-0.451511 10.451278,-1.41293 19.65625,-5.167969 22.522528,-9.187787 29.666015,-13.2514736 29.666015,-16.8749996 0,-2.50246201 -2.876007,-3.30689701 -14.294922,-3.38085901 z M 103.21328,1.5404654 c -2.57396,0.03272 -3.37233,0.440597 -3.78125,1.505859 -0.44583,1.161807 0.2387,2.500139 2.09375,4.095703 4.82478,4.1500906 12.31275,2.375554 11.58985,-2.746093 -0.32229,-2.283055 -0.83489,-2.495009 -6.68555,-2.773438 -1.30388,-0.06205 -2.35881,-0.09294 -3.2168,-0.08203 z m 17.93164,2.521484 c -0.16624,0.0085 -0.30483,0.0326 -0.4082,0.07227 -2.63985,1.013008 -1.19637,5.610069 2.55078,8.1269526 5.27463,3.542849 9.20703,2.582772 9.20703,-2.246094 0,-1.5957276 -1.27884,-2.6672016 -5.12695,-4.2929686 -2.46749,-1.042456 -5.05895,-1.719605 -6.22266,-1.660156 z m 19.57227,6.5039056 c -1.58943,-0.157794 -2.72495,1.275552 -2.97071,4.242188 -0.24405,2.944944 0.24865,4.342426 2.23047,6.324219 2.88626,2.886314 3.0561,2.930633 5.73633,1.496093 2.69641,-1.443055 2.45098,-4.692562 -0.66601,-8.779296 -1.58211,-2.07422 -3.09386,-3.160474 -4.33008,-3.283204 z m 13.91406,12.097657 c -3.66084,0 -5.33317,7.553581 -2.33594,10.550781 3.3607,3.360637 7.51563,1.567235 7.51563,-3.244141 0,-3.985318 -2.35456,-7.30664 -5.17969,-7.30664 z m -52.48633,23.152343 -4.30078,0.310547 -4.298827,0.3125 -0.275391,18.90625 -0.27539,18.908201 3.816406,0.33008 c 2.099002,0.18171 4.156832,0.18208 4.574222,0.002 0.41721,-0.18017 0.75976,-3.942655 0.75976,-8.361324 l 0,-8.033204 8.09375,0 8.0918,0 0,8.09375 0,8.093748 4.04883,0 4.04687,0 0,-19.222654 0,-19.222656 -4.04687,0 -4.04883,0 0,8.599609 0,8.59961 -8.0918,0 -8.09375,0 0,-8.658203 0,-8.658204 z m -63.738279,0.117188 0,19.052734 c 0,10.479626 0.227874,19.282626 0.50586,19.560546 0.277993,0.27697 1.529026,0.39066 2.78125,0.25195 1.252243,-0.13901 2.845447,-0.28953 3.541015,-0.33593 0.964356,-0.0642 1.265625,-4.648079 1.265625,-19.306644 l 0,-19.222656 -4.046875,0 -4.046875,0 z m 18.210938,0 0,19.052734 c 0,10.479632 0.203804,19.258486 0.453125,19.507816 0.249319,0.24873 2.298061,0.27751 4.552734,0.0625 l 4.09961,-0.39063 0,-7.48242 c 0,-4.114871 0.340484,-7.465586 0.757812,-7.447266 0.417333,0.01834 2.585088,3.087499 4.816406,6.820313 4.568947,7.643583 7.898981,9.878723 13.228516,8.878903 4.050776,-0.76002 4.494472,-2.794311 0.960937,-4.404294 -1.37159,-0.624936 -4.153142,-3.636303 -6.18164,-6.691406 l -3.689453,-5.554688 2.695312,-2.322265 c 3.482269,-3.003005 5.179878,-9.954552 3.365234,-13.777344 -2.062239,-4.344448 -7.153599,-6.2482 -16.71289,-6.25 l -8.345703,-0.002 z m 90.142581,0.130859 c -3.31419,0.06981 -4.71187,0.642019 -7.26563,2.332032 -4.73601,3.134191 -6.11614,8.070674 -3.68359,13.171875 1.49468,3.134304 3.45133,4.425234 12.12695,7.998046 4.25261,1.751349 5.31053,3.499304 4.375,7.226563 -0.54263,2.162758 -1.2111,2.527344 -4.64062,2.527344 -2.20392,0 -5.85685,-0.740197 -8.11719,-1.644531 -2.26015,-0.904319 -4.31315,-1.440752 -4.5625,-1.191407 -0.24926,0.249322 -0.73044,1.84359 -1.07031,3.542969 -0.5806,2.903084 -0.38281,3.15178 3.27734,4.12109 12.69273,3.36147 22.61133,-1.718584 22.61133,-11.582028 0,-3.808643 -0.52392,-5.064513 -3.12696,-7.496093 -1.71978,-1.606486 -4.86365,-3.389357 -6.98632,-3.960938 -5.52815,-1.488618 -8.51963,-4.156466 -7.66797,-6.839843 0.93133,-2.934247 3.26819,-3.482855 9.66601,-2.269532 2.97457,0.564135 5.52795,0.905704 5.67383,0.759766 0.14613,-0.145941 0.41419,-1.627798 0.59571,-3.292969 l 0.32812,-3.027344 -7.4668,-0.300781 c -1.64442,-0.06605 -2.96167,-0.09749 -4.0664,-0.07422 z m -78.494144,4.927735 c 3.879111,0 5.849838,2.790478 5.230469,7.408203 -0.295925,2.206316 -1.14117,4.3936 -1.878906,4.861328 -0.737742,0.467728 -2.479975,0.861941 -3.871094,0.869141 -2.474824,0.01724 -2.523384,-0.123908 -2.191406,-6.560547 0.316054,-6.128434 0.502351,-6.578125 2.710937,-6.578125 z m -8.613281,38.167966 -2.380859,2.41407 c -2.993204,3.03644 -3.663508,4.96986 -2.50586,7.2207 0.500829,0.97396 1.805129,1.769527 2.898438,1.769527 1.740846,0 1.988281,-0.707357 1.988281,-5.701167 l 0,-5.70313 z m 64.748045,0.0645 0,5.66992 c 0,5.963977 1.90688,8.042927 2.18555,2.38281 l 0.16211,-3.28711 0.4082,3.28711 c 0.2244,1.80847 0.8344,3.287107 1.35547,3.287107 2.07165,0 0.89635,-6.591577 -1.59766,-8.957027 l -2.51367,-2.38281 z m -43.267576,0.21875 c -0.490161,-0.0201 -1.029052,0.0817 -1.615235,0.30664 -1.228939,0.4714 -1.654297,1.94527 -1.654297,5.72461 0,2.79976 0.455177,5.089837 1.011719,5.089837 0.55637,0 1.011719,-0.910487 1.011719,-2.023437 0,-2.83692 1.883639,-2.52308 3.035156,0.50586 1.445271,3.801167 1.900152,3.085247 1.699219,-2.67383 -0.156059,-4.4753 -1.364252,-6.84243 -3.488281,-6.92968 z m 19.800776,0.0371 c -0.1408,-0.0191 -0.38623,0.30535 -0.8125,0.96485 -0.53938,0.83479 -0.98809,2.71833 -0.99609,4.18359 -0.0105,1.80576 -0.66783,2.83487 -2.03906,3.19336 -1.49209,0.39029 -2.023439,0.0296 -2.023439,-1.36914 0,-1.27114 0.501013,-1.70454 1.517578,-1.31445 0.960981,0.36877 1.517581,-0.0136 1.517581,-1.04297 0,-2.10771 -3.637596,-2.12792 -4.445315,-0.0234 -0.942525,2.45602 -0.73159,4.95455 0.521484,6.208987 1.221896,1.2218 3.923831,0.64477 3.923831,-0.837887 0,-0.4972 0.48095,-0.9043 1.07031,-0.9043 0.58927,0 0.79124,0.45537 0.44727,1.01172 -0.34401,0.556267 -0.14379,1.013667 0.44531,1.013667 0.58934,0 1.07226,-1.112587 1.07226,-2.470697 0,-1.35834 0.45513,-2.75 1.01172,-3.09375 0.59014,-0.3649 1.01172,0.66291 1.01172,2.46875 0,1.70199 0.45546,3.095697 1.01172,3.095697 0.55642,0 1.01172,-0.46025 1.01172,-1.021487 0,-0.62879 0.72402,-0.56721 1.88867,0.16016 2.6224,1.637507 5.19336,0.387507 5.19336,-2.52539 0,-4.92085 -5.91935,-6.30453 -6.20898,-1.45117 l -0.13672,2.30664 -0.45508,-2.39258 c -0.24966,-1.31631 -1.32453,-2.62169 -2.39063,-2.90039 -1.06568,-0.27879 -1.94512,-1.24932 -1.95312,-2.1582 -0.007,-0.71829 -0.0428,-1.08249 -0.1836,-1.10157 z m -73.427729,0.4668 c -0.607922,-0.0935 -1.240235,2.06484 -1.240235,5.61914 0,2.74926 0.423672,4.998047 0.941406,4.998047 1.162621,0 1.706136,-3.477267 1.22461,-7.832027 -0.206001,-1.86314 -0.561028,-2.72909 -0.925781,-2.78516 z m -20.9765629,0.38281 c -0.559674,-0.0509 -1.1180197,1.57987 -1.3105469,4.92383 -0.2491643,4.32781 -0.00428,5.310547 1.3183594,5.310547 1.3145174,0 1.5660234,-0.962557 1.3183594,-5.070307 -0.203802,-3.38016 -0.766498,-5.11314 -1.3261719,-5.16407 z m 24.7597659,1.12891 c -0.933247,0.10014 -1.524344,2.51694 -1.169922,5.55274 0.581146,4.977847 2.859182,4.598027 2.732422,-0.45508 -0.05532,-2.20458 -0.446606,-4.35284 -0.869141,-4.77539 -0.244352,-0.24431 -0.477995,-0.34538 -0.693359,-0.32227 z m 10.753906,0 c -1.047401,0 -1.337996,1.13256 -1.105469,4.30078 0.173581,2.36492 0.358216,4.413497 0.410157,4.552737 0.05188,0.13911 0.661885,0.25344 1.357421,0.2539 1.090591,5.4e-4 1.368397,-2.786317 0.832032,-8.347647 -0.04024,-0.41728 -0.712248,-0.75977 -1.494141,-0.75977 z m -19.050781,0.17383 c -0.453487,0.0123 -0.773438,0.28697 -0.773438,0.72851 0,0.64505 -1.181081,0.83501 -2.972656,0.47657 -2.915754,-0.58303 -2.973116,-0.51311 -2.916016,3.62109 0.0512,3.709487 0.317406,4.178957 2.214844,3.908197 1.314889,-0.18747 2.212151,-1.098117 2.300781,-2.332027 0.270677,-3.76734 0.599067,-4.05506 1.240235,-1.09375 1.014964,4.687627 2.892184,4.310247 2.769531,-0.55664 -0.06095,-2.41808 -0.653821,-4.43242 -1.373047,-4.67187 -0.173885,-0.0578 -0.339072,-0.0842 -0.490234,-0.0801 z m 41.539062,0.78711 c -1.177936,0.073 -2.447641,1.75022 -2.664062,4.35937 -0.266796,3.21646 -0.0095,3.785157 1.710937,3.785157 1.113642,0 2.310637,-0.46184 2.660156,-1.027337 0.349501,-0.56555 1.093247,-0.74587 1.652344,-0.40039 0.680108,0.42024 0.68132,0.007 0.0039,-1.24805 -0.55686,-1.03222 -1.272687,-2.70586 -1.589843,-3.72071 -0.393016,-1.25766 -1.066676,-1.79184 -1.773438,-1.74804 z m 56.023439,0.0469 c -1.17846,0.0157 -2.41354,0.91061 -2.82031,2.53125 -0.34753,1.38983 -0.35909,3.24415 -0.0234,4.11914 0.72758,1.895987 4.80409,1.576787 5.46484,-0.42773 0.32666,-0.99068 -0.14282,-1.18307 -1.6914,-0.69141 -2.30075,0.73029 -2.46396,0.53698 -1.55274,-1.83789 0.32449,-0.84499 1.2401,-1.28743 2.03516,-0.98242 1.00745,0.38647 1.25436,0.0601 0.81836,-1.07617 -0.43266,-1.12753 -1.31389,-1.64694 -2.23047,-1.63477 z m -39.091798,0.004 c 0.867501,0 1.296916,0.45523 0.953125,1.01172 -0.343886,0.55651 -1.054562,1.01172 -1.578125,1.01172 -0.523566,0 -0.951172,-0.45521 -0.951172,-1.01172 0,-0.55649 0.708724,-1.01172 1.576172,-1.01172 z m -69.984375,0.002 c -2.138687,0 -2.412109,0.45759 -2.412109,4.04688 0,3.889377 1.899779,5.908687 2.140624,2.27539 0.11177,-1.68612 0.139442,-1.68612 0.580079,0 0.254476,0.97397 1.112399,1.769527 1.90625,1.769527 1.527566,0 1.811771,-2.058487 0.804687,-5.816407 -0.416259,-1.55331 -1.374177,-2.27539 -3.019531,-2.27539 z m 103.818363,0 c -1.68624,0 -2.02344,0.67452 -2.02344,4.04688 0,2.22576 0.45527,4.044917 1.01172,4.044917 0.55644,0 1.01172,-1.110477 1.01172,-2.468747 0,-1.35822 0.45522,-2.7498 1.01171,-3.09375 1.7108,-1.05762 1.12209,-2.5293 -1.01171,-2.5293 z m -77.078129,0.0723 c -0.452626,0.10639 -0.884256,1.142 -0.986328,3.21484 l -0.162109,3.28711 -0.408203,-3.28711 c -0.577998,-4.65753 -2.302735,-4.09005 -2.302735,0.75781 0,3.642007 0.252947,4.046877 2.529297,4.046877 2.276341,0 2.529297,-0.40487 2.529297,-4.046877 0,-2.71076 -0.61727,-4.10944 -1.199219,-3.97265 z m 50.65625,0.0918 c -2.21618,0.0406 -3.393572,2.81724 -2.394531,5.96484 0.448923,1.414627 1.364272,1.981277 2.851562,1.769527 1.768456,-0.25188 2.189454,-0.991667 2.189454,-3.851557 0,-2.86 -0.420998,-3.60164 -2.189454,-3.85352 -0.156652,-0.0223 -0.309285,-0.032 -0.457031,-0.0293 z m 44.517579,0 c -2.20414,0.0414 -3.39734,2.80632 -2.41406,5.90429 0.4158,1.31066 1.53034,2.023437 3.16406,2.023437 2.2962,0 2.49315,-0.33955 2.20703,-3.792967 -0.24811,-2.99826 -0.77357,-3.85917 -2.50391,-4.10547 -0.15557,-0.0222 -0.30618,-0.0321 -0.45312,-0.0293 z m 16.72851,0.01 c -1.98541,0.0729 -3.73182,3.45278 -2.92578,5.99219 0.43749,1.378597 1.36141,1.942527 2.83789,1.732417 1.76657,-0.25166 2.18946,-0.992157 2.18946,-3.837887 0,-2.50105 -0.49414,-3.62315 -1.70117,-3.85547 -0.1338,-0.0258 -0.26803,-0.0361 -0.4004,-0.0312 z m 6.6543,0.33203 c -2.22118,0 -2.54639,0.46099 -2.67969,3.79297 -0.0835,2.08663 0.25685,3.792967 0.75782,3.792967 0.90187,0 1.28711,-1.423817 1.0039,-3.716797 -0.0807,-0.6535 0.32135,-1.47729 0.89258,-1.83008 0.62373,-0.38556 1.03711,0.59405 1.03711,2.45313 0,1.70188 0.48421,3.095687 1.07422,3.095697 0.62096,0 0.93939,-1.598887 0.75781,-3.794917 -0.2724,-3.28866 -0.65128,-3.79297 -2.84375,-3.79297 z M 6.0316412,103.59906 c -0.556435,0 -1.0117187,2.50402 -1.0117187,5.56445 0,3.06043 0.4552837,5.56445 1.0117187,5.56445 0.5564477,0 1.0117188,-1.13789 1.0117188,-2.52929 0,-1.57373 0.573324,-2.52735 1.517578,-2.52735 0.944258,0 1.517578,0.95363 1.517578,2.52735 0,1.3914 0.455287,2.52929 1.011719,2.52929 0.556457,0 1.011719,-2.50402 1.011719,-5.56445 0,-3.06043 -0.455262,-5.56445 -1.011719,-5.56445 -0.556432,0 -1.011719,0.91251 -1.011719,2.02539 0,1.12414 -0.674494,2.02148 -1.517578,2.02148 -0.843078,0 -1.517578,-0.89734 -1.517578,-2.02148 0,-1.11288 -0.4552711,-2.02539 -1.0117188,-2.02539 z m 24.2812498,0 c -0.556436,0 -1.011719,2.50402 -1.011719,5.56445 0,3.06043 0.455283,5.56445 1.011719,5.56445 0.556456,0 1.011719,-2.50402 1.011719,-5.56445 0,-3.06043 -0.455263,-5.56445 -1.011719,-5.56445 z m 76.443359,0.10351 c -0.40795,0.0292 -0.83659,0.20992 -1.34375,0.5293 -2.77949,1.75054 -2.68804,4.2734 0.20117,5.58984 1.43074,0.65183 2.60157,1.56624 2.60157,2.0332 0,1.17944 -1.7702,1.0662 -2.5293,-0.1621 -0.91769,-1.48483 -2.22832,-1.23396 -2.91602,0.55859 -0.33133,0.86348 -0.18357,1.31217 0.32813,0.99609 0.51163,-0.31613 1.23253,-0.0875 1.60156,0.50977 0.36925,0.59736 1.65222,0.94637 2.85156,0.77539 2.98918,-0.42575 3.4598,-4.36147 0.72657,-6.06836 -1.1481,-0.71705 -2.08594,-1.70647 -2.08594,-2.19727 0,-0.4907 0.69292,-0.31512 1.54101,0.38868 2.2122,1.83602 3.22662,0.26591 1.16211,-1.79883 -0.83453,-0.83438 -1.45875,-1.20304 -2.13867,-1.1543 z m -59.339843,0.12305 c -0.04089,-0.002 -0.08375,0.003 -0.126953,0.0176 -1.196143,0.39866 -2.201156,7.37514 -1.373047,9.5332 1.204382,3.13852 2.462891,0.9568 2.462891,-4.27149 -10e-7,-3.34514 -0.349602,-5.24474 -0.962891,-5.27929 z m 3.130859,0.78515 c -1.115827,0 -1.415232,8.36606 -0.33789,9.44336 1.474887,1.47485 1.95649,0.48345 1.757812,-3.625 -0.2829,-5.84964 -0.275251,-5.81836 -1.419922,-5.81836 z m -24.28125,0.002 c -1.115819,0 -1.415239,8.36401 -0.33789,9.4414 1.474893,1.47491 1.956467,0.48348 1.757812,-3.625 -0.282901,-5.84943 -0.275249,-5.8164 -1.419922,-5.8164 z m 64.244141,0.5039 c -1.137612,0 -1.954836,6.00382 -1.115235,8.19141 1.122401,2.92501 2.181507,1.26059 2.154297,-3.38477 -0.01546,-2.64311 -0.482586,-4.80664 -1.039062,-4.80664 z m -50.349609,0.75196 c -0.188046,0.009 -0.385294,0.18883 -0.595704,0.52929 -0.520383,0.84187 -1.686835,0.9572 -3.740234,0.36914 -2.810872,-0.8051 -2.995643,-0.6774 -3.208984,2.2168 -0.124534,1.6897 0.272819,3.67325 0.882812,4.4082 1.490427,1.79592 3.543954,1.69019 4.277344,-0.2207 0.412754,-1.07566 0.06654,-1.4684 -1.119141,-1.26562 -0.947712,0.16194 -1.872804,-0.45345 -2.0625,-1.37305 -0.253287,-1.22803 0.334002,-1.62761 2.226563,-1.51758 1.412971,0.082 2.52086,0.60391 2.46289,1.16016 -0.358607,3.44112 0.292304,4.55273 2.664063,4.55273 2.27634,0 2.529297,-0.40477 2.529297,-4.04687 0,-4.81607 -1.963238,-5.50399 -2.16211,-0.75782 -0.112784,2.69143 -0.212804,2.82799 -0.554687,0.75782 -0.549101,-3.32511 -1.035473,-4.83815 -1.599609,-4.8125 z m 22.990234,0.0469 c -1.245475,-0.16577 -2.486328,1.89721 -2.486328,4.875 0,2.16637 0.455275,3.9375 1.011718,3.9375 0.556447,0 1.011719,-1.32834 1.011719,-2.95117 0,-1.62308 0.53451,-3.12934 1.189453,-3.34766 0.654962,-0.21829 0.869181,-0.91821 0.47461,-1.55664 -0.370324,-0.59921 -0.786014,-0.90177 -1.201172,-0.95703 z m 55.179688,0.21289 0,4.30078 c 10e-4,4.99684 1.94505,5.89662 2.18555,1.01172 l 0.16211,-3.28906 0.4082,3.28906 c 0.22445,1.80832 0.83443,3.28711 1.35547,3.28711 0.52137,0 1.01997,-1.47879 1.10937,-3.28711 l 0.16211,-3.28906 0.4082,3.28906 c 0.5992,4.82773 2.47458,4.01853 2.10938,-0.91015 -0.30403,-4.10087 -0.39908,-4.20188 -4.10547,-4.30079 l -3.79492,-0.10156 z m -33.628907,0.0684 c -0.492916,-0.0283 -0.94681,0.16792 -1.443359,0.58008 -1.42266,1.18092 -1.847161,6.10399 -0.63086,7.32031 0.394423,0.39581 1.645508,0.5844 2.78125,0.42188 2.788349,-0.39925 3.473081,-5.73465 0.970704,-7.56446 -0.653723,-0.47806 -1.184818,-0.72954 -1.677735,-0.75781 z m -68.193359,0.0137 c -1.842619,-0.0612 -3.569061,2.62304 -2.88086,5.36524 0.3626,1.44463 1.175826,2.94682 1.808594,3.33789 3.105593,1.91933 5.291641,-5.73807 2.337891,-8.18945 -0.409319,-0.33972 -0.840406,-0.49955 -1.265625,-0.51368 z m 6.443359,0.0449 c -0.221239,-0.009 -0.466302,0.0164 -0.732422,0.0859 -1.585235,0.41465 -2.023437,1.38085 -2.023437,4.45899 0,2.16085 0.407362,3.92773 0.904297,3.92773 1.144613,0 2.308699,-2.93802 1.611328,-4.0664 -0.289096,-0.46782 -0.06161,-1.1368 0.503906,-1.48633 1.67113,-1.03284 1.285005,-2.85392 -0.263672,-2.91992 z m 31.578125,0.3789 c -1.099045,0 -1.296595,6.39661 -0.230469,7.46289 0.394428,0.39579 1.645481,0.58431 2.78125,0.42188 1.618324,-0.23183 2.066407,-1.04507 2.066407,-3.75391 0,-4.61102 -2.473627,-5.4635 -2.691407,-0.92773 l -0.162109,3.37304 -0.408203,-3.28711 c -0.224412,-1.80841 -0.834288,-3.28906 -1.355469,-3.28906 z m 59.654292,0 c -2.40212,0 -3.37458,2.15239 -2.51757,5.56641 0.77496,3.0868 4.22169,3.42416 5.14843,0.5039 0.95544,-3.01057 -0.37138,-6.07031 -2.63086,-6.07031 z m 21.57227,0.10352 c -1.1526,0.11241 -1.23828,0.95853 -1.23828,3.87695 0,2.26289 0.45708,4.11328 1.01367,4.11328 0.5564,0 1.00977,-1.36544 1.00977,-3.03515 0,-1.66927 0.35952,-3.03516 0.79883,-3.03516 0.43928,0 0.78086,1.20773 0.75976,2.68359 -0.0222,1.47574 0.55843,2.89044 1.29102,3.14258 0.98433,0.33847 1.24835,-0.56321 1.01172,-3.44336 -0.27988,-3.40845 -0.67048,-3.94106 -3.10157,-4.2207 -0.65791,-0.0757 -1.16072,-0.1195 -1.54492,-0.082 z m 20.57227,0.004 c -1.40258,-0.083 -1.57281,0.51596 -1.41993,3.10743 0.10884,1.84878 0.388,3.72766 0.6211,4.17578 0.23316,0.44865 1.1777,0.67043 2.09961,0.49218 1.17791,-0.22771 1.67578,-1.37428 1.67578,-3.85156 0,-2.89586 -0.40934,-3.58351 -2.29688,-3.85156 -0.25327,-0.0359 -0.47932,-0.0604 -0.67968,-0.0723 z m -5.18555,0.0469 c -0.24986,-0.0128 -0.52228,0.003 -0.81836,0.0449 -2.21966,0.31644 -3.34785,3.61545 -2.23242,6.52148 0.98475,2.56635 5.12272,1.26765 5.26953,-1.65429 0.168,-3.34651 -0.46976,-4.82225 -2.21875,-4.91211 z m -83.513672,0.0117 c -2.216255,0.0405 -3.39355,2.81524 -2.394532,5.96289 0.448985,1.41463 1.364224,1.98337 2.851563,1.77148 1.768349,-0.25188 2.189453,-0.9936 2.189453,-3.85351 0,-2.85985 -0.421104,-3.59963 -2.189453,-3.85157 -0.156658,-0.0223 -0.309281,-0.032 -0.457031,-0.0293 z m 62.726562,0 c -2.21614,0.0405 -3.39354,2.81526 -2.39453,5.96289 0.4489,1.41465 1.36236,1.98335 2.84961,1.77148 1.76849,-0.25191 2.18945,-0.99365 2.18945,-3.85351 0,-2.85991 -0.42096,-3.5996 -2.18945,-3.85157 -0.15665,-0.0223 -0.30734,-0.032 -0.45508,-0.0293 z m 13.68945,0.33984 c -2.03207,0 -3.1217,3.35187 -2.02148,6.21875 0.70103,1.82707 3.77146,1.43812 4.4375,-0.5625 0.32652,-0.98034 -0.0433,-1.22782 -1.18164,-0.79101 -1.18196,0.45359 -1.65625,0.0749 -1.65625,-1.32422 0,-1.39856 0.47429,-1.7776 1.65625,-1.32422 1.13903,0.43696 1.50652,0.18936 1.17969,-0.79102 -0.26139,-0.78414 -1.34752,-1.42578 -2.41407,-1.42578 z m -127.6582,1.91992 c 0.439836,-0.0767 0.773438,0.55997 0.773438,1.5625 0,2.44284 -0.562725,2.6889 -1.365235,0.59766 -0.313451,-0.81666 -0.133686,-1.75312 0.398438,-2.08203 0.06652,-0.0411 0.130525,-0.0672 0.193359,-0.0781 z"
     id="path4133"
     inkscape:connector-curvature="0" />
</svg>
