<?xml version="1.0" encoding="UTF-8" standalone="no"?>
<!-- Created with Inkscape (http://www.inkscape.org/) -->

<svg
   xmlns:dc="http://purl.org/dc/elements/1.1/"
   xmlns:cc="http://creativecommons.org/ns#"
   xmlns:rdf="http://www.w3.org/1999/02/22-rdf-syntax-ns#"
   xmlns:svg="http://www.w3.org/2000/svg"
   xmlns="http://www.w3.org/2000/svg"
   xmlns:sodipodi="http://sodipodi.sourceforge.net/DTD/sodipodi-0.dtd"
   xmlns:inkscape="http://www.inkscape.org/namespaces/inkscape"
   width="49.663395mm"
   height="39.19799mm"
   viewBox="0 0 175.97266 138.89052"
   id="svg12009"
   version="1.1"
   inkscape:version="0.91 r13725"
   sodipodi:docname="logo2.svg">
  <defs
     id="defs12011" />
  <sodipodi:namedview
     id="base"
     pagecolor="#ffffff"
     bordercolor="#666666"
     borderopacity="1.0"
     inkscape:pageopacity="0.0"
     inkscape:pageshadow="2"
     inkscape:zoom="3.959798"
     inkscape:cx="137.65933"
     inkscape:cy="56.822483"
     inkscape:document-units="px"
     inkscape:current-layer="layer1"
     showgrid="false"
     fit-margin-top="0"
     fit-margin-left="0"
     fit-margin-right="0"
     fit-margin-bottom="0"
     inkscape:window-width="1547"
     inkscape:window-height="876"
     inkscape:window-x="53"
     inkscape:window-y="24"
     inkscape:window-maximized="1" />
  <metadata
     id="metadata12014">
    <rdf:RDF>
      <cc:Work
         rdf:about="">
        <dc:format>image/svg+xml</dc:format>
        <dc:type
           rdf:resource="http://purl.org/dc/dcmitype/StillImage" />
        <dc:title></dc:title>
      </cc:Work>
    </rdf:RDF>
  </metadata>
  <g
     inkscape:label="Calque 1"
     inkscape:groupmode="layer"
     id="layer1"
     transform="translate(-183.44224,-328.63123)">
    <path
       style="font-style:italic;font-variant:normal;font-weight:500;font-stretch:normal;font-size:169.37976074px;line-height:125%;font-family:'URW Chancery L';-inkscape-font-specification:'URW Chancery L Medium Italic';letter-spacing:0px;word-spacing:0px;fill:#ffd39e;fill-opacity:1;stroke:none;stroke-width:1px;stroke-linecap:butt;stroke-linejoin:miter;stroke-opacity:1"
       d="m 322.34846,328.63123 -11.88281,5.5 c -14.0107,1.29414 -21.99146,3.55875 -30.68164,8.25 -14.0107,7.76482 -21.63672,18.76532 -21.63672,31.54492 0,3.07234 0.33995,5.54143 1.19922,8.32031 l 2.15625,4.59766 12.96094,-7.09375 c -2.12821,-5.66185 -2.66016,-8.2504 -2.66016,-12.13281 0,-8.57366 4.07865,-16.82438 10.64062,-21.51563 6.02993,-4.20594 12.06049,-6.14692 23.76563,-7.27929 -6.20727,25.39744 -15.25286,58.88306 -21.99219,80.23632 l -25.36133,0 0.29493,0.008 -12.09571,0.125 c 1.06317,-3.0479 3.89881,-11.75696 8.50586,-25.98047 0.1772,-0.58055 0.70919,-2.61152 1.41797,-5.36914 0.80763,-5.03986 0,0 0.80763,-5.03986 -2.12283,-0.0718 -2.71174,-0.0405 -4.17479,-0.0405 -17.36506,0 -29.41392,2.61245 -38.98242,8.41797 -9.5685,5.80551 -13.82226,12.48131 -13.82226,21.625 0,2.17707 0.35534,3.7745 1.5957,7.25781 l 13.28906,-3.62891 c -1.59475,-4.64441 -2.12695,-6.82259 -2.12695,-10.01562 0,-7.98258 4.07682,-13.93305 11.3418,-16.40039 4.25266,-1.45138 8.50417,-1.88672 19.49023,-1.88672 -2.65792,7.25689 -2.83463,7.69213 -10.09961,31.34961 l -6.37891,5.51562 4.60743,0.29102 c -8.50534,26.99565 -12.40348,30.91406 -31.36328,30.91406 -2.48073,0 -4.78553,-7.4e-4 -9.39258,-0.29101 l -8.32813,9.43554 c 3.89828,0.43542 5.67129,0.58008 8.6836,0.58008 5.67022,0 10.09868,-0.43521 13.64257,-1.45117 5.31584,-1.30624 14.35425,-7.11177 23.56836,-14.94922 9.39131,-7.98258 9.92212,-8.85488 15.76953,-23.94922 2.77672,-0.14673 4.43468,0.26296 6.75196,0.14258 l -0.27344,-0.0273 12.41406,0 c 7.45915,0 13.46641,-0.0112 18.87305,-0.0352 -0.61569,2.019 -1.12564,3.59701 -1.26367,4.27539 -7.44217,22.49637 -10.27735,32.22076 -10.27735,34.54297 0,1.59652 1.77211,3.04687 3.89844,3.04687 1.24036,0 3.0118,-0.28919 4.96094,-0.7246 4.60706,-1.01599 5.49447,-1.16244 26.75781,-4.35547 l 3.18945,-3.62696 c -9.5685,0.72569 -12.40358,0.86914 -16.65625,0.86914 -3.72108,0 -5.84765,-1.45062 -5.84765,-3.91797 0,-4.38035 0.13822,-4.92989 8.15039,-30.24609 17.93701,-0.3978 21.33493,-1.73944 31.70703,-6.29883 l 0.35547,-1.45508 c -9.93164,0.97061 -14.18807,1.13121 -29.79492,1.29297 0.22588,-0.8928 0.45185,-1.72895 0.67773,-2.60937 3.34456,-10.10267 5.72864,-23.12051 7.9707,-28.85938 0.13499,-0.35181 2.28489,-0.42194 2.41797,-0.75586 10.51555,-0.88276 19.58191,-3.4617 29.54688,-8.3789 12.76924,-6.30892 20.75,-17.63275 20.75,-29.60352 0,-11.00016 -9.93281,-16.33789 -30.32813,-16.33789 -1.7735,0 -3.72367,3.4e-4 -7.80273,0.16211 z m 4.4336,8.57422 c 11.17308,0 17.20312,5.01399 17.20312,14.39648 0,9.2435 -3.66487,17.16572 -9.70508,22.50977 -9.14457,6.65568 0,0 -2.76172,2.15039 -4.76222,3.24858 -10.62826,5.10547 -17.15039,5.10547 -0.92009,0 -1.72717,-0.04 -2.61523,-0.12891 -4.73719,-0.18696 -3.90265,0.004 -2.63086,-4.07226 l 10.74414,-39.63868 c 2.66026,-0.16176 5.49721,-0.32226 6.91602,-0.32226 z"
       id="text11602-1-0"
       inkscape:connector-curvature="0"
       sodipodi:nodetypes="cccscccscccccccccsssccscccccsccscccccsccsscccssccccccccssccssccscccs" />
  </g>
</svg>
