<?xml version="1.0" encoding="UTF-8" standalone="no"?>
<!-- Created with Inkscape (http://www.inkscape.org/) -->

<svg
   xmlns:dc="http://purl.org/dc/elements/1.1/"
   xmlns:cc="http://creativecommons.org/ns#"
   xmlns:rdf="http://www.w3.org/1999/02/22-rdf-syntax-ns#"
   xmlns:svg="http://www.w3.org/2000/svg"
   xmlns="http://www.w3.org/2000/svg"
   xmlns:sodipodi="http://sodipodi.sourceforge.net/DTD/sodipodi-0.dtd"
   xmlns:inkscape="http://www.inkscape.org/namespaces/inkscape"
   id="svg2"
   version="1.1"
   inkscape:version="0.91 r13725"
   width="1129.9204"
   height="311.23499"
   viewBox="0 0 1129.9204 311.23499"
   sodipodi:docname="MongoDB.svg">
  <metadata
     id="metadata8">
    <rdf:RDF>
      <cc:Work
         rdf:about="">
        <dc:format>image/svg+xml</dc:format>
        <dc:type
           rdf:resource="http://purl.org/dc/dcmitype/StillImage" />
        <dc:title></dc:title>
      </cc:Work>
    </rdf:RDF>
  </metadata>
  <defs
     id="defs6" />
  <sodipodi:namedview
     pagecolor="#ffffff"
     bordercolor="#666666"
     borderopacity="1"
     objecttolerance="10"
     gridtolerance="10"
     guidetolerance="10"
     inkscape:pageopacity="0"
     inkscape:pageshadow="2"
     inkscape:window-width="1547"
     inkscape:window-height="876"
     id="namedview4"
     showgrid="false"
     inkscape:zoom="0.21073608"
     inkscape:cx="-533.51899"
     inkscape:cy="270.94844"
     inkscape:window-x="53"
     inkscape:window-y="24"
     inkscape:window-maximized="1"
     inkscape:current-layer="svg2"
     fit-margin-bottom="-2.7755576e-17"
     fit-margin-top="0"
     fit-margin-left="0"
     fit-margin-right="0" />
  <path
     style="fill:#fefefe"
     d="m 2.5389597,0 0,153.11874 0,153.12288 563.6922203,0 517.00782,0 0,-142.72354 46.6803,0 0,-10.39934 L 1129.9193,0 566.23118,0 2.5389597,0 Z"
     id="path4158"
     inkscape:connector-curvature="0" />
  <path
     inkscape:connector-curvature="0"
     id="path4156"
     d="m 613.72319,305.33626 c -11.61197,-2.19271 -21.57805,-11.79012 -23.80309,-22.92256 -1.5802,-7.90564 1.91066,-13.41098 14.50909,-22.88109 3.53118,-2.65438 6.50058,-5.02838 6.59893,-5.27573 0.0983,-0.24731 -0.96194,-0.96394 -2.35573,-1.59248 -5.06034,-2.28197 -10.29196,-8.98926 -10.32822,-13.24163 -0.008,-2.10385 1.40414,-3.35089 9.1346,-8.0096 3.44281,-2.07479 6.25961,-4.09069 6.25961,-4.48008 0,-0.38913 -1.61317,-1.37637 -3.58483,-2.19352 -10.90202,-4.51869 -17.98562,-17.87763 -16.72108,-31.53404 1.4453,-15.61049 11.81193,-25.76662 31.53138,-30.89177 4.24864,-1.10424 6.39192,-1.27785 12.5193,-1.0141 6.56623,0.28262 8.32668,0.63287 15.73938,3.13152 7.75641,2.6145 8.82256,2.81329 15.08739,2.81329 6.85675,0 8.38189,-0.43276 12.98324,-3.68389 1.83015,-1.29313 2.74832,0.33497 2.73038,4.84109 -0.031,8.07124 -4.49886,12.4037 -12.61561,12.23733 l -4.28514,-0.0879 0.3661,6.9388 c 0.23124,4.3834 0.0736,8.43525 -0.42409,11.00213 -2.98503,15.34927 -17.19769,26.57319 -36.41355,28.75668 -3.03747,0.34508 -6.20298,1.07316 -7.03434,1.61805 -1.82954,1.1988 -2.57568,3.75565 -1.67385,5.73515 1.24215,2.72615 4.28838,3.48938 18.17764,4.55417 23.31852,1.78741 29.65851,3.3268 35.14084,8.5323 4.55554,4.32556 6.6679,8.86184 7.04345,15.12599 0.16986,2.83894 -0.0432,6.62927 -0.48829,8.6671 -1.78173,8.16064 -7.52195,16.60464 -15.56723,22.89955 -5.70222,4.46169 -16.4723,9.81236 -21.4891,10.67588 -5.86075,1.00893 -26.20396,1.19197 -31.03718,0.27917 z m 35.33011,-12.52697 c 8.21462,-2.53856 13.14964,-7.10631 15.16385,-14.03528 1.09003,-3.74932 0.79765,-8.11461 -0.74279,-11.09361 -3.50774,-6.78293 -14.12327,-10.21468 -32.32123,-10.44911 -7.41249,-0.0957 -8.35004,0.0245 -10.96588,1.42058 -4.72459,2.51847 -10.08752,8.09478 -11.302,11.75155 -2.99276,9.00965 3.55414,18.52156 15.38376,22.35055 6.81464,2.206 17.74682,2.23037 24.78429,0.0541 z m -11.7201,-76.55806 c 4.53404,-1.14169 8.0803,-5.03241 9.82639,-10.78102 1.87216,-6.16374 1.56528,-16.40468 -0.66346,-22.13735 -1.9637,-5.05124 -6.29927,-9.41446 -10.8597,-10.92921 -5.11998,-1.70061 -11.21311,-1.18085 -15.22355,1.29863 -9.94664,6.14945 -10.32435,26.94802 -0.67732,37.28191 4.92041,5.27079 10.70598,7.00257 17.59764,5.26704 z M 69.468152,296.60597 c -1.253913,-0.51698 -1.444541,-1.06755 -1.444541,-4.17251 0,-7.98414 -2.28297,-23.0233 -4.23075,-27.87009 C 63.18443,263.04918 61.32045,261.0562 58.339139,258.73194 52.727798,254.35728 39.46455,240.88642 34.002594,234.01444 23.134491,220.34029 13.816501,203.4111 8.7364835,188.11003 4.1110927,174.17832 2.5360696,163.43663 2.5234323,145.73688 2.5009411,114.22155 8.0020086,90.142957 21.123337,64.32381 30.055166,46.74843 39.570714,34.07634 54.586946,19.75965 63.984392,10.7999 66.739586,7.21052 66.739586,3.92714 c 0,-0.7946 0.302718,-2.01021 0.672723,-2.70159 0.912316,-1.70469 1.60536,-0.88918 4.687057,5.51572 4.247292,8.82734 6.770874,12.39338 14.6958,20.76667 12.36537,13.06491 20.734754,24.16259 28.091214,37.24866 9.59315,17.064873 18.35221,41.96793 20.99459,59.69035 1.58487,10.62916 1.57642,34.33643 -0.009,44.08155 -4.03867,24.72044 -12.78917,45.37689 -27.58089,65.1072 -5.50675,7.34532 -18.322634,20.3671 -24.371308,24.76272 -3.69919,2.68842 -4.523462,3.65643 -5.628333,6.60941 -1.462504,3.90872 -2.511622,12.44245 -2.582966,21.0098 -0.02653,3.17808 -0.251489,6.93386 -0.500037,8.34629 -0.400867,2.27812 -0.668515,2.58331 -2.370554,2.70305 -1.055277,0.0742 -2.568729,-0.13359 -3.363215,-0.461 z m 323.416418,-41.7841 c -19.32734,-2.488 -32.48856,-14.56046 -36.81849,-33.77224 -6.63697,-29.44735 8.0513,-52.43189 37.67189,-58.94982 7.53546,-1.65819 18.93187,-1.1124 25.78409,1.23485 12.96078,4.43983 21.978,13.63925 26.48715,27.02243 1.59732,4.74112 1.73191,5.95088 1.74908,15.72944 0.008,9.3422 -0.15969,11.1619 -1.4849,15.40837 -2.59841,8.32193 -5.57165,13.25326 -11.61963,19.2725 -6.05897,6.02987 -10.89146,8.93011 -19.61969,11.77485 -8.36476,2.7261 -14.0974,3.31618 -22.1495,2.27962 z m 21.38405,-12.66169 c 5.43697,-2.40503 8.95772,-7.12799 11.12606,-14.92554 1.64944,-5.9314 1.63429,-22.24204 -0.0256,-28.53132 -3.59381,-13.61008 -10.67042,-22.24413 -20.79428,-25.37108 -18.8406,-5.81926 -31.22017,9.29784 -28.45928,34.75265 2.04159,18.82559 10.32588,31.28165 23.20556,34.8923 4.41888,1.23863 11.13048,0.87208 14.94854,-0.81701 z m 320.59325,12.67436 c -23.54711,-3.2362 -37.71265,-20.80244 -37.75784,-46.82196 -0.0196,-13.00736 3.2943,-22.47551 10.76575,-30.73162 13.31567,-14.71437 39.83846,-20.5465 57.62281,-12.67076 17.55706,7.7751 27.13122,26.22796 24.75924,47.72065 -1.12175,10.1642 -4.0194,17.53501 -9.85519,25.0693 -9.44245,12.19015 -29.05473,19.69922 -45.53477,17.43439 z m 22.31328,-13.06136 c 4.06446,-1.98864 6.37148,-4.46448 8.52509,-9.14906 2.2721,-4.94194 3.38285,-11.24199 3.39543,-19.25841 0.0328,-21.52173 -8.63348,-36.48283 -23.42266,-40.43338 -11.69445,-3.12388 -21.41638,2.44933 -25.76296,14.76899 -2.32934,6.60203 -2.25267,21.22916 0.15937,30.19194 2.55171,9.48501 8.84992,18.77615 15.2838,22.54666 6.63081,3.88597 15.498,4.42763 21.82294,1.33326 z m -289.79813,11.51815 c -1.00728,-1.22484 -1.07209,-7.04044 -0.0958,-8.58146 0.30005,-0.47316 2.6683,-1.26483 5.26292,-1.75938 7.2019,-1.37202 7.12805,-1.22871 7.79225,-15.16315 0.30778,-6.46225 0.4749,-19.07227 0.37139,-28.02226 l -0.18875,-16.27274 -1.92605,-1.53591 c -1.05928,-0.84477 -4.09285,-2.30868 -6.74113,-3.25314 -5.38634,-1.92096 -7.70422,-3.62999 -7.70422,-5.68066 0,-2.52977 2.55952,-4.08895 8.37959,-5.10457 6.3466,-1.10745 16.4895,-3.6825 21.65124,-5.49671 1.99682,-0.70183 4.13605,-1.27605 4.75387,-1.27605 1.91628,0 2.62718,2.39726 2.31409,7.80521 -0.16137,2.76932 -0.18628,5.03515 -0.0556,5.03515 0.12912,0 2.46519,-1.5548 5.19062,-3.45511 10.21381,-7.12204 19.1741,-10.42715 26.7026,-9.84959 12.1008,0.92831 21.23808,8.41135 25.22075,20.65457 1.65561,5.08978 1.68953,5.56892 2.20737,31.08154 0.42653,21.01945 0.70348,26.18306 1.46644,27.34755 0.93068,1.42053 6.88526,3.5589 9.91015,3.5589 3.35961,0 4.73129,3.65557 3.13161,8.34621 l -0.76615,2.24712 -22.98409,0.026 c -18.96892,0.0213 -23.11447,-0.12914 -23.73154,-0.87356 -0.90157,-1.08616 -1.00051,-7.55281 -0.12768,-8.41539 0.34053,-0.33678 2.77223,-1.05988 5.40401,-1.60679 2.63156,-0.54684 5.23176,-1.44078 5.77818,-1.98682 0.84785,-0.8472 1.02047,-4.06582 1.17963,-21.98827 0.1952,-21.9503 -0.25506,-27.99622 -2.3911,-32.14009 -4.12289,-7.99752 -14.47325,-11.40607 -24.71108,-8.13773 -4.55758,1.45499 -9.34162,4.53553 -10.47722,6.74635 -0.63998,1.24626 -0.78486,7.41726 -0.64825,27.60675 0.0965,14.30102 0.40559,26.46822 0.68602,27.0383 0.72669,1.47691 3.13769,2.4273 7.85262,3.09488 2.25442,0.3195 4.39767,0.76516 4.76302,0.99109 0.82778,0.51178 0.8598,7.37691 0.04,8.67295 -0.51586,0.81625 -3.98025,0.95889 -23.78553,0.97952 -15.09246,0.0101 -23.37064,-0.20587 -23.72334,-0.63416 z m -289.2936,-0.52998 c -1.17831,-0.65965 -1.27239,-7.20585 -0.11423,-7.95545 0.44137,-0.28564 3.08971,-1.09719 5.8849,-1.80334 8.28377,-2.0929 7.72017,0.20765 7.96183,-32.49106 l 0.20374,-27.58361 -1.96619,-1.83683 c -1.08164,-1.01023 -4.20685,-2.63686 -6.94504,-3.6147 -5.70037,-2.03558 -7.2258,-3.11137 -7.2258,-5.09575 0,-2.1787 2.02805,-3.51546 6.4019,-4.21985 6.33406,-1.02009 11.95495,-2.39153 20.09914,-4.90403 5.88562,-1.81576 7.73249,-2.16182 8.33278,-1.56149 0.51537,0.51559 0.71057,2.68057 0.58816,6.53083 -0.11806,3.69822 0.0574,5.75959 0.48887,5.75959 0.36946,0 2.60142,-1.32114 4.95987,-2.93585 14.04361,-9.61458 26.976,-12.34155 36.47894,-7.6921 3.72729,1.82352 7.46061,5.06193 10.95807,9.50506 l 1.89568,2.40822 4.17312,-2.92805 c 6.2179,-4.36273 12.54247,-7.68667 18.29336,-9.61428 4.47871,-1.50108 5.91589,-1.68865 11.28605,-1.47295 5.38024,0.21608 6.69337,0.51271 10.44479,2.35953 7.62117,3.75194 12.83636,10.53978 15.61302,20.32168 0.92437,3.25595 1.1268,7.67743 1.30851,28.56979 0.11762,13.59471 0.35894,25.36247 0.53473,26.15056 0.41558,1.86235 2.9721,3.13902 9.12144,4.5548 l 4.98323,1.14736 -0.0773,3.70055 c -0.0414,2.03524 -0.36715,3.99019 -0.72121,4.34412 -0.61679,0.61678 -45.02079,0.84872 -45.63115,0.23817 -0.66901,-0.66878 -0.8336,-6.05256 -0.22023,-7.19881 0.46435,-0.86749 2.08499,-1.6238 5.04357,-2.3539 7.43615,-1.83519 6.9375,0.16889 6.9375,-27.87254 0,-24.08411 -0.004,-24.23645 -1.51719,-27.57376 -1.68085,-3.71788 -6.03719,-8.12197 -9.43979,-9.54371 -3.74285,-1.56382 -9.13726,-1.79718 -13.76072,-0.59525 -4.52679,1.1768 -12.60762,5.11911 -12.9679,6.32652 -0.12172,0.41147 -0.0718,13.12492 0.11201,28.25209 l 0.33589,27.50409 1.4495,1.17252 c 0.79722,0.64507 3.63468,1.68801 6.30573,2.31764 3.13146,0.73818 5.07166,1.54772 5.46319,2.27906 0.6077,1.1356 0.20119,5.49954 -0.63989,6.85974 -0.31611,0.51155 -7.08137,0.7475 -23.12053,0.80614 -25.04379,0.0921 -23.77824,0.31088 -23.79599,-4.12315 -0.007,-3.94676 0.74594,-4.70955 5.53605,-5.54386 6.03834,-1.05146 7.76893,-2.0846 8.38908,-5.00877 0.28054,-1.3234 0.5081,-12.37337 0.50535,-24.55559 -0.002,-21.83626 -0.0252,-22.20409 -1.53717,-26.0017 -2.88163,-7.2447 -9.4098,-11.87732 -16.73696,-11.87732 -5.29915,0 -15.66361,4.03049 -19.0356,7.40241 l -1.52739,1.52747 0,26.95811 0,26.95805 1.48403,1.72532 c 1.15905,1.34743 2.60013,1.95373 6.58068,2.76868 l 5.09661,1.04331 0.16707,3.52678 c 0.0923,1.93984 -0.0766,3.89995 -0.37498,4.35562 -0.42237,0.64592 -5.45373,0.85811 -22.84391,0.96287 -12.2661,0.0735 -22.71474,-0.0959 -23.21909,-0.37898 z m 650.31972,-0.24427 c -20.83507,-0.25946 -20.27028,-0.0967 -18.53396,-5.32437 1.19356,-3.59373 1.90186,-4.15313 6.10488,-4.82148 4.6745,-0.74341 8.12453,-2.54826 9.4242,-4.93008 1.09814,-2.01304 1.17944,-5.19545 1.34258,-52.54121 0.16378,-47.15046 0.10034,-50.54235 -0.963,-52.63264 -1.70604,-3.35356 -4.53572,-4.87903 -11.24286,-6.06102 -9.58946,-1.68994 -9.03354,-1.45775 -8.60618,-3.59433 0.20693,-1.03216 1.06486,-2.96843 1.90739,-4.30277 l 1.53214,-2.42613 40.37926,0.0383 c 44.33285,0.0421 44.54867,0.0578 56.50976,4.1261 17.77045,6.04423 31.40188,19.58222 37.41299,37.15677 4.50867,13.18181 5.01275,29.74229 1.34246,44.09336 -6.67419,26.09583 -28.32595,44.41782 -58.83053,49.78363 -8.42403,1.48151 -23.67177,1.86052 -57.77913,1.4357 z m 60.28502,-12.36413 c 12.39157,-3.16922 22.22428,-11.50319 28.45195,-24.11518 7.49414,-15.17609 8.72171,-37.66602 2.96141,-54.25332 -5.17123,-14.89126 -16.2056,-26.11761 -30.96616,-31.50451 -7.34532,-2.68069 -15.50985,-3.93713 -25.97308,-3.99695 -10.52253,-0.0603 -12.83912,0.66278 -13.48186,4.20757 -0.2082,1.14673 -0.29324,24.04196 -0.18953,50.87829 l 0.18934,48.79327 1.4572,2.72784 c 3.0788,5.76342 10.67825,8.41492 24.28138,8.4722 6.30605,0.0259 9.61859,-0.27535 13.26975,-1.20921 z m 90.03714,12.15277 c -9.18075,-0.20395 -16.76459,-0.42958 -16.85288,-0.50276 -0.59083,-0.49029 0.0646,-3.51658 1.28408,-5.92419 l 1.44465,-2.8529 4.81495,-0.73335 c 6.92406,-1.05456 9.45009,-2.27481 10.77697,-5.20564 1.00998,-2.23077 1.10044,-6.68355 1.10044,-54.20578 0,-50.86708 -0.0203,-51.80049 -1.28417,-53.21557 -1.85569,-2.08159 -4.47156,-3.00736 -10.95699,-3.87766 -6.93911,-0.93116 -7.87566,-1.57099 -6.68457,-4.56595 0.46558,-1.17082 1.32639,-2.81573 1.91282,-3.65535 l 1.06613,-1.5266 35.56177,0.12081 c 27.521,0.0935 36.5207,0.32259 39.8048,1.01335 13.2223,2.78142 22.1534,9.47688 25.8026,19.34334 1.0888,2.94489 1.3977,5.227 1.4206,10.50352 0.025,6.2897 -0.1079,7.03304 -2.0351,11.09895 -2.482,5.24051 -7.9226,11.16249 -13.2007,14.3688 -2.0771,1.26163 -3.5368,2.5002 -3.2438,2.75235 0.293,0.25214 1.9769,0.9772 3.7425,1.61121 13.1729,4.73044 21.5445,12.93019 24.4021,23.90125 1.9836,7.61643 0.5432,18.85786 -3.3284,25.97096 -5.3457,9.82219 -18.5095,19.14331 -32.5475,23.04642 -11.307,3.14392 -19.8943,3.48952 -63.0003,2.53503 z m 58.2258,-12.17778 c 11.4898,-3.54895 17.8532,-12.94011 17.8532,-26.34763 0,-14.31621 -6.7483,-22.96644 -21.5074,-27.56912 -5.4842,-1.71028 -23.266,-3.18003 -27.0791,-2.23824 l -2.4536,0.606 0,23.11263 0,23.11259 1.6234,3.15461 c 3.0173,5.86291 6.8501,7.32872 19.335,7.39544 6.3652,0.0326 9.0056,-0.23095 12.2285,-1.22628 z m -4.2963,-67.92455 c 3.0845,-0.83069 4.5041,-1.68797 7.1248,-4.30274 4.3042,-4.29506 5.7091,-8.24752 5.7091,-16.0646 0,-6.99213 -1.3048,-11.22007 -4.8435,-15.69712 -4.906,-6.20628 -16.5426,-10.04587 -28.9752,-9.56068 -8.5044,0.33188 -7.8713,-1.56957 -8.0907,24.29862 l -0.1849,21.78812 1.4688,0.33814 c 5.1504,1.18567 22.2456,0.69374 27.7915,-0.79974 z m 73.8841,78.81522 c -6.4011,-2.49936 -10.6274,-8.71496 -10.639,-15.64589 0,-5.2069 1.066,-8.32031 4.0366,-11.6956 3.8682,-4.39403 6.8247,-5.69096 12.9706,-5.69096 6.1464,0 9.1025,1.29693 12.97,5.69096 2.8901,3.28316 4.0433,6.4802 4.0433,11.20733 0,12.30869 -11.9901,20.5822 -23.3815,16.13416 z m 12.295,-2.33112 c 3.2922,-1.1718 7.3465,-5.55735 8.4054,-9.09209 2.7192,-9.07574 -2.8168,-17.93602 -12.2802,-19.65426 -8.1703,-1.48337 -17.1392,6.38488 -17.1392,15.03623 0,5.04333 3.5212,10.99833 7.8175,13.21994 4.1869,2.16527 8.0843,2.3101 13.1965,0.49018 z m -12.3842,-3.62536 c -0.1758,-0.4562 -0.2386,-5.29541 -0.14,-10.75383 l 0.1784,-9.92423 4.9096,-0.18681 c 4.394,-0.16705 5.097,-0.0243 6.6881,1.34279 1.471,1.26559 1.778,2.04733 1.778,4.53363 0,2.43279 -0.3507,3.37009 -1.8412,4.92609 l -1.8413,1.92186 1.734,3.53611 c 2.1467,4.37624 2.2171,5.59204 0.308,5.31743 -1.0446,-0.14918 -1.9785,-1.34851 -3.4866,-4.47302 -2.2949,-4.75545 -3.0581,-5.51011 -4.4243,-4.37593 -0.64,0.53087 -0.935,2.06897 -0.935,4.87049 0,3.68752 -0.13,4.09451 -1.3044,4.09451 -0.7167,0 -1.4473,-0.37334 -1.622,-0.82953 z m 8.9532,-12.19965 c 0.7981,-0.58372 1.0732,-1.49115 0.9254,-3.04954 -0.1872,-1.9635 -0.4844,-2.28632 -2.5863,-2.80571 -1.7261,-0.42631 -2.6476,-0.36094 -3.3706,0.23918 -1.0101,0.83803 -1.3159,3.58091 -0.6056,5.43139 0.4789,1.24828 4.0237,1.36426 5.6371,0.18558 z"
     style="fill:#ffd39e;fill-opacity:1" />
  <path
     style="fill:#ffd39e;fill-opacity:1"
     d="M 65.653957,5.06185 64.914132,8.82784 C 63.971154,13.62088 61.372918,17.29995 55.187744,22.60025 25.273786,48.2347 5.311169,88.390416 0.97153399,131.66382 -3.0984313,172.24817 5.4745002,203.55367 29.423437,235.56116 c 5.9763,7.98718 20.952117,23.5092 27.774786,28.78632 4.040074,3.12503 4.300695,3.49033 5.609295,7.94998 1.399789,4.77023 2.89479,13.40328 3.682397,21.25428 0.24179,2.40999 0.654374,4.14117 0.919563,3.84954 1.119427,-1.23029 4.483492,-13.22212 5.404488,-19.26888 1.368359,-8.9841 2.356383,-11.19318 6.035631,-13.50909 7.222656,-4.5466 19.312238,-16.61244 27.294083,-27.23976 14.79534,-19.69935 24.2621,-43.45413 27.11857,-68.04718 1.24935,-10.75689 0.95548,-31.09964 -0.58934,-40.66946 C 130.8535,117.3964 126.89957,103.81142 121.57969,90.551301 112.82046,68.718301 101.44657,51.46021 82.920721,31.89198 75.604162,24.16376 73.166366,20.65189 68.726104,11.43599 L 65.653957,5.06185 Z M 868.22188,122.10462 c -6.12714,-0.0305 -13.80139,-0.002 -23.6494,0.0543 l -37.23785,0.22153 -1.43374,2.49951 c -0.7886,1.37497 -1.43572,2.81862 -1.44197,3.20591 -0.003,0.39579 2.85931,1.18093 6.5455,1.79313 7.53753,1.25179 11.10055,2.94361 12.99088,6.1694 1.2906,2.20222 1.31942,3.18809 1.50469,49.4345 0.19179,47.84481 -0.0849,55.56433 -2.1358,58.69263 -1.3039,1.98997 -4.24756,3.3671 -9.36272,4.38057 -4.29415,0.85079 -5.44586,1.96774 -5.85596,5.69283 l -0.16738,1.53403 12.51853,0.37614 c 23.22496,0.6965 55.55492,0.21908 61.97392,-0.91532 17.26436,-3.05092 30.45362,-9.29047 41.56807,-19.67019 12.85595,-12.00597 19.71399,-29.20789 19.7204,-49.44699 0.002,-17.67455 -5.57214,-32.74829 -16.32634,-44.14288 -8.58282,-9.0942 -16.82164,-14.0132 -28.74872,-17.15809 -7.60682,-2.00645 -12.08121,-2.63086 -30.46224,-2.72106 z m 127.95194,0.19216 c -16.60402,0.0618 -32.6513,0.28399 -33.17929,0.61024 -0.97905,0.60518 -2.62458,4.96603 -2.06886,5.4839 0.27281,0.25447 3.3155,0.90192 6.76277,1.43786 7.19383,1.11834 9.95176,2.45578 11.5655,5.60092 1.07084,2.08677 1.12944,5.39899 0.96144,53.26323 -0.17092,48.59697 -0.23785,51.17721 -1.4043,53.8525 -1.46513,3.35946 -4.11066,4.7579 -11.21456,5.93127 -5.0635,0.83611 -6.11219,1.68263 -6.88822,5.56321 l -0.40547,2.03977 13.71797,0.21736 c 7.54645,0.11922 22.68017,0.16278 33.6267,0.0957 17.8358,-0.10524 20.5666,-0.26362 26.3199,-1.52556 15.528,-3.40612 28.5963,-11.30075 35.2107,-21.27523 3.5043,-5.2842 5.0023,-10.2072 5.3838,-17.65976 0.5336,-10.42411 -2.1122,-17.36853 -9.1163,-23.91255 -4.3442,-4.05912 -9.7683,-7.18939 -16.2508,-9.37529 -4.3934,-1.48141 -5.8814,-3.1597 -3.5569,-4.01679 0.6437,-0.23753 2.972,-1.5594 5.1743,-2.9384 8.1365,-5.09542 13.0133,-12.92724 13.5216,-21.71408 1.0128,-17.49738 -10.5158,-28.9101 -31.6493,-31.32742 -2.7464,-0.31415 -19.9065,-0.41254 -36.51068,-0.35111 z m -146.75289,8.29273 12.34293,0.0184 c 10.57773,0.0159 13.15489,0.22695 18.02757,1.45038 17.03024,4.27591 28.9338,13.52409 36.28479,28.19275 8.66433,17.28889 8.21762,44.70822 -1.01978,62.69694 -4.24747,8.27172 -12.30894,16.38917 -20.08397,20.21789 -3.00135,1.47796 -7.48039,3.11079 -9.95213,3.62797 -2.59818,0.54356 -7.74252,0.92168 -12.19656,0.89848 -14.28553,-0.0743 -22.28734,-3.04376 -25.48023,-9.46297 l -1.4879,-2.99265 0,-50.54217 0,-50.54634 1.78493,-1.78059 1.78035,-1.7806 z m 158.21807,0.0544 c 0.9871,-0.004 2.1144,0.001 3.4024,0.009 13.3503,0.10974 21.3893,2.79805 27.1104,9.05764 4.5046,4.92921 5.9855,9.18478 5.9855,17.19987 0,5.18319 -0.2847,7.15287 -1.4842,10.23216 -1.8767,4.81979 -6.2568,9.33491 -10.6335,10.95942 -2.6156,0.971 -5.6065,1.23164 -16.6813,1.44622 -12.6568,0.24523 -13.5667,0.18572 -14.6085,-0.96553 -0.99524,-1.09969 -1.10305,-2.92748 -1.04907,-17.55099 0.0314,-8.97648 0.24901,-18.98263 0.48067,-22.23654 0.513,-7.20662 0.5688,-8.10093 7.4776,-8.15479 z m -480.2927,35.62864 c -2.64719,0.0314 -4.33545,0.42228 -7.63219,1.52143 -5.40208,1.80117 -11.9223,5.34307 -17.39641,9.45473 -1.79753,1.35022 -3.45801,2.45772 -3.69067,2.45772 -0.23268,0 -0.42218,-2.73209 -0.42218,-6.06908 0,-7.35811 -0.44795,-7.85581 -5.3752,-5.97712 -4.37336,1.66753 -19.24978,5.3987 -23.77889,5.9646 -4.09771,0.51198 -6.80056,2.26964 -6.80056,4.42223 0,1.98008 1.67068,3.34597 5.85595,4.78586 4.42168,1.52132 8.4383,3.55452 9.46725,4.79423 1.18152,1.42371 0.762,55.33803 -0.4473,57.45967 -0.9981,1.75173 -3.7379,3.01639 -7.86641,3.63231 -1.61881,0.24153 -3.3118,0.66651 -3.7618,0.94468 -1.10614,0.68356 -1.63756,5.93503 -0.76491,7.56539 0.68761,1.28463 1.18992,1.31263 23.81655,1.30835 l 23.11416,-0.004 0.65217,-2.33649 c 1.46587,-5.27743 0.52943,-6.76197 -4.63542,-7.36894 -5.0271,-0.59084 -7.26215,-1.54233 -8.21752,-3.50275 -0.64118,-1.31558 -0.90565,-7.8454 -1.09079,-27.09344 -0.27556,-28.64162 -0.34213,-28.17804 4.64786,-31.5658 4.49727,-3.05314 10.47053,-4.59182 16.53114,-4.25924 6.30829,0.3462 9.29881,1.67825 13.14955,5.85592 4.50207,4.884 4.80419,6.69133 5.14961,30.7843 0.16624,11.57266 0.10274,22.35367 -0.13742,23.95425 -0.53147,3.54496 -2.68548,5.12361 -7.87877,5.77248 -4.21013,0.52613 -5.30407,1.53001 -5.30407,4.85697 0,5.23468 -1.58352,4.90897 24.05885,4.91542 12.54321,0.001 22.9644,-0.24552 23.15611,-0.55598 0.19178,-0.31035 0.52212,-2.01094 0.7314,-3.77848 0.46511,-3.92766 -0.19417,-4.86158 -3.82033,-5.42135 -4.59954,-0.70976 -8.82404,-2.36401 -9.75156,-3.81595 -0.69686,-1.09129 -0.94909,-6.55886 -1.18704,-25.78118 -0.33006,-26.68293 -0.67096,-29.68469 -4.24655,-37.3256 -2.66638,-5.69765 -6.95081,-10.0376 -12.73159,-12.89469 -4.12732,-2.03975 -5.51788,-2.39119 -10.32839,-2.62074 -1.18964,-0.0568 -2.18135,-0.0858 -3.06386,-0.0752 z m -287.21074,0.24242 c -1.77396,0.0164 -3.58573,0.2293 -5.42956,0.63951 -5.53047,1.2304 -14.90108,5.61206 -20.75687,9.70549 -5.94319,4.15457 -6.20547,4.02803 -5.70962,-2.7712 0.22526,-3.08972 0.14971,-6.01823 -0.16346,-6.50796 -0.65374,-1.02082 -1.04552,-0.94992 -10.01479,1.78897 -3.53117,1.07824 -9.45462,2.5542 -13.16218,3.28114 -3.70774,0.72692 -7.38575,1.4602 -8.17585,1.63012 -0.79001,0.16985 -1.93243,1.06245 -2.53705,1.9854 -1.07373,1.63873 -1.0589,1.7156 0.66873,3.20172 0.97315,0.83702 2.20462,1.52146 2.73779,1.52146 2.02642,0 10.42599,4.4009 11.48607,6.01891 0.99574,1.51959 1.06996,4.03265 0.81508,28.48111 -0.18589,17.81437 -0.52257,27.39326 -1.0032,28.54393 -1.00885,2.41629 -3.10224,3.60512 -8.22577,4.67716 -5.71196,1.19526 -7.13125,3.14901 -5.47138,7.51522 l 0.56432,1.48387 22.26598,-0.07 c 12.24623,-0.0385 22.52069,-0.32998 22.83404,-0.64374 0.86424,-0.8652 1.39946,-5.59001 0.74397,-6.56652 -0.31771,-0.4732 -2.69901,-1.26492 -5.29579,-1.75965 -3.40754,-0.64904 -5.17639,-1.35225 -6.34914,-2.52457 l -1.62181,-1.622 -0.18823,-26.47046 c -0.10294,-14.55813 -0.0186,-27.13315 0.17966,-27.94204 0.48574,-1.95754 6.95362,-6.08595 12.40153,-7.91653 5.3257,-1.78953 11.55149,-1.91808 15.72016,-0.32602 4.43877,1.69512 8.44708,6.46614 10.24909,12.19665 1.3746,4.37132 1.44195,5.57762 1.44195,26.40792 0,27.51967 0.36153,26.34921 -8.76092,28.26812 -2.56893,0.54042 -4.89669,1.33739 -5.1704,1.76802 -0.79659,1.25388 -0.58979,6.02659 0.28842,6.67945 0.4645,0.34501 9.99726,0.54829 22.62953,0.48475 l 21.83115,-0.10788 0.78995,-1.52976 c 0.90895,-1.75563 1.03741,-4.36054 0.27166,-5.56768 -0.2882,-0.45369 -2.77426,-1.35993 -5.52158,-2.01456 -8.36068,-1.99189 -7.68688,0.62333 -8.06282,-31.36517 -0.17819,-15.08627 -0.23893,-27.73518 -0.13795,-28.10918 0.10165,-0.37401 1.69008,-1.59273 3.53199,-2.7085 11.51108,-6.97321 23.33326,-6.48845 30.2868,1.24558 5.01384,5.5765 5.16209,6.52879 5.16209,32.98691 0,26.89278 0.22639,25.83187 -5.93113,27.61602 -6.77173,1.96211 -6.58747,1.81282 -6.58747,5.36688 0,1.7522 0.28846,3.3665 0.64364,3.58632 0.86144,0.53225 44.21116,0.61715 44.74065,0.0869 0.22737,-0.22727 0.54494,-1.96459 0.70219,-3.86197 l 0.28428,-3.44841 -5.04923,-1.12021 c -5.80209,-1.28389 -8.26667,-2.3909 -9.20391,-4.14209 -0.41881,-0.78231 -0.66037,-9.82196 -0.66037,-24.65666 0,-25.95837 -0.43312,-30.23421 -3.81608,-37.46353 -2.59414,-5.54335 -7.99228,-11.10969 -12.91994,-13.32102 -11.08971,-4.97676 -21.59109,-2.93181 -37.36329,7.2854 -3.32456,2.15371 -6.34649,3.91648 -6.71264,3.91648 -0.36616,0 -1.87525,-1.57029 -3.35624,-3.49014 -5.29523,-6.86339 -12.22594,-10.42077 -19.91291,-10.34081 z m 393.8961,0.004 c -5.14432,-0.1545 -10.09701,0.75398 -16.09225,2.6918 -17.6243,5.69676 -26.64211,16.56414 -26.64211,32.10087 0,13.02377 5.6323,22.67036 16.30541,27.93357 2.33213,1.15014 4.23852,2.4074 4.23852,2.79216 0,0.38477 -1.60342,1.69663 -3.56548,2.91336 -10.81391,6.70519 -11.51445,7.26479 -11.72019,9.38792 -0.10907,1.1315 0.36698,3.14432 1.07006,4.52236 1.54731,3.03326 6.4432,7.65161 9.43795,8.90306 1.21469,0.50736 2.21119,1.17239 2.21119,1.47959 0,0.30717 -2.46717,2.3507 -5.47977,4.53925 -7.37439,5.35796 -12.93228,10.5974 -14.60836,13.7725 -2.22799,4.22044 -1.96818,10.44197 0.6646,16.00438 3.84972,8.13391 12.43841,14.66952 21.99,16.72768 5.6112,1.20887 21.05766,1.27499 27.11008,0.1166 13.86865,-2.65346 27.29936,-11.20296 34.49173,-21.95632 8.03261,-12.00982 8.0981,-25.74838 0.16361,-34.19502 -5.65687,-6.02187 -11.66062,-7.64395 -34.92223,-9.43377 -15.23978,-1.17271 -18.62641,-2.06188 -19.81644,-5.19132 -1.58848,-4.178 1.39874,-6.9186 8.32617,-7.64086 16.99517,-1.77172 30.70891,-10.76641 35.35701,-23.18946 1.92541,-5.14616 2.76527,-12.72052 1.96032,-17.68055 -1.06999,-6.5932 -1.28173,-6.25317 3.66985,-5.87263 3.68932,0.28355 4.75902,0.10983 7.20589,-1.16199 3.657,-1.90065 5.22545,-4.63228 5.58011,-9.70967 0.32416,-4.6415 -0.40981,-6.35415 -2.1777,-5.08681 -4.01571,2.87866 -6.88606,3.65469 -13.33778,3.61552 -5.79171,-0.0351 -7.17953,-0.29859 -14.16536,-2.6918 -6.7733,-2.3204 -12.10986,-3.53661 -17.25405,-3.69075 z m -232.92362,0.0503 c -7.94134,0.20416 -16.20353,2.26068 -24.19689,6.15267 -5.69544,2.77317 -7.46737,4.03795 -11.88742,8.48918 -8.1781,8.23616 -11.70422,16.41549 -12.35975,28.66508 -1.38211,25.8366 12.08238,44.84409 34.79303,49.1169 15.94926,3.00074 33.0614,-2.19149 44.34344,-13.45086 8.01385,-7.99741 11.66479,-15.83107 13.11193,-28.14239 1.21979,-10.37525 -0.42605,-19.99765 -4.96565,-29.02873 -2.84863,-5.66749 -10.95219,-13.91035 -16.56033,-16.84453 -6.71608,-3.51391 -14.33686,-5.16137 -22.27836,-4.95725 z m 342.99038,0.10022 c -7.84723,0.0492 -13.63609,1.21238 -21.19993,4.26758 -22.41723,9.05472 -32.44038,30.44869 -26.30357,56.14306 3.52513,14.75874 13.86613,26.33232 27.16037,30.39981 2.40645,0.73593 5.87242,1.57622 7.70337,1.86843 1.83091,0.29209 6.27641,0.41991 9.87696,0.28407 5.38393,-0.20354 7.77559,-0.65848 13.47978,-2.56213 9.20977,-3.07359 14.28428,-6.18572 20.24287,-12.42242 7.90118,-8.27027 11.58617,-17.23847 12.44322,-30.27852 1.26336,-19.22171 -7.74348,-36.08971 -23.18122,-43.41551 -7.00594,-3.32457 -11.78791,-4.33727 -20.22185,-4.2843 z m -117.5737,9.2834 c 4.05409,-0.003 8.25233,1.2693 11.69925,3.91228 8.39023,6.4333 10.97986,23.64957 5.23727,34.82614 -1.62019,3.15344 -3.65382,5.10427 -6.59149,6.32814 -3.54442,1.4769 -7.68852,1.7522 -11.22279,0.74404 -1.76555,-0.50365 -3.39712,-0.92964 -3.62383,-0.94454 -1.25246,-0.0861 -7.2717,-6.4414 -8.61881,-9.0995 -4.77384,-9.42098 -4.72331,-22.57666 0.1124,-29.55538 2.82281,-4.07317 7.79552,-6.2025 13.00753,-6.21118 z m 109.36032,0.74819 c 1.63982,-0.0757 3.33846,0.0388 5.08692,0.34691 11.95007,2.10495 20.85893,11.74757 24.69829,26.72983 1.63836,6.39184 1.66925,22.00211 0.0545,28.2972 -2.1646,8.43881 -7.02658,14.39117 -13.24999,16.22606 -16.42146,4.84138 -31.66862,-7.21808 -36.07583,-28.53134 -1.08549,-5.24912 -1.25977,-7.88191 -0.99062,-15.03056 0.44161,-11.72452 2.24308,-17.05506 7.53615,-22.2867 3.62781,-3.5856 8.02107,-5.52432 12.94057,-5.7514 z M 395.4151,176.831 c 8.67033,0.32715 17.86518,5.37714 23.00569,14.42868 6.02775,10.61371 8.02212,26.80287 4.96146,40.25982 -1.88346,8.28143 -5.44138,13.2285 -11.4735,15.9501 -11.24964,5.07557 -24.99774,-0.32237 -32.3642,-12.71081 -4.87586,-8.19969 -6.84106,-17.64709 -6.37847,-30.65875 0.33817,-9.51256 1.48795,-13.79914 5.12457,-19.12678 3.955,-5.79441 10.38109,-8.3967 17.12445,-8.14226 z m 611.597,11.26465 c 1.6619,0.006 3.7487,0.0529 6.3826,0.11709 13.5569,0.3302 16.9677,0.97862 24.4432,4.62703 10.3835,5.06725 15.712,13.88893 15.712,26.02345 0,14.29144 -7.4628,24.57883 -20.2469,27.90858 -4.087,1.06447 -16.5486,1.24806 -21.2752,0.3134 -5.1733,-1.02293 -8.8034,-3.96951 -11.043,-8.96135 -1.38418,-3.08523 -1.96643,-47.61094 -0.6436,-49.20474 0.537,-0.64707 1.685,-0.86386 6.6709,-0.8234 z M 625.40043,261.8975 c 1.55902,0.0242 3.55827,0.0943 6.21116,0.18858 15.3629,0.54438 21.60869,2.16385 26.78837,6.93829 3.29405,3.03645 4.35887,5.78567 4.28428,11.03903 -0.12563,8.90874 -6.68078,16.0146 -17.17479,18.62081 -9.02451,2.2416 -20.11704,1.51308 -27.64943,-1.81809 -4.27511,-1.89075 -9.38834,-6.62039 -11.19348,-10.34904 -1.84554,-3.81282 -1.89958,-9.29443 -0.12479,-12.75692 1.84006,-3.59127 6.91886,-8.41314 10.94286,-10.38683 2.51966,-1.23581 3.2391,-1.55297 7.9165,-1.47539 z"
     id="path4154"
     inkscape:connector-curvature="0" />
  <path
     inkscape:connector-curvature="0"
     id="path4152"
     d="m 613.86081,304.94122 c -9.05502,-2.37217 -16.75289,-8.14614 -20.6775,-15.50964 -1.74962,-3.28249 -2.1971,-4.92974 -2.42935,-8.94477 -0.25996,-4.48978 -0.1234,-5.21827 1.55559,-8.30331 1.9303,-3.54634 6.8778,-8.11507 14.97301,-13.82601 2.46085,-1.73622 4.48676,-3.49019 4.502,-3.8982 0.007,-0.40771 -1.28375,-1.51019 -2.88671,-2.44954 -1.60317,-0.9393 -3.87787,-2.55366 -5.05493,-3.58727 -2.47558,-2.17358 -5.13414,-7.83094 -4.61954,-9.82956 0.22603,-0.87734 2.94873,-2.9816 7.58565,-5.8627 3.978,-2.4718 7.32762,-4.98617 7.44346,-5.58756 0.15061,-0.78591 -0.92929,-1.66877 -3.84336,-3.13961 -5.56729,-2.80992 -7.88587,-4.69856 -10.84882,-8.83627 -6.3962,-8.93201 -7.31259,-23.83417 -2.06975,-33.6539 2.41607,-4.52509 8.64999,-10.63691 13.39095,-13.12853 2.13633,-1.12276 6.61446,-2.99152 9.95121,-4.15281 5.72359,-1.9919 6.55776,-2.10993 14.73438,-2.08491 8.54738,0.0262 8.78259,0.0659 17.01329,2.88221 7.99263,2.73468 8.66156,2.85574 15.78626,2.85667 7.26788,6.4e-4 7.51679,-0.047 10.7747,-2.07212 l 3.33488,-2.07309 0.69437,1.75207 c 0.87752,2.21455 -0.21286,8.11608 -1.92449,10.41934 -2.34053,3.14883 -5.07171,4.1869 -10.59921,4.02859 -4.9424,-0.14159 -5.03785,-0.11512 -4.62779,1.28403 0.23043,0.7857 0.58193,4.17318 0.7811,7.52773 0.87458,14.72579 -5.47111,25.64721 -18.9881,32.67943 -5.13898,2.67363 -13.91613,5.187 -18.14193,5.19502 -9.27478,0.0147 -12.23156,8.45303 -4.05444,11.56674 1.05943,0.40335 7.27085,1.14248 13.80344,1.64242 16.59787,1.27002 25.28923,2.60955 29.68322,4.57539 4.35087,1.94638 8.97152,6.59159 10.9134,10.97129 1.66538,3.75609 2.18603,10.80355 1.1625,15.73379 -3.16101,15.22629 -20.51786,30.09901 -39.87986,34.17189 -6.71527,1.41252 -21.43163,1.22658 -27.43763,-0.34681 z m 32.28837,-10.58624 c 11.27276,-2.38776 18.29157,-9.00275 19.38965,-18.27406 0.75818,-6.40194 -2.33106,-12.15653 -8.09356,-15.0767 -4.40824,-2.23397 -9.65199,-3.42709 -18.69673,-4.25471 -13.90765,-1.2725 -18.48565,-0.2305 -25.09556,5.71245 -10.95891,9.853 -6.96446,24.22835 8.41719,30.2912 6.56215,2.58652 16.35499,3.23801 24.07901,1.60182 z m -4.95232,-79.0597 c 8.0451,-4.96694 10.73393,-21.7621 5.32867,-33.28441 -3.4818,-7.42193 -9.32909,-11.27844 -17.19154,-11.3383 -5.63951,-0.0428 -9.14221,1.38608 -12.36133,5.04306 -9.02795,10.25633 -5.11366,33.48068 6.65624,39.49375 4.137,2.11352 5.54438,2.41478 10.1848,2.18048 3.43853,-0.17407 4.98009,-0.61083 7.38316,-2.09458 z M 68.023611,274.49436 c 0,-0.51129 -0.725713,-3.22696 -1.612699,-6.03484 l -1.612683,-5.10508 -6.894037,-5.76081 C 32.006901,235.9524 13.413175,207.02781 6.015424,176.87472 0.27955927,153.49549 1.7523908,121.82857 9.867832,94.045091 16.207166,72.342194 27.382301,51.1991 41.48246,34.23094 46.309826,28.4217 51.291024,23.38302 60.408573,15.08631 c 4.290268,-3.90398 5.690723,-5.9662 6.669611,-9.82152 0.412495,-1.62461 1.018245,-3.04309 1.346138,-3.15239 0.327901,-0.10938 1.700368,2.04283 3.049937,4.7825 4.285281,8.6993 6.939788,12.50564 13.771881,19.74775 13.233036,14.02708 20.69536,23.80926 28.39777,37.22572 11.06754,19.278021 19.82942,45.12426 22.09479,65.17604 4.1861,37.05234 -4.89591,72.64543 -25.8835,101.43882 -7.8647,10.78975 -20.841998,24.09245 -27.80184,28.49935 l -2.016312,1.27655 -2.412501,-1.38861 -2.412464,-1.38814 -3.04381,8.97097 c -2.717753,8.01 -4.144662,10.77859 -4.144662,8.04101 z M 387.74837,253.23939 c -11.41403,-2.45123 -21.90991,-10.62112 -26.88786,-20.92868 -3.89085,-8.0568 -4.70575,-11.73076 -5.04623,-22.75385 -0.26351,-8.52826 -0.13258,-10.29733 1.08674,-14.74387 2.11325,-7.70257 4.73905,-12.10215 10.91958,-18.29631 4.14966,-4.15861 6.73082,-6.12898 10.61843,-8.1055 20.72784,-10.53842 42.79934,-8.50694 56.50724,5.20099 8.25411,8.25401 12.50959,19.41071 12.50959,32.79537 0,19.365 -8.74594,34.31663 -24.59646,42.04876 -8.96418,4.37273 -14.87372,5.79461 -23.81797,5.73062 -3.91593,-0.0264 -8.99792,-0.45446 -11.29306,-0.94753 z m 27.2857,-10.71652 c 8.05142,-4.14543 11.70006,-11.88965 12.32697,-26.16409 0.92285,-21.0077 -6.06617,-36.23275 -19.52331,-42.53013 -8.53291,-3.99305 -17.76096,-3.03098 -23.90398,2.49216 -5.61734,5.05059 -8.16085,11.53197 -8.78341,22.38251 -0.66579,11.6007 2.24358,24.28973 7.41684,32.35177 3.90105,6.07925 10.87179,11.29951 17.21644,12.89271 4.3755,1.0987 11.67334,0.41685 15.25045,-1.42493 z m 314.41067,10.47265 c -19.9616,-4.90373 -31.60208,-21.62456 -31.60208,-45.39419 0,-13.60144 3.40343,-22.28081 12.20691,-31.13092 4.63672,-4.66134 6.47401,-6.00611 11.57906,-8.47506 8.50305,-4.11218 14.25003,-5.60665 23.08145,-6.00193 9.26347,-0.4146 14.97212,0.69543 22.47055,4.36946 10.64055,5.21357 18.10324,14.8597 21.26686,27.4891 1.83188,7.31286 1.48473,21.06633 -0.70577,27.96406 -5.16646,16.26807 -16.60422,26.59552 -34.5336,31.18104 -6.31795,1.61587 -17.18269,1.61516 -23.76338,-0.001 z m 25.62435,-9.48598 c 2.52269,-0.80435 4.40409,-2.05104 7.03142,-4.65949 6.03999,-5.99623 8.02062,-13.5507 7.47319,-28.50313 -0.36444,-9.95292 -1.62833,-15.64563 -4.91266,-22.12686 -5.3097,-10.47778 -14.72963,-16.80905 -24.99435,-16.7989 -4.76824,0.002 -7.68144,0.86796 -11.42059,3.38429 -6.19207,4.167 -9.34893,10.36721 -10.57603,20.77215 -1.75366,14.86978 2.73338,31.20682 11.07889,40.33828 6.72722,7.36079 17.39609,10.43878 26.32013,7.59366 z m -287.10088,9.15532 c -0.33532,-0.33548 -0.6097,-2.13102 -0.6097,-3.98994 0,-3.8789 0.43896,-4.28252 5.44857,-5.01042 4.3972,-0.63896 6.46999,-1.85294 7.39988,-4.33402 1.14163,-3.0457 1.74346,-53.03594 0.66967,-55.62824 -0.85959,-2.07549 -4.44953,-4.24276 -10.81865,-6.53147 -4.23338,-1.52124 -5.62096,-2.98603 -4.92036,-5.19403 0.45281,-1.42614 3.84086,-3.12723 6.2291,-3.12723 2.06218,0 16.46847,-3.54296 22.49735,-5.53284 6.79211,-2.24184 7.18943,-1.90444 6.65307,5.65027 -0.22253,3.13462 -0.14011,5.75461 0.18547,5.95603 0.32003,0.19771 2.69923,-1.23573 5.28728,-3.18559 6.22679,-4.69122 13.88567,-8.42136 20.02835,-9.75435 4.2461,-0.92148 5.66044,-0.96883 9.46237,-0.31688 11.11585,1.90614 19.33282,9.73137 22.74817,21.6637 0.90383,3.15764 1.17362,8.25431 1.56206,29.49788 0.25817,14.12444 0.69199,26.19696 0.96408,26.82795 0.70028,1.62436 3.11825,2.7122 8.84562,3.97973 l 4.97577,1.10108 0,3.74983 c 0,2.19574 -0.31503,3.94426 -0.76033,4.21942 -0.41806,0.25844 -10.81544,0.49211 -23.10542,0.51952 -18.0509,0.0393 -22.40851,-0.11381 -22.67343,-0.80552 -0.5595,-1.45794 -0.36062,-7.0743 0.26419,-7.46064 0.32578,-0.20185 2.13142,-0.65251 4.01254,-1.00272 4.86407,-0.90566 6.6809,-1.77553 7.51015,-3.59554 0.9805,-2.15191 0.98984,-42.6011 0.005,-48.22092 -2.41823,-13.88638 -16.98764,-19.39274 -31.86139,-12.04175 -7.74389,3.82722 -7.29261,1.70863 -7.08525,33.26724 l 0.17704,26.86048 1.74451,1.49991 c 1.16676,1.00325 2.97482,1.65116 5.45718,1.9559 6.15523,0.75561 6.60314,1.06855 6.59186,4.60154 -0.002,1.68595 -0.27161,3.47926 -0.59156,3.98494 -0.48611,0.76793 -4.2966,0.92646 -23.13497,0.96298 -13.45093,0.0242 -22.79928,-0.2031 -23.16315,-0.5663 z m -289.83226,-0.88189 c -0.67437,-0.67428 -0.29587,-5.75965 0.47521,-6.38522 0.44133,-0.35807 2.52125,-1.00364 4.62208,-1.43487 8.95364,-1.83698 8.77395,-1.41214 9.49435,-22.44599 0.32083,-9.36946 0.38503,-22.06335 0.14309,-28.20862 -0.51762,-13.10967 -0.34832,-12.79016 -8.53347,-16.10318 -2.70759,-1.09589 -5.57294,-2.26239 -6.36737,-2.59223 -2.3764,-0.98651 -1.9379,-3.69666 0.78189,-4.83307 1.22454,-0.51166 2.90096,-0.93028 3.72536,-0.93028 1.96022,0 18.34201,-4.05367 23.17481,-5.73463 2.07176,-0.72062 4.02186,-1.15263 4.33373,-0.96 0.31167,0.19255 0.5666,3.06077 0.5666,6.37362 0,3.31286 0.281,6.19702 0.62429,6.40924 0.34336,0.21226 2.72681,-1.03851 5.29667,-2.77941 6.23668,-4.22507 14.41439,-8.25343 19.29023,-9.50258 10.68109,-2.73639 21.28158,1.34662 27.75771,10.69144 0.97743,1.41048 2.01571,2.56452 2.30713,2.56452 0.29145,0 2.92451,-1.63655 5.85133,-3.63677 6.24872,-4.27057 15.4503,-8.73135 20.33817,-9.85985 5.87179,-1.35565 12.889,-0.50926 18.41301,2.22089 5.68334,2.80893 9.26726,6.6005 12.17501,12.88077 3.70597,8.00416 3.83062,9.19185 3.83062,36.48711 l 0,24.93078 2.05375,1.83513 c 1.50363,1.3435 3.45616,2.13634 7.29037,2.9603 2.95284,0.63449 5.38343,1.50776 5.57317,2.00232 0.1855,0.48248 0.08,2.0879 -0.23103,3.56782 l -0.56763,2.6907 -22.2663,0.0289 c -21.91068,0.0293 -22.27178,0.005 -22.61961,-1.28393 -0.60235,-2.24256 -0.40709,-4.65882 0.43187,-5.34676 0.44142,-0.36184 2.10256,-0.98866 3.69166,-1.39268 8.96596,-2.2804 8.61716,-1.15237 8.64478,-27.96052 0.019,-20.76535 -0.0462,-22.04814 -1.39638,-26.3375 -0.87852,-2.79199 -2.29051,-5.52743 -3.70805,-7.18356 -4.46179,-5.21249 -12.87066,-7.68704 -20.3174,-5.97892 -3.86384,0.88626 -12.28458,4.77391 -13.49214,6.22884 -0.58354,0.70313 -0.81512,6.63461 -0.89374,22.88831 -0.12916,26.89828 0.16815,33.45364 1.59858,35.22094 0.65891,0.81393 3.09516,1.84207 6.48239,2.73585 5.32973,1.40655 5.43021,1.46984 5.63423,3.54985 0.11313,1.16479 0.0362,2.80005 -0.1725,3.63408 l -0.38072,1.51612 -22.38957,0 c -24.40819,0 -23.16929,0.19461 -23.16929,-3.62584 0,-3.09339 1.00565,-3.91187 5.87447,-4.78216 5.78564,-1.03384 7.51835,-2.42797 8.31955,-6.69417 0.89525,-4.76606 0.81328,-40.97145 -0.10294,-45.24743 -3.40683,-15.90821 -16.32584,-20.99354 -32.48996,-12.78908 -2.17946,1.10625 -4.78191,2.86743 -5.78292,3.9137 l -1.82034,1.9023 0.003,26.79722 c 0.003,24.67749 0.0978,26.9361 1.15711,28.55389 1.30842,1.99699 2.92536,2.72894 8.43903,3.8204 3.76338,0.74487 3.88643,0.83337 4.08795,2.94335 0.1139,1.19658 0.0462,2.8162 -0.14828,3.59899 l -0.35748,1.4234 -22.47538,-0.004 c -12.36136,-0.002 -22.62256,-0.15478 -22.80251,-0.33525 z"
     style="fill:#a2cfa1" />
  <path
     inkscape:connector-curvature="0"
     id="path4150"
     d="m 613.86081,304.94122 c -9.05502,-2.37217 -16.75289,-8.14614 -20.6775,-15.50964 -1.74962,-3.28249 -2.1971,-4.92974 -2.42935,-8.94477 -0.25996,-4.48978 -0.1234,-5.21827 1.55559,-8.30331 1.9303,-3.54634 6.8778,-8.11507 14.97301,-13.82601 2.46085,-1.73622 4.48676,-3.49019 4.502,-3.8982 0.007,-0.40771 -1.28375,-1.51019 -2.88671,-2.44954 -1.60317,-0.9393 -3.87787,-2.55366 -5.05493,-3.58727 -2.47558,-2.17358 -5.13414,-7.83094 -4.61954,-9.82956 0.22603,-0.87734 2.94873,-2.9816 7.58565,-5.8627 3.978,-2.4718 7.32762,-4.98617 7.44346,-5.58756 0.15061,-0.78591 -0.92929,-1.66877 -3.84336,-3.13961 -5.56729,-2.80992 -7.88587,-4.69856 -10.84882,-8.83627 -6.3962,-8.93201 -7.31259,-23.83417 -2.06975,-33.6539 2.41607,-4.52509 8.64999,-10.63691 13.39095,-13.12853 2.13633,-1.12276 6.61446,-2.99152 9.95121,-4.15281 5.72359,-1.9919 6.55776,-2.10993 14.73438,-2.08491 8.54738,0.0262 8.78259,0.0659 17.01329,2.88221 7.99263,2.73468 8.66156,2.85574 15.78626,2.85667 7.26788,6.4e-4 7.51679,-0.047 10.7747,-2.07212 l 3.33488,-2.07309 0.69437,1.75207 c 0.87752,2.21455 -0.21286,8.11608 -1.92449,10.41934 -2.34053,3.14883 -5.07171,4.1869 -10.59921,4.02859 -4.9424,-0.14159 -5.03785,-0.11512 -4.62779,1.28403 0.23043,0.7857 0.58193,4.17318 0.7811,7.52773 0.87458,14.72579 -5.47111,25.64721 -18.9881,32.67943 -5.13898,2.67363 -13.91613,5.187 -18.14193,5.19502 -9.27478,0.0147 -12.23156,8.45303 -4.05444,11.56674 1.05943,0.40335 7.27085,1.14248 13.80344,1.64242 16.59787,1.27002 25.28923,2.60955 29.68322,4.57539 4.35087,1.94638 8.97152,6.59159 10.9134,10.97129 1.66538,3.75609 2.18603,10.80355 1.1625,15.73379 -3.16101,15.22629 -20.51786,30.09901 -39.87986,34.17189 -6.71527,1.41252 -21.43163,1.22658 -27.43763,-0.34681 z m 32.28837,-10.58624 c 11.27276,-2.38776 18.29157,-9.00275 19.38965,-18.27406 0.75818,-6.40194 -2.33106,-12.15653 -8.09356,-15.0767 -4.40824,-2.23397 -9.65199,-3.42709 -18.69673,-4.25471 -13.90765,-1.2725 -18.48565,-0.2305 -25.09556,5.71245 -10.95891,9.853 -6.96446,24.22835 8.41719,30.2912 6.56215,2.58652 16.35499,3.23801 24.07901,1.60182 z m -4.95232,-79.0597 c 8.0451,-4.96694 10.73393,-21.7621 5.32867,-33.28441 -3.4818,-7.42193 -9.32909,-11.27844 -17.19154,-11.3383 -5.63951,-0.0428 -9.14221,1.38608 -12.36133,5.04306 -9.02795,10.25633 -5.11366,33.48068 6.65624,39.49375 4.137,2.11352 5.54438,2.41478 10.1848,2.18048 3.43853,-0.17407 4.98009,-0.61083 7.38316,-2.09458 z M 68.031736,274.6218 c 0.0021,-0.44129 -0.773091,-3.36213 -1.727886,-6.49067 l -1.73602,-5.68829 -6.457829,-5.5292 C 40.117509,241.50836 26.641686,224.3427 16.948335,204.48149 11.501426,193.32099 8.4709872,184.61045 6.1153488,173.34362 5.1925095,168.92977 4.1303467,164.01833 3.7549931,162.42934 2.7631814,158.23069 2.3320686,140.5855 3.0569687,133.85956 7.3979956,93.581581 19.20678,63.11224 40.877904,36.27286 c 4.71241,-5.83615 9.006614,-10.22012 20.632588,-21.06375 3.550371,-3.31148 5.563197,-6.37128 6.823268,-10.37219 0.308829,-0.98059 1.122137,0.0906 3.655313,4.81517 4.643339,8.65971 6.102859,10.59991 15.105812,20.08066 19.808565,20.85997 32.567715,42.462127 41.560055,70.36425 5.25695,16.31152 7.42253,29.86792 7.42253,46.46377 0,32.04587 -9.29394,60.3901 -28.00883,85.41967 -6.44741,8.62295 -15.408432,18.09421 -22.460552,23.73919 -4.758455,3.8091 -6.228273,4.28854 -8.313017,2.71169 -0.685433,-0.51841 -1.431883,-0.95164 -1.658797,-0.96291 -0.22689,-0.005 -1.784879,4.02413 -3.46217,8.96763 -1.677306,4.94366 -3.297325,8.98828 -3.600063,8.98828 -0.302729,0 -0.546768,-0.36103 -0.542305,-0.80252 z M 387.74837,253.23939 c -11.41403,-2.45123 -21.90991,-10.62112 -26.88786,-20.92868 -3.89085,-8.0568 -4.70575,-11.73076 -5.04623,-22.75385 -0.26351,-8.52826 -0.13258,-10.29733 1.08674,-14.74387 2.11325,-7.70257 4.73905,-12.10215 10.91958,-18.29631 4.14966,-4.15861 6.73082,-6.12898 10.61843,-8.1055 20.72784,-10.53842 42.79934,-8.50694 56.50724,5.20099 8.25411,8.25401 12.50959,19.41071 12.50959,32.79537 0,19.365 -8.74594,34.31663 -24.59646,42.04876 -8.96418,4.37273 -14.87372,5.79461 -23.81797,5.73062 -3.91593,-0.0264 -8.99792,-0.45446 -11.29306,-0.94753 z m 27.2857,-10.71652 c 8.05142,-4.14543 11.70006,-11.88965 12.32697,-26.16409 0.92285,-21.0077 -6.06617,-36.23275 -19.52331,-42.53013 -8.53291,-3.99305 -17.76096,-3.03098 -23.90398,2.49216 -5.61734,5.05059 -8.16085,11.53197 -8.78341,22.38251 -0.66579,11.6007 2.24358,24.28973 7.41684,32.35177 3.90105,6.07925 10.87179,11.29951 17.21644,12.89271 4.3755,1.0987 11.67334,0.41685 15.25045,-1.42493 z m 314.41067,10.47265 c -19.9616,-4.90373 -31.60208,-21.62456 -31.60208,-45.39419 0,-13.60144 3.40343,-22.28081 12.20691,-31.13092 4.63672,-4.66134 6.47401,-6.00611 11.57906,-8.47506 8.50305,-4.11218 14.25003,-5.60665 23.08145,-6.00193 9.26347,-0.4146 14.97212,0.69543 22.47055,4.36946 10.64055,5.21357 18.10324,14.8597 21.26686,27.4891 1.83188,7.31286 1.48473,21.06633 -0.70577,27.96406 -5.16646,16.26807 -16.60422,26.59552 -34.5336,31.18104 -6.31795,1.61587 -17.18269,1.61516 -23.76338,-0.001 z m 25.62435,-9.48598 c 2.52269,-0.80435 4.40409,-2.05104 7.03142,-4.65949 6.03999,-5.99623 8.02062,-13.5507 7.47319,-28.50313 -0.36444,-9.95292 -1.62833,-15.64563 -4.91266,-22.12686 -5.3097,-10.47778 -14.72963,-16.80905 -24.99435,-16.7989 -4.76824,0.002 -7.68144,0.86796 -11.42059,3.38429 -6.19207,4.167 -9.34893,10.36721 -10.57603,20.77215 -1.75366,14.86978 2.73338,31.20682 11.07889,40.33828 6.72722,7.36079 17.39609,10.43878 26.32013,7.59366 z m -287.10088,9.15532 c -0.33532,-0.33548 -0.6097,-2.13102 -0.6097,-3.98994 0,-3.8789 0.43896,-4.28252 5.44857,-5.01042 4.3972,-0.63896 6.46999,-1.85294 7.39988,-4.33402 1.14163,-3.0457 1.74346,-53.03594 0.66967,-55.62824 -0.85959,-2.07549 -4.44953,-4.24276 -10.81865,-6.53147 -4.23338,-1.52124 -5.62096,-2.98603 -4.92036,-5.19403 0.45281,-1.42614 3.84086,-3.12723 6.2291,-3.12723 2.06218,0 16.46847,-3.54296 22.49735,-5.53284 6.79211,-2.24184 7.18943,-1.90444 6.65307,5.65027 -0.22253,3.13462 -0.14011,5.75461 0.18547,5.95603 0.32003,0.19771 2.69923,-1.23573 5.28728,-3.18559 6.22679,-4.69122 13.88567,-8.42136 20.02835,-9.75435 4.2461,-0.92148 5.66044,-0.96883 9.46237,-0.31688 11.11585,1.90614 19.33282,9.73137 22.74817,21.6637 0.90383,3.15764 1.17362,8.25431 1.56206,29.49788 0.25817,14.12444 0.69199,26.19696 0.96408,26.82795 0.70028,1.62436 3.11825,2.7122 8.84562,3.97973 l 4.97577,1.10108 0,3.74983 c 0,2.19574 -0.31503,3.94426 -0.76033,4.21942 -0.41806,0.25844 -10.81544,0.49211 -23.10542,0.51952 -18.0509,0.0393 -22.40851,-0.11381 -22.67343,-0.80552 -0.5595,-1.45794 -0.36062,-7.0743 0.26419,-7.46064 0.32578,-0.20185 2.13142,-0.65251 4.01254,-1.00272 4.86407,-0.90566 6.6809,-1.77553 7.51015,-3.59554 0.9805,-2.15191 0.98984,-42.6011 0.005,-48.22092 -2.41823,-13.88638 -16.98764,-19.39274 -31.86139,-12.04175 -7.74389,3.82722 -7.29261,1.70863 -7.08525,33.26724 l 0.17704,26.86048 1.74451,1.49991 c 1.16676,1.00325 2.97482,1.65116 5.45718,1.9559 6.15523,0.75561 6.60314,1.06855 6.59186,4.60154 -0.002,1.68595 -0.27161,3.47926 -0.59156,3.98494 -0.48611,0.76793 -4.2966,0.92646 -23.13497,0.96298 -13.45093,0.0242 -22.79928,-0.2031 -23.16315,-0.5663 z m -289.83226,-0.88189 c -0.67437,-0.67428 -0.29587,-5.75965 0.47521,-6.38522 0.44133,-0.35807 2.52125,-1.00364 4.62208,-1.43487 8.95364,-1.83698 8.77395,-1.41214 9.49435,-22.44599 0.32083,-9.36946 0.38503,-22.06335 0.14309,-28.20862 -0.51762,-13.10967 -0.34832,-12.79016 -8.53347,-16.10318 -2.70759,-1.09589 -5.57294,-2.26239 -6.36737,-2.59223 -2.3764,-0.98651 -1.9379,-3.69666 0.78189,-4.83307 1.22454,-0.51166 2.90096,-0.93028 3.72536,-0.93028 1.96022,0 18.34201,-4.05367 23.17481,-5.73463 2.07176,-0.72062 4.02186,-1.15263 4.33373,-0.96 0.31167,0.19255 0.5666,3.06077 0.5666,6.37362 0,3.31286 0.281,6.19702 0.62429,6.40924 0.34336,0.21226 2.72681,-1.03851 5.29667,-2.77941 6.23668,-4.22507 14.41439,-8.25343 19.29023,-9.50258 10.68109,-2.73639 21.28158,1.34662 27.75771,10.69144 0.97743,1.41048 2.01571,2.56452 2.30713,2.56452 0.29145,0 2.92451,-1.63655 5.85133,-3.63677 6.24872,-4.27057 15.4503,-8.73135 20.33817,-9.85985 5.87179,-1.35565 12.889,-0.50926 18.41301,2.22089 5.68334,2.80893 9.26726,6.6005 12.17501,12.88077 3.70597,8.00416 3.83062,9.19185 3.83062,36.48711 l 0,24.93078 2.05375,1.83513 c 1.50363,1.3435 3.45616,2.13634 7.29037,2.9603 2.95284,0.63449 5.38343,1.50776 5.57317,2.00232 0.1855,0.48248 0.08,2.0879 -0.23103,3.56782 l -0.56763,2.6907 -22.2663,0.0289 c -21.91068,0.0293 -22.27178,0.005 -22.61961,-1.28393 -0.60235,-2.24256 -0.40709,-4.65882 0.43187,-5.34676 0.44142,-0.36184 2.10256,-0.98866 3.69166,-1.39268 8.96596,-2.2804 8.61716,-1.15237 8.64478,-27.96052 0.019,-20.76535 -0.0462,-22.04814 -1.39638,-26.3375 -0.87852,-2.79199 -2.29051,-5.52743 -3.70805,-7.18356 -4.46179,-5.21249 -12.87066,-7.68704 -20.3174,-5.97892 -3.86384,0.88626 -12.28458,4.77391 -13.49214,6.22884 -0.58354,0.70313 -0.81512,6.63461 -0.89374,22.88831 -0.12916,26.89828 0.16815,33.45364 1.59858,35.22094 0.65891,0.81393 3.09516,1.84207 6.48239,2.73585 5.32973,1.40655 5.43021,1.46984 5.63423,3.54985 0.11313,1.16479 0.0362,2.80005 -0.1725,3.63408 l -0.38072,1.51612 -22.38957,0 c -24.40819,0 -23.16929,0.19461 -23.16929,-3.62584 0,-3.09339 1.00565,-3.91187 5.87447,-4.78216 5.78564,-1.03384 7.51835,-2.42797 8.31955,-6.69417 0.89525,-4.76606 0.81328,-40.97145 -0.10294,-45.24743 -3.40683,-15.90821 -16.32584,-20.99354 -32.48996,-12.78908 -2.17946,1.10625 -4.78191,2.86743 -5.78292,3.9137 l -1.82034,1.9023 0.003,26.79722 c 0.003,24.67749 0.0978,26.9361 1.15711,28.55389 1.30842,1.99699 2.92536,2.72894 8.43903,3.8204 3.76338,0.74487 3.88643,0.83337 4.08795,2.94335 0.1139,1.19658 0.0462,2.8162 -0.14828,3.59899 l -0.35748,1.4234 -22.47538,-0.004 c -12.36136,-0.002 -22.62256,-0.15478 -22.80251,-0.33525 z"
     style="fill:#a1a19f" />
  <path
     inkscape:connector-curvature="0"
     id="path4148"
     d="m 618.55365,305.8608 c -9.46796,-2.25224 -15.84646,-5.59139 -20.80495,-10.89213 -5.96381,-6.37542 -8.2419,-13.89622 -6.14025,-20.27073 1.37295,-4.16367 6.11257,-9.01992 14.95611,-15.32393 3.21963,-2.29516 5.86139,-4.60643 5.87037,-5.1362 0.004,-0.52972 -1.58607,-1.80016 -3.54461,-2.82367 -5.70726,-2.98223 -9.99064,-9.03738 -9.04006,-12.7794 0.23875,-0.93992 2.58171,-2.74051 7.02406,-5.39802 9.89141,-5.91772 10.11988,-6.57679 3.39103,-9.78809 -9.92149,-4.73506 -15.74885,-14.6336 -15.77789,-26.80027 -0.0409,-17.69071 12.59506,-30.07846 34.60842,-33.92521 7.25075,-1.26702 13.97159,-0.41763 24.12665,3.04923 7.08944,2.42031 8.26777,2.63515 14.76642,2.69312 6.8137,0.061 7.18954,-0.005 10.68184,-1.98846 1.99088,-1.1283 3.79661,-1.87464 4.01263,-1.65853 0.94714,0.94707 0.31055,6.48825 -1.05163,9.15404 -2.33823,4.57593 -4.11821,5.48478 -10.55115,5.3872 l -5.47509,-0.083 0.51702,4.89819 c 1.4758,13.98119 -1.29424,22.97048 -9.38735,30.4634 -7.25157,6.71385 -16.42977,10.56074 -27.87799,11.68456 -3.90288,0.38314 -4.72848,0.70384 -6.58072,2.55597 -2.5753,2.57543 -2.70789,4.65679 -0.46594,7.32107 2.20141,2.61639 4.15081,3.04577 19.21371,4.23355 22.84616,1.80146 27.88347,3.02387 33.39451,8.10376 12.55976,11.57704 7.42749,33.46242 -10.89352,46.45349 -5.14556,3.64846 -10.73361,6.39828 -17.90085,8.80885 -5.40115,1.81634 -6.70133,1.995 -15.83546,2.17281 -5.47331,0.10489 -10.52915,0.0556 -11.23531,-0.11117 z m 29.82647,-11.60514 c 11.102,-3.06709 17.65788,-10.59706 17.58179,-20.19386 -0.0984,-12.46358 -12.1055,-18.4049 -35.95208,-17.78958 -9.83419,0.25366 -11.42104,0.86213 -17.31235,6.63867 -3.25398,3.19045 -4.17895,4.57878 -5.05219,7.58264 -2.82686,9.72457 4.04654,19.47439 16.59148,23.53394 6.08213,1.96826 17.45576,2.07588 24.14335,0.22819 z M 637.9465,217.31837 c 4.21124,-1.25066 8.00936,-5.01279 9.92802,-9.83428 1.24475,-3.12744 1.45059,-4.82896 1.45059,-11.99085 0,-7.2809 -0.19528,-8.83733 -1.52625,-12.1936 -2.13251,-5.37513 -7.55299,-10.75414 -12.23992,-12.14598 -7.33103,-2.17711 -13.47474,-0.9982 -18.04025,3.46188 -4.61549,4.50874 -5.90697,8.70119 -5.54186,17.98861 0.21913,5.57729 0.64028,8.29124 1.72189,11.09556 2.69598,6.99089 7.83065,12.01957 13.95387,13.66547 4.15039,1.11549 6.41444,1.10526 10.29391,-0.0461 z M 58.684701,257.34136 C 47.652907,248.46666 34.950074,234.24065 26.103152,220.85292 20.544024,212.44051 12.954594,196.98884 10.020749,188.11003 8.7956221,184.4024 7.0381908,177.75751 6.1153488,173.34362 5.1925095,168.92977 4.1303467,164.01833 3.7549931,162.42934 2.7631814,158.23069 2.3320686,140.5855 3.0569687,133.85956 7.3979956,93.581581 19.20678,63.11224 40.877904,36.27286 c 4.71241,-5.83615 9.006614,-10.22012 20.632588,-21.06375 3.552465,-3.31342 5.560699,-6.36722 6.826438,-10.38048 0.313091,-0.99266 1.071983,10e-4 3.481983,4.56485 4.391578,8.31423 6.306284,10.8899 14.641839,19.69652 17.391728,18.37462 28.166088,34.97405 37.015418,57.027317 8.24002,20.534963 11.56211,35.348903 12.36187,55.125443 1.41934,35.09431 -9.53473,68.2135 -31.53358,95.34008 -5.315771,6.55501 -14.896041,16.02578 -20.419221,20.18609 l -3.719896,2.80216 -2.163638,-2.09722 c -2.900658,-2.81139 -5.193229,-8.1388 -6.583488,-15.29848 -0.631151,-3.25042 -1.310282,-5.91075 -1.509165,-5.91191 -0.198863,-10e-4 -0.99006,4.25926 -1.758155,9.46763 -1.532568,10.39219 -2.663847,15.0235 -3.759032,15.38841 -0.392972,0.13076 -2.961185,-1.56918 -5.707164,-3.77816 z m 334.841739,-3.52267 c -18.74809,-2.49852 -31.15097,-13.40811 -36.04026,-31.70085 -1.16774,-4.36883 -1.45456,-7.14222 -1.45868,-14.10526 -0.003,-10.11382 0.94057,-14.39788 4.83913,-21.9046 3.09445,-5.95843 10.40743,-13.35201 16.60945,-16.79275 12.02105,-6.66907 28.51328,-8.97125 39.80507,-5.55652 20.36386,6.15819 31.90081,24.89258 29.51707,47.93209 -2.15402,20.82031 -14.14627,34.85383 -34.6964,40.60232 -4.72573,1.32186 -14.2402,2.1033 -18.57538,1.52557 z m 21.61069,-10.85564 c 8.82305,-4.27108 12.61102,-13.07753 12.68555,-29.49333 0.047,-10.64639 -1.11347,-16.66219 -4.71066,-24.39665 -8.11147,-17.44063 -27.70519,-23.74317 -39.81138,-12.80588 -5.05728,4.56896 -7.43903,10.19302 -8.32808,19.66492 -2.27797,24.27472 8.70608,45.13516 25.61598,48.64869 4.43682,0.92171 10.75346,0.21941 14.54859,-1.61775 z m 318.97959,10.61182 c -9.4722,-1.45808 -19.46126,-6.64984 -25.0203,-13.00488 -10.29557,-11.76934 -14.03042,-33.50993 -8.41458,-48.98132 6.28163,-17.30572 24.95881,-29.21396 45.9543,-29.29948 12.76336,-0.0519 22.01053,3.52474 30.20934,11.68483 9.75274,9.70693 14.09461,23.5555 12.18168,38.85371 -2.51137,20.08254 -14.68694,33.93665 -34.68697,39.46838 -5.60328,1.54986 -14.71753,2.12599 -20.22347,1.27876 z m 22.64802,-10.26042 c 8.51851,-3.75896 12.75133,-12.26425 13.41538,-26.95567 1.08538,-24.01768 -8.91238,-41.45759 -25.76239,-44.93902 -7.67955,-1.58671 -15.43884,0.78108 -20.16885,6.15465 -5.06229,5.75104 -7.12162,12.69431 -7.13613,24.0606 -0.005,8.14435 0.64577,12.86689 2.67019,19.21791 3.99364,12.52865 12.78189,21.58566 23.03011,23.73429 4.09876,0.85939 10.42852,0.28189 13.95169,-1.27276 z m -289.13336,7.36103 c -0.22175,-1.18089 -0.13905,-2.93618 0.18216,-3.90085 0.51593,-1.54772 1.10897,-1.85907 5.04064,-2.64589 5.59299,-1.11936 7.10888,-2.09784 7.95146,-5.1327 0.4163,-1.49907 0.67167,-12.59018 0.67411,-29.26649 l 0.002,-26.85281 -1.53875,-1.39597 c -0.84637,-0.76777 -4.38543,-2.55819 -7.86459,-3.9787 -4.91276,-2.00574 -6.36952,-2.88431 -6.52062,-3.93259 -0.22866,-1.58424 1.30738,-3.31801 3.2891,-3.7129 9.85277,-1.96341 18.55651,-4.04507 23.44359,-5.60702 3.29625,-1.05357 6.40202,-1.75874 6.90163,-1.56704 0.69938,0.26844 0.9081,1.82892 0.9081,6.78888 0,3.54215 0.21764,6.44031 0.48348,6.44031 0.26595,0 2.64953,-1.61383 5.29674,-3.58629 5.55357,-4.13793 14.82426,-8.7778 19.81158,-9.91533 4.49577,-1.02546 11.02923,-0.48869 15.70102,1.28993 5.13755,1.95595 11.38162,7.8484 13.87283,13.09177 3.55665,7.48514 4.05028,11.76593 4.47575,38.82212 0.45023,28.61261 -0.27397,26.14886 8.25707,28.09358 2.73382,0.62317 5.33176,1.40506 5.77307,1.73721 0.94563,0.71192 1.04837,3.5693 0.20801,5.77982 l -0.59476,1.56441 -22.503,0.003 -22.503,0.003 -0.42558,-2.26847 c -0.23419,-1.24773 -0.16325,-3.01608 0.16002,-3.92974 0.49202,-1.39892 1.11663,-1.73792 3.95403,-2.14628 1.85339,-0.26658 4.35714,-0.8976 5.56401,-1.4017 3.55112,-1.4839 3.72336,-2.91334 3.41089,-28.33536 -0.32301,-26.28562 -0.50606,-27.29583 -5.93381,-32.75692 -4.02369,-4.04785 -7.68585,-5.40979 -14.54758,-5.40979 -8.38278,0 -17.68744,4.23905 -19.65839,8.95599 -1.25262,2.99798 -0.92979,52.78302 0.35712,55.07862 1.15279,2.0563 4.00071,3.33216 8.48402,3.80068 4.58578,0.4793 5.30614,1.32956 4.60523,5.43589 l -0.47937,2.80794 -22.91751,0.0944 -22.91762,0.0945 -0.40287,-2.1469 z M 178.37372,250.5049 c -1.32176,-3.47657 0.30232,-5.49994 4.96672,-6.18754 4.3981,-0.6486 7.18574,-2.11803 8.44316,-4.45044 0.94825,-1.75932 1.10736,-5.23026 1.32004,-28.8373 0.18316,-20.32695 0.0489,-27.3024 -0.55249,-28.75484 -0.91658,-2.21294 -4.06037,-4.16848 -10.67472,-6.64007 -2.52957,-0.94527 -4.75641,-2.12791 -4.94835,-2.6281 -0.4327,-1.12766 1.14502,-2.77761 3.0119,-3.14962 9.85446,-1.96368 18.55724,-4.04524 23.44706,-5.60813 3.29821,-1.05417 6.1873,-1.72525 6.42003,-1.49125 0.23297,0.23396 0.42352,3.06644 0.42352,6.29436 0,7.38987 0.38222,7.53213 7.53628,2.8041 13.76574,-9.09762 24.17192,-11.64085 33.39022,-8.16052 3.99711,1.50913 9.77169,6.29965 12.06331,10.00757 0.80586,1.30384 1.88185,2.20901 2.62588,2.20901 0.69345,0 3.34229,-1.40458 5.88633,-3.12125 12.29795,-8.29833 21.80258,-11.51958 30.39846,-10.30227 10.86553,1.53875 17.99735,7.93893 21.93781,19.68707 1.65825,4.9441 1.66966,5.11708 2.01719,31.08355 l 0.34954,26.11178 1.50473,1.60044 c 1.35816,1.44466 4.61506,2.59299 11.17529,3.94044 1.54812,0.31796 1.7641,0.65737 1.75548,2.75787 -0.008,4.38525 1.08576,4.18428 -22.44837,4.09103 -11.72134,-0.0456 -21.57502,-0.24733 -21.89721,-0.44635 -0.32209,-0.19953 -0.58571,-1.49047 -0.58571,-2.86981 0,-2.85395 0.50837,-3.2589 5.58443,-4.44986 4.34877,-1.02026 6.39696,-2.95105 6.92827,-6.53148 0.72947,-4.91485 0.004,-45.56733 -0.85406,-48.18263 -1.18158,-3.5808 -4.61548,-8.30332 -7.48553,-10.29403 -1.41265,-0.97968 -4.52935,-2.26096 -6.92642,-2.84727 -3.77146,-0.9224 -4.96946,-0.95684 -8.89347,-0.2556 -4.72816,0.84499 -13.71962,4.88588 -15.37956,6.91187 -0.7994,0.97561 -0.88609,5.2364 -0.59718,29.28761 l 0.33785,28.14589 1.52089,1.23073 c 0.83648,0.67687 3.14782,1.66826 5.13603,2.20334 7.23064,1.94498 6.83936,1.66793 6.69639,4.7435 -0.0707,1.52485 -0.26538,2.9087 -0.43183,3.07536 -0.60561,0.60549 -43.48333,0.50749 -44.09171,-0.10168 -0.33538,-0.3355 -0.60986,-1.69761 -0.60986,-3.02713 0,-2.83194 0.77705,-3.39991 5.52632,-4.0411 4.02793,-0.54362 7.11745,-2.34042 8.04844,-4.68101 1.03878,-2.61157 1.54209,-38.31044 0.63492,-45.04407 -1.61068,-11.95586 -7.18367,-18.35226 -17.12481,-19.65542 -6.30967,-0.8271 -18.67104,3.67444 -22.46205,8.17977 l -1.58746,1.88651 0,26.62636 c 0,29.13953 0.0318,29.40196 3.76268,31.33142 0.9981,0.51604 3.32368,1.13849 5.16771,1.38312 4.26808,0.56647 5.22142,1.49262 4.74097,4.60651 -0.20459,1.32162 -0.46077,2.50973 -0.57105,2.64066 -0.1103,0.13072 -10.07114,0.27506 -22.1356,0.32086 l -21.93533,0.083 -0.56508,-1.48635 z"
     style="fill:#6f6f70" />
  <path
     inkscape:connector-curvature="0"
     id="path4146"
     d="m 619.03516,305.77683 c -1.14767,-0.14244 -2.08663,-0.49737 -2.08663,-0.78886 0,-0.29144 -1.08344,-0.72752 -2.4076,-0.96944 -4.57117,-0.83415 -11.83271,-4.85201 -15.58926,-8.62505 -3.9872,-4.00506 -6.06764,-7.78966 -7.1693,-13.04236 -1.55515,-7.41437 1.77965,-12.48152 14.37461,-21.84164 4.27472,-3.17681 6.93945,-5.59419 6.93945,-6.29506 0,-0.70757 -1.31426,-1.87987 -3.47452,-3.09897 -1.91098,-1.07839 -4.51352,-3.03071 -5.78355,-4.33835 -2.55397,-2.6298 -4.1871,-6.86346 -3.22034,-8.34799 0.33079,-0.50755 3.77899,-2.90447 7.66333,-5.32626 5.69404,-3.55037 7.10115,-4.72457 7.26362,-6.06099 0.17915,-1.47441 -0.2648,-1.87807 -4.01089,-3.64795 -8.29208,-3.91789 -13.66423,-10.53469 -15.46932,-19.05341 -3.94228,-18.60433 4.84629,-32.40441 24.78106,-38.91175 11.43085,-3.73141 19.28813,-3.48882 32.37671,0.99962 7.12865,2.44463 8.23375,2.64574 14.79205,2.69208 6.53073,0.0461 7.35532,-0.0887 10.49206,-1.71548 1.87232,-0.97105 3.56246,-1.76554 3.75577,-1.76554 0.71245,0 -0.39668,6.98373 -1.42486,8.97227 -1.65498,3.20012 -5.77223,4.73857 -11.21803,4.19166 -5.0542,-0.50758 -5.4292,-0.14601 -4.41005,4.25199 0.88425,3.81516 0.81492,12.09549 -0.13494,16.16236 -3.27876,14.03642 -16.19824,23.83269 -34.53143,26.18395 -6.54715,0.8396 -9.63328,2.34123 -10.62875,5.1717 -1.27467,3.62465 1.36368,7.64889 5.78812,8.82823 1.3647,0.36371 8.2595,1.11364 15.3217,1.66641 21.17445,1.65737 27.83147,3.24386 33.12763,7.89388 8.38942,7.36615 8.62529,21.96357 0.55039,34.05582 -6.02956,9.02949 -18.28848,17.21345 -30.82612,20.579 -2.62791,0.70527 -4.48903,1.33629 -4.13583,1.40193 0.353,0.0654 -0.6581,0.35082 -2.24713,0.6332 -2.94037,0.52332 -14.6677,0.61529 -18.45797,0.14471 z m 28.40922,-10.56604 c 4.19055,-0.89941 9.02142,-3.1877 12.08258,-5.72371 6.61259,-5.47809 9.08182,-15.4577 5.54489,-22.40891 -3.93906,-7.74092 -12.50652,-10.8694 -31.22402,-11.4018 -10.4711,-0.29814 -11.1794,-0.24093 -14.01684,1.13267 -3.88152,1.87906 -10.30111,7.84568 -12.0286,11.17987 -1.98387,3.82902 -1.84289,9.9202 0.32823,14.20254 2.74657,5.41627 8.81049,10.11405 16.10615,12.47728 5.67332,1.83757 16.04295,2.07993 23.20761,0.54206 z m -6.84909,-78.32997 c 3.88372,-1.93047 6.81544,-5.89639 8.5286,-11.53678 1.79908,-5.92287 1.49149,-16.24613 -0.64999,-21.82111 -3.7586,-9.78408 -11.36802,-14.69148 -21.51705,-13.87679 -6.40299,0.51396 -10.89397,3.70932 -13.86406,9.86414 -1.81284,3.75653 -2.50731,13.92725 -1.33613,19.56296 3.1741,15.27283 16.8942,23.74485 28.83863,17.80758 z M 58.648852,257.31244 C 47.652959,248.46672 34.938809,234.22356 26.103152,220.85292 20.544024,212.44051 12.954594,196.98884 10.020749,188.11003 8.7956221,184.4024 7.0381908,177.75751 6.1153488,173.34362 5.1925095,168.92977 4.1303467,164.01833 3.7549931,162.42934 2.7631814,158.23069 2.3320686,140.5855 3.0569687,133.85956 7.3979956,93.581581 19.20678,63.11224 40.877904,36.27286 c 4.71241,-5.83615 9.006614,-10.22012 20.632588,-21.06375 3.552465,-3.31342 5.560699,-6.36722 6.826438,-10.38048 0.313091,-0.99266 1.071983,10e-4 3.481983,4.56485 4.391578,8.31423 6.306284,10.8899 14.641839,19.69652 17.391728,18.37462 28.166088,34.97405 37.015418,57.027317 8.24002,20.534963 11.56211,35.348903 12.36187,55.125443 1.57837,39.02616 -12.22114,75.78078 -38.879822,103.55523 -6.877782,7.16555 -14.971381,13.93395 -16.662439,13.93395 -3.705799,0 -7.648569,-9.51575 -9.382144,-22.64361 -0.548084,-4.15041 -1.359597,-3.32825 -1.904681,1.92957 -0.616777,5.9491 -2.782275,18.65199 -3.613303,21.19544 -0.374943,1.14769 -0.931061,2.08669 -1.235848,2.08669 -0.304771,0 -2.784704,-1.79435 -5.510951,-3.98759 z M 391.9215,252.88951 c -2.11871,-0.30229 -6.01885,-1.30934 -8.66725,-2.23776 -17.15259,-6.0135 -26.70995,-21.56156 -26.60504,-43.28119 0.0653,-13.51844 3.27634,-21.69132 11.90095,-30.29281 4.10146,-4.09048 6.08122,-5.48573 11.5906,-8.1683 23.30689,-11.34816 47.57736,-6.40211 59.56019,12.13773 5.13092,7.93848 7.6153,19.95945 6.39118,30.92426 -1.27681,11.43532 -5.07206,19.99475 -11.99497,27.05271 -4.91021,5.0058 -9.57618,8.01368 -16.43409,10.59425 -9.73319,3.6626 -16.75011,4.55417 -25.74157,3.27111 z m 23.07045,-9.14309 c 8.44324,-3.86533 12.61429,-12.06678 13.60255,-26.74561 0.89778,-13.33623 -2.40258,-26.23323 -9.02052,-35.24851 -5.61864,-7.65415 -16.09845,-12.44367 -24.93717,-11.39687 -4.7174,0.55873 -10.88408,3.76283 -13.53549,7.03278 -5.11534,6.309 -6.96542,12.9431 -6.92923,24.84622 0.0468,15.33409 4.36862,27.58574 12.52792,35.51593 7.73118,7.51389 19.51945,10.01216 28.29194,5.99606 z m 319.14773,9.17835 c -14.85685,-2.33221 -26.10445,-10.98872 -31.47628,-24.22575 -2.59457,-6.39313 -3.6934,-12.56162 -3.74229,-21.00744 -0.0761,-13.26395 3.5047,-22.3947 12.13617,-30.94228 3.76486,-3.7281 5.9442,-5.24241 11.29422,-7.84729 28.49976,-13.87658 57.48486,-3.07962 64.83538,24.15126 1.8788,6.96016 1.88458,19.60546 0.006,26.60775 -4.34178,16.23613 -15.55353,27.13708 -32.9018,31.99008 -5.55837,1.55475 -14.68963,2.13182 -20.15743,1.27367 z m 23.86924,-9.62107 c 4.40436,-2.16824 7.15743,-5.06673 9.43313,-9.93148 2.68804,-5.7461 3.27412,-9.56091 3.2052,-20.86551 -0.0576,-9.56523 -0.23336,-11.15239 -1.80431,-16.35419 -2.37564,-7.86649 -5.12606,-12.79078 -9.69159,-17.35164 -4.37282,-4.36831 -9.06961,-6.89912 -14.9415,-8.05096 -13.33437,-2.6157 -24.30287,5.78624 -27.14943,20.79674 -1.02408,5.39933 -0.698,17.51024 0.6468,24.02714 4.71316,22.84056 23.6985,35.90364 40.3017,27.7299 z m -289.78436,7.24545 c -0.22475,-0.89524 -0.14742,-2.36909 0.17058,-3.27526 0.49151,-1.398 1.21098,-1.77435 4.74668,-2.48372 4.95212,-0.99338 7.10561,-2.41571 8.14388,-5.37892 0.54447,-1.55381 0.77672,-9.998 0.80253,-29.16925 0.0397,-29.74145 0.17415,-28.71983 -4.01537,-30.91846 -1.12624,-0.59121 -4.03885,-1.81743 -6.47251,-2.7249 -8.67254,-3.23355 -7.44045,-5.09768 5.1025,-7.72072 4.92401,-1.02973 11.40839,-2.63436 14.40973,-3.56587 9.34352,-2.89982 8.34627,-3.39268 8.34627,4.12478 0,7.80105 0.527,8.3493 4.72174,4.91207 8.24901,-6.75958 20.06554,-11.91956 27.2958,-11.91956 10.06099,0 18.90957,5.7259 23.27944,15.06443 3.52622,7.53524 3.87457,10.61723 4.23008,37.4262 0.30349,22.87724 0.40954,24.6693 1.54544,26.11332 1.27541,1.62144 5.38457,3.24197 10.0452,3.96159 1.50868,0.2328 2.91063,0.69497 3.11571,1.02669 0.20546,0.33172 0.1866,1.84779 -0.0417,3.3689 l -0.41451,2.76534 -21.96165,-0.001 c -15.56669,-0.001 -22.09873,-0.21276 -22.43316,-0.72463 -0.76284,-1.16891 -0.55923,-4.68494 0.3112,-5.37162 0.44144,-0.3482 2.05882,-0.82482 3.59405,-1.05921 4.82172,-0.73644 7.10791,-2.03577 8.20609,-4.66417 1.52613,-3.65286 0.9619,-46.44464 -0.67946,-51.53035 -1.54349,-4.78199 -7.03826,-10.30692 -11.83548,-11.90026 -5.4056,-1.79547 -13.93526,-1.20623 -19.34815,1.33657 -5.45678,2.56337 -8.15682,4.91529 -9.0445,7.878 -1.08094,3.60767 -0.4863,52.41564 0.66717,54.76657 1.10218,2.24677 4.09485,3.63007 8.94985,4.13763 4.33401,0.45298 4.81683,1.01911 4.02734,4.72096 l -0.47923,2.24732 -22.28857,0.0935 -22.28845,0.0928 -0.40862,-1.62779 z m -289.1953,-0.28169 c -1.56411,-2.92274 -0.3407,-4.2696 4.86806,-5.35942 5.14306,-1.07618 6.962,-2.13771 8.5008,-4.96114 1.03464,-1.89837 1.13414,-4.53418 1.13685,-30.09942 0.002,-27.11886 -0.0375,-28.06463 -1.28093,-29.44169 -1.52919,-1.6944 -5.76663,-3.89232 -10.4786,-5.43513 -3.43609,-1.1251 -4.69348,-2.44123 -3.48576,-3.64893 0.35834,-0.35837 3.35805,-1.17838 6.66595,-1.82224 7.44326,-1.44881 15.82309,-3.57767 20.38849,-5.17962 1.90292,-0.66771 3.68936,-1.07209 3.97016,-0.89861 0.2807,0.17356 0.34428,2.8784 0.14153,6.01094 -0.33349,5.14763 -0.25212,5.75635 0.84499,6.32787 1.53651,0.80027 1.87626,0.64565 9.23915,-4.20452 6.54017,-4.30813 14.17773,-7.60468 19.70146,-8.5037 7.88814,-1.28382 16.24506,2.16415 21.77061,8.98207 1.7994,2.2205 3.70649,4.2805 4.23786,4.57775 0.67823,0.37966 2.57005,-0.52867 6.3581,-3.05272 7.38467,-4.92056 16.06108,-9.02749 21.43661,-10.14685 11.93951,-2.4862 23.09574,3.02361 28.2966,13.97501 3.70956,7.8113 4.13182,11.70707 4.13182,38.12655 0,22.46461 0.0521,23.51399 1.2931,25.25472 1.34235,1.88508 5.08357,3.46305 10.31144,4.34935 2.46416,0.41785 2.86752,0.71161 3.04253,2.21652 0.45918,3.95488 1.08757,3.84747 -22.09706,3.77934 l -21.11991,-0.0612 -0.19601,-2.54596 c -0.1937,-2.51119 -0.1599,-2.55523 2.56811,-3.24458 5.12551,-1.29583 7.11408,-2.25147 8.47283,-4.07282 1.32006,-1.76902 1.35312,-2.40407 1.35312,-26.00123 l 0,-24.18805 -1.81514,-3.92749 c -6.03334,-13.05553 -20.45725,-15.89457 -35.61614,-7.01028 -2.1076,1.23531 -3.94347,2.61267 -4.07952,3.0608 -0.13594,0.44812 -0.0972,13.44847 0.0863,28.88965 l 0.33451,28.07487 1.68978,1.6886 c 1.17445,1.17359 3.20555,2.04989 6.65757,2.87227 2.73207,0.65106 5.12783,1.34393 5.32388,1.5399 0.19644,0.1966 0.0882,1.39739 -0.23763,2.66966 l -0.5934,2.31344 -21.50747,0.066 -21.50759,0.0652 -0.19748,-2.34262 c -0.22733,-2.70644 0.51837,-3.30491 5.01206,-4.02356 4.58659,-0.73354 7.10224,-2.19875 8.1948,-4.77336 1.29635,-3.05561 1.96448,-37.51443 0.88272,-45.5435 -0.95706,-7.105 -3.31205,-12.2451 -7.21987,-15.75854 -7.18817,-6.46271 -19.18613,-5.99532 -30.41019,1.1847 -1.97525,1.26348 -3.86291,3.02922 -4.20758,3.9356 -0.98481,2.59066 -0.80456,54.1344 0.19641,56.11259 1.22705,2.42516 4.64799,4.38245 8.50108,4.8638 4.13386,0.51652 4.84857,1.19704 4.26301,4.05977 l -0.43999,2.15095 -21.40244,0.0902 c -19.46405,0.0811 -21.45486,-0.004 -21.98117,-0.99126 z"
     style="fill:#ffd39e;fill-opacity:1" />
  <path
     inkscape:connector-curvature="0"
     id="path4144"
     d="m 619.03516,305.77683 c -1.14767,-0.14244 -2.08663,-0.49737 -2.08663,-0.78886 0,-0.29144 -1.08344,-0.72752 -2.4076,-0.96944 -4.57117,-0.83415 -11.83271,-4.85201 -15.58926,-8.62505 -3.9872,-4.00506 -6.06764,-7.78966 -7.1693,-13.04236 -1.55515,-7.41437 1.77965,-12.48152 14.37461,-21.84164 4.27472,-3.17681 6.93945,-5.59419 6.93945,-6.29506 0,-0.70757 -1.31426,-1.87987 -3.47452,-3.09897 -1.91098,-1.07839 -4.51352,-3.03071 -5.78355,-4.33835 -2.55397,-2.6298 -4.1871,-6.86346 -3.22034,-8.34799 0.33079,-0.50755 3.77899,-2.90447 7.66333,-5.32626 5.69404,-3.55037 7.10115,-4.72457 7.26362,-6.06099 0.17915,-1.47441 -0.2648,-1.87807 -4.01089,-3.64795 -8.29208,-3.91789 -13.66423,-10.53469 -15.46932,-19.05341 -3.94228,-18.60433 4.84629,-32.40441 24.78106,-38.91175 11.43085,-3.73141 19.28813,-3.48882 32.37671,0.99962 7.12865,2.44463 8.23375,2.64574 14.79205,2.69208 6.53073,0.0461 7.35532,-0.0887 10.49206,-1.71548 1.87232,-0.97105 3.56246,-1.76554 3.75577,-1.76554 0.71245,0 -0.39668,6.98373 -1.42486,8.97227 -1.65498,3.20012 -5.77223,4.73857 -11.21803,4.19166 -5.0542,-0.50758 -5.4292,-0.14601 -4.41005,4.25199 0.88425,3.81516 0.81492,12.09549 -0.13494,16.16236 -3.27876,14.03642 -16.19824,23.83269 -34.53143,26.18395 -6.54715,0.8396 -9.63328,2.34123 -10.62875,5.1717 -1.27467,3.62465 1.36368,7.64889 5.78812,8.82823 1.3647,0.36371 8.2595,1.11364 15.3217,1.66641 21.17445,1.65737 27.83147,3.24386 33.12763,7.89388 8.38942,7.36615 8.62529,21.96357 0.55039,34.05582 -6.02956,9.02949 -18.28848,17.21345 -30.82612,20.579 -2.62791,0.70527 -4.48903,1.33629 -4.13583,1.40193 0.353,0.0654 -0.6581,0.35082 -2.24713,0.6332 -2.94037,0.52332 -14.6677,0.61529 -18.45797,0.14471 z m 28.40922,-10.56604 c 4.19055,-0.89941 9.02142,-3.1877 12.08258,-5.72371 6.61259,-5.47809 9.08182,-15.4577 5.54489,-22.40891 -3.93906,-7.74092 -12.50652,-10.8694 -31.22402,-11.4018 -10.4711,-0.29814 -11.1794,-0.24093 -14.01684,1.13267 -3.88152,1.87906 -10.30111,7.84568 -12.0286,11.17987 -1.98387,3.82902 -1.84289,9.9202 0.32823,14.20254 2.74657,5.41627 8.81049,10.11405 16.10615,12.47728 5.67332,1.83757 16.04295,2.07993 23.20761,0.54206 z m -6.84909,-78.32997 c 3.88372,-1.93047 6.81544,-5.89639 8.5286,-11.53678 1.79908,-5.92287 1.49149,-16.24613 -0.64999,-21.82111 -3.7586,-9.78408 -11.36802,-14.69148 -21.51705,-13.87679 -6.40299,0.51396 -10.89397,3.70932 -13.86406,9.86414 -1.81284,3.75653 -2.50731,13.92725 -1.33613,19.56296 3.1741,15.27283 16.8942,23.74485 28.83863,17.80758 z M 77.783855,256.32446 c -3.475147,-4.94214 -4.846119,-9.9137 -6.417915,-23.27313 -0.971891,-8.2607 -1.002442,-10.57496 -0.271204,-20.54462 0.570651,-7.78015 0.932245,-35.33719 1.17585,-89.60853 l 0.351789,-78.37316 11.320489,-1.79856 11.320492,-1.79865 1.843046,2.16671 c 9.381608,11.02868 19.729308,28.800239 26.120658,44.860792 8.41177,21.137518 11.74815,37.898418 11.75728,59.065608 0.007,32.70656 -9.31436,60.5507 -28.83885,86.0779 -8.025302,10.49249 -23.11187,24.99114 -26.004747,24.99114 -0.613462,0 -1.674063,-0.79437 -2.356888,-1.7655 z M 391.9215,252.88951 c -2.11871,-0.30229 -6.01885,-1.30934 -8.66725,-2.23776 -17.15259,-6.0135 -26.70995,-21.56156 -26.60504,-43.28119 0.0653,-13.51844 3.27634,-21.69132 11.90095,-30.29281 4.10146,-4.09048 6.08122,-5.48573 11.5906,-8.1683 23.30689,-11.34816 47.57736,-6.40211 59.56019,12.13773 5.13092,7.93848 7.6153,19.95945 6.39118,30.92426 -1.27681,11.43532 -5.07206,19.99475 -11.99497,27.05271 -4.91021,5.0058 -9.57618,8.01368 -16.43409,10.59425 -9.73319,3.6626 -16.75011,4.55417 -25.74157,3.27111 z m 23.07045,-9.14309 c 8.44324,-3.86533 12.61429,-12.06678 13.60255,-26.74561 0.89778,-13.33623 -2.40258,-26.23323 -9.02052,-35.24851 -5.61864,-7.65415 -16.09845,-12.44367 -24.93717,-11.39687 -4.7174,0.55873 -10.88408,3.76283 -13.53549,7.03278 -5.11534,6.309 -6.96542,12.9431 -6.92923,24.84622 0.0468,15.33409 4.36862,27.58574 12.52792,35.51593 7.73118,7.51389 19.51945,10.01216 28.29194,5.99606 z m 319.14773,9.17835 c -14.85685,-2.33221 -26.10445,-10.98872 -31.47628,-24.22575 -2.59457,-6.39313 -3.6934,-12.56162 -3.74229,-21.00744 -0.0761,-13.26395 3.5047,-22.3947 12.13617,-30.94228 3.76486,-3.7281 5.9442,-5.24241 11.29422,-7.84729 28.49976,-13.87658 57.48486,-3.07962 64.83538,24.15126 1.8788,6.96016 1.88458,19.60546 0.006,26.60775 -4.34178,16.23613 -15.55353,27.13708 -32.9018,31.99008 -5.55837,1.55475 -14.68963,2.13182 -20.15743,1.27367 z m 23.86924,-9.62107 c 4.40436,-2.16824 7.15743,-5.06673 9.43313,-9.93148 2.68804,-5.7461 3.27412,-9.56091 3.2052,-20.86551 -0.0576,-9.56523 -0.23336,-11.15239 -1.80431,-16.35419 -2.37564,-7.86649 -5.12606,-12.79078 -9.69159,-17.35164 -4.37282,-4.36831 -9.06961,-6.89912 -14.9415,-8.05096 -13.33437,-2.6157 -24.30287,5.78624 -27.14943,20.79674 -1.02408,5.39933 -0.698,17.51024 0.6468,24.02714 4.71316,22.84056 23.6985,35.90364 40.3017,27.7299 z m -289.78436,7.24545 c -0.22475,-0.89524 -0.14742,-2.36909 0.17058,-3.27526 0.49151,-1.398 1.21098,-1.77435 4.74668,-2.48372 4.95212,-0.99338 7.10561,-2.41571 8.14388,-5.37892 0.54447,-1.55381 0.77672,-9.998 0.80253,-29.16925 0.0397,-29.74145 0.17415,-28.71983 -4.01537,-30.91846 -1.12624,-0.59121 -4.03885,-1.81743 -6.47251,-2.7249 -8.67254,-3.23355 -7.44045,-5.09768 5.1025,-7.72072 4.92401,-1.02973 11.40839,-2.63436 14.40973,-3.56587 9.34352,-2.89982 8.34627,-3.39268 8.34627,4.12478 0,7.80105 0.527,8.3493 4.72174,4.91207 8.24901,-6.75958 20.06554,-11.91956 27.2958,-11.91956 10.06099,0 18.90957,5.7259 23.27944,15.06443 3.52622,7.53524 3.87457,10.61723 4.23008,37.4262 0.30349,22.87724 0.40954,24.6693 1.54544,26.11332 1.27541,1.62144 5.38457,3.24197 10.0452,3.96159 1.50868,0.2328 2.91063,0.69497 3.11571,1.02669 0.20546,0.33172 0.1866,1.84779 -0.0417,3.3689 l -0.41451,2.76534 -21.96165,-0.001 c -15.56669,-0.001 -22.09873,-0.21276 -22.43316,-0.72463 -0.76284,-1.16891 -0.55923,-4.68494 0.3112,-5.37162 0.44144,-0.3482 2.05882,-0.82482 3.59405,-1.05921 4.82172,-0.73644 7.10791,-2.03577 8.20609,-4.66417 1.52613,-3.65286 0.9619,-46.44464 -0.67946,-51.53035 -1.54349,-4.78199 -7.03826,-10.30692 -11.83548,-11.90026 -5.4056,-1.79547 -13.93526,-1.20623 -19.34815,1.33657 -5.45678,2.56337 -8.15682,4.91529 -9.0445,7.878 -1.08094,3.60767 -0.4863,52.41564 0.66717,54.76657 1.10218,2.24677 4.09485,3.63007 8.94985,4.13763 4.33401,0.45298 4.81683,1.01911 4.02734,4.72096 l -0.47923,2.24732 -22.28857,0.0935 -22.28845,0.0928 -0.40862,-1.62779 z m -289.1953,-0.28169 c -1.56411,-2.92274 -0.3407,-4.2696 4.86806,-5.35942 5.14306,-1.07618 6.962,-2.13771 8.5008,-4.96114 1.03464,-1.89837 1.13414,-4.53418 1.13685,-30.09942 0.002,-27.11886 -0.0375,-28.06463 -1.28093,-29.44169 -1.52919,-1.6944 -5.76663,-3.89232 -10.4786,-5.43513 -3.43609,-1.1251 -4.69348,-2.44123 -3.48576,-3.64893 0.35834,-0.35837 3.35805,-1.17838 6.66595,-1.82224 7.44326,-1.44881 15.82309,-3.57767 20.38849,-5.17962 1.90292,-0.66771 3.68936,-1.07209 3.97016,-0.89861 0.2807,0.17356 0.34428,2.8784 0.14153,6.01094 -0.33349,5.14763 -0.25212,5.75635 0.84499,6.32787 1.53651,0.80027 1.87626,0.64565 9.23915,-4.20452 6.54017,-4.30813 14.17773,-7.60468 19.70146,-8.5037 7.88814,-1.28382 16.24506,2.16415 21.77061,8.98207 1.7994,2.2205 3.70649,4.2805 4.23786,4.57775 0.67823,0.37966 2.57005,-0.52867 6.3581,-3.05272 7.38467,-4.92056 16.06108,-9.02749 21.43661,-10.14685 11.93951,-2.4862 23.09574,3.02361 28.2966,13.97501 3.70956,7.8113 4.13182,11.70707 4.13182,38.12655 0,22.46461 0.0521,23.51399 1.2931,25.25472 1.34235,1.88508 5.08357,3.46305 10.31144,4.34935 2.46416,0.41785 2.86752,0.71161 3.04253,2.21652 0.45918,3.95488 1.08757,3.84747 -22.09706,3.77934 l -21.11991,-0.0612 -0.19601,-2.54596 c -0.1937,-2.51119 -0.1599,-2.55523 2.56811,-3.24458 5.12551,-1.29583 7.11408,-2.25147 8.47283,-4.07282 1.32006,-1.76902 1.35312,-2.40407 1.35312,-26.00123 l 0,-24.18805 -1.81514,-3.92749 c -6.03334,-13.05553 -20.45725,-15.89457 -35.61614,-7.01028 -2.1076,1.23531 -3.94347,2.61267 -4.07952,3.0608 -0.13594,0.44812 -0.0972,13.44847 0.0863,28.88965 l 0.33451,28.07487 1.68978,1.6886 c 1.17445,1.17359 3.20555,2.04989 6.65757,2.87227 2.73207,0.65106 5.12783,1.34393 5.32388,1.5399 0.19644,0.1966 0.0882,1.39739 -0.23763,2.66966 l -0.5934,2.31344 -21.50747,0.066 -21.50759,0.0652 -0.19748,-2.34262 c -0.22733,-2.70644 0.51837,-3.30491 5.01206,-4.02356 4.58659,-0.73354 7.10224,-2.19875 8.1948,-4.77336 1.29635,-3.05561 1.96448,-37.51443 0.88272,-45.5435 -0.95706,-7.105 -3.31205,-12.2451 -7.21987,-15.75854 -7.18817,-6.46271 -19.18613,-5.99532 -30.41019,1.1847 -1.97525,1.26348 -3.86291,3.02922 -4.20758,3.9356 -0.98481,2.59066 -0.80456,54.1344 0.19641,56.11259 1.22705,2.42516 4.64799,4.38245 8.50108,4.8638 4.13386,0.51652 4.84857,1.19704 4.26301,4.05977 l -0.43999,2.15095 -21.40244,0.0902 c -19.46405,0.0811 -21.45486,-0.004 -21.98117,-0.99126 z M 28.033134,221.33447 C 15.333533,203.25344 6.4261049,178.98115 4.53131,157.2932 l -0.5328621,-6.09916 -0.189309,4.49411 -0.1893104,4.49413 -0.4612552,-4.49413 c -0.6569427,-6.40073 -0.6617471,-11.2378 -0.00964,-9.63025 0.4644842,1.14489 0.5465516,1.0872 0.7573956,-0.53243 0.1595621,-1.22578 4.6553873,11.45745 13.8252271,39.00256 7.473807,22.45046 13.483245,40.81899 13.354309,40.81899 -0.128871,0 -1.502721,-1.80569 -3.052812,-4.01255 z"
     style="fill:#ffd39e;fill-opacity:1" />
  <path
     inkscape:connector-curvature="0"
     id="path4142"
     d="m 619.03516,305.77683 c -1.14767,-0.14244 -2.08663,-0.49737 -2.08663,-0.78886 0,-0.29144 -1.08344,-0.72752 -2.4076,-0.96944 -4.57117,-0.83415 -11.83271,-4.85201 -15.58926,-8.62505 -3.9872,-4.00506 -6.06764,-7.78966 -7.1693,-13.04236 -1.55515,-7.41437 1.77965,-12.48152 14.37461,-21.84164 4.27472,-3.17681 6.93945,-5.59419 6.93945,-6.29506 0,-0.70757 -1.31426,-1.87987 -3.47452,-3.09897 -1.91098,-1.07839 -4.51352,-3.03071 -5.78355,-4.33835 -2.55397,-2.6298 -4.1871,-6.86346 -3.22034,-8.34799 0.33079,-0.50755 3.77899,-2.90447 7.66333,-5.32626 5.69404,-3.55037 7.10115,-4.72457 7.26362,-6.06099 0.17915,-1.47441 -0.2648,-1.87807 -4.01089,-3.64795 -8.29208,-3.91789 -13.66423,-10.53469 -15.46932,-19.05341 -3.94228,-18.60433 4.84629,-32.40441 24.78106,-38.91175 11.43085,-3.73141 19.28813,-3.48882 32.37671,0.99962 7.12865,2.44463 8.23375,2.64574 14.79205,2.69208 6.53073,0.0461 7.35532,-0.0887 10.49206,-1.71548 1.87232,-0.97105 3.56246,-1.76554 3.75577,-1.76554 0.71245,0 -0.39668,6.98373 -1.42486,8.97227 -1.65498,3.20012 -5.77223,4.73857 -11.21803,4.19166 -5.0542,-0.50758 -5.4292,-0.14601 -4.41005,4.25199 0.88425,3.81516 0.81492,12.09549 -0.13494,16.16236 -3.27876,14.03642 -16.19824,23.83269 -34.53143,26.18395 -6.54715,0.8396 -9.63328,2.34123 -10.62875,5.1717 -1.27467,3.62465 1.36368,7.64889 5.78812,8.82823 1.3647,0.36371 8.2595,1.11364 15.3217,1.66641 21.17445,1.65737 27.83147,3.24386 33.12763,7.89388 8.38942,7.36615 8.62529,21.96357 0.55039,34.05582 -6.02956,9.02949 -18.28848,17.21345 -30.82612,20.579 -2.62791,0.70527 -4.48903,1.33629 -4.13583,1.40193 0.353,0.0654 -0.6581,0.35082 -2.24713,0.6332 -2.94037,0.52332 -14.6677,0.61529 -18.45797,0.14471 z m 28.40922,-10.56604 c 4.19055,-0.89941 9.02142,-3.1877 12.08258,-5.72371 6.61259,-5.47809 9.08182,-15.4577 5.54489,-22.40891 -3.93906,-7.74092 -12.50652,-10.8694 -31.22402,-11.4018 -10.4711,-0.29814 -11.1794,-0.24093 -14.01684,1.13267 -3.88152,1.87906 -10.30111,7.84568 -12.0286,11.17987 -1.98387,3.82902 -1.84289,9.9202 0.32823,14.20254 2.74657,5.41627 8.81049,10.11405 16.10615,12.47728 5.67332,1.83757 16.04295,2.07993 23.20761,0.54206 z m -6.84909,-78.32997 c 3.88372,-1.93047 6.81544,-5.89639 8.5286,-11.53678 1.79908,-5.92287 1.49149,-16.24613 -0.64999,-21.82111 -3.7586,-9.78408 -11.36802,-14.69148 -21.51705,-13.87679 -6.40299,0.51396 -10.89397,3.70932 -13.86406,9.86414 -1.81284,3.75653 -2.50731,13.92725 -1.33613,19.56296 3.1741,15.27283 16.8942,23.74485 28.83863,17.80758 z M 391.9215,252.88951 c -2.11871,-0.30229 -6.01885,-1.30934 -8.66725,-2.23776 -17.15259,-6.0135 -26.70995,-21.56156 -26.60504,-43.28119 0.0653,-13.51844 3.27634,-21.69132 11.90095,-30.29281 4.10146,-4.09048 6.08122,-5.48573 11.5906,-8.1683 23.30689,-11.34816 47.57736,-6.40211 59.56019,12.13773 5.13092,7.93848 7.6153,19.95945 6.39118,30.92426 -1.27681,11.43532 -5.07206,19.99475 -11.99497,27.05271 -4.91021,5.0058 -9.57618,8.01368 -16.43409,10.59425 -9.73319,3.6626 -16.75011,4.55417 -25.74157,3.27111 z m 23.07045,-9.14309 c 8.44324,-3.86533 12.61429,-12.06678 13.60255,-26.74561 0.89778,-13.33623 -2.40258,-26.23323 -9.02052,-35.24851 -5.61864,-7.65415 -16.09845,-12.44367 -24.93717,-11.39687 -4.7174,0.55873 -10.88408,3.76283 -13.53549,7.03278 -5.11534,6.309 -6.96542,12.9431 -6.92923,24.84622 0.0468,15.33409 4.36862,27.58574 12.52792,35.51593 7.73118,7.51389 19.51945,10.01216 28.29194,5.99606 z m 319.14773,9.17835 c -14.85685,-2.33221 -26.10445,-10.98872 -31.47628,-24.22575 -2.59457,-6.39313 -3.6934,-12.56162 -3.74229,-21.00744 -0.0761,-13.26395 3.5047,-22.3947 12.13617,-30.94228 3.76486,-3.7281 5.9442,-5.24241 11.29422,-7.84729 28.49976,-13.87658 57.48486,-3.07962 64.83538,24.15126 1.8788,6.96016 1.88458,19.60546 0.006,26.60775 -4.34178,16.23613 -15.55353,27.13708 -32.9018,31.99008 -5.55837,1.55475 -14.68963,2.13182 -20.15743,1.27367 z m 23.86924,-9.62107 c 4.40436,-2.16824 7.15743,-5.06673 9.43313,-9.93148 2.68804,-5.7461 3.27412,-9.56091 3.2052,-20.86551 -0.0576,-9.56523 -0.23336,-11.15239 -1.80431,-16.35419 -2.37564,-7.86649 -5.12606,-12.79078 -9.69159,-17.35164 -4.37282,-4.36831 -9.06961,-6.89912 -14.9415,-8.05096 -13.33437,-2.6157 -24.30287,5.78624 -27.14943,20.79674 -1.02408,5.39933 -0.698,17.51024 0.6468,24.02714 4.71316,22.84056 23.6985,35.90364 40.3017,27.7299 z m -289.78436,7.24545 c -0.22475,-0.89524 -0.14742,-2.36909 0.17058,-3.27526 0.49151,-1.398 1.21098,-1.77435 4.74668,-2.48372 4.95212,-0.99338 7.10561,-2.41571 8.14388,-5.37892 0.54447,-1.55381 0.77672,-9.998 0.80253,-29.16925 0.0397,-29.74145 0.17415,-28.71983 -4.01537,-30.91846 -1.12624,-0.59121 -4.03885,-1.81743 -6.47251,-2.7249 -8.67254,-3.23355 -7.44045,-5.09768 5.1025,-7.72072 4.92401,-1.02973 11.40839,-2.63436 14.40973,-3.56587 9.34352,-2.89982 8.34627,-3.39268 8.34627,4.12478 0,7.80105 0.527,8.3493 4.72174,4.91207 8.24901,-6.75958 20.06554,-11.91956 27.2958,-11.91956 10.06099,0 18.90957,5.7259 23.27944,15.06443 3.52622,7.53524 3.87457,10.61723 4.23008,37.4262 0.30349,22.87724 0.40954,24.6693 1.54544,26.11332 1.27541,1.62144 5.38457,3.24197 10.0452,3.96159 1.50868,0.2328 2.91063,0.69497 3.11571,1.02669 0.20546,0.33172 0.1866,1.84779 -0.0417,3.3689 l -0.41451,2.76534 -21.96165,-0.001 c -15.56669,-0.001 -22.09873,-0.21276 -22.43316,-0.72463 -0.76284,-1.16891 -0.55923,-4.68494 0.3112,-5.37162 0.44144,-0.3482 2.05882,-0.82482 3.59405,-1.05921 4.82172,-0.73644 7.10791,-2.03577 8.20609,-4.66417 1.52613,-3.65286 0.9619,-46.44464 -0.67946,-51.53035 -1.54349,-4.78199 -7.03826,-10.30692 -11.83548,-11.90026 -5.4056,-1.79547 -13.93526,-1.20623 -19.34815,1.33657 -5.45678,2.56337 -8.15682,4.91529 -9.0445,7.878 -1.08094,3.60767 -0.4863,52.41564 0.66717,54.76657 1.10218,2.24677 4.09485,3.63007 8.94985,4.13763 4.33401,0.45298 4.81683,1.01911 4.02734,4.72096 l -0.47923,2.24732 -22.28857,0.0935 -22.28845,0.0928 -0.40862,-1.62779 z m -289.1953,-0.28169 c -1.56411,-2.92274 -0.3407,-4.2696 4.86806,-5.35942 5.14306,-1.07618 6.962,-2.13771 8.5008,-4.96114 1.03464,-1.89837 1.13414,-4.53418 1.13685,-30.09942 0.002,-27.11886 -0.0375,-28.06463 -1.28093,-29.44169 -1.52919,-1.6944 -5.76663,-3.89232 -10.4786,-5.43513 -3.43609,-1.1251 -4.69348,-2.44123 -3.48576,-3.64893 0.35834,-0.35837 3.35805,-1.17838 6.66595,-1.82224 7.44326,-1.44881 15.82309,-3.57767 20.38849,-5.17962 1.90292,-0.66771 3.68936,-1.07209 3.97016,-0.89861 0.2807,0.17356 0.34428,2.8784 0.14153,6.01094 -0.33349,5.14763 -0.25212,5.75635 0.84499,6.32787 1.53651,0.80027 1.87626,0.64565 9.23915,-4.20452 6.54017,-4.30813 14.17773,-7.60468 19.70146,-8.5037 7.88814,-1.28382 16.24506,2.16415 21.77061,8.98207 1.7994,2.2205 3.70649,4.2805 4.23786,4.57775 0.67823,0.37966 2.57005,-0.52867 6.3581,-3.05272 7.38467,-4.92056 16.06108,-9.02749 21.43661,-10.14685 11.93951,-2.4862 23.09574,3.02361 28.2966,13.97501 3.70956,7.8113 4.13182,11.70707 4.13182,38.12655 0,22.46461 0.0521,23.51399 1.2931,25.25472 1.34235,1.88508 5.08357,3.46305 10.31144,4.34935 2.46416,0.41785 2.86752,0.71161 3.04253,2.21652 0.45918,3.95488 1.08757,3.84747 -22.09706,3.77934 l -21.11991,-0.0612 -0.19601,-2.54596 c -0.1937,-2.51119 -0.1599,-2.55523 2.56811,-3.24458 5.12551,-1.29583 7.11408,-2.25147 8.47283,-4.07282 1.32006,-1.76902 1.35312,-2.40407 1.35312,-26.00123 l 0,-24.18805 -1.81514,-3.92749 c -6.03334,-13.05553 -20.45725,-15.89457 -35.61614,-7.01028 -2.1076,1.23531 -3.94347,2.61267 -4.07952,3.0608 -0.13594,0.44812 -0.0972,13.44847 0.0863,28.88965 l 0.33451,28.07487 1.68978,1.6886 c 1.17445,1.17359 3.20555,2.04989 6.65757,2.87227 2.73207,0.65106 5.12783,1.34393 5.32388,1.5399 0.19644,0.1966 0.0882,1.39739 -0.23763,2.66966 l -0.5934,2.31344 -21.50747,0.066 -21.50759,0.0652 -0.19748,-2.34262 c -0.22733,-2.70644 0.51837,-3.30491 5.01206,-4.02356 4.58659,-0.73354 7.10224,-2.19875 8.1948,-4.77336 1.29635,-3.05561 1.96448,-37.51443 0.88272,-45.5435 -0.95706,-7.105 -3.31205,-12.2451 -7.21987,-15.75854 -7.18817,-6.46271 -19.18613,-5.99532 -30.41019,1.1847 -1.97525,1.26348 -3.86291,3.02922 -4.20758,3.9356 -0.98481,2.59066 -0.80456,54.1344 0.19641,56.11259 1.22705,2.42516 4.64799,4.38245 8.50108,4.8638 4.13386,0.51652 4.84857,1.19704 4.26301,4.05977 l -0.43999,2.15095 -21.40244,0.0902 c -19.46405,0.0811 -21.45486,-0.004 -21.98117,-0.99126 z"
     style="fill:#423b38;fill-opacity:1" />
</svg>
