<?xml version="1.0" encoding="UTF-8" standalone="no"?>
<!-- Created with Inkscape (http://www.inkscape.org/) -->

<svg
   xmlns:dc="http://purl.org/dc/elements/1.1/"
   xmlns:cc="http://creativecommons.org/ns#"
   xmlns:rdf="http://www.w3.org/1999/02/22-rdf-syntax-ns#"
   xmlns:svg="http://www.w3.org/2000/svg"
   xmlns="http://www.w3.org/2000/svg"
   xmlns:sodipodi="http://sodipodi.sourceforge.net/DTD/sodipodi-0.dtd"
   xmlns:inkscape="http://www.inkscape.org/namespaces/inkscape"
   id="svg2"
   version="1.1"
   inkscape:version="0.91 r13725"
   width="1200"
   height="734"
   viewBox="0 0 1200 734"
   sodipodi:docname="Nodejs.svg">
  <metadata
     id="metadata8">
    <rdf:RDF>
      <cc:Work
         rdf:about="">
        <dc:format>image/svg+xml</dc:format>
        <dc:type
           rdf:resource="http://purl.org/dc/dcmitype/StillImage" />
        <dc:title></dc:title>
      </cc:Work>
    </rdf:RDF>
  </metadata>
  <defs
     id="defs6" />
  <sodipodi:namedview
     pagecolor="#ffffff"
     bordercolor="#666666"
     borderopacity="1"
     objecttolerance="10"
     gridtolerance="10"
     guidetolerance="10"
     inkscape:pageopacity="0"
     inkscape:pageshadow="2"
     inkscape:window-width="1547"
     inkscape:window-height="876"
     id="namedview4"
     showgrid="false"
     inkscape:zoom="0.37005255"
     inkscape:cx="407.81903"
     inkscape:cy="595.05429"
     inkscape:window-x="53"
     inkscape:window-y="24"
     inkscape:window-maximized="1"
     inkscape:current-layer="svg2" />
  <path
     inkscape:connector-curvature="0"
     id="path4154"
     d="m -1.4014013e-5,367 0,-366.99999964999994 599.999994014013,0 600.00002,0 L 1200,367 l 0,367 -600.00002,0 -599.999994014013,0 0,-367 z"
     style="fill:#fefefe" />
  <path
     inkscape:connector-curvature="0"
     id="path4152"
     d="m 583.32758,732.54175 c -4.0402,-1.75743 -37.271,-21.33009 -39.5102,-23.2711 -2.3557,-2.04215 -1.2689,-3.97044 3.021,-5.3597 2.0139,-0.65219 6.2738,-2.49287 9.4664,-4.09042 l 5.8048,-2.90463 5.6952,3.23705 c 3.1324,1.78037 9.6485,5.62429 14.4804,8.54205 4.8318,2.91775 9.5823,5.305 10.5567,5.305 1.9827,0 109.239,-61.55381 110.3928,-63.35382 0.4041,-0.6304 0.7416,-29.53894 0.75,-64.24119 0.014,-58.84978 -0.1025,-63.19838 -1.7347,-64.63133 -4.2197,-3.70441 -108.4662,-62.95027 -110.0386,-62.53767 -2.211,0.58014 -106.1501,60.51151 -108.4614,62.53892 -1.6323,1.43184 -1.75,5.82317 -1.75,65.30482 l 0,63.76975 13.75,7.94832 c 19.9647,11.54075 22.0368,12.47573 27.8345,12.55953 5.9012,0.0853 9.528,-1.85381 12.4595,-6.66166 1.8774,-3.07902 1.9487,-5.52003 1.9523,-66.87424 0,-56.55303 0.1795,-63.85441 1.5751,-65.25 1.9779,-1.97789 15.1754,-2.2083 17.7711,-0.31026 1.6086,1.17624 1.7056,5.83934 1.4411,69.25 l -0.2836,67.98883 -2.2978,5 c -3.1961,6.95448 -9.5202,13.10113 -15.9573,15.50956 -8.0393,3.00789 -21.1267,2.77055 -29.9293,-0.54275 -9.6036,-3.61479 -38.1295,-20.16074 -42.5275,-24.66728 -6.8405,-7.00948 -6.7881,-6.40547 -6.7881,-78.29953 0,-71.9869 -0.073,-71.15174 6.8321,-78.13377 2.4747,-2.50227 23.7287,-15.33183 60.2458,-36.36623 l 56.4221,-32.5 8.5,0 8.5,0 56,32.36162 c 30.8,17.79889 57.5175,33.77389 59.3721,35.5 7.4197,6.90544 7.0825,3.12102 7.0966,79.63838 l 0.013,68.5 -2.9591,5.15927 c -2.3316,4.06542 -4.5028,6.10957 -10.2406,9.64142 -13.9491,8.58632 -104.5418,60.57227 -108.2703,62.13015 -4.6023,1.92297 -14.8813,1.98239 -19.1837,0.11091 z m 27.733,-84.55853 c -8.5087,-1.19381 -19.5574,-4.60445 -24.7241,-7.63211 -5.5722,-3.26524 -12.0479,-10.44448 -14.5759,-16.15933 -1.1336,-2.56276 -2.2773,-7.68098 -2.5415,-11.37382 -0.4598,-6.42662 -0.3779,-6.73999 1.912,-7.31473 1.3159,-0.33026 5.7437,-0.46609 9.8396,-0.30185 l 7.4471,0.29862 2.2333,6.5 c 4.0328,11.73758 11.1124,15.62839 30.3489,16.67912 17.495,0.95561 29.9643,-2.00444 34.9055,-8.28608 2.2973,-2.92054 2.8646,-10.08555 1.0649,-13.44843 -2.3386,-4.36966 -11.6167,-6.95356 -35.7392,-9.95321 -25.1004,-3.12123 -34.3672,-6.2221 -41.5533,-13.90465 -5.5055,-5.88583 -7.1593,-10.56738 -7.0959,-20.08675 0.064,-9.69187 2.8506,-16.26016 9.5583,-22.53449 8.5224,-7.97171 18.4464,-11.28233 36.3597,-12.12954 30.8828,-1.46061 50.0819,8.04773 55.9157,27.69212 2.0733,6.98164 2.0744,12.56987 0,13.36492 -3.0334,1.16402 -17.1325,0.66278 -18.0872,-0.64301 -0.5026,-0.6875 -1.5188,-3.05 -2.2582,-5.25 -2.1359,-6.35526 -4.984,-9.56546 -10.9823,-12.37833 -5.2277,-2.45132 -6.5332,-2.62167 -20.091,-2.62167 -13.8166,0 -14.7656,0.13045 -20.136,2.7678 -6.3177,3.10252 -8.1995,6.10443 -7.682,12.25422 0.5822,6.91837 5.1813,8.71009 33.2755,12.96331 27.7709,4.20428 36.2343,6.79315 43.7335,13.37753 5.8192,5.10927 8.1479,11.14126 8.1963,21.23071 0.037,7.71124 -0.2909,9.26823 -3.1936,15.16445 -1.7791,3.61398 -4.82,7.96273 -6.7575,9.66388 -4.8026,4.2167 -14.1294,8.78442 -21.6759,10.61556 -7.6581,1.8582 -28.9425,2.67445 -37.6997,1.44576 z m 144.0549,-110.48434 c -4.5997,-1.43442 -10.3855,-6.26206 -12.5826,-10.49888 -6.8452,-13.20014 2.3721,-29.13959 17.7351,-30.66911 10.8599,-1.0812 21.3965,8.1224 22.5049,19.65773 0.9061,9.42988 -6.1631,19.25533 -15.8533,22.03445 -4.3576,1.24972 -6.4078,1.15867 -11.8041,-0.52419 z m 13.815,-4.96296 c 9.0153,-4.66196 12.1567,-16.36837 6.6485,-24.775 -4.9193,-7.50787 -17.3677,-9.48196 -24.2505,-3.8457 -12.2235,10.0097 -5.6381,30.08478 9.869,30.08478 2.696,0 6.1759,-0.65884 7.733,-1.46408 z m -14.1911,-3.66187 c -1.4761,-0.82608 -1.7394,-2.52503 -1.7394,-11.22374 0,-6.63913 0.4228,-10.67307 1.2,-11.45031 1.578,-1.57796 9.6293,-1.51249 12.8,0.10408 2.5503,1.30022 2.6001,1.59689 1.9638,11.69592 -0.052,0.825 0.3237,3.4082 0.8348,5.74044 0.7128,3.25242 0.6116,4.5042 -0.4346,5.37245 -1.8181,1.50884 -4.364,-0.55883 -4.364,-3.54421 0,-3.14643 -2.379,-6.02095 -4.3554,-5.26254 -1.0811,0.41485 -1.6446,1.79913 -1.6446,4.04003 0,4.0677 -1.7533,5.93101 -4.2606,4.52788 z m 9.7048,-14.78381 c 1.0769,-1.74242 -0.6745,-4.09024 -3.0512,-4.09024 -1.8859,0 -2.393,0.52981 -2.393,2.5 0,1.98388 0.5039,2.5 2.441,2.5 1.3425,0 2.694,-0.40939 3.0032,-0.90976 z m -12.297,-52.11411 c -3.7916,-1.59176 -115.3177,-66.02715 -119.0033,-68.75543 -6.3315,-4.68685 -6.1439,-2.31396 -6.1439,-77.7207 0,-73.64991 -0.077,-72.48981 5.1211,-77.11807 2.1858,-1.94611 108.2739,-63.48181 117.9801,-68.43353 6.4941,-3.31305 9.8808,-2.34289 27.7985,7.96305 8.6907,4.9987 16.5277,9.08855 17.4156,9.08855 0.8879,0 2.0802,-0.87042 2.6495,-1.93426 0.6915,-1.292 1.0352,-31.65022 1.0352,-91.428569 0,-98.0211806 -0.3861,-91.7492106 5.7425,-93.28740065 4.0064,-1.00553 8.1952,0.99255005 43.7575,20.87282965 36.0866,20.173341 36.8874,20.807516 37.9834,30.077864 0.3381,2.859745 0.4801,79.224536 0.3156,169.699536 -0.2952,162.40633 -0.3244,164.54206 -2.2971,167.80493 -2.5216,4.17106 -0.5226,2.93902 -66.6157,41.05518 -56.496,32.58152 -60.2554,34.41811 -65.739,32.11602 z M 777.64768,351.75 c 13.4553,-7.74147 19.834,-11.97201 20.4529,-13.5651 1.1861,-3.05307 1.1644,-42.35779 -0.025,-45.48655 -0.6649,-1.74866 -6.3531,-5.55953 -20.2478,-13.5651 -10.6277,-6.12329 -20.2242,-11.13102 -21.3254,-11.12829 -1.1012,0.003 -10.7772,5.06924 -21.5022,11.25891 l -19.5,11.25396 -0.2673,24.64972 -0.2673,24.64971 19.7673,11.51105 c 10.872,6.33108 20.576,11.5472 21.5644,11.59137 0.9884,0.0442 10.5961,-4.98218 21.3505,-11.16968 z m -339.6477,107.57145 c -1.7885,-0.74666 -110.8066,-63.57554 -116.326,-67.04056 -2.3594,-1.48124 -4.555,-4.00778 -5.728,-6.5914 -1.8093,-3.9851 -1.9031,-7.52395 -1.924,-72.53836 -0.025,-77.82699 -0.5458,-72.95457 8.4001,-78.60147 2.7928,-1.76295 30.0228,-17.54437 60.511,-35.06982 50.8049,-29.20406 55.8182,-31.86446 60.0464,-31.86446 4.2377,0 9.3718,2.7455 63.0669,33.72545 35.018,20.20404 59.7224,35.07213 61.6182,37.08439 2.4951,2.64845 3.3187,4.59273 3.8933,9.19178 0.4008,3.20805 0.3981,35.31911 -0.01,71.35791 -0.6545,58.36494 -0.916,65.83609 -2.3933,68.37114 -1.8919,3.24635 -4.3306,4.71891 -73.135,44.16135 -48.7346,27.93732 -52.9212,29.94416 -58.0236,27.81405 z M 1067,459.09385 c -3.7338,-1.18984 -117.12392,-65.94589 -119.84502,-68.44239 -5.329,-4.88915 -5.155,-2.28486 -5.155,-77.15146 0,-74.87097 -0.1692,-72.34012 5.155,-77.09367 3.8025,-3.39496 117.77322,-68.66503 121.75422,-69.72761 2.94,-0.78473 4.505,-0.58908 8.1361,1.0171 5.2489,2.32184 116.6868,66.84172 119.0512,68.92779 3.0226,2.66681 3.9035,8.78674 3.9035,27.12029 0,19.29929 -0.6788,22.82996 -5.1627,26.85339 -2.0597,1.84819 -61.2217,36.53723 -69.5376,40.77271 -4.5286,2.3065 -7.5772,2.02773 -10.3754,-0.94873 -2.3532,-2.50308 -2.439,-3.14956 -2.9243,-22.03885 -0.4062,-15.8108 -0.7813,-19.64162 -2,-20.42798 C 1101.9641,282.76934 1071.8151,266 1070.529,266 c -1.9409,0 -39.638,21.57477 -40.7487,23.32132 -0.4123,0.64827 -0.7566,11.60904 -0.765,24.35725 -0.013,18.9099 0.2512,23.44512 1.432,24.6259 0.7961,0.79603 27.2336,16.22669 58.75,34.29036 31.5165,18.06367 58.3152,33.84906 59.5527,35.07865 1.2375,1.22959 2.25,3.35597 2.25,4.7253 0,1.36933 -1.0125,3.61409 -2.25,4.98836 -3.0297,3.36459 -71.7154,41.35963 -75.9225,41.99826 -1.8301,0.27782 -4.4525,0.14662 -5.8275,-0.29155 z M 3.399686,430.23469 C 0.08368598,428.02052 -1.4014013e-5,425.64394 -1.4014013e-5,333.68787 c 0,-95.81456 0.009999994,-96.03092 4.192200014013,-99.40054 1.5464,-1.24564 111.609294,-64.63415 117.017994,-67.39409 8.3373,-4.25441 6.6063,-5.03419 71.2255,32.08657 32.5333,18.68889 60.4818,35.36834 62.1079,37.06543 l 2.9564,3.08564 0.2652,93.46485 0.2651,93.46486 -2.4697,2.46971 c -1.497,1.49699 -3.5707,2.44793 -5.2652,2.41444 -1.7414,-0.0344 -16.36,-7.85765 -38.7737,-20.75 -28.0967,-16.1612 -36.476,-21.4391 -38.25,-24.09262 l -2.2717,-3.39789 0,-44.38423 c 0,-47.5824 -0.089,-48.49634 -5.1211,-52.90296 -1.3084,-1.14563 -9.1906,-5.98313 -17.516,-10.75 -20.1116,-11.51529 -18.7301,-11.54728 -40.6555,0.94148 -12.238494,6.97108 -17.394594,10.47083 -18.784394,12.75 -1.8111,2.97021 -1.9157,5.55575 -1.9193,47.4236 0,47.66459 -0.062,48.24426 -5.2764,53.0497 -4.384,4.03998 -71.9255,42.16928 -74.6687,42.15287 -1.4072,-0.008 -3.0537,-0.34592 -3.6589,-0.75 z M 1059,334.88914 c -5.775,-3.33669 -11.0625,-6.53185 -11.75,-7.10037 -0.8891,-0.73518 -1.25,-4.99613 -1.25,-14.75623 0,-11.82711 0.2417,-13.93117 1.75,-15.2328 3.1634,-2.72999 21.8363,-12.79974 23.7353,-12.79974 1.0219,0 6.9557,2.96024 13.1863,6.5783 l 11.3284,6.57831 0,14.68115 c 0,14.13804 -0.083,14.73361 -2.25,16.09929 -8.7805,5.53419 -20.9447,12.05927 -22.447,12.04087 -0.9916,-0.0121 -6.528,-2.7521 -12.303,-6.08878 z"
     style="fill:#423b38;fill-opacity:1" />
  <path
     inkscape:connector-curvature="0"
     id="path4150"
     d="m 586.49998,733.26832 c -1.1,-0.27483 -2.225,-0.82794 -2.5,-1.22915 -0.275,-0.4012 -9.3985,-5.99929 -20.2745,-12.44019 -10.8759,-6.44091 -19.5531,-12.06884 -19.2826,-12.50653 0.2705,-0.43769 2.644,-1.61538 5.2744,-2.61709 2.6305,-1.00171 6.1327,-2.64178 7.7827,-3.64459 1.65,-1.00281 3.524,-1.82498 4.1645,-1.82703 0.6405,-0.002 7.6503,3.82126 15.5774,8.49626 7.9271,4.675 15.0047,8.5 15.7279,8.5 1.9565,0 109.2419,-61.93543 111.2802,-64.2416 1.6273,-1.84117 1.75,-6.41034 1.75,-65.17805 0,-49.02404 -0.2803,-63.56301 -1.25,-64.82516 -1.072,-1.39543 -97.274,-57.40163 -108.0782,-62.92024 -3.7887,-1.93521 -3.866,-1.93542 -7.5,-0.02 -13.0088,6.85673 -106.9057,61.61764 -107.9218,62.94026 -1.5515,2.0195 -1.8416,126.27084 -0.3016,129.14845 0.5217,0.97469 8.6324,6.17279 18.0238,11.55132 15.5162,8.88622 17.6439,9.82301 23.3016,10.2593 5.3639,0.41364 6.6982,0.15505 9.6343,-1.86706 1.8744,-1.29096 4.3494,-3.61731 5.5,-5.16967 2.0591,-2.77825 2.0997,-3.8358 2.5919,-67.5 l 0.5,-64.67753 8.25,-0.29044 8.25,-0.29044 0,66.9256 c 0,75.00024 0.149,73.2963 -7.1304,81.56614 -5.8131,6.604 -12.2416,9.02573 -23.8696,8.99205 -11.764,-0.0341 -14.945,-1.19878 -36.1517,-13.23654 -20.2119,-11.47314 -21.1975,-12.2193 -24.2622,-18.36954 l -2.5861,-5.18954 0.022,-67.05365 c 0.021,-62.89589 0.1357,-67.30169 1.8569,-71.05366 1.0092,-2.2 3.0095,-5.16137 4.4452,-6.58081 2.97,-2.93641 111.1182,-65.59325 116.5979,-67.55226 4.5307,-1.61972 9.5997,-1.62928 14.078,-0.0266 1.925,0.68892 28.025,15.37957 58,32.64588 57.2366,32.96959 61.434,35.84333 63.7774,43.66495 1.6328,5.4498 1.7503,131.90835 0.1279,137.75132 -2.1669,7.80464 -6.4629,10.75098 -64.4053,44.17179 -30.25,17.44801 -56.125,32.32884 -57.5,33.06851 -2.4323,1.30846 -9.4626,1.63419 -13.5,0.62549 z m 20,-87.76582 c -21.9246,-4.12496 -33.6888,-14.64213 -35.9878,-32.17295 -0.5967,-4.55023 -0.436,-5.29995 1.3392,-6.25 2.269,-1.21436 13.0481,-1.44375 14.7661,-0.31424 0.6146,0.40408 1.8391,3.23417 2.721,6.2891 1.9532,6.76498 6.932,12.11712 13.5217,14.5354 5.9978,2.20107 32.2732,3.14709 40.4222,1.45536 9.7557,-2.02527 15.5592,-7.46062 16.4554,-15.41135 0.6803,-6.03553 -1.3717,-9.12678 -8.0725,-12.16079 -5.8701,-2.65786 -10.8105,-3.63032 -32.6653,-6.42971 -8.525,-1.09197 -17.975,-2.72362 -21,-3.62588 -16.7846,-5.00636 -24,-13.47801 -24,-28.17876 0,-11.78889 5.8941,-21.23864 16.9093,-27.10963 8.2465,-4.39534 17.1928,-6.09432 32.0907,-6.09432 30.8983,0 46.5709,9.47523 51.0948,30.8906 1.0288,4.86999 0.9607,5.56092 -0.6655,6.75 -1.8353,1.34204 -11.9394,1.83363 -14.8367,0.72185 -0.864,-0.33156 -2.0244,-2.2872 -2.5788,-4.34588 -1.5211,-5.64914 -6.2812,-11.51825 -11.3201,-13.95752 -13.6358,-6.60097 -43.8464,-3.89517 -49.2912,4.41475 -2.187,3.33767 -2.8386,9.02443 -1.4251,12.43683 2.2833,5.51243 5.9126,6.5779 42.5226,12.48349 28.3419,4.57185 38.0918,9.95426 41.613,22.97219 1.5514,5.73581 0.6211,17.17479 -1.85,22.74813 -4.4222,9.97388 -15.3056,17.22115 -30.4708,20.29071 -9.3568,1.89387 -29.3892,1.9258 -39.2922,0.0626 z m 153.25,-109.20823 c 1.2375,-0.23836 3.2625,-0.23836 4.5,0 1.2375,0.23835 0.225,0.43337 -2.25,0.43337 -2.475,0 -3.4875,-0.19502 -2.25,-0.43337 z m -8.25,-2.15483 c -6.1358,-3.79004 -9.5884,-10.18663 -9.3689,-17.35732 0.1243,-4.05898 0.169,-3.98762 0.8576,1.36938 0.9117,7.09307 3.9665,12.10845 9.335,15.3263 2.297,1.3768 3.7263,2.50585 3.1763,2.509 -0.55,0.003 -2.35,-0.82816 -4,-1.84736 z m 18.5011,-0.0798 c 3.9702,-2.10017 6.0487,-4.235 8.3337,-8.55964 0.8718,-1.65 1.6031,-2.50405 1.6252,-1.89788 0.1185,3.26264 -9.1061,12.48409 -12.3579,12.35368 -0.6061,-0.0243 0.4734,-0.87758 2.399,-1.89616 z M 754.99998,517.5 l 0,-10.5 5.4286,0 c 7.5543,0 10.9132,3.75488 7.1141,7.95278 -1.2652,1.39806 -1.271,2.13326 -0.044,5.57874 0.7774,2.18267 1.4332,4.75598 1.4573,5.71848 0.07,2.7946 -1.861,2.02114 -2.4966,-1 -0.9328,-4.43337 -1.9885,-5.72957 -4.9519,-6.08008 -3.2801,-0.38796 -4.4712,1.09154 -4.4923,5.58008 -0.01,1.7875 -0.4653,3.25 -1.0153,3.25 -0.6032,0 -1,-4.16667 -1,-10.5 z m 9.8,-1.7 c 2.0694,-2.06935 1.4159,-5.74451 -1.2362,-6.9529 -4.4187,-2.01326 -7.3914,0.71918 -6.1526,5.65514 0.4805,1.91462 1.2762,2.49776 3.4078,2.49776 1.5296,0 3.321,-0.54 3.981,-1.2 z m 15.486,1.7 c 0.01,-2.75 0.2017,-3.75631 0.4316,-2.23625 0.2298,1.52006 0.2237,3.77006 -0.014,5 -0.2374,1.22994 -0.4254,-0.0137 -0.4179,-2.76375 z m -37.2418,-5.81574 c -0.1363,-2.51636 5.0461,-9.17058 8.4558,-10.85722 1.1,-0.54412 0.5275,0.21263 -1.2722,1.68168 -1.7997,1.46905 -4.1423,4.31807 -5.2058,6.33114 -1.0635,2.01308 -1.9535,3.29306 -1.9778,2.8444 z m 31.1117,-7.39562 c -4.2828,-4.45915 -3.8777,-4.98466 0.6859,-0.88987 1.9689,1.76659 4.8653,5.81157 3.9434,5.50703 -0.1569,-0.0518 -2.24,-2.12953 -4.6293,-4.61716 z m -14.8922,-6.00622 c 1.5201,-0.22986 3.7701,-0.22371 5,0.0136 1.23,0.23736 -0.014,0.42542 -2.7637,0.41792 -2.75,-0.008 -3.7563,-0.20172 -2.2363,-0.43157 z m -65.652,-71.1756 c -32.3155,-18.64126 -59.8488,-34.92034 -61.1851,-36.17575 -1.3363,-1.2554 -2.8765,-3.89097 -3.4225,-5.85681 -1.3638,-4.90914 -1.3395,-134.3264 0.026,-139.24293 0.5604,-2.01776 2.0723,-4.68248 3.3597,-5.92158 3.4092,-3.28124 117.4529,-68.98735 121.699,-70.11669 4.5583,-1.21237 6.9809,-0.22182 24.9916,10.21847 7.5795,4.39366 14.68,7.98847 15.7788,7.98847 1.0988,0 2.705,-0.70714 3.5693,-1.57143 1.4053,-1.40528 1.5714,-11.08422 1.5714,-91.545452 l 0,-89.9740266 2.4546,-2.454541 c 1.35,-1.35 3.2625,-2.41919005 4.25,-2.37598005 0.9874,0.0432 17.9779,9.15572105 37.7565,20.25000565 28.4531,15.95995 36.4391,20.880849 38.25,23.569308 l 2.2889,3.397883 0,169.204233 0,169.20423 -2.25,3.28647 c -1.7395,2.54075 -15.7509,11.0801 -61.75,37.63378 -54.3068,31.34946 -59.8986,34.34855 -64.0665,34.36142 -4.1869,0.0129 -9.4503,-2.80315 -63.3218,-33.87908 z m 84.5644,-74.22352 c 10.6281,-6.11418 19.8864,-11.82519 20.5739,-12.69113 1.5274,-1.92384 1.7945,-46.30622 0.2955,-49.10707 -1.4531,-2.71524 -41.6462,-25.45229 -43.6403,-24.68711 -3.4559,1.32618 -38.9367,22.13348 -40.6306,23.82739 -1.5987,1.59867 -1.7731,4.07986 -1.7593,25.02462 0.01,12.7875 0.4008,23.85828 0.8719,24.60173 1.3537,2.13622 40.3483,24.14827 42.779,24.14827 1.2023,0 10.8817,-5.00251 21.5099,-11.1167 z m -339.9786,105.06611 c -5.337,-2.14132 -115.9428,-66.47183 -118.5163,-68.93139 -1.5503,-1.48172 -3.2271,-4.45443 -3.7261,-6.60603 -0.4991,-2.15159 -0.8984,-33.38699 -0.8873,-69.41199 0.022,-71.00887 0.048,-71.37751 5.4442,-75.5 3.1702,-2.42206 21.6085,-13.12733 76.988,-44.69915 40.3989,-23.03139 42.1715,-23.92791 46.5,-23.51762 3.704,0.35111 14.6709,6.30332 62,33.6501 34.208,19.76541 58.8165,34.6036 60.75,36.63042 l 3.25,3.40688 0,70.3668 0,70.3668 -2.25,3.29613 c -1.7523,2.5671 -14.4147,10.24705 -57.25,34.72319 -68.4779,39.12836 -66.9617,38.3687 -72.3025,36.22586 z m 568.45842,-34.0549 c -58.12252,-33.11548 -59.89822,-34.21568 -61.72802,-38.24542 -1.7852,-3.93161 -1.8851,-7.70194 -1.9059,-71.93121 -0.024,-72.81498 -0.098,-71.70082 5.0991,-76.34249 2.0155,-1.80003 107.17042,-62.89282 116.57922,-67.73004 7.6952,-3.9562 6.5259,-4.49698 70.4989,32.60465 43.9013,25.46089 59.729,35.12812 61.6784,37.67193 2.5228,3.29201 2.636,4.00604 2.9806,18.80657 0.4852,20.84232 -0.1446,25.26762 -4.1699,29.3026 -3.7284,3.73745 -70.6564,42.81251 -74.7222,43.62568 -1.9834,0.39668 -3.3486,-0.0393 -4.8619,-1.55261 -1.9868,-1.98678 -2.1042,-3.13314 -2.1042,-20.54841 0,-17.71036 -0.09,-18.54499 -2.25,-20.9766 C 1108.5483,284.97562 1073.6496,265 1070.5557,265 c -3.1046,0 -38.1203,19.98556 -41.3057,23.57568 -2.1908,2.46915 -2.25,3.12467 -2.25,24.92432 0,21.79098 0.06,22.45693 2.25,24.95358 1.2375,1.41082 28.3389,17.52341 60.2254,35.80577 62.6644,35.92909 62.8938,36.09045 58.9031,41.43554 -1.3284,1.77916 -14.8778,9.92291 -37.4795,22.52669 -31.2582,17.43105 -35.9254,19.74185 -39.899,19.7547 -4.0864,0.0132 -10.0004,-3.1193 -64.3441,-34.08177 z m -1003.795114,4.19384 -2.36080002,-1.91164 0,-93.06913 0,-93.06912 3.00000002,-2.97199 c 1.65,-1.6346 29.325,-18.1314 61.5,-36.65957 48.134094,-27.71828 59.297394,-33.76263 62.999994,-34.11121 4.3576,-0.41023 6.2403,0.5778 59.5,31.22496 69.5784,40.0374 65.9488,37.79809 67.8882,41.88496 1.4458,3.04677 1.6118,12.78517 1.6118,94.54097 l 0,91.14433 -2.4545,2.45454 c -1.35,1.35 -3.2077,2.45455 -4.1283,2.45455 -1.7506,0 -66.5145,-36.52613 -72.1682,-40.7021 -6.3644,-4.70083 -6.249,-3.73531 -6.249,-52.28036 0,-46.45732 -0.16,-48.26747 -4.612,-52.17442 -1.0384,-0.91129 -9.088,-5.82279 -17.888,-10.91446 -21.4625,-12.41817 -19.77,-12.44446 -42.4958,0.66007 -13.573994,7.82728 -17.944994,10.85338 -19.499994,13.5 -1.9058,3.24379 -2.0287,5.67199 -2.5042,49.45764 -0.4354,40.09621 -0.7082,46.36375 -2.1109,48.50251 C 80.770786,389.27874 10.329686,430 6.860886,430 c -0.9016,0 -2.7017,-0.86024 -4.0001,-1.91165 z M 1059.25,333.36319 1048,326.8308 l 0,-13.8371 0,-13.83709 11.524,-6.6919 11.524,-6.69189 10.226,5.71367 C 1096.0125,299.72144 1095,298.13456 1095,313 c 0,10.84374 -0.2546,12.90975 -1.75,14.20026 -1.818,1.56892 -21.5462,12.83937 -22.3137,12.74752 -0.24,-0.0287 -5.4988,-2.99178 -11.6863,-6.58459 z"
     style="fill:#423b38;fill-opacity:1" />
  <path
     inkscape:connector-curvature="0"
     id="path4148"
     d="m 586.60488,733.28272 c -1.5228,-0.38991 -1.621,-0.65888 -0.5,-1.36868 1.1113,-0.70368 1.1244,-0.88653 0.065,-0.89873 -1.4215,-0.0164 -36.687,-20.4473 -39.1171,-22.66235 -1.237,-1.12749 -0.9678,-1.48655 1.8517,-2.46944 1.8146,-0.63257 5.3023,-2.21514 7.7504,-3.51682 2.4481,-1.30169 4.8249,-2.3667 5.2816,-2.3667 0.4568,0 7.2955,3.82021 15.1971,8.48936 7.9017,4.66914 15.0089,8.49414 15.7939,8.5 2.3228,0.0173 110.987,-63.02893 112.5976,-65.3284 1.2624,-1.80222 1.473,-11.12468 1.4604,-64.63347 -0.011,-47.64387 -0.3088,-63.0961 -1.25,-64.91628 -1.5739,-3.04369 -109.0618,-65.36779 -112.7353,-65.36668 -2.8726,8.7e-4 -109.5374,61.2061 -112.25,64.41004 -1.6264,1.92099 -1.75,6.52903 -1.75,65.23371 0,53.7179 0.2181,63.47805 1.4578,65.24807 1.7209,2.45688 31.3098,19.58558 36.9088,21.3661 8.4167,2.67659 17.6549,-0.48847 21.3985,-7.33129 1.587,-2.90081 1.7586,-8.64858 2.0131,-67.42116 l 0.2783,-64.25 7.3647,0 c 5.7933,0 7.4944,0.33753 7.9718,1.58179 0.9897,2.57919 0.6288,120.27515 -0.393,128.14047 -1.0005,7.70162 -4.3037,15.3811 -8.1635,18.97889 -5.1344,4.7859 -11.642,6.80016 -21.8365,6.75896 -11.8035,-0.0477 -15.1136,-1.27616 -36.6453,-13.60008 -17.6352,-10.0937 -20.7661,-12.54411 -23.4588,-18.36003 -1.7444,-3.76763 -1.852,-7.89212 -1.852,-71 0,-62.8673 0.1133,-67.24928 1.8358,-71.04137 1.0096,-2.22275 3.2014,-5.19054 4.8706,-6.59508 3.312,-2.78688 109.4526,-64.21472 114.8597,-66.47396 4.5741,-1.91119 11.1122,-1.70486 15.89,0.50146 2.2,1.01592 28.3,15.86881 58,33.00643 55.9709,32.29655 59.4537,34.67631 61.493,42.01743 1.4151,5.0945 1.3406,132.34333 -0.081,137.46167 -0.5921,2.13212 -2.727,5.5822 -4.7445,7.66684 -2.4006,2.48061 -22.9257,14.87584 -59.4023,35.87341 -30.6539,17.64575 -56.3039,32.09006 -57,32.09848 -0.9712,0.0118 -0.9561,0.2116 0.065,0.85887 2.5068,1.58915 -8.1063,2.71944 -13.2258,1.40854 z m 23.8951,-87.90856 c -10.7976,-2.12628 -13.8183,-2.9762 -19.1834,-5.39762 -6.8912,-3.11014 -13.9507,-9.56045 -16.6111,-15.1775 -2.2007,-4.64661 -4.1587,-14.17552 -3.3473,-16.29 0.4988,-1.30004 1.9646,-1.54252 7.8773,-1.30314 l 7.2645,0.2941 1.8522,5.8522 c 2.2794,7.20199 7.434,12.66958 14.2552,15.12078 6.4474,2.31685 30.8196,3.28468 39.6609,1.57495 12.7035,-2.45657 19.7011,-9.7838 18.4256,-19.29345 -1.26,-9.39426 -9.1293,-12.66398 -39.1615,-16.27173 -16.8719,-2.02683 -25.7275,-4.07825 -32.678,-7.56998 -9.7494,-4.89776 -13.8544,-11.89063 -13.8544,-23.60065 0,-11.87632 5.1898,-20.46966 15.7671,-26.10728 8.7437,-4.66034 16.6424,-6.173 32.3229,-6.19006 26.911,-0.0293 42.0847,7.14534 47.8821,22.64017 1.0934,2.92251 2.1095,7.23321 2.258,9.57935 l 0.2699,4.2657 -6.84,0.29774 c -3.762,0.16376 -7.4017,-0.1684 -8.0882,-0.73812 -0.6864,-0.56973 -1.7912,-2.84867 -2.4551,-5.06433 -1.5839,-5.28672 -6.5877,-10.87371 -11.8061,-13.18208 -8.9873,-3.97554 -32.4842,-4.12827 -42.1176,-0.27377 -7.5648,3.02686 -11.6037,10.55062 -9.5352,17.76279 1.8197,6.34503 8.4564,8.69863 35.8422,12.71078 38.7006,5.66984 48.1139,11.29022 49.2775,29.42208 1.2088,18.83604 -9.95,31.56923 -31.5929,36.0503 -6.7028,1.38779 -30.181,1.97255 -35.6846,0.88877 z M 755.99998,518 c 0,-1.86667 0.2667,-2.13333 1.2,-1.2 0.9333,0.93333 0.9333,1.46667 0,2.4 -0.9333,0.93333 -1.2,0.66667 -1.2,-1.2 z m 11.0789,-6.58333 c 0.048,-1.16495 0.285,-1.4019 0.6042,-0.60417 0.2889,0.72187 0.2534,1.58438 -0.079,1.91667 -0.3323,0.33229 -0.5686,-0.25834 -0.5252,-1.3125 z m -73.4672,-84.30985 c -32.3155,-18.64126 -59.8487,-34.92034 -61.1851,-36.17575 -1.3363,-1.2554 -2.8765,-3.89097 -3.4225,-5.85681 -1.3638,-4.90914 -1.3395,-134.3264 0.026,-139.24293 0.5604,-2.01776 2.0723,-4.68248 3.3597,-5.92158 3.4092,-3.28124 117.4529,-68.98735 121.699,-70.11669 4.5583,-1.21237 6.9809,-0.22182 24.9916,10.21847 7.5795,4.39366 14.68,7.98847 15.7788,7.98847 1.0988,0 2.705,-0.70714 3.5693,-1.57143 1.4053,-1.40528 1.5714,-11.08422 1.5714,-91.545452 l 0,-89.9740266 2.4546,-2.454541 c 1.35,-1.35 3.2625,-2.41919005 4.25,-2.37598005 0.9874,0.0432 17.9779,9.15572105 37.7565,20.25000565 28.4531,15.95995 36.4391,20.880849 38.25,23.569308 l 2.2889,3.397883 0,169.204233 0,169.20423 -2.25,3.28647 c -1.7395,2.54075 -15.7509,11.0801 -61.75,37.63378 -54.3068,31.34946 -59.8986,34.34855 -64.0665,34.36142 -4.1869,0.0129 -9.4503,-2.80315 -63.3218,-33.87908 z m 84.5644,-74.22352 c 10.6281,-6.11418 19.8864,-11.82519 20.5739,-12.69113 1.5274,-1.92384 1.7945,-46.30622 0.2955,-49.10707 -1.4531,-2.71524 -41.6462,-25.45229 -43.6403,-24.68711 -3.4559,1.32618 -38.9367,22.13348 -40.6306,23.82739 -1.5986,1.59867 -1.7731,4.07986 -1.7593,25.02462 0.01,12.7875 0.4008,23.85828 0.8719,24.60173 1.3537,2.13622 40.3483,24.14827 42.779,24.14827 1.2023,0 10.8817,-5.00251 21.5099,-11.1167 z m -395.7288,72.82132 c -30.771,-17.76247 -57.4526,-33.17497 -59.2925,-34.25 -1.8398,-1.07504 -4.2023,-3.62419 -5.25,-5.66478 -1.8185,-3.54207 -1.9048,-6.81765 -1.9048,-72.29966 0,-74.84071 -0.2084,-72.06944 5.7369,-76.30281 9.1804,-6.53705 87.2299,-50.18737 89.7381,-50.18737 0.2888,0 0.525,46.52004 0.525,103.37788 0,88.28581 0.2128,103.88709 1.4574,106.86589 2.0193,4.83286 19.6659,38.25642 26.184,49.59384 9.9954,17.38587 8.7145,16.91258 -57.1941,-21.13299 z m 624.20862,-1.81011 c -58.12252,-33.11548 -59.89822,-34.21568 -61.72802,-38.24542 -1.7852,-3.93161 -1.8851,-7.70194 -1.9059,-71.93121 -0.024,-72.81498 -0.098,-71.70082 5.0991,-76.34249 2.0155,-1.80003 107.17042,-62.89282 116.57922,-67.73004 7.6952,-3.9562 6.5259,-4.49698 70.4989,32.60465 43.9013,25.46089 59.729,35.12812 61.6784,37.67193 2.5228,3.29201 2.636,4.00604 2.9806,18.80657 0.4852,20.84232 -0.1446,25.26762 -4.1699,29.3026 -3.7284,3.73745 -70.6564,42.81251 -74.7222,43.62568 -1.9834,0.39668 -3.3486,-0.0393 -4.8619,-1.55261 -1.9868,-1.98678 -2.1042,-3.13314 -2.1042,-20.54841 0,-17.71036 -0.09,-18.54499 -2.25,-20.9766 C 1108.5483,284.97562 1073.6496,265 1070.5557,265 c -3.1046,0 -38.1203,19.98556 -41.3057,23.57568 -2.1908,2.46915 -2.25,3.12467 -2.25,24.92432 0,21.79098 0.06,22.45693 2.25,24.95358 1.2375,1.41082 28.3389,17.52341 60.2254,35.80577 62.6644,35.92909 62.8938,36.09045 58.9031,41.43554 -1.3284,1.77916 -14.8778,9.92291 -37.4795,22.52669 -31.2582,17.43105 -35.9254,19.74185 -39.899,19.7547 -4.0864,0.0132 -10.0004,-3.1193 -64.3441,-34.08177 z m -543.65592,-99.23316 0,-121.33866 -4.9342,-9.91134 c -2.7139,-5.45124 -6.5346,-12.72385 -8.4905,-16.16135 -2.7231,-4.78578 -3.1928,-6.25 -2.0049,-6.25 1.4194,0 56.3597,31.59872 99.7883,57.39293 9.8222,5.83389 18.2827,10.60707 18.801,10.60707 0.5183,0 1.6076,1.59204 2.4206,3.53786 1.2656,3.02918 1.438,13.54183 1.1989,73.11477 l -0.2792,69.5769 -4.1475,3.63524 c -4.1331,3.62263 -31.3182,19.21643 -76.8034,44.05573 -13.173,7.19373 -24.3105,13.0795 -24.75,13.0795 -0.4395,0 -0.7991,-54.60239 -0.7991,-121.33865 z m -460.139194,103.427 -2.36080002,-1.91164 0,-93.06913 0,-93.06912 3.00000002,-2.97199 c 1.65,-1.6346 29.325,-18.1314 61.5,-36.65957 48.134094,-27.71828 59.297394,-33.76263 62.999994,-34.11121 4.3576,-0.41023 6.2403,0.5778 59.5,31.22496 69.5784,40.0374 65.9488,37.79809 67.8882,41.88496 1.4458,3.04677 1.6118,12.78517 1.6118,94.54097 l 0,91.14433 -2.4545,2.45454 c -1.35,1.35 -3.2077,2.45455 -4.1283,2.45455 -1.7506,0 -66.5145,-36.52613 -72.1682,-40.7021 -6.3644,-4.70083 -6.249,-3.73531 -6.249,-52.28036 0,-46.45732 -0.16,-48.26747 -4.612,-52.17442 -1.0384,-0.91129 -9.088,-5.82279 -17.888,-10.91446 -21.4625,-12.41817 -19.77,-12.44446 -42.4958,0.66007 -13.573994,7.82728 -17.944994,10.85338 -19.499994,13.5 -1.9058,3.24379 -2.0287,5.67199 -2.5042,49.45764 -0.4354,40.09621 -0.7082,46.36375 -2.1109,48.50251 C 80.770786,389.27874 10.329686,430 6.860886,430 c -0.9016,0 -2.7017,-0.86024 -4.0001,-1.91165 z M 1059.7862,332.6855 1049.0725,326.5 l -0.025,-13.5 -0.025,-13.5 11.1393,-6.3495 11.1392,-6.34951 4.0994,2.30075 c 2.2547,1.26542 7.2494,4.15972 11.0994,6.4318 l 7,4.13104 0,13.31045 0,13.31045 -10.9738,6.35726 c -6.0356,3.49649 -11.2106,6.32824 -11.5,6.29276 -0.2894,-0.0355 -5.3474,-2.84797 -11.24,-6.25 z"
     style="fill:#423b38;fill-opacity:1" />
  <path
     inkscape:connector-curvature="0"
     id="path4146"
     d="m 586.60488,733.28272 c -1.5228,-0.38991 -1.621,-0.65888 -0.5,-1.36868 1.1113,-0.70368 1.1244,-0.88653 0.065,-0.89873 -1.4215,-0.0164 -36.687,-20.4473 -39.1171,-22.66235 -1.237,-1.12749 -0.9678,-1.48655 1.8517,-2.46944 1.8146,-0.63257 5.3023,-2.21514 7.7504,-3.51682 2.4481,-1.30169 4.8249,-2.3667 5.2816,-2.3667 0.4568,0 7.2955,3.82021 15.1971,8.48936 7.9017,4.66914 15.0089,8.49414 15.7939,8.5 2.3228,0.0173 110.987,-63.02893 112.5976,-65.3284 1.2624,-1.80222 1.473,-11.12468 1.4604,-64.63347 -0.011,-47.64387 -0.3088,-63.0961 -1.25,-64.91628 -1.5739,-3.04369 -109.0618,-65.36779 -112.7353,-65.36668 -2.8726,8.7e-4 -109.5374,61.2061 -112.25,64.41004 -1.6264,1.92099 -1.75,6.52903 -1.75,65.23371 0,53.7179 0.2181,63.47805 1.4578,65.24807 1.7209,2.45688 31.3098,19.58558 36.9088,21.3661 8.4167,2.67659 17.6549,-0.48847 21.3985,-7.33129 1.587,-2.90081 1.7586,-8.64858 2.0131,-67.42116 l 0.2783,-64.25 7.3647,0 c 5.7933,0 7.4944,0.33753 7.9718,1.58179 0.9897,2.57919 0.6288,120.27515 -0.393,128.14047 -1.0005,7.70162 -4.3037,15.3811 -8.1635,18.97889 -5.1344,4.7859 -11.642,6.80016 -21.8365,6.75896 -11.8035,-0.0477 -15.1136,-1.27616 -36.6453,-13.60008 -17.6352,-10.0937 -20.7661,-12.54411 -23.4588,-18.36003 -1.7444,-3.76763 -1.852,-7.89212 -1.852,-71 0,-62.8673 0.1133,-67.24928 1.8358,-71.04137 1.0096,-2.22275 3.2014,-5.19054 4.8706,-6.59508 3.312,-2.78688 109.4526,-64.21472 114.8597,-66.47396 4.5741,-1.91119 11.1122,-1.70486 15.89,0.50146 2.2,1.01592 28.3,15.86881 58,33.00643 55.9709,32.29655 59.4537,34.67631 61.493,42.01743 1.4151,5.0945 1.3406,132.34333 -0.081,137.46167 -0.5921,2.13212 -2.727,5.5822 -4.7445,7.66684 -2.4006,2.48061 -22.9257,14.87584 -59.4023,35.87341 -30.6539,17.64575 -56.3039,32.09006 -57,32.09848 -0.9712,0.0118 -0.9561,0.2116 0.065,0.85887 2.5068,1.58915 -8.1063,2.71944 -13.2258,1.40854 z m 23.8951,-87.90856 c -10.7976,-2.12628 -13.8183,-2.9762 -19.1834,-5.39762 -6.8912,-3.11014 -13.9507,-9.56045 -16.6111,-15.1775 -2.2007,-4.64661 -4.1587,-14.17552 -3.3473,-16.29 0.4988,-1.30004 1.9646,-1.54252 7.8773,-1.30314 l 7.2645,0.2941 1.8522,5.8522 c 2.2794,7.20199 7.434,12.66958 14.2552,15.12078 6.4474,2.31685 30.8196,3.28468 39.6609,1.57495 12.7035,-2.45657 19.7011,-9.7838 18.4256,-19.29345 -1.26,-9.39426 -9.1293,-12.66398 -39.1615,-16.27173 -16.8719,-2.02683 -25.7275,-4.07825 -32.678,-7.56998 -9.7494,-4.89776 -13.8544,-11.89063 -13.8544,-23.60065 0,-11.87632 5.1898,-20.46966 15.7671,-26.10728 8.7437,-4.66034 16.6424,-6.173 32.3229,-6.19006 26.911,-0.0293 42.0847,7.14534 47.8821,22.64017 1.0934,2.92251 2.1095,7.23321 2.258,9.57935 l 0.2699,4.2657 -6.84,0.29774 c -3.762,0.16376 -7.4017,-0.1684 -8.0882,-0.73812 -0.6864,-0.56973 -1.7912,-2.84867 -2.4551,-5.06433 -1.5839,-5.28672 -6.5877,-10.87371 -11.8061,-13.18208 -8.9873,-3.97554 -32.4842,-4.12827 -42.1176,-0.27377 -7.5648,3.02686 -11.6037,10.55062 -9.5352,17.76279 1.8197,6.34503 8.4564,8.69863 35.8422,12.71078 38.7006,5.66984 48.1139,11.29022 49.2775,29.42208 1.2088,18.83604 -9.95,31.56923 -31.5929,36.0503 -6.7028,1.38779 -30.181,1.97255 -35.6846,0.88877 z M 755.99998,518 c 0,-1.86667 0.2667,-2.13333 1.2,-1.2 0.9333,0.93333 0.9333,1.46667 0,2.4 -0.9333,0.93333 -1.2,0.66667 -1.2,-1.2 z m 11.0789,-6.58333 c 0.048,-1.16495 0.285,-1.4019 0.6042,-0.60417 0.2889,0.72187 0.2534,1.58438 -0.079,1.91667 -0.3323,0.33229 -0.5686,-0.25834 -0.5252,-1.3125 z m -73.4672,-84.30985 c -32.3155,-18.64126 -59.8487,-34.92034 -61.1851,-36.17575 -1.3363,-1.2554 -2.8765,-3.89097 -3.4225,-5.85681 -1.3638,-4.90914 -1.3395,-134.3264 0.026,-139.24293 0.5604,-2.01776 2.0723,-4.68248 3.3597,-5.92158 3.4092,-3.28124 117.4529,-68.98735 121.699,-70.11669 4.5583,-1.21237 6.9809,-0.22182 24.9916,10.21847 7.5795,4.39366 14.68,7.98847 15.7788,7.98847 1.0988,0 2.705,-0.70714 3.5693,-1.57143 1.4053,-1.40528 1.5714,-11.08422 1.5714,-91.545452 l 0,-89.9740266 2.4546,-2.454541 c 1.35,-1.35 3.2625,-2.41919005 4.25,-2.37598005 0.9874,0.0432 17.9779,9.15572105 37.7565,20.25000565 28.4531,15.95995 36.4391,20.880849 38.25,23.569308 l 2.2889,3.397883 0,169.204233 0,169.20423 -2.25,3.28647 c -1.7395,2.54075 -15.7509,11.0801 -61.75,37.63378 -54.3068,31.34946 -59.8986,34.34855 -64.0665,34.36142 -4.1869,0.0129 -9.4503,-2.80315 -63.3218,-33.87908 z m 84.5644,-74.22352 c 10.6281,-6.11418 19.8864,-11.82519 20.5739,-12.69113 1.5274,-1.92384 1.7945,-46.30622 0.2955,-49.10707 -1.4531,-2.71524 -41.6462,-25.45229 -43.6403,-24.68711 -3.4559,1.32618 -38.9367,22.13348 -40.6306,23.82739 -1.5986,1.59867 -1.7731,4.07986 -1.7593,25.02462 0.01,12.7875 0.4008,23.85828 0.8719,24.60173 1.3537,2.13622 40.3483,24.14827 42.779,24.14827 1.2023,0 10.8817,-5.00251 21.5099,-11.1167 z m -396.2288,72.53833 c -66.3749,-38.30804 -62.5822,-36.0278 -63.3794,-38.10522 -0.4061,-1.05837 3.4617,-8.82035 10.8686,-21.81092 13.799,-24.20158 16.8341,-30.47446 15.5145,-32.06456 -0.5282,-0.63642 -6.9771,-3.97603 -14.3309,-7.42136 l -13.3705,-6.26424 -0.6161,-5.12767 c -0.3389,-2.82021 -0.62,-19.66251 -0.6248,-37.42732 -0.01,-33.47756 0.2315,-35.66505 4.2927,-39.0355 1.1124,-0.92326 1.6608,-0.90695 2.45,0.0728 0.5593,0.69428 9.4596,17.01233 19.7785,36.26233 10.3189,19.25 19.5533,35.9 20.521,37 0.9677,1.1 5.4533,8.75 9.9682,17 13.3557,24.40505 41.2539,74.10647 57.1643,101.83955 8.1531,14.21175 14.5707,26.24925 14.2613,26.75 -1.7873,2.89179 -8.5872,-0.55382 -62.4974,-31.66792 z m 624.70862,-1.52712 c -58.12252,-33.11548 -59.89822,-34.21568 -61.72802,-38.24542 -1.7852,-3.93161 -1.8851,-7.70194 -1.9059,-71.93121 -0.024,-72.81498 -0.098,-71.70082 5.0991,-76.34249 2.0155,-1.80003 107.17042,-62.89282 116.57922,-67.73004 7.6952,-3.9562 6.5259,-4.49698 70.4989,32.60465 43.9013,25.46089 59.729,35.12812 61.6784,37.67193 2.5228,3.29201 2.636,4.00604 2.9806,18.80657 0.4852,20.84232 -0.1446,25.26762 -4.1699,29.3026 -3.7284,3.73745 -70.6564,42.81251 -74.7222,43.62568 -1.9834,0.39668 -3.3486,-0.0393 -4.8619,-1.55261 -1.9868,-1.98678 -2.1042,-3.13314 -2.1042,-20.54841 0,-17.71036 -0.09,-18.54499 -2.25,-20.9766 C 1108.5483,284.97562 1073.6496,265 1070.5557,265 c -3.1046,0 -38.1203,19.98556 -41.3057,23.57568 -2.1908,2.46915 -2.25,3.12467 -2.25,24.92432 0,21.79098 0.06,22.45693 2.25,24.95358 1.2375,1.41082 28.3389,17.52341 60.2254,35.80577 62.6644,35.92909 62.8938,36.09045 58.9031,41.43554 -1.3284,1.77916 -14.8778,9.92291 -37.4795,22.52669 -31.2582,17.43105 -35.9254,19.74185 -39.899,19.7547 -4.0864,0.0132 -10.0004,-3.1193 -64.3441,-34.08177 z m -543.65592,-99.23316 0,-121.33866 -4.9342,-9.91134 c -2.7139,-5.45124 -6.5346,-12.72385 -8.4905,-16.16135 -2.7231,-4.78578 -3.1928,-6.25 -2.0049,-6.25 1.4194,0 56.3597,31.59872 99.7883,57.39293 9.8222,5.83389 18.2827,10.60707 18.801,10.60707 0.5183,0 1.6076,1.59204 2.4206,3.53786 1.2656,3.02918 1.438,13.54183 1.1989,73.11477 l -0.2792,69.5769 -4.1475,3.63524 c -4.1331,3.62263 -31.3182,19.21643 -76.8034,44.05573 -13.173,7.19373 -24.3105,13.0795 -24.75,13.0795 -0.4395,0 -0.7991,-54.60239 -0.7991,-121.33865 z m -460.139194,103.427 -2.36080002,-1.91164 0,-93.06913 0,-93.06912 3.00000002,-2.97199 c 1.65,-1.6346 29.325,-18.1314 61.5,-36.65957 48.134094,-27.71828 59.297394,-33.76263 62.999994,-34.11121 4.3576,-0.41023 6.2403,0.5778 59.5,31.22496 69.5784,40.0374 65.9488,37.79809 67.8882,41.88496 1.4458,3.04677 1.6118,12.78517 1.6118,94.54097 l 0,91.14433 -2.4545,2.45454 c -1.35,1.35 -3.2077,2.45455 -4.1283,2.45455 -1.7506,0 -66.5145,-36.52613 -72.1682,-40.7021 -6.3644,-4.70083 -6.249,-3.73531 -6.249,-52.28036 0,-46.45732 -0.16,-48.26747 -4.612,-52.17442 -1.0384,-0.91129 -9.088,-5.82279 -17.888,-10.91446 -21.4625,-12.41817 -19.77,-12.44446 -42.4958,0.66007 -13.573994,7.82728 -17.944994,10.85338 -19.499994,13.5 -1.9058,3.24379 -2.0287,5.67199 -2.5042,49.45764 -0.4354,40.09621 -0.7082,46.36375 -2.1109,48.50251 C 80.770786,389.27874 10.329686,430 6.860886,430 c -0.9016,0 -2.7017,-0.86024 -4.0001,-1.91165 z M 1059.7862,332.6855 1049.0725,326.5 l -0.025,-13.5 -0.025,-13.5 11.1393,-6.3495 11.1392,-6.34951 4.0994,2.30075 c 2.2547,1.26542 7.2494,4.15972 11.0994,6.4318 l 7,4.13104 0,13.31045 0,13.31045 -10.9738,6.35726 c -6.0356,3.49649 -11.2106,6.32824 -11.5,6.29276 -0.2894,-0.0355 -5.3474,-2.84797 -11.24,-6.25 z"
     style="fill:#423b38;fill-opacity:1" />
  <path
     inkscape:connector-curvature="0"
     id="path4144"
     d="m 692.99998,426.65394 c -45.6102,-26.3815 -60.0252,-35.17819 -61.75,-37.68261 l -2.25,-3.2671 0,-70.83634 0,-70.83634 2.75,-3.03415 c 1.5475,-1.70734 28.5254,-17.89407 61.693,-37.01578 C 746.76538,173.24041 752.81098,170 756.84258,170 c 3.7861,0 6.8101,1.35374 20.1037,9 15.2598,8.77718 19.3991,10.25457 21.8537,7.8 0.9154,-0.91543 1.2,-22.38881 1.2,-90.549659 0,-77.941819 0.1938,-89.7244997 1.5182,-92.2855137 2.7355,-5.289827 4.8037,-4.86027695 21.0642,4.374966 8.2047,4.6598677 24.5899,13.8635817 36.4115,20.4526967 12.4384,6.932882 22.3391,13.112207 23.5,14.667091 1.9872,2.661567 2.0085,4.279199 2.2647,171.694379 0.2937,191.93548 1.1892,173.31551 -8.6204,179.2453 -3.101,1.87451 -29.9382,17.46447 -59.6382,34.64434 -47.8063,27.6534 -54.5735,31.28143 -59,31.631 -4.9875,0.39388 -5.149,0.30868 -64.5,-34.02066 z m 80.4532,-70.83488 c 8.8258,-5.04951 18.4093,-10.66893 21.2968,-12.48758 l 5.25,-3.30664 0,-24.35743 c 0,-21.94618 -0.1732,-24.50938 -1.75,-25.8923 C 795.27558,287.16637 758.21638,266 756.62328,266 c -1.5996,0 -38.9185,21.19199 -41.8733,23.77825 -1.5742,1.37783 -1.75,3.90828 -1.75,25.18561 0,17.39018 0.331,24.08399 1.25,25.27812 1.3063,1.69745 40.5415,24.69187 42.2032,24.73391 0.5243,0.0133 8.1743,-4.10731 17,-9.15683 z m -334.4532,101.45262 c -1.939,-0.73738 -117.099,-67.17307 -118.75,-68.5068 -0.6875,-0.55538 -1.25,-1.89249 -1.25,-2.97138 0,-2.62709 41.0865,-74.7935 42.5822,-74.7935 0.6451,0 1.6377,0.5625 2.2057,1.25 0.568,0.6875 14.2906,25.55 30.4946,55.25 16.204,29.7 33.7872,61.81697 39.0738,71.37105 10.0583,18.17747 10.7187,20.33056 5.6437,18.40063 z m 624.48522,-1.39037 c -17.2809,-9.18724 -113.57162,-64.67754 -115.74152,-66.69938 -1.516,-1.41253 -3.201,-4.16882 -3.7444,-6.12508 -1.3367,-4.81161 -1.3322,-134.31816 0,-139.13111 0.546,-1.96584 2.006,-4.52246 3.2444,-5.68138 1.2383,-1.15891 28.8015,-17.43761 61.25152,-36.17489 50.7438,-29.30045 59.5619,-34.06788 63.0157,-34.06862 4.5503,-9.6e-4 -0.1498,-2.56279 72.4681,39.49915 26.5874,15.4 49.8427,29.4775 51.6784,31.28333 l 3.3378,3.28334 0,21.13988 0,21.13989 -4.25,3.96095 C 1190.6374,292.13562 1122.8524,332 1120.4505,332 c -0.6522,0 -2.3715,-0.93266 -3.8206,-2.07258 l -2.6349,-2.07258 0,-17.88037 c 0,-18.4872 -0.5426,-21.58321 -4.1807,-23.85525 C 1095.682,277.29345 1072.8009,265 1070.5063,265 c -4.0291,0 -40.9597,21.49393 -42.4137,24.68516 -1.4655,3.2163 -1.4883,44.36322 -0.026,47.57168 1.3144,2.88483 -5.4724,-1.22584 58.9516,35.70628 29.9625,17.17648 56.1647,32.3179 58.2272,33.64761 3.0989,1.99786 3.75,2.99599 3.75,5.74847 0,1.91868 -0.7419,3.98395 -1.75,4.87135 -1.711,1.50619 -57.9813,33.06592 -68.0803,38.18348 -6.1971,3.14027 -10.42,3.26608 -15.6845,0.46728 z M 3.793586,428.47727 c -1.7752,-0.9809 -2.90710002,-2.61056 -3.28970002,-4.73636 -0.3209,-1.7825 -0.453,-43.51591 -0.2936,-92.74091 l 0.2897,-89.5 2.24300002,-3.14461 c 1.6464,-2.30809 17.8138,-12.10043 60.7764,-36.8112 32.1933,-18.51663 59.893694,-34.14085 61.556494,-34.72049 1.6627,-0.57964 4.3207,-0.79439 5.9065,-0.47722 3.5557,0.71114 117.4451,65.99358 121.2899,69.52449 1.5248,1.40029 3.234,4.13966 3.7982,6.0875 0.6775,2.33888 0.9246,34.21922 0.7277,93.88007 l -0.2982,90.33855 -2.4368,1.97299 c -1.5354,1.24319 -3.2617,1.76594 -4.6669,1.41324 -4.6782,-1.17415 -72.7121,-41.09338 -74.793,-43.88515 -2.0484,-2.74821 -2.1163,-4.02653 -2.6033,-49 -0.3501,-32.33765 -0.8471,-46.77761 -1.6582,-48.17817 -2.0622,-3.5611 -5.5764,-6.05218 -21.0852,-14.94647 -17.4032,-9.9807 -20.7014,-10.8894 -27.3338,-7.53086 -13.341,6.75569 -32.160594,18.50203 -34.180594,21.33395 -2.2277,3.12309 -2.2454,3.44558 -2.7422,49.97143 l -0.5,46.82805 -3.5,3.206 c -3.4595,3.16888 -69.5604,41.50919 -72.8156,42.23503 -0.9264,0.20657 -2.9023,-0.29737 -4.3908,-1.11986 z M 516.99998,354.5 c 0,-33.275 0.2023,-60.5 0.4495,-60.5 0.2472,0 2.5507,2.94466 5.1189,6.54368 2.5682,3.59903 5.1123,6.39609 5.6535,6.21569 0.5412,-0.1804 9.1502,-15.04534 19.1311,-33.03321 9.9808,-17.98786 18.6607,-32.70992 19.2886,-32.71568 0.6279,-0.006 1.4498,1.21755 1.8265,2.71847 0.3767,1.50092 0.5822,33.56342 0.4566,71.25 -0.1985,59.57421 -0.4294,68.87487 -1.7684,71.23083 -1.0429,1.83513 -7.2073,5.9197 -19.0981,12.6545 -16.5516,9.37459 -29.344,16.13572 -30.5297,16.13572 -0.2907,0 -0.5285,-27.225 -0.5285,-60.5 z m -192.8467,-98.3642 -7.3466,-3.6358 0.4508,-4.76013 c 0.4017,-4.24125 2.8449,-8.73987 4.7466,-8.73987 0.7723,0 10.3726,19.97466 9.8352,20.46321 -0.1866,0.16961 -3.6453,-1.32772 -7.686,-3.32741 z"
     style="fill:#5a5a5a" />
  <path
     inkscape:connector-curvature="0"
     id="path4142"
     d="m 749.91518,458.09453 c -5.2058,-2.79012 -100.0107,-57.49265 -109.4859,-63.17344 -4.8509,-2.90833 -8.5412,-5.87134 -9.25,-7.42698 -0.8698,-1.90896 -1.1783,-20.88131 -1.1756,-72.29116 0,-66.26648 0.096,-69.85085 1.8679,-72.70295 1.4157,-2.27835 16.1645,-11.23889 61.3121,-37.25 52.6425,-30.32916 59.9354,-34.25 63.7057,-34.25 3.5457,0 6.853,1.50531 19.774,9 16.0645,9.31798 19.6989,10.4671 22.6816,7.17126 1.5138,-1.6727 1.655,-9.38926 1.655,-90.4349 0,-65.000945 0.3094,-89.3561197 1.1615,-91.4212597 0.6388,-1.548305 1.0888,-3.1526 1,-3.5651 -0.089,-0.4125 0.2517,-0.75 0.7567,-0.75 0.505,0 1.572,-0.25087995 2.3711,-0.55750995 0.799,-0.30663 2.1731,0.16272 3.0533,1.04300995 0.8803,0.88029 16.5759,9.9437497 34.879,20.1410247 18.3031,10.197275 34.6284,19.861541 36.2784,21.476147 l 3,2.935649 0.2586,169.320279 0.2585,169.32027 -2.2834,3.38833 c -2.2356,3.31738 -15.0271,10.95912 -102.1814,61.04411 -20.5659,11.81856 -22.9811,12.55063 -29.6371,8.98322 z m 27.1371,-103.21278 c 10.6962,-6.11503 20.4602,-12.04347 21.6977,-13.17431 2.2144,-2.02352 2.25,-2.43807 2.25,-26.19062 0,-17.78986 -0.3286,-24.55409 -1.25,-25.73041 C 798.00328,287.55647 758.74078,265 756.60588,265 c -2.1338,0 -41.6082,22.57482 -43.3559,24.79459 -0.9217,1.17066 -1.25,7.93187 -1.25,25.74155 0,22.66435 0.1201,24.26254 1.9469,25.91582 2.4665,2.23216 41.1911,24.54179 42.6054,24.54537 0.5787,0.001 9.8037,-5.00054 20.5,-11.11558 z m -338.0523,102.38993 c -1.939,-0.73738 -117.099,-67.17307 -118.75,-68.5068 -0.6875,-0.55538 -1.25,-1.89249 -1.25,-2.97138 0,-2.62709 41.0865,-74.7935 42.5822,-74.7935 0.6451,0 1.6377,0.5625 2.2057,1.25 0.568,0.6875 14.2906,25.55 30.4946,55.25 16.204,29.7 33.7872,61.81697 39.0738,71.37105 10.0583,18.17747 10.7187,20.33056 5.6437,18.40063 z m 595.93712,-18.6794 c -71.29752,-40.46064 -86.41992,-49.35838 -88.40312,-52.01461 -2.0001,-2.67899 -2.034,-3.8927 -2.034,-72.9223 0,-69.13918 0.031,-70.24034 2.0457,-73.00631 1.335,-1.83261 22.5289,-14.6474 61.00002,-36.88339 48.9005,-28.26402 59.7217,-34.14379 63.4543,-34.47814 4.3575,-0.39032 6.3371,0.66359 62.5,33.27404 31.9,18.52243 59.2375,34.83262 60.75,36.24487 1.5125,1.41226 2.75,3.18511 2.75,3.93967 0,0.75456 0.45,1.09381 1,0.75389 0.6544,-0.40443 1,6.54517 1,20.10765 0,11.39913 -0.282,20.4437 -0.6266,20.09905 -0.3447,-0.34465 -1.5822,0.75588 -2.75,2.44563 -1.5041,2.17617 -12.3319,8.98377 -37.1234,23.33992 -19.25,11.14721 -35.9895,20.56969 -37.1988,20.93885 -1.5299,0.467 -2.8229,0.0472 -4.25,-1.37995 -1.92,-1.91992 -2.0512,-3.23116 -2.0512,-20.49539 0,-17.71999 -0.088,-18.54239 -2.25,-20.94409 C 1109.16,283.623 1074.0539,264 1070.5081,264 c -3.5081,0 -38.6058,19.63721 -42.2581,23.64346 -2.1988,2.41196 -2.25,2.99977 -2.25,25.85654 0,22.85178 0.052,23.44549 2.25,25.87336 1.2375,1.36668 28.35,17.4317 60.25,35.70003 31.9,18.26833 58.3422,33.71273 58.7605,34.32088 0.4183,0.60815 0.6433,2.4485 0.5,4.08967 -0.2468,2.82675 -2.1833,4.05135 -36.7605,23.24625 -28.2936,15.70668 -37.3011,20.26314 -40.0629,20.26605 -2.784,0.003 -10.6553,-4.02106 -36,-18.40396 z M 4.350686,427.53308 c -1.1484,-0.80436 -2.3003,-1.25013 -2.5598,-0.9906 -0.7506,0.75056 -1.93880002,-179.68779 -1.20690002,-183.27625 0.3627,-1.77857 0.98690002,-3.03143 1.38700002,-2.78413 0.4002,0.2473 1.2914,-0.60394 1.9806,-1.89165 1.5582,-2.91154 118.564894,-70.47545 123.410694,-71.26182 4.2604,-0.69136 2.2426,-1.76372 68.6268,36.47137 33.9671,19.5639 56.269,33.00452 57.5,34.65326 1.9806,2.6528 2.0109,4.08586 2.0109,95.07007 0,68.26206 -0.3001,92.67675 -1.1495,93.5262 -0.6323,0.63224 -2.2439,1.21724 -3.5814,1.3 -3.2715,0.20242 -73.2364,-39.9215 -75.5549,-43.32969 -1.5393,-2.26269 -1.7652,-7.26513 -2.2142,-49.01984 -0.4683,-43.5543 -0.6203,-46.67746 -2.3987,-49.30137 -1.8518,-2.73229 -16.535,-12.00422 -31.5938,-19.95041 -10.433,-5.50522 -11.8851,-5.22083 -31.586,6.1859 -17.801294,10.30687 -20.995194,12.8721 -22.422294,18.00903 -0.5808,2.09099 -0.9903,21.52632 -0.9936,47.15897 -0.01,43.57427 -0.01,43.60421 -2.2556,46.88162 -1.696,2.47199 -10.745,8.13838 -36.75,23.01242 -18.975,10.8531 -35.4138,20.01787 -36.5307,20.36615 -1.1469,0.35765 -2.9394,-0.003 -4.1186,-0.82923 z M 516.99998,354.5 c 0,-33.275 0.2023,-60.5 0.4495,-60.5 0.2472,0 2.5507,2.94466 5.1189,6.54368 2.5682,3.59903 5.1123,6.39609 5.6535,6.21569 0.5412,-0.1804 9.1502,-15.04534 19.1311,-33.03321 9.9808,-17.98786 18.6607,-32.70992 19.2886,-32.71568 0.6279,-0.006 1.4498,1.21755 1.8265,2.71847 0.3767,1.50092 0.5822,33.56342 0.4566,71.25 -0.1985,59.57421 -0.4294,68.87487 -1.7684,71.23083 -1.0429,1.83513 -7.2073,5.9197 -19.0981,12.6545 -16.5516,9.37459 -29.344,16.13572 -30.5297,16.13572 -0.2907,0 -0.5285,-27.225 -0.5285,-60.5 z m -192.8467,-98.3642 -7.3466,-3.6358 0.4508,-4.76013 c 0.4017,-4.24125 2.8449,-8.73987 4.7466,-8.73987 0.7723,0 10.3726,19.97466 9.8352,20.46321 -0.1866,0.16961 -3.6453,-1.32772 -7.686,-3.32741 z"
     style="fill:#423b38;fill-opacity:1" />
  <path
     inkscape:connector-curvature="0"
     id="path4140"
     d="m 749.91518,458.09453 c -5.2058,-2.79012 -100.0107,-57.49265 -109.4859,-63.17344 -4.8509,-2.90833 -8.5412,-5.87134 -9.25,-7.42698 -0.8698,-1.90896 -1.1783,-20.88131 -1.1756,-72.29116 0,-66.26648 0.096,-69.85085 1.8679,-72.70295 1.4157,-2.27835 16.1645,-11.23889 61.3121,-37.25 52.6425,-30.32916 59.9354,-34.25 63.7057,-34.25 3.5457,0 6.853,1.50531 19.774,9 16.0645,9.31798 19.6989,10.4671 22.6816,7.17126 1.5138,-1.6727 1.655,-9.38926 1.655,-90.4349 0,-65.000945 0.3094,-89.3561197 1.1615,-91.4212597 0.6388,-1.548305 1.0888,-3.1526 1,-3.5651 -0.089,-0.4125 0.2517,-0.75 0.7567,-0.75 0.505,0 1.572,-0.25087995 2.3711,-0.55750995 0.799,-0.30663 2.1731,0.16272 3.0533,1.04300995 0.8803,0.88029 16.5759,9.9437497 34.879,20.1410247 18.3031,10.197275 34.6284,19.861541 36.2784,21.476147 l 3,2.935649 0.2586,169.320279 0.2585,169.32027 -2.2834,3.38833 c -2.2356,3.31738 -15.0271,10.95912 -102.1814,61.04411 -20.5659,11.81856 -22.9811,12.55063 -29.6371,8.98322 z m 27.1371,-103.21278 c 10.6962,-6.11503 20.4602,-12.04347 21.6977,-13.17431 2.2144,-2.02352 2.25,-2.43807 2.25,-26.19062 0,-17.78986 -0.3286,-24.55409 -1.25,-25.73041 C 798.00328,287.55647 758.74078,265 756.60588,265 c -2.1338,0 -41.6082,22.57482 -43.3559,24.79459 -0.9217,1.17066 -1.25,7.93187 -1.25,25.74155 0,22.66435 0.1201,24.26254 1.9469,25.91582 2.4665,2.23216 41.1911,24.54179 42.6054,24.54537 0.5787,0.001 9.8037,-5.00054 20.5,-11.11558 z m 257.88482,83.71053 c -71.29752,-40.46064 -86.41992,-49.35838 -88.40312,-52.01461 -2.0001,-2.67899 -2.034,-3.8927 -2.034,-72.9223 0,-69.13918 0.031,-70.24034 2.0457,-73.00631 1.335,-1.83261 22.5289,-14.6474 61.00002,-36.88339 48.9005,-28.26402 59.7217,-34.14379 63.4543,-34.47814 4.3575,-0.39032 6.3371,0.66359 62.5,33.27404 31.9,18.52243 59.2375,34.83262 60.75,36.24487 1.5125,1.41226 2.75,3.18511 2.75,3.93967 0,0.75456 0.45,1.09381 1,0.75389 0.6544,-0.40443 1,6.54517 1,20.10765 0,11.39913 -0.282,20.4437 -0.6266,20.09905 -0.3447,-0.34465 -1.5822,0.75588 -2.75,2.44563 -1.5041,2.17617 -12.3319,8.98377 -37.1234,23.33992 -19.25,11.14721 -35.9895,20.56969 -37.1988,20.93885 -1.5299,0.467 -2.8229,0.0472 -4.25,-1.37995 -1.92,-1.91992 -2.0512,-3.23116 -2.0512,-20.49539 0,-17.71999 -0.088,-18.54239 -2.25,-20.94409 C 1109.16,283.623 1074.0539,264 1070.5081,264 c -3.5081,0 -38.6058,19.63721 -42.2581,23.64346 -2.1988,2.41196 -2.25,2.99977 -2.25,25.85654 0,22.85178 0.052,23.44549 2.25,25.87336 1.2375,1.36668 28.35,17.4317 60.25,35.70003 31.9,18.26833 58.3422,33.71273 58.7605,34.32088 0.4183,0.60815 0.6433,2.4485 0.5,4.08967 -0.2468,2.82675 -2.1833,4.05135 -36.7605,23.24625 -28.2936,15.70668 -37.3011,20.26314 -40.0629,20.26605 -2.784,0.003 -10.6553,-4.02106 -36,-18.40396 z M 4.350686,427.53308 c -1.1484,-0.80436 -2.3003,-1.25013 -2.5598,-0.9906 -0.7506,0.75056 -1.93880002,-179.68779 -1.20690002,-183.27625 0.3627,-1.77857 0.98690002,-3.03143 1.38700002,-2.78413 0.4002,0.2473 1.2914,-0.60394 1.9806,-1.89165 1.5582,-2.91154 118.564894,-70.47545 123.410694,-71.26182 4.2604,-0.69136 2.2426,-1.76372 68.6268,36.47137 33.9671,19.5639 56.269,33.00452 57.5,34.65326 1.9806,2.6528 2.0109,4.08586 2.0109,95.07007 0,68.26206 -0.3001,92.67675 -1.1495,93.5262 -0.6323,0.63224 -2.2439,1.21724 -3.5814,1.3 -3.2715,0.20242 -73.2364,-39.9215 -75.5549,-43.32969 -1.5393,-2.26269 -1.7652,-7.26513 -2.2142,-49.01984 -0.4683,-43.5543 -0.6203,-46.67746 -2.3987,-49.30137 -1.8518,-2.73229 -16.535,-12.00422 -31.5938,-19.95041 -10.433,-5.50522 -11.8851,-5.22083 -31.586,6.1859 -17.801294,10.30687 -20.995194,12.8721 -22.422294,18.00903 -0.5808,2.09099 -0.9903,21.52632 -0.9936,47.15897 -0.01,43.57427 -0.01,43.60421 -2.2556,46.88162 -1.696,2.47199 -10.745,8.13838 -36.75,23.01242 -18.975,10.8531 -35.4138,20.01787 -36.5307,20.36615 -1.1469,0.35765 -2.9394,-0.003 -4.1186,-0.82923 z"
     style="fill:#ffd39e;fill-opacity:1" />
</svg>
