<?xml version="1.0" encoding="UTF-8" standalone="no"?>
<!-- Created with Inkscape (http://www.inkscape.org/) -->

<svg
   xmlns:dc="http://purl.org/dc/elements/1.1/"
   xmlns:cc="http://creativecommons.org/ns#"
   xmlns:rdf="http://www.w3.org/1999/02/22-rdf-syntax-ns#"
   xmlns:svg="http://www.w3.org/2000/svg"
   xmlns="http://www.w3.org/2000/svg"
   xmlns:sodipodi="http://sodipodi.sourceforge.net/DTD/sodipodi-0.dtd"
   xmlns:inkscape="http://www.inkscape.org/namespaces/inkscape"
   id="svg4842"
   version="1.1"
   inkscape:version="0.91 r13725"
   width="167.52348"
   height="146.56625"
   viewBox="0 0 167.52348 146.56625"
   sodipodi:docname="Photography.svg">
  <metadata
     id="metadata4848">
    <rdf:RDF>
      <cc:Work
         rdf:about="">
        <dc:format>image/svg+xml</dc:format>
        <dc:type
           rdf:resource="http://purl.org/dc/dcmitype/StillImage" />
        <dc:title />
      </cc:Work>
    </rdf:RDF>
  </metadata>
  <defs
     id="defs4846" />
  <sodipodi:namedview
     pagecolor="#ffffff"
     bordercolor="#666666"
     borderopacity="1"
     objecttolerance="10"
     gridtolerance="10"
     guidetolerance="10"
     inkscape:pageopacity="0"
     inkscape:pageshadow="2"
     inkscape:window-width="1547"
     inkscape:window-height="876"
     id="namedview4844"
     showgrid="false"
     fit-margin-top="0"
     fit-margin-left="0"
     fit-margin-right="0"
     fit-margin-bottom="0"
     inkscape:zoom="3.2130435"
     inkscape:cx="-25.55345"
     inkscape:cy="104.68939"
     inkscape:window-x="53"
     inkscape:window-y="24"
     inkscape:window-maximized="1"
     inkscape:current-layer="svg4842" />
  <path
     style="fill:#ffb458;fill-opacity:0.98823529"
     d="m 94.177378,146.01768 c -2.65244,-0.47996 -6.207089,-1.35529 -7.899219,-1.94517 C 84.306509,143.38519 70.134709,143 46.818659,143 7.712261,143 5.292469,142.72006 2.159382,137.83353 1.336483,136.55009 0.513982,134.375 0.331601,133 L 0,130.5 31.783719,130 l 31.78373,-0.5 -2.28373,-2 C 59.140899,125.6234 57.179889,125.46915 29.5,125 L 0,124.5 0,86.000003 0,47.499999 l 35.499999,-0.5 c 34.62089,-0.48762 35.58653,-0.55541 38.9944,-2.73774 l 3.4944,-2.23773 -37.9944,-0.26227 L 2,41.499999 1.8334,34.924069 c -0.09163,-3.61676 0.144173,-7.07876 0.524007,-7.69335 0.379834,-0.61458 3.379804,-1.25542 6.6666,-1.42407 3.286796,-0.16866 5.787452,-0.53165 5.557013,-0.80665 -0.230439,-0.275 0.131458,-1.5285 0.804214,-2.78556 1.162904,-2.1729 1.701084,-2.27148 10.91898,-2 l 9.695785,0.28556 0.31642,2.75 c 0.48088,4.17924 3.00653,3.4305 3.37322,-1 l 0.31036,-3.75 11,0 11,0 0.31037,3.75 c 0.30631,3.70107 0.36622,3.75 4.59167,3.75 l 4.28131,0 1.80427,-5.95912 c 0.99236,-3.27752 3.55388,-9.127522 5.69227,-13.000003 L 82.567879,0 l 22.374291,0 22.37429,0 3.5262,6.41514 c 1.93942,3.528326 4.04259,8.140829 4.67372,10.249999 l 1.14751,3.83486 10.16806,0 10.16805,0 0.31642,2.75 c 0.27751,2.41183 0.74383,2.75 3.79207,2.75 l 3.47564,0 -0.29207,7.75 -0.29206,7.75 -17.97512,0.27399 -17.97511,0.27399 3.47511,2.22601 c 3.1153,1.99552 5.13181,2.27778 19.47512,2.72601 l 16,0.5 0.26174,38.750004 0.26175,38.749997 -10.33743,0 c -9.73363,0 -10.47461,0.14602 -12.68606,2.5 l -2.34863,2.5 12.1153,0 c 6.66341,0 12.38117,0.43019 12.70613,0.95598 1.12725,1.82394 -2.36965,8.01072 -5.66262,10.01839 -2.98431,1.81948 -5.03295,2.01959 -20.81018,2.03272 -12.76261,0.0106 -18.85354,0.42602 -22.5,1.53451 -6.30479,1.9166 -17.54078,2.61279 -23.822622,1.47608 z m 22.391122,-4.63012 c 13.90719,-4.12859 26.90812,-14.44851 32.34629,-25.67596 5.46609,-11.28508 7.1224,-26.346977 4.13257,-37.580177 -6.0309,-22.658964 -26.85287,-38.471524 -50.47242,-38.329614 -23.833341,0.14319 -45.266371,17.341 -50.183071,40.266774 -1.47603,6.8825 -0.63231,22.164587 1.56968,28.431417 4.01897,11.43785 14.25682,23.22178 24.96918,28.73991 11.182109,5.76011 26.514661,7.44974 37.637771,4.14765 z m -22.068502,-8.1026 c -6.021829,-1.06629 -16.715749,-7.29116 -21.847639,-12.71738 -14.35492,-15.17821 -16.06561,-35.806827 -4.42388,-53.345841 15.18131,-22.87161 49.908381,-24.22653 67.527361,-2.63468 5.65524,6.93044 8.50654,14.006484 9.36475,23.240454 1.15629,12.441227 -2.45545,22.639757 -11.4634,32.369417 -10.0776,10.88502 -24.45656,15.69109 -39.157192,13.08803 z m 19.550812,-16.25144 c 14.58457,-6.28213 20.9043,-23.735467 13.92218,-38.449187 -6.07319,-12.798304 -24.19306,-18.819514 -37.036452,-12.307174 -5.802139,2.94203 -11.648079,8.96463 -14.026669,14.450564 -2.55557,5.8941 -2.30815,16.76094 0.50709,22.272277 7.31445,14.31936 22.481499,20.12948 36.633851,14.03352 z M 110.88,109.54789 C 110.11693,107.55934 111.24736,106 113.45203,106 c 1.96581,0 3.02661,1.71664 2.31733,3.75 -0.60152,1.72445 -4.20726,1.5754 -4.88936,-0.20211 z M 115.7,103.8 c -0.66,-0.66 -1.2,-2.2495 -1.2,-3.53222 0,-2.742047 3.56781,-4.519917 6.25,-3.114427 3.32865,1.74425 1.57881,7.846647 -2.25,7.846647 -0.88,0 -2.14,-0.54 -2.8,-1.2 z m -65.200001,-69.800001 0,-5 -12,0 -11.999999,0 0,5 0,5 11.999999,0 12,0 0,-5 z m 81.618801,-8.54096 c 1.32376,-2.02032 1.43852,-3.03782 0.56007,-4.9658 l -1.10483,-2.42484 -24.78702,-0.2842 c -15.025682,-0.17228 -25.771541,0.11252 -27.287021,0.72319 -3.03383,1.2225 -3.84164,5.50811 -1.48286,7.86689 1.41564,1.41564 4.90871,1.62572 27.031241,1.62572 l 25.40551,0 1.66491,-2.54096 z"
     id="path4852"
     inkscape:connector-curvature="0" />
</svg>
