<?xml version="1.0" encoding="UTF-8" standalone="no"?>
<!-- Created with Inkscape (http://www.inkscape.org/) -->

<svg
   xmlns:dc="http://purl.org/dc/elements/1.1/"
   xmlns:cc="http://creativecommons.org/ns#"
   xmlns:rdf="http://www.w3.org/1999/02/22-rdf-syntax-ns#"
   xmlns:svg="http://www.w3.org/2000/svg"
   xmlns="http://www.w3.org/2000/svg"
   xmlns:sodipodi="http://sodipodi.sourceforge.net/DTD/sodipodi-0.dtd"
   xmlns:inkscape="http://www.inkscape.org/namespaces/inkscape"
   id="svg4190"
   version="1.1"
   inkscape:version="0.91 r13725"
   width="246"
   height="204"
   viewBox="0 0 246 204"
   sodipodi:docname="Projects.svg">
  <metadata
     id="metadata4196">
    <rdf:RDF>
      <cc:Work
         rdf:about="">
        <dc:format>image/svg+xml</dc:format>
        <dc:type
           rdf:resource="http://purl.org/dc/dcmitype/StillImage" />
        <dc:title />
      </cc:Work>
    </rdf:RDF>
  </metadata>
  <defs
     id="defs4194" />
  <sodipodi:namedview
     pagecolor="#ffffff"
     bordercolor="#666666"
     borderopacity="1"
     objecttolerance="10"
     gridtolerance="10"
     guidetolerance="10"
     inkscape:pageopacity="0"
     inkscape:pageshadow="2"
     inkscape:window-width="1547"
     inkscape:window-height="876"
     id="namedview4192"
     showgrid="false"
     inkscape:zoom="1.8112745"
     inkscape:cx="45.918532"
     inkscape:cy="54.422326"
     inkscape:window-x="53"
     inkscape:window-y="24"
     inkscape:window-maximized="1"
     inkscape:current-layer="svg4190" />
  <path
     style="fill:#ffb458;fill-opacity:1"
     d="m -6.4999999e-7,190.697 0,-13.30299 L 3.2000224,172.947 c 1.7600133,-2.44585 6.9331926,-9.48499 11.4959556,-15.64254 7.509765,-10.13459 8.20155,-11.44378 7.299977,-13.8151 C 21.37207,141.84842 21,116.78611 21,76.402781 21,5.8444245 20.839359,7.8372935 26.940751,2.7033105 l 3.2127,-2.703308 91.420389,0 91.4204,0 3.99335,3.607753 c 2.46911,2.230693 4.38955,5.079132 5.03136,7.4626065 1.58591,5.88964 0.87604,131.147798 -0.75438,133.111488 -1.03161,1.24248 0.90689,4.08364 11.75,17.22141 L 246,177.1367 246,190.56835 246,204 123,204 -6.4999998e-7,204 l 0,-13.303 z M 239,190 l 0,-7 -116,0 -116.0000003,0 0,7 0,7 L 123,197 l 116,0 0,-7 z m -5.67742,-16.2874 c -14.88261,-18.67817 -17.82793,-21.80782 -19.80202,-21.04122 -1.11131,0.43156 -42.00976,0.91421 -90.88545,1.07256 -75.031049,0.24309 -89.306424,0.0676 -91.701172,-1.12701 -2.681068,-1.33749 -2.930288,-1.26996 -4.554164,1.23407 -0.944837,1.45695 -4.989903,7.0365 -8.989035,12.399 l -7.271149,9.75 112.51279,0 112.51278,0 -1.82258,-2.2874 z M 34.222506,168.4433 c -3.351184,-2.34726 -3.115175,-8.15341 0.385523,-9.48437 1.670614,-0.63517 33.49369,-0.89585 88.536651,-0.72525 93.88385,0.29098 87.80543,-0.12142 87.84001,5.95962 C 211.01909,170.2479 214.83944,170 121.5,170 46.137063,170 36.191757,169.82261 34.222506,168.4433 Z M 211.92742,142.36514 C 213.97458,139.7626 214,138.95446 214,76.475931 c 0,-60.789892 -0.0745,-63.34634 -1.91165,-65.615145 l -1.91164,-2.3607835 -88.66897,0 c -86.618437,0 -88.701787,0.04489 -90.088351,1.9411295 C 30.228374,12.069941 30,22.729321 30,76.691131 30,139.66667 30.04147,141.04147 32,143 c 1.969672,1.96967 3.333333,2 89.92742,2 l 87.92742,0 2.07258,-2.63486 z M 42.241797,135.1706 c -0.992178,-0.62989 -1.20361,-13.04831 -1,-58.734689 L 41.5,18.500002 119.89015,18.243874 c 57.08194,-0.186506 78.75979,0.05064 79.75,0.872445 1.87746,1.558152 2.03257,113.810961 0.15985,115.683681 -0.91297,0.91297 -19.74939,1.19634 -78.75,1.18469 -42.652501,-0.008 -78.116191,-0.37476 -78.808203,-0.81409 z M 194,77.000001 l 0,-50.999999 -73,0 -73,0 0,50.999999 L 48,128 l 73,0 73,0 0,-50.999999 z M 96.606991,120.41821 c -0.33384,-0.86998 -0.60699,-2.86284 -0.60699,-4.42857 0,-2.80751 -2.19848,-5.98964 -4.138152,-5.98964 -0.54741,0 -2.5577,1.19171 -4.46732,2.64824 -3.15575,2.40701 -3.70392,2.52414 -6.01774,1.28582 -3.13706,-1.67891 -8.37679,-7.52513 -8.37679,-9.34641 0,-0.73852 0.69957,-1.92335 1.5546,-2.63296 2.40534,-1.996263 3.61665,-4.839778 2.95275,-6.931538 -0.42779,-1.34785 -2.20275,-2.23332 -6.0976,-3.04189 l -5.49415,-1.14058 0.2922,-7.16379 0.2922,-7.1638 5,-0.89743 c 7.17583,-1.28797 8.19837,-3.44381 4,-8.43329 -1.375,-1.63409 -2.5,-3.63631 -2.5,-4.44937 0,-1.69899 8.3644,-9.733 10.13327,-9.733 0.64787,0 2.6898,1.15314 4.53761,2.56254 5.42481,4.1377 7.774812,2.47235 8.554922,-6.06254 0.27308,-2.9877 0.3028,-3.00123 7.250439,-3.30085 7.92126,-0.3416 9.52376,0.74484 9.52376,6.4568 0,4.97101 3.0526,6.16845 7.35649,2.88571 4.94655,-3.77291 5.99956,-3.43167 13.04252,4.22657 l 2.89901,3.15227 -2.74318,3.59649 c -3.75432,4.92216 -2.96351,8.15868 2.20322,9.01712 6.52999,1.08494 6.35464,0.83236 6.03604,8.69488 l -0.2941,7.25792 -4.75849,0.86628 c -3.8704,0.7046 -4.8735,1.32452 -5.37474,3.32162 -0.45779,1.82397 0.0587,3.15983 2.00849,5.194988 C 134.81887,102.3766 136,104.04935 136,104.58703 136,105.80365 127.01729,115 125.82893,115 c -0.47777,0 -2.68575,-1.14707 -4.90661,-2.54904 C 115.63426,109.11276 113,109.83836 113,114.63313 113,121.00355 111.79236,122 104.07181,122 c -5.330949,0 -6.992979,-0.35218 -7.464819,-1.58179 z M 110.12788,96.588911 c 7.13397,-2.98527 10.60269,-12.10143 7.07311,-18.58891 -5.18298,-9.52647 -16.53837,-10.715419 -24.184321,-2.53219 -3.30442,3.53662 -3.59302,13.1115 -0.5,16.588801 5.063122,5.692179 11.116531,7.250045 17.611211,4.5323 z M 144.25,73.825101 c -3.70094,-2.28798 -3.7818,-2.61656 -1.80704,-7.34283 1.27019,-3.04 1.26164,-3.63481 -0.0714,-4.96788 -0.83294,-0.83291 -2.41186,-1.51439 -3.50873,-1.51439 -4.06824,0 -5.86283,-1.85492 -5.86283,-6.05993 0,-3.36241 0.40323,-4.14288 2.5651,-4.96482 1.4108,-0.53639 3.61266,-0.97525 4.89301,-0.97525 3.09815,0 3.77829,-2.18997 2.0011,-6.44338 C 141.65665,39.635811 141,37.831171 141,37.546311 c 0,-0.28486 1.86171,-1.74996 4.13714,-3.25576 l 4.13714,-2.73783 3.21884,3.72364 c 1.77036,2.048 3.71074,3.72364 4.31197,3.72364 0.60122,0 2.29444,-1.575 3.76271,-3.5 1.46827,-1.925 3.07582,-3.5 3.57233,-3.5 0.49651,0 2.6713,1.17037 4.83287,2.60083 l 3.93012,2.60083 -1.55933,3.89714 c -2.08451,5.20972 -1.35511,6.52246 4.07668,7.337 l 4.57953,0.68675 0,4.92691 0,4.92691 -3.98112,0.6366 c -5.65661,0.904531 -6.67201,2.49664 -4.73585,7.425641 l 1.56762,3.990769 -3.65746,2.48531 c -4.69105,3.187651 -5.65811,3.12805 -8.35131,-0.51469 -1.2199,-1.65 -2.99337,-3 -3.94104,-3 -0.94768,0 -2.859,1.35 -4.24739,3 -2.91848,3.46842 -3.962,3.57088 -8.40345,0.825101 z m 17.29545,-15.27964 c 2.97592,-2.97592 3.12987,-5.87014 0.45455,-8.54546 -4.12174,-4.12174 -12.01687,-1.54926 -11.98469,3.90499 0.0181,3.07227 0.78365,4.3684 3.48469,5.90007 3.10989,1.7635 5.37734,1.40851 8.04545,-1.2596 z"
     id="path4200"
     inkscape:connector-curvature="0" />
</svg>
