<?xml version="1.0" encoding="UTF-8" standalone="no"?>
<!-- Created with Inkscape (http://www.inkscape.org/) -->

<svg
   xmlns:dc="http://purl.org/dc/elements/1.1/"
   xmlns:cc="http://creativecommons.org/ns#"
   xmlns:rdf="http://www.w3.org/1999/02/22-rdf-syntax-ns#"
   xmlns:svg="http://www.w3.org/2000/svg"
   xmlns="http://www.w3.org/2000/svg"
   xmlns:sodipodi="http://sodipodi.sourceforge.net/DTD/sodipodi-0.dtd"
   xmlns:inkscape="http://www.inkscape.org/namespaces/inkscape"
   id="svg3387"
   version="1.1"
   inkscape:version="0.91 r13725"
   width="364.91983"
   height="368.24408"
   viewBox="0 0 364.91983 368.24408"
   sodipodi:docname="SoftwareDevelopment.svg">
  <metadata
     id="metadata3393">
    <rdf:RDF>
      <cc:Work
         rdf:about="">
        <dc:format>image/svg+xml</dc:format>
        <dc:type
           rdf:resource="http://purl.org/dc/dcmitype/StillImage" />
        <dc:title></dc:title>
      </cc:Work>
    </rdf:RDF>
  </metadata>
  <defs
     id="defs3391" />
  <sodipodi:namedview
     pagecolor="#ffffff"
     bordercolor="#666666"
     borderopacity="1"
     objecttolerance="10"
     gridtolerance="10"
     guidetolerance="10"
     inkscape:pageopacity="0"
     inkscape:pageshadow="2"
     inkscape:window-width="1547"
     inkscape:window-height="876"
     id="namedview3389"
     showgrid="false"
     inkscape:zoom="1.3537614"
     inkscape:cx="178.87762"
     inkscape:cy="235.68405"
     inkscape:window-x="53"
     inkscape:window-y="24"
     inkscape:window-maximized="1"
     inkscape:current-layer="svg3387"
     fit-margin-top="0"
     fit-margin-left="0"
     fit-margin-right="0"
     fit-margin-bottom="0" />
  <path
     style="fill:#ffd39e;fill-opacity:1"
     d="M 21.940833,367.12787 C 8.4736132,362.82823 0.12752319,351.73908 0.00390319,337.98109 c -0.0538,-5.98602 0.41994,-8.00037 3.21920001,-13.68826 5.93556,-12.06066 14.3083598,-16.75321 31.3320698,-17.5601 l 10.88566,-0.51596 0,-29.38977 c 0,-22.654 -0.28648,-29.47191 -1.25,-29.74817 -15.52734,-4.45202 -25.46074,-13.24555 -29.8628,-26.436 -1.70678,-5.11423 -2.04004,-8.06281 -1.70451,-15.08085 0.51412,-10.75308 3.74415,-18.10409 11.25893,-25.62341 4.68085,-4.68367 14.52702,-10.43857 17.85955,-10.43857 1.02931,0 1.56569,-1.75252 1.93161,-6.3112 0.95542,-11.90253 7.92615,-22.16392 18.62571,-27.41833 L 67.940833,133 l 32.499997,-0.28752 32.5,-0.28752 24.25,-24.20483 24.25,-24.204826 0,-11.25765 0,-11.257654 -34.01445,0 -34.01445,0 0.26445,-30.75 0.26445,-30.75 73.5,0 73.5,0 0.26445,30.75 0.26445,30.75 -34.01445,0 -34.01445,0 0,11.257654 0,11.25765 24.2575,24.242346 24.2575,24.24235 30.76748,0 c 34.92342,0 37.96138,0.5097 46.64487,7.82599 5.50034,4.63432 10.77057,14.43441 11.82827,21.99493 0.74306,5.3115 0.75325,5.32392 5.75744,7.01612 11.41703,3.86075 19.47538,10.81687 24.15749,20.85318 10.4391,22.37667 -1.412,48.18402 -25.42055,55.35665 l -4.25,1.26971 0,17.34171 0,17.34171 15.5,0 15.5,0 0,36.96223 0,36.96223 -37,0.0505 -37,0.0505 0,-13.5127 0,-13.5127 -33.91667,0 c -21.21574,0 -34.04149,0.36635 -34.25,0.9783 -0.18333,0.53806 -0.19131,5.47098 -0.0177,10.96202 l 0.31559,9.98373 8.67383,0.28797 c 8.4445,0.28037 8.71005,0.36372 10.04397,3.15274 1.22453,2.5603 1.16109,3.14483 -0.59697,5.5 l -1.96712,2.63524 -36.12999,0.26246 c -35.05348,0.25464 -36.18995,0.2025 -38.14245,-1.75 -2.41456,-2.41456 -2.5538,-4.79457 -0.45576,-7.78995 1.41134,-2.01496 2.39187,-2.22251 10.5,-2.22251 l 8.9433,0 0,-30 0,-30 -15.5,0 -15.5,0 0,-15.5 0,-15.5 -27.04545,0 -27.045456,0 -2.45454,2.45455 c -2.45059,2.45049 -2.45458,2.48871 -2.45458,23.49994 l 0,21.04545 9.363506,0 c 16.47563,0 24.0195,2.34537 31.46645,9.78284 6.27101,6.26302 8.62867,12.06031 8.62867,21.21716 0,5.54065 -0.55912,8.7215 -2.14021,12.17567 -3.01629,6.58965 -9.46486,13.19112 -15.59137,15.96106 L 117.94083,368 71.940834,368.20247 c -35.033471,0.1542 -46.953611,-0.10199 -50.000001,-1.0746 z m 98.251687,-14.23662 c 9.85445,-5.74237 11.21234,-20.54524 2.62147,-28.57763 -1.58024,-1.47751 -4.14301,-3.16617 -5.69505,-3.75258 -1.83928,-0.69494 -18.118676,-1.07203 -46.751937,-1.08295 -42.0481,-0.016 -44.09886,0.0694 -47.87019,1.99335 -14.8525698,7.57722 -12.6248598,29.56209 3.4319,33.8688 1.35289,0.36287 22.15907,0.51774 46.235961,0.34415 l 43.776156,-0.3156 4.25169,-2.47754 z M 207.44238,339.25 c 0.002,-12.88421 1.30085,-16.74204 6.89633,-20.48007 3.37258,-2.25302 3.66117,-2.26993 38.75,-2.26993 l 35.35212,0 0,-17.47395 0,-17.47396 15.25,-0.27604 15.25,-0.27605 0.27316,-17.1447 0.27316,-17.14471 -5.02202,-1.20476 c -6.38333,-1.53134 -15.66998,-7.50805 -19.83276,-12.76399 -1.77295,-2.23853 -4.45384,-6.6962 -5.95754,-9.90595 -2.40734,-5.13861 -2.734,-7.0307 -2.734,-15.83589 0,-8.75678 0.33319,-10.71088 2.68006,-15.71807 4.9235,-10.5046 15.53342,-19.72035 25.74929,-22.36576 l 4.57065,-1.18357 -0.28869,-4.29899 C 318.10698,155.3156 311.78636,147.89347 303.36039,145.47693 301.4869,144.93962 286.90444,144.5 270.95493,144.5 l -28.9991,0 -24.2575,24.24235 -24.2575,24.24234 0,11.75766 0,11.75765 15.5,0 15.5,0 0,37 0,37 -15.5,0 -15.5,0 0,30 0,30 7,0 7,0 0.002,-11.25 z m 43.453,-54.20455 c -2.9997,-2.99969 -3.13134,-6.41533 -0.38197,-9.91059 4.28269,-5.44456 12.92742,-2.30774 12.92742,4.69083 0,6.83323 -7.71996,10.04526 -12.54545,5.21976 z m 0,-34 c -1.35,-1.35 -2.45455,-3.62045 -2.45455,-5.04545 0,-3.48581 4.16417,-7.5 7.78023,-7.5 3.80277,0 7.21977,3.69846 7.21977,7.81445 0,6.69551 -7.68345,9.59301 -12.54545,4.731 z m 0,-35 c -1.35,-1.35 -2.45455,-3.62045 -2.45455,-5.04545 0,-3.57646 4.16133,-7.5 7.95455,-7.5 4.12277,0 7.04545,3.11124 7.04545,7.5 0,7.0038 -7.5505,10.04041 -12.54545,5.04545 z m -0.38197,-35.18031 c -2.36769,-3.01003 -2.55486,-4.59111 -0.90924,-7.68088 2.65293,-4.98106 6.92375,-5.97679 11.2018,-2.61168 3.25345,2.55916 3.68992,8.66263 0.80612,11.27243 -2.92513,2.64721 -8.64269,2.14242 -11.09868,-0.97987 z M 350.2083,318.25 l 0.26747,-24.75 -25.01747,0 -25.01747,0 0,25.01747 0,25.01747 24.75,-0.26747 24.75,-0.26747 0.26747,-24.75 z m -270.745506,-34 c 0.0272,-27.60983 1.10204,-30.97908 11.23252,-35.21186 3.01574,-1.26006 8.74927,-1.53814 31.713396,-1.53814 l 28.03212,0 0,-15.5 0,-15.5 15.5,0 15.5,0 0,-11.32534 0,-11.32535 -24.69909,-24.67465 -24.6991,-24.67466 -28.5509,0.006 c -16.040436,0.003 -30.136086,0.44589 -32.168536,1.01045 -8.421951,2.33939 -14.265201,9.20213 -15.498921,18.20305 l -0.61518,4.48825 4.24715,0.67914 c 11.203001,1.79144 23.224941,11.12774 28.474591,22.11353 3.7718,7.89315 4.64763,20.52452 1.98579,28.63959 -3.98224,12.14053 -13.38034,21.81278 -24.975801,25.70437 l -6,2.01368 -0.26488,29.57118 -0.26488,29.57076 10.51488,0 10.514881,0 0.022,-22.25 z M 117.84049,218.07206 C 110.33178,214.80333 112.7068,204.1 120.94083,204.1 c 8.0433,0 10.56406,10.24703 3.42848,13.93699 -3.32359,1.71869 -2.6694,1.71517 -6.52882,0.0351 z m -2.3607,-36.76062 c -1.12143,-1.20371 -2.03896,-3.47416 -2.03896,-5.04546 0,-3.60159 4.02176,-7.76598 7.5,-7.76598 3.57646,0 7.5,4.16133 7.5,7.95455 0,6.43251 -8.51902,9.62484 -12.96104,4.85689 z M 212.16656,253.75 211.94083,229 l -24.75,-0.26747 -24.75,-0.26747 0,25.01747 0,25.01747 24.97573,0 24.97573,0 -0.22573,-24.75 z M 63.985783,232.73412 c 5.85328,-2.98897 11.882441,-9.99408 13.944151,-16.2013 4.50923,-13.57601 -1.88161,-27.66064 -15.348361,-33.82593 -4.50776,-2.06372 -6.43822,-2.38254 -12.00609,-1.98284 -10.51213,0.75463 -18.52039,5.93524 -23.40596,15.1415 -2.93043,5.52203 -3.12339,18.38535 -0.35454,23.63445 3.6239,6.87006 10.53191,12.80032 17.61938,15.12553 4.27816,1.40356 15.16053,0.3508 19.55142,-1.89141 z m 274.630067,-1.92937 c 9.28292,-5.18281 14.53227,-15.40364 13.54711,-26.37714 -0.62937,-7.01042 -3.40447,-12.50446 -8.76015,-17.34299 -5.70381,-5.15305 -10.25295,-6.908 -18.03103,-6.95591 -20.02356,-0.12336 -32.99195,19.70656 -24.95523,38.15897 2.6776,6.1478 9.20004,12.36734 15.34851,14.63573 6.5833,2.42881 16.32329,1.52574 22.85079,-2.11866 z m -129.1721,-70.80768 21.48548,-21.50292 -21.7442,-21.7442 -21.7442,-21.744197 -21.7442,21.744197 -21.7442,21.7442 21.48548,21.50292 c 11.81701,11.82661 21.71833,21.50293 22.00292,21.50293 0.28459,0 10.18591,-9.67632 22.00292,-21.50293 z M 248.44083,31 l 0,-18.5 -61,0 -61,0 0,17.992254 0,17.992254 60.75,0.265637 c 33.4125,0.146101 60.8625,0.374586 61,0.507746 0.1375,0.13316 0.25,-8.082891 0.25,-18.257891 z"
     id="path3399"
     inkscape:connector-curvature="0" />
  <rect
     style="fill:#e3b4e1;fill-opacity:1"
     id="rect4201"
     width="35"
     height="35"
     x="-50.936344"
     y="-247.84448"
     transform="matrix(-0.70710678,0.70710678,-0.70710678,-0.70710678,0,0)" />
</svg>
