<?xml version="1.0" encoding="UTF-8" standalone="no"?>
<!-- Created with Inkscape (http://www.inkscape.org/) -->

<svg
   xmlns:dc="http://purl.org/dc/elements/1.1/"
   xmlns:cc="http://creativecommons.org/ns#"
   xmlns:rdf="http://www.w3.org/1999/02/22-rdf-syntax-ns#"
   xmlns:svg="http://www.w3.org/2000/svg"
   xmlns="http://www.w3.org/2000/svg"
   xmlns:sodipodi="http://sodipodi.sourceforge.net/DTD/sodipodi-0.dtd"
   xmlns:inkscape="http://www.inkscape.org/namespaces/inkscape"
   id="svg8442"
   version="1.1"
   inkscape:version="0.91 r13725"
   width="243"
   height="208"
   viewBox="0 0 243 208"
   sodipodi:docname="Statistics.svg">
  <metadata
     id="metadata8448">
    <rdf:RDF>
      <cc:Work
         rdf:about="">
        <dc:format>image/svg+xml</dc:format>
        <dc:type
           rdf:resource="http://purl.org/dc/dcmitype/StillImage" />
        <dc:title></dc:title>
      </cc:Work>
    </rdf:RDF>
  </metadata>
  <defs
     id="defs8446" />
  <sodipodi:namedview
     pagecolor="#ffffff"
     bordercolor="#666666"
     borderopacity="1"
     objecttolerance="10"
     gridtolerance="10"
     guidetolerance="10"
     inkscape:pageopacity="0"
     inkscape:pageshadow="2"
     inkscape:window-width="1547"
     inkscape:window-height="876"
     id="namedview8444"
     showgrid="false"
     inkscape:zoom="1.1346154"
     inkscape:cx="-47.205401"
     inkscape:cy="123.56982"
     inkscape:window-x="53"
     inkscape:window-y="24"
     inkscape:window-maximized="1"
     inkscape:current-layer="svg8442" />
  <path
     style="fill:#ffd39e;fill-opacity:1"
     d="M 8.0019531 -0.03125 C 5.8245423 -0.0239 3.7109427 0.79882301 2.0722656 2.4375 L -0.3828125 4.8925781 L -0.3828125 103.98242 L -0.3828125 203.07422 L 2.0722656 205.5293 L 4.5273438 207.98242 L 121.11719 207.98242 L 237.70898 207.98242 L 240.16211 205.5293 C 243.86904 201.82238 243.58955 195.97888 239.54102 192.57227 L 236.46484 189.98242 L 127.05664 189.98242 L 17.648438 189.98242 L 17.382812 97.396484 L 17.117188 4.8105469 L 14.3125 2.3964844 C 12.42113 0.76972438 10.179364 -0.038601 8.0019531 -0.03125 z "
     id="path8992" />
  <path
     style="fill:#e3b4e1;fill-opacity:1"
     d="M 134.14258 10.185547 L 134.14258 27.875 L 134.14258 45.566406 L 151.87305 45.566406 L 169.60156 45.566406 L 169.36523 43.359375 C 167.8772 29.464336 157.36599 16.598679 143.77148 12.035156 C 140.93204 11.081987 136.7366 10.185547 135.12305 10.185547 L 134.14258 10.185547 z "
     id="path10852" />
  <path
     style="fill:#e3b4e1;fill-opacity:1"
     d="M 130.94531 52.304688 L 118.74805 64.498047 L 106.55078 76.691406 L 108.61328 78.287109 C 113.02992 81.705354 119.13732 84.425399 124.87695 85.53125 C 126.47887 85.839916 128.96542 85.941899 132.62695 85.849609 C 138.41537 85.703713 141.73041 85.042314 146.34375 83.113281 C 148.84479 82.067481 153.03158 79.627778 154.69727 78.246094 L 155.87695 77.269531 L 143.41016 64.787109 L 130.94531 52.304688 z "
     id="path10904" />
  <path
     style="fill:#ffd39e;fill-opacity:1"
     d="M 136.33594 50.621094 L 147.93945 62.226562 C 154.3208 68.609915 159.67874 73.747713 159.8457 73.644531 C 160.63976 73.153776 164.35839 67.677891 165.63672 65.117188 C 167.88066 60.622182 169.52344 54.998167 169.52344 51.814453 L 169.52344 50.621094 L 152.92969 50.621094 L 136.33594 50.621094 z "
     id="path10902" />
  <path
     style="fill:#ffd39e;fill-opacity:1"
     d="M 128.10742 10.185547 C 126.5083 10.185547 122.30894 11.079281 119.53125 12.011719 C 107.52522 16.04201 98.289507 25.884932 94.804688 38.365234 C 93.938322 41.467968 93.876966 42.121164 93.884766 48.09375 C 93.892207 53.807288 93.979977 54.803319 94.699219 57.359375 C 96.199767 62.692071 98.515094 67.41397 101.45312 71.130859 C 102.20467 72.081636 102.93064 72.859375 103.06445 72.859375 C 103.19824 72.859375 109.10749 67.060649 116.19727 59.972656 L 129.08789 47.085938 L 129.08789 28.634766 L 129.08789 10.185547 L 128.10742 10.185547 z M 131.49414 49.361328 C 132.09698 49.38024 132.69319 49.629049 133.14062 50.105469 C 132.69319 49.629049 132.09698 49.38024 131.49414 49.361328 z "
     id="path9598" />
  <path
     style="fill:#e3b4e1;fill-opacity:1"
     d="M 221.16602 158.37695 C 220.29722 158.26846 219.4058 158.44528 218.5293 158.91211 C 216.24964 160.12627 216.1582 160.62412 216.1582 171.91016 C 216.1582 183.10677 216.24998 183.63441 218.43359 184.88672 C 220.08957 185.83642 222.11999 185.59573 223.66406 184.26758 L 225.10352 183.0293 L 225.10352 171.91016 L 225.10352 160.79102 L 223.66406 159.55273 C 222.88029 158.87857 222.03481 158.48545 221.16602 158.37695 z "
     id="path10861" />
  <path
     style="fill:#e3b4e1;fill-opacity:1"
     d="M 151.68945 150.17578 C 149.36343 149.61071 146.70064 150.85162 146.08594 153.30078 C 145.92454 153.94377 145.86171 160.89592 145.94531 168.75 L 146.0957 183.03125 L 147.53516 184.26758 C 149.5261 185.97915 151.69462 185.88546 153.57422 184.00586 L 155.07422 182.50586 L 155.07422 167.56641 L 155.07422 152.625 L 153.81445 151.36523 C 153.20261 150.75339 152.46479 150.36414 151.68945 150.17578 z "
     id="path10859" />
  <path
     style="fill:#ffd39e;fill-opacity:1"
     d="M 236.50781 146.53711 C 235.4819 146.58153 234.46927 147.07565 233.5293 148.01562 L 232.0293 149.51367 L 232.0293 166.00977 L 232.0293 182.50586 L 233.5293 184.00586 C 235.40924 185.88581 237.57762 185.97994 239.56836 184.26758 L 241.00781 183.0293 L 241.00781 166.00977 L 241.00781 148.99219 L 239.56836 147.75391 C 238.57299 146.89773 237.53373 146.49269 236.50781 146.53711 z "
     id="path10857" />
  <path
     style="fill:#ffd39e;fill-opacity:1"
     d="M 199.92773 184.42383 C 200.11907 184.55683 200.23972 184.74977 200.47852 184.88672 C 202.0233 185.77265 203.86558 185.52615 205.36328 184.42383 L 199.92773 184.42383 z "
     id="path10878" />
  <path
     style="fill:#ffd39e;fill-opacity:1"
     d="M 199.92773 184.42383 L 205.36328 184.42383 C 205.47108 184.34449 205.60531 184.35675 205.70898 184.26758 L 207.14844 183.0293 L 207.14844 158.57227 L 207.14844 134.11328 L 205.70898 132.875 C 204.71361 132.01882 203.6724 131.61378 202.64648 131.6582 C 201.62057 131.70262 200.6099 132.19674 199.66992 133.13672 L 198.16992 134.63672 L 198.18555 158.66016 C 198.20086 181.22151 198.27716 183.27646 199.92773 184.42383 z "
     id="path10876" />
  <path
     style="fill:#e3b4e1;fill-opacity:1"
     d="M 182.79297 184.42383 C 184.45681 185.7439 186.28693 185.76994 188.01367 184.42383 L 182.79297 184.42383 z "
     id="path10874" />
  <path
     style="fill:#e3b4e1;fill-opacity:1"
     d="M 182.79297 184.42383 L 188.01367 184.42383 C 188.0967 184.3591 188.18318 184.3385 188.26562 184.26758 L 189.70508 183.0293 L 189.70508 162.99023 L 189.70508 142.95312 L 188.54688 141.79492 C 187.67675 140.9248 186.43387 140.52373 185.20508 140.57422 C 183.97629 140.62471 182.76282 141.12735 181.95508 142.06641 L 180.72656 143.49414 L 180.72656 163 L 180.72656 182.50586 L 182.22656 184.00586 C 182.40932 184.18862 182.60518 184.27484 182.79297 184.42383 z "
     id="path10872" />
  <g
     id="g10884"
     style="fill:#ffd39e;fill-opacity:1">
    <g
       id="g10892"
       style="fill:#ffd39e;fill-opacity:1">
      <path
         style="fill:#ffd39e;fill-opacity:1"
         d="M 170.48633 184.42383 L 164.80273 184.42383 C 165.60846 185.13253 166.49069 185.50586 167.64453 185.50586 C 168.79837 185.50586 169.68061 185.13253 170.48633 184.42383 z "
         id="path10870" />
      <path
         style="fill:#ffd39e;fill-opacity:1"
         d="m 172.00391,125.37305 -8.72071,0 0,25.24609 0,32.36914 1.25977,1.25781 c 0.0807,0.0807 0.1773,0.10521 0.25976,0.17774 l 5.6836,0 c 0.0825,-0.0725 0.17904,-0.097 0.25976,-0.17774 l 1.25782,-1.25781 0,-32.36914 0,-25.24609 z"
         id="path10868"
         inkscape:connector-curvature="0" />
      <path
         style="fill:#ffd39e;fill-opacity:1"
         d="m 167.64453,115.70703 c -1.12244,0 -2.24493,0.42852 -3.10156,1.28516 l -1.25977,1.25976 0,7.1211 8.72071,0 0,-7.1211 -1.25782,-1.25976 c -0.85664,-0.85664 -1.97911,-1.28516 -3.10156,-1.28516 z"
         id="path10832"
         inkscape:connector-curvature="0" />
    </g>
  </g>
  <rect
     style="fill:#e3b4e1;fill-opacity:1;stroke:none;stroke-width:1.20000005;stroke-miterlimit:4;stroke-dasharray:none;stroke-opacity:1"
     id="rect10983"
     width="10.576274"
     height="126.13157"
     x="145.16202"
     y="-19.085899"
     ry="2.7359979"
     transform="matrix(0.6703505,0.74204461,-0.74235655,0.67000504,0,0)" />
  <rect
     style="fill:#e3b4e1;fill-opacity:1;stroke:none;stroke-width:1.20000005;stroke-miterlimit:4;stroke-dasharray:none;stroke-opacity:1"
     id="rect10983-2"
     width="10.576271"
     height="98.711861"
     x="201.17659"
     y="-88.820854"
     ry="2.1412201"
     transform="matrix(0.87493647,0.48423772,-0.48423772,0.87493647,0,0)" />
  <rect
     style="fill:#e3b4e1;fill-opacity:1;stroke:none;stroke-width:1.20000005;stroke-miterlimit:4;stroke-dasharray:none;stroke-opacity:1"
     id="rect10983-9"
     width="10.576271"
     height="72.711861"
     x="87.197998"
     y="-188.89857"
     ry="1.577238"
     transform="matrix(-0.0727243,0.99735208,-0.99735208,-0.0727243,0,0)" />
</svg>
