<?xml version="1.0" encoding="UTF-8" standalone="no"?>
<!-- Created with Inkscape (http://www.inkscape.org/) -->

<svg
   xmlns:dc="http://purl.org/dc/elements/1.1/"
   xmlns:cc="http://creativecommons.org/ns#"
   xmlns:rdf="http://www.w3.org/1999/02/22-rdf-syntax-ns#"
   xmlns:svg="http://www.w3.org/2000/svg"
   xmlns="http://www.w3.org/2000/svg"
   xmlns:sodipodi="http://sodipodi.sourceforge.net/DTD/sodipodi-0.dtd"
   xmlns:inkscape="http://www.inkscape.org/namespaces/inkscape"
   id="svg5684"
   version="1.1"
   inkscape:version="0.91 r13725"
   width="279.82855"
   height="279.49466"
   viewBox="0 0 279.82855 279.49466"
   sodipodi:docname="Sublime.svg">
  <metadata
     id="metadata5690">
    <rdf:RDF>
      <cc:Work
         rdf:about="">
        <dc:format>image/svg+xml</dc:format>
        <dc:type
           rdf:resource="http://purl.org/dc/dcmitype/StillImage" />
        <dc:title></dc:title>
      </cc:Work>
    </rdf:RDF>
  </metadata>
  <defs
     id="defs5688" />
  <sodipodi:namedview
     pagecolor="#ffffff"
     bordercolor="#666666"
     borderopacity="1"
     objecttolerance="10"
     gridtolerance="10"
     guidetolerance="10"
     inkscape:pageopacity="0"
     inkscape:pageshadow="2"
     inkscape:window-width="1547"
     inkscape:window-height="876"
     id="namedview5686"
     showgrid="false"
     fit-margin-top="0"
     fit-margin-left="0"
     fit-margin-right="0"
     fit-margin-bottom="0"
     inkscape:zoom="1.475"
     inkscape:cx="-102.95454"
     inkscape:cy="138.46656"
     inkscape:window-x="53"
     inkscape:window-y="24"
     inkscape:window-maximized="1"
     inkscape:current-layer="svg5684" />
  <path
     style="fill:#ffd39e;fill-opacity:1"
     d="M 12.733418,279.06771 C 8.5632181,278.25227 1.7215381,270.87524 0.78290811,266.18207 0.33746811,263.95486 -0.01463189,206.65604 4.6811497e-4,138.85135 0.02706811,19.448961 0.10438811,15.401616 2.4582481,10.21538 4.3135981,6.127525 6.1554481,4.285679 10.243298,2.430332 15.431928,0.075384 19.455858,0 139.97301,0 260.582,0 264.5105,0.07375 269.71445,2.43558 c 4.19416,1.903541 5.90586,3.655048 7.83583,8.018078 2.41348,5.456061 2.46181,8.436572 2.13357,131.599462 -0.3184,119.47477 -0.45391,126.19093 -2.61019,129.36763 -1.2509,1.84285 -3.78215,4.3741 -5.625,5.625 -3.18134,2.15943 -9.73031,2.28213 -129.60065,2.42822 -69.437492,0.0846 -127.539062,-0.0982 -129.114592,-0.40626 z M 122.50807,224.9128 c 83.70145,-26.4932 94.13825,-30.00016 95.90244,-32.22502 2.22089,-2.80082 2.22089,-52.66323 0,-55.53593 -0.86641,-1.12069 -15.20575,-6.30133 -32.1875,-11.62896 -16.84375,-5.28434 -31.33695,-9.99405 -32.20711,-10.46602 -0.87017,-0.47196 12.34859,-5.23497 29.375,-10.58446 17.02641,-5.349497 32.22273,-10.538287 33.76961,-11.530647 2.77356,-1.77931 2.8125,-2.17647 2.8125,-28.689715 0,-21.176769 -0.35194,-27.020464 -1.65746,-27.521444 -1.91784,-0.735944 -151.310622,46.323719 -155.530032,48.992939 -2.7731,1.75427 -2.8125,2.15257 -2.8125,28.431647 0,23.81387 0.23297,26.85822 2.1875,28.58463 1.20312,1.06272 15.96875,6.27035 32.812496,11.57253 16.843746,5.30216 31.099386,10.08486 31.679186,10.62821 0.5798,0.54335 -4.76395,2.77574 -11.875,4.96088 -42.973292,13.20515 -52.315212,16.47862 -53.535802,18.75931 -1.39988,2.61571 -1.80296,52.83311 -0.43505,54.20101 0.45833,0.45834 1.17723,0.83334 1.59756,0.83334 0.42032,0 27.467196,-8.45204 60.104162,-18.7823 z"
     id="path6236"
     inkscape:connector-curvature="0" />
</svg>
