<?xml version="1.0" encoding="UTF-8" standalone="no"?>
<!-- Created with Inkscape (http://www.inkscape.org/) -->

<svg
   xmlns:dc="http://purl.org/dc/elements/1.1/"
   xmlns:cc="http://creativecommons.org/ns#"
   xmlns:rdf="http://www.w3.org/1999/02/22-rdf-syntax-ns#"
   xmlns:svg="http://www.w3.org/2000/svg"
   xmlns="http://www.w3.org/2000/svg"
   xmlns:sodipodi="http://sodipodi.sourceforge.net/DTD/sodipodi-0.dtd"
   xmlns:inkscape="http://www.inkscape.org/namespaces/inkscape"
   id="svg3390"
   version="1.1"
   inkscape:version="0.91 r13725"
   width="105"
   height="98"
   viewBox="0 0 105 98"
   sodipodi:docname="Systemic.svg">
  <metadata
     id="metadata3396">
    <rdf:RDF>
      <cc:Work
         rdf:about="">
        <dc:format>image/svg+xml</dc:format>
        <dc:type
           rdf:resource="http://purl.org/dc/dcmitype/StillImage" />
        <dc:title />
      </cc:Work>
    </rdf:RDF>
  </metadata>
  <defs
     id="defs3394" />
  <sodipodi:namedview
     pagecolor="#ffffff"
     bordercolor="#666666"
     borderopacity="1"
     objecttolerance="10"
     gridtolerance="10"
     guidetolerance="10"
     inkscape:pageopacity="0"
     inkscape:pageshadow="2"
     inkscape:window-width="1547"
     inkscape:window-height="876"
     id="namedview3392"
     showgrid="false"
     inkscape:zoom="5.3321624"
     inkscape:cx="46.546252"
     inkscape:cy="47.002966"
     inkscape:window-x="53"
     inkscape:window-y="24"
     inkscape:window-maximized="1"
     inkscape:current-layer="svg3390" />
  <ellipse
     style="fill:#ffd39e;fill-rule:evenodd;stroke:none;stroke-width:1.2790519px;stroke-linecap:butt;stroke-linejoin:miter;stroke-opacity:1;fill-opacity:1"
     id="path3402"
     cx="50.855206"
     cy="16.909336"
     rx="11.860475"
     ry="11.860474" />
  <circle
     style="fill:#ffd39e;fill-rule:evenodd;stroke:none;stroke-width:1.2790519px;stroke-linecap:butt;stroke-linejoin:miter;stroke-opacity:1;fill-opacity:1"
     id="path3402-3"
     cx="78.040604"
     cy="64.914742"
     r="11.860474" />
  <ellipse
     style="fill:#ffd39e;fill-rule:evenodd;stroke:none;stroke-width:1.2790519px;stroke-linecap:butt;stroke-linejoin:miter;stroke-opacity:1;fill-opacity:1"
     id="path3402-6"
     cx="37.461433"
     cy="73.004059"
     rx="11.860475"
     ry="11.860474" />
  <circle
     style="fill:#ffd39e;fill-rule:evenodd;stroke:none;stroke-width:0.76743114px;stroke-linecap:butt;stroke-linejoin:miter;stroke-opacity:1;fill-opacity:1"
     id="path3402-7"
     cx="24.106901"
     cy="32.518265"
     r="7.1162844" />
  <circle
     style="fill:#ffd39e;fill-opacity:1;fill-rule:evenodd;stroke:none;stroke-width:0.76743114px;stroke-linecap:butt;stroke-linejoin:miter;stroke-opacity:1"
     id="path3402-7-5"
     cx="75.294991"
     cy="31.391068"
     r="7.1162844" />
  <circle
     style="fill:#423b38;fill-rule:evenodd;stroke:none;stroke-width:0.5116207px;stroke-linecap:butt;stroke-linejoin:miter;stroke-opacity:1;fill-opacity:1"
     id="path3402-7-3"
     cx="31.154942"
     cy="49.937077"
     r="4.7441897" />
  <circle
     style="fill:#423b38;fill-rule:evenodd;stroke:none;stroke-width:0.5116207px;stroke-linecap:butt;stroke-linejoin:miter;stroke-opacity:1;fill-opacity:1"
     id="path3402-7-3-5"
     cx="77.767929"
     cy="14.529769"
     r="4.7441897" />
  <circle
     style="fill:#423b38;fill-rule:evenodd;stroke:none;stroke-width:0.40929654px;stroke-linecap:butt;stroke-linejoin:miter;stroke-opacity:1;fill-opacity:1"
     id="path3402-7-3-6"
     cx="85.918129"
     cy="44.57172"
     r="3.7953517" />
  <circle
     style="fill:#423b38;fill-rule:evenodd;stroke:none;stroke-width:0.46045861px;stroke-linecap:butt;stroke-linejoin:miter;stroke-opacity:1;fill-opacity:1"
     id="path3402-7-3-2"
     cx="55.519619"
     cy="73.11367"
     r="4.2697706" />
  <ellipse
     style="fill:#423b38;fill-rule:evenodd;stroke:none;stroke-width:0.71626908px;stroke-linecap:butt;stroke-linejoin:miter;stroke-opacity:1;fill-opacity:1"
     id="path3402-7-3-9"
     cx="16.777403"
     cy="45.417458"
     rx="6.6418657"
     ry="6.6418653" />
  <path
     style="fill:#ffd39e;fill-opacity:1"
     d="M 55.556641 33.697266 A 11 11 0 0 0 44.556641 44.697266 A 11 11 0 0 0 55.556641 55.697266 A 11 11 0 0 0 66.556641 44.697266 A 11 11 0 0 0 55.556641 33.697266 z M 55.556641 36.197266 A 8.5 8.5 0 0 1 64.056641 44.697266 A 8.5 8.5 0 0 1 55.556641 53.197266 A 8.5 8.5 0 0 1 47.056641 44.697266 A 8.5 8.5 0 0 1 55.556641 36.197266 z "
     id="path3487" />
  <rect
     style="fill:#ffd39e;fill-opacity:1;stroke:none"
     id="rect4293"
     width="3.7288063"
     height="7.3180208"
     x="46.222466"
     y="43.022346"
     transform="matrix(0.95222541,-0.30539608,0.17246252,0.98501608,0,0)" />
  <rect
     style="fill:#ffd39e;fill-opacity:1;stroke:none"
     id="rect4293-2"
     width="3.1054749"
     height="8.0406466"
     x="69.048401"
     y="-19.540346"
     transform="matrix(0.76554815,0.6433786,-0.84530878,0.53427808,0,0)" />
  <rect
     style="fill:#ffd39e;fill-opacity:1;stroke:none"
     id="rect4293-7"
     width="4.6488452"
     height="9.1276169"
     x="5.3176608"
     y="82.26329"
     transform="matrix(0.59213418,-0.80583938,0.71917329,0.69483076,0,0)" />
  <rect
     style="fill:#ffd39e;fill-opacity:1;stroke:none"
     id="rect4293-0"
     width="3.8740752"
     height="14.510889"
     x="68.965218"
     y="2.7430334"
     transform="matrix(0.71918244,0.69482129,-0.47109157,0.88208431,0,0)" />
  <rect
     style="fill:#ffd39e;fill-opacity:1;stroke:none"
     id="rect4354"
     width="19.49391"
     height="2.7848444"
     x="39.967098"
     y="19.481209"
     transform="matrix(0.92702393,0.37500217,-0.37500217,0.92702393,0,0)" />
</svg>
