<?xml version="1.0" encoding="UTF-8" standalone="no"?>
<!-- Created with Inkscape (http://www.inkscape.org/) -->

<svg
   xmlns:dc="http://purl.org/dc/elements/1.1/"
   xmlns:cc="http://creativecommons.org/ns#"
   xmlns:rdf="http://www.w3.org/1999/02/22-rdf-syntax-ns#"
   xmlns:svg="http://www.w3.org/2000/svg"
   xmlns="http://www.w3.org/2000/svg"
   xmlns:sodipodi="http://sodipodi.sourceforge.net/DTD/sodipodi-0.dtd"
   xmlns:inkscape="http://www.inkscape.org/namespaces/inkscape"
   id="svg6911"
   version="1.1"
   inkscape:version="0.91 r13725"
   width="626"
   height="589.05182"
   viewBox="0 0 626 589.05182"
   sodipodi:docname="WebDesign.svg">
  <metadata
     id="metadata6917">
    <rdf:RDF>
      <cc:Work
         rdf:about="">
        <dc:format>image/svg+xml</dc:format>
        <dc:type
           rdf:resource="http://purl.org/dc/dcmitype/StillImage" />
        <dc:title />
      </cc:Work>
    </rdf:RDF>
  </metadata>
  <defs
     id="defs6915" />
  <sodipodi:namedview
     pagecolor="#ffffff"
     bordercolor="#666666"
     borderopacity="1"
     objecttolerance="10"
     gridtolerance="10"
     guidetolerance="10"
     inkscape:pageopacity="0"
     inkscape:pageshadow="2"
     inkscape:window-width="1547"
     inkscape:window-height="876"
     id="namedview6913"
     showgrid="false"
     fit-margin-top="0"
     fit-margin-left="0"
     fit-margin-right="0"
     fit-margin-bottom="0"
     inkscape:zoom="0.83474746"
     inkscape:cx="310.02332"
     inkscape:cy="232.56536"
     inkscape:window-x="53"
     inkscape:window-y="24"
     inkscape:window-maximized="1"
     inkscape:current-layer="svg6911" />
  <path
     style="fill:#ffd39e;fill-opacity:1"
     d="m 247.52539,525.60956 -0.7793,5 c -0.42817,2.75 -0.97963,6.125 -1.22656,7.5 -0.24693,1.375 -1.11716,6.43163 -1.93359,11.23632 -2.15653,12.69125 -5.28449,17.40721 -17.32032,26.1211 -5.19154,3.75866 -9.26562,8.41138 -9.26562,10.58008 0,0.62031 1.0125,1.53382 2.25,2.03124 3.13618,1.26058 183.87502,1.31531 187.18555,0.0567 4.61135,-1.75323 3.59449,-3.59865 -7.27344,-13.20118 C 396.87337,572.91151 395,571.42338 395,571.62713 c 0,0.20375 -1.29188,-0.84272 -2.87109,-2.32422 -5.28384,-4.95691 -7.94228,-10.30944 -9.53321,-19.19335 -0.8372,-4.675 -1.81059,-9.85001 -2.16211,-11.5 -0.35151,-1.65001 -0.93105,-5.25 -1.28711,-8 l -0.64648,-5 -65.48828,0 -65.48633,0 z"
     id="path7588"
     inkscape:connector-curvature="0" />
  <path
     style="fill:#ffd39e;fill-opacity:1"
     d="m 552.26367,137.40969 0,-38.216801 c -27.76602,-0.129567 -43.90626,-0.411283 -45.2664,-1.095703 -1.88984,-0.95094 -2.09227,-0.911871 -1.02277,0.193359 0.90825,0.9385 0.65285,1.23834 -0.79692,0.9375 -2.07513,-0.43061 -6.94398,1.919095 -8.15409,3.935545 -0.33132,0.55207 -11.26452,8.07958 -24.29602,16.72657 -13.0315,8.64699 -23.69364,16.12642 -23.69364,16.62109 0,0.52057 33.83144,0.89844 80.31742,0.89844 l 22.91242,0 z"
     id="path7584"
     inkscape:connector-curvature="0" />
  <path
     style="fill:#ffd39e;fill-opacity:1"
     d="m 215.63477,99.349139 c -7.94762,-0.0014 -5.43721,-0.006 -14.17774,-0.0078 -126.722116,-0.02693 -183.90187,0.286882 -185.833983,1.021471 -1.534956,0.58359 -3.214948,0.80029 -3.732422,0.48047 -0.517473,-0.31981 -0.817143,-0.18698 -0.666016,0.29492 0.151128,0.48191 -1.3811126,2.33405 -3.4062496,4.11719 -2.025138,1.78315 -4.612638,5.16419 -5.75,7.51367 L 0,117.04055 0,305.75734 c 0,166.73521 0.17811145,189.14152 1.5234375,192.36133 1.780325,4.26092 8.4792915,10.94952 12.8925785,12.87109 2.556729,1.11322 53.402555,1.3472 297.583984,1.375 188.80301,0.0215 295.75616,-0.31688 298,-0.94336 1.925,-0.53746 5.28658,-2.52424 7.4707,-4.41601 2.18412,-1.89177 4.39094,-3.18056 4.9043,-2.86328 0.51336,0.31727 0.65467,0.12395 0.3125,-0.42969 -0.34216,-0.55363 0.26352,-2.7426 1.3457,-4.86523 1.93631,-3.79784 1.9668,-6.87053 1.9668,-192.83204 0,-187.5034 -0.0159,-189.00495 -2.01758,-193.03906 -3.63478,-7.32557 -8.29784,-11.28187 -15.27148,-12.95508 -1.53371,-0.367996 -20.87107,-0.684321 -42.97266,-0.703121 -6.30929,-0.0054 -8.76729,-0.08971 -13.47461,-0.125 l 0,38.216801 35.73633,0 0,149.5 0,149.5 -275,0 -275,0 0,-149.5 0,-149.5 160.33594,0 17.29883,0 0,-38.060551 z"
     id="path7578"
     inkscape:connector-curvature="0" />
  <path
     style="fill:#ffd39e;fill-opacity:1"
     d="m 215.63477,99.349139 0,38.060551 281.60403,0 8.69018,-6.4043 c 4.77928,-3.52211 9.37777,-6.18877 10.21671,-5.92578 0.8389,0.263 1.2819,0.0347 0.98437,-0.50781 -0.60872,-1.10987 -0.62017,-1.10108 17.52265,-14.16211 7.25792,-5.225 14.13608,-9.8303 15.28469,-10.23438 2.48222,-0.873228 29.74815,-0.79415 -334.30263,-0.826171 z"
     id="path7525"
     inkscape:connector-curvature="0" />
  <path
     inkscape:connector-curvature="0"
     style="fill:#423b38;fill-opacity:1"
     d="m 491.61919,264.45315 c -1.15037,-0.18083 -2.27109,-0.0909 -3.38538,0.26189 -1.48569,0.4703 -2.96007,1.40703 -4.49071,2.79224 -6.48564,5.86944 -4.12858,11.34742 16.09882,37.4086 10.83771,13.96341 19.69057,25.83206 19.67677,26.37434 -0.0138,0.54227 -8.8772,12.07796 -19.69602,25.63487 -10.8188,13.55688 -19.67086,26.26142 -19.67678,28.23069 -0.006,1.96928 0.90699,5.29688 2.02969,7.39468 2.06805,3.86416 10.54631,5.16468 15.00502,2.30313 1.24154,-0.79681 12.54794,-14.31484 25.12265,-30.04085 15.52124,-19.41098 22.85443,-30.17581 22.8426,-33.52252 -0.0158,-4.5444 -18.01153,-29.48032 -41.62584,-57.67846 -4.71966,-5.63581 -8.44967,-8.61602 -11.90082,-9.15861 z"
     id="path7539" />
  <path
     inkscape:connector-curvature="0"
     style="fill:#423b38;fill-opacity:1"
     d="m 130.44809,264.13603 c -5.60592,-0.46415 -12.84309,7.34972 -31.970209,31.1852 -18.6645,23.25791 -24.233,31.51678 -23.765923,35.24628 0.335497,2.67902 11.280204,18.6421 24.322933,35.47483 21.938169,28.31325 24.194799,30.60479 30.133209,30.60479 6.72285,0 10.51715,-4.13368 10.51715,-11.45355 0,-2.08522 -8.28243,-14.39554 -18.40849,-27.35943 -10.12618,-12.96398 -19.08373,-24.67402 -19.90559,-26.02098 -0.94303,-1.54553 5.84636,-11.5565 18.40854,-27.13508 20.79707,-25.79112 23.13335,-31.24721 16.10704,-37.60607 -1.88622,-1.70709 -3.56999,-2.78128 -5.43866,-2.93599 z"
     id="path7534" />
  <path
     style="fill:#423b38;fill-opacity:1"
     d="m 239.95205,138.11269 c -6.54539,0 -6.76285,0.27245 -8.38764,10.48044 -1.54862,9.72904 -2.21452,10.68794 -9.29591,13.38314 -7.53404,2.86749 -7.71436,2.82134 -14.52982,-3.78447 -6.17045,-5.98064 -7.43818,-6.44313 -11.98037,-4.37358 -5.77788,2.63257 -6.41987,7.368 -2.32744,17.16255 2.599,6.22032 2.44093,6.93512 -2.85601,12.86341 l -5.60859,6.27718 -9.50279,-2.85981 c -8.68336,-2.6133 -9.73118,-2.55763 -12.16705,0.65093 -4.31178,5.67949 -3.23852,9.74392 4.32438,16.38422 6.89404,6.05304 7.04884,6.50194 4.95135,14.29141 -1.19096,4.42288 -3.26274,8.04561 -4.60318,8.05208 -1.34042,0.007 -5.88411,0.96927 -10.09822,2.13947 -7.02701,1.9512 -7.61102,2.65516 -7.04163,8.48353 0.55623,5.69317 1.61012,6.63339 10.10957,9.02343 8.40847,2.36447 9.72053,3.51043 11.53253,10.07299 1.95159,7.06805 1.67622,7.78114 -6.05767,15.66138 -8.05256,8.20496 -8.08057,8.28479 -4.37611,12.85962 3.46345,4.27716 4.43111,4.45363 13.64302,2.48892 9.74154,-2.07767 10.00725,-2.00259 15.26022,4.28148 4.76738,5.70315 5.07113,6.93928 2.79798,11.42405 -5.50936,10.86949 -5.5405,13.68277 -0.18543,17.19157 4.9182,3.22253 5.35109,3.12249 13.09551,-3.01118 7.64886,-6.058 8.37474,-6.23369 16.13696,-3.90808 7.62305,2.28393 8.12777,2.90559 8.12777,9.99982 0,4.16019 0.5495,8.99518 1.22113,10.74535 0.72884,1.89933 3.59707,3.18275 7.11353,3.18275 5.05534,0 6.43437,-1.26847 9.7223,-8.93891 3.30372,-7.70728 4.86666,-9.13423 11.34331,-10.34925 7.89097,-1.48035 9.15884,-0.64684 16.98972,11.16165 2.50382,3.77558 4.23147,4.4572 8.55038,3.37321 5.08325,-1.27579 5.41354,-2.05899 5.43827,-12.88736 0.0246,-10.73861 0.46675,-11.81479 6.44117,-15.68788 l 6.41467,-4.15787 8.74211,4.88575 c 8.39129,4.68999 8.90165,4.74393 12.67166,1.33213 5.09462,-4.61058 4.95688,-6.51735 -1.11263,-15.44945 -4.93134,-7.2571 -4.96625,-7.572 -1.63867,-14.55001 3.25211,-6.81975 3.85949,-7.1312 13.87763,-7.1312 7.69759,0 10.80061,-0.8447 11.69778,-3.18274 2.59608,-6.76522 0.90346,-10.1155 -7.75184,-15.34349 -8.24029,-4.97731 -8.93881,-6.02805 -8.55037,-12.88359 0.36464,-6.43578 1.53212,-8.08567 8.46963,-11.96648 6.40601,-3.58347 8.04704,-5.65228 8.04704,-10.14489 0,-6.0768 -4.07358,-8.24727 -16.22402,-8.64246 -4.98366,-0.1621 -6.81211,-1.55702 -9.54063,-7.27879 -3.34619,-7.01701 -3.32343,-7.15185 2.66174,-15.41414 5.67627,-7.83585 5.83697,-8.55683 2.69076,-12.03333 -4.15637,-4.59273 -7.83489,-4.55547 -16.70211,0.16651 -6.82099,3.63233 -7.05313,3.62176 -13.68337,-0.58785 -6.58934,-4.18363 -6.71587,-4.52531 -5.49252,-14.82249 1.18956,-10.01304 0.9821,-10.66232 -4.14779,-12.99964 -5.08608,-2.31737 -5.83393,-1.95195 -12.86718,6.29608 -7.23486,8.48446 -7.70868,8.70051 -15.2085,6.92684 -6.74235,-1.59453 -8.10649,-2.92837 -10.57759,-10.34168 -2.58068,-7.74205 -3.44418,-8.51127 -9.55704,-8.51127 z m 10.12976,41.45125 a 58.129403,58.129403 0 0 1 58.1294,58.12941 58.129403,58.129403 0 0 1 -58.1294,58.12941 58.129403,58.129403 0 0 1 -58.1294,-58.12941 58.129403,58.129403 0 0 1 58.1294,-58.12941 z"
     id="path8301-5"
     inkscape:connector-curvature="0" />
  <g
     id="g8335"
     transform="translate(67.476577,58.889338)"
     style="fill:#423b38;fill-opacity:1">
    <path
       inkscape:connector-curvature="0"
       id="path7586"
       d="m 458.52865,-57.714304 c -6.84474,1.622037 -14.01526,4.857501 -19.77052,9.293428 -3.65336,2.815859 -6.75684,5.793027 -6.89709,6.616638 -0.14026,0.823615 -0.87916,1.622287 -1.64225,1.775172 -0.76311,0.152888 -2.60183,2.317747 -4.0858,4.810431 -1.48398,2.492684 -2.99166,4.401045 -3.34941,4.240604 -0.35775,-0.160442 -0.38483,-0.05214 -0.0612,0.241335 0.32362,0.293475 -0.14586,1.958931 -1.04331,3.700894 -0.89745,1.741964 -2.56093,5.205227 -3.6949,7.696119 -1.13397,2.490892 -2.55404,4.345912 -3.15601,4.12218 -0.60197,-0.22373 -0.70426,0.0105 -0.2285,0.519861 0.99928,1.06984 -10.43273,28.783741 -14.83261,35.958201 -0.73991,1.206494 -1.12544,2.149694 -0.85692,2.095896 0.26853,-0.0538 -0.93739,3.056196 -2.67896,6.91093 -1.74158,3.854736 -3.81018,8.514397 -4.59644,10.354713 -0.78626,1.840316 -2.60613,5.962275 -4.04527,9.158681 -1.43914,3.196394 -4.42384,9.990102 -6.63415,15.097424 -2.21032,5.107314 -4.5312,10.305388 -5.15719,11.552666 -0.62599,1.247275 -3.01867,6.54555 -5.31608,11.77374 -2.2974,5.22819 -4.82419,10.7674 -5.61506,12.309701 -0.79087,1.5423 -1.36335,3.17722 -1.27238,3.63126 0.091,0.45406 -0.40717,0.61129 -1.10687,0.35124 -0.70388,-0.2616 -0.92319,-0.0995 -0.49093,0.36329 0.42969,0.46004 -0.36956,3.5627 -1.77614,6.89338 -4.84925,11.48262 -10.89276,25.05511 -11.4297,25.67131 -0.29609,0.33978 -1.33654,2.72821 -2.31293,5.30779 -0.9764,2.57956 -2.20994,4.77722 -2.74245,4.88391 -0.53253,0.10669 -0.77832,0.57333 -0.54549,1.03553 0.23284,0.4622 -0.78364,3.40617 -2.2585,6.54383 -1.47486,3.13765 -2.6102,6.06104 -2.5232,6.49528 0.087,0.43423 -0.59698,1.60174 -1.51979,2.59523 -0.92282,0.99348 -1.59563,2.26215 -1.49482,2.81928 0.10081,0.55714 -1.58986,4.71749 -3.7572,9.24439 -2.16733,4.52689 -3.87905,8.54137 -3.80595,8.92149 0.0731,0.38012 -1.05495,2.6495 -2.5072,5.04395 -1.45227,2.39444 -2.43498,4.31236 -2.18382,4.26204 0.25118,-0.0503 -0.81857,2.80292 -2.37692,6.34048 -1.55836,3.53757 -3.94499,9.06453 -5.30404,12.28126 -1.35905,3.21673 -2.9146,5.68371 -3.45509,5.48283 -0.54049,-0.20089 -0.53934,0.3347 0.001,1.18896 0.71954,1.13719 0.59163,1.40698 -0.47693,1.00985 -0.89288,-0.33187 -1.1477,-0.20719 -0.65488,0.32044 0.64754,0.69326 -2.32471,8.83435 -4.1403,11.33897 -0.23785,0.32812 -1.25619,2.59739 -2.26245,5.04271 -4.76305,11.57467 -7.82433,18.19903 -10.23695,22.14962 -1.44669,2.3689 -2.54327,4.74466 -2.43589,5.28063 0.10738,0.53598 -0.33075,1.44829 -0.97454,2.02585 -1.99461,1.78937 -2.65308,5.77648 -1.61009,9.75042 0.54926,2.0928 1.29717,3.65905 1.66356,3.48126 0.64123,-0.31115 6.08492,2.35476 19.99028,9.78914 3.59515,1.92212 7.40018,3.33974 8.4555,3.15034 1.07291,-0.19252 3.60216,-3.04226 5.73844,-6.46418 2.10128,-3.36588 4.20261,-6.0868 4.66876,-6.04669 0.46613,0.0401 0.53164,-0.43195 0.14635,-1.0492 -0.83297,-1.33439 6.52579,-13.91305 8.08515,-13.82047 0.59346,0.0352 0.73149,-0.30711 0.30771,-0.76082 -0.42379,-0.4537 0.0234,-2.06075 0.99355,-3.57141 0.97015,-1.51068 5.21018,-8.45464 9.4218,-15.43084 4.21162,-6.97621 9.94602,-16.37219 12.74245,-20.87878 2.79644,-4.5066 6.01381,-9.82887 7.14968,-11.82836 1.13586,-1.99948 3.51737,-5.92646 5.29335,-8.72549 1.77598,-2.79903 3.88878,-6.37842 4.69493,-7.95425 0.80614,-1.57581 2.41572,-3.85013 3.57665,-5.05501 1.16093,-1.20487 1.86535,-2.27035 1.56546,-2.36733 -0.2999,-0.097 2.00072,-4.43315 5.11302,-9.63553 3.11231,-5.20239 6.0901,-9.29764 6.61624,-9.10209 0.52615,0.19555 0.75647,-0.016 0.51159,-0.46902 -0.7182,-1.32851 9.90613,-18.59333 11.15606,-18.12878 0.62609,0.2327 0.79504,0.0555 0.37524,-0.39389 -0.41979,-0.44944 0.67254,-3.23469 2.42679,-6.19111 10.14943,-17.10479 12.33474,-20.44049 13.18435,-20.12472 0.51711,0.19219 0.75124,0.009 0.52194,-0.40735 -0.73145,-1.32844 2.96842,-8.01032 4.2082,-7.59977 0.65544,0.21705 0.81933,0.11716 0.36381,-0.22228 -0.74897,-0.55811 2.13296,-6.14763 6.44963,-12.50878 0.9053,-1.33407 3.49557,-5.585611 5.75582,-9.449601 2.26026,-3.86397 8.4083,-14.04511 13.66155,-22.624595 9.51121,-15.533446 12.29354,-20.11311 26.13183,-43.002645 4.00245,-6.620352 8.58926,-14.078232 10.19286,-16.573322 1.6036,-2.495089 2.84184,-4.9048573 2.75187,-5.3538983 -0.09,-0.449041 0.51855,-1.420504 1.35217,-2.159264 0.83358,-0.738752 1.1276,-1.278532 0.65383,-1.200664 -0.47379,0.07786 -0.48541,-0.556987 -0.0254,-1.409195 1.91475,-3.54700797 4.08315,-12.6313126 4.56897,-19.1515847 1.13902,-15.286887 -4.89414,-29.977513 -14.96609,-36.441936 -2.2702,-1.45707 -3.94493,-3.142738 -3.72057,-3.746408 0.22683,-0.610308 -0.0245,-0.694991 -0.56581,-0.189414 -0.53539,0.500075 -2.37194,0.276377 -4.08184,-0.498879 -4.4499,-2.017551 -10.96901,-2.009055 -17.81375,-0.387018 z m 2.69047,10.277192 -2.84507,2.73126 c -3.11821,2.992497 -3.42963,3.343792 -7.72375,8.684563 -1.61927,2.013951 -3.27036,3.508447 -3.66917,3.320651 -0.39881,-0.187797 -0.48669,-0.118342 -0.19415,0.154429 0.29254,0.272773 -0.55949,2.852926 -1.89489,5.73397 -1.33538,2.881043 -2.83668,6.103233 -3.33425,7.159742 -0.82317,1.747886 -1.3877,1.631312 -6.28035,-1.291417 -3.77845,-2.257136 -5.15325,-3.603281 -4.62213,-4.527888 6.3028,-10.972184 13.94881,-17.33678 24.28518,-20.215393 l 6.27858,-1.749917 z"
       style="fill:#423b38;fill-opacity:1" />
    <g
       transform="translate(28.801083,1.6941813)"
       id="g8331"
       style="fill:#423b38;fill-opacity:1">
      <path
         inkscape:connector-curvature="0"
         style="fill:#423b38;fill-opacity:1"
         d="m 215.63477,308.35156 c -0.18794,0.51889 -0.46067,1.06832 -0.61329,1.57032 -6.44448,21.19756 -14.39256,33.01503 -23.92968,35.57617 -2.5253,0.67816 -5.2668,1.43846 -6.0918,1.68945 -0.825,0.251 -7.00301,0.91312 -13.72852,1.47266 -11.88394,0.98869 -12.22211,1.08312 -12.0371,3.31836 0.10468,1.265 0.55094,2.07543 0.99218,1.80273 0.44124,-0.2727 3.15752,-0.0297 6.03711,0.53906 2.87959,0.56875 7.26133,1.3121 9.73633,1.65235 2.475,0.34026 4.68685,0.80681 4.91602,1.03515 0.22916,0.22835 9.45416,0.4103 20.5,0.4043 6.06533,-0.003 10.03707,-0.17847 14.21875,-0.35938 l 0,-48.70117 z"
         id="path7582" />
      <path
         inkscape:connector-curvature="0"
         style="fill:#423b38;fill-opacity:1"
         d="m 215.63477,308.35156 0,48.70117 c 7.10768,-0.30749 13.40861,-0.8403 21.36523,-2.0957 14.00182,-2.20921 33.13799,-7.14549 37,-9.54297 0.825,-0.51215 3.3,-1.78875 5.5,-2.83789 4.43522,-2.11507 10.52851,-8.23149 12.23633,-12.28125 1.83073,-4.34122 0.88171,-13.09763 -2.0625,-19.02734 -2.42273,-4.87945 -10.57199,-14.71714 -12.41016,-14.98242 -0.42054,-0.0607 -2.64426,-1.40451 -4.94336,-2.98633 -2.29909,-1.58182 -4.38267,-2.87695 -4.6289,-2.87695 -0.24624,-10e-6 -2.18869,-0.75355 -4.31836,-1.67579 -10.53912,-4.56392 -20.70955,-5.16981 -28.95508,-1.72461 -1.92817,0.80567 -4.0496,1.15216 -4.71289,0.77149 -0.66329,-0.38064 -0.90612,-0.35861 -0.54102,0.0488 0.36509,0.40744 -1.09149,2.32594 -3.23633,4.26367 -3.9395,3.55911 -8.15365,10.33964 -10.29296,16.24609 z"
         id="path7580" />
    </g>
  </g>
</svg>
