<?xml version="1.0" encoding="UTF-8" standalone="no"?>
<!-- Created with Inkscape (http://www.inkscape.org/) -->

<svg
   xmlns:dc="http://purl.org/dc/elements/1.1/"
   xmlns:cc="http://creativecommons.org/ns#"
   xmlns:rdf="http://www.w3.org/1999/02/22-rdf-syntax-ns#"
   xmlns:svg="http://www.w3.org/2000/svg"
   xmlns="http://www.w3.org/2000/svg"
   xmlns:sodipodi="http://sodipodi.sourceforge.net/DTD/sodipodi-0.dtd"
   xmlns:inkscape="http://www.inkscape.org/namespaces/inkscape"
   width="251.05995mm"
   height="273.39206mm"
   viewBox="0 0 889.58251 968.71202"
   id="svg8495"
   version="1.1"
   inkscape:version="0.91 r13725"
   sodipodi:docname="WorkflowEngine.svg">
  <defs
     id="defs8497" />
  <sodipodi:namedview
     id="base"
     pagecolor="#ffffff"
     bordercolor="#666666"
     borderopacity="1.0"
     inkscape:pageopacity="0.0"
     inkscape:pageshadow="2"
     inkscape:zoom="0.34874603"
     inkscape:cx="-145.04589"
     inkscape:cy="92.240672"
     inkscape:document-units="px"
     inkscape:current-layer="layer1"
     showgrid="false"
     inkscape:window-width="1547"
     inkscape:window-height="876"
     inkscape:window-x="53"
     inkscape:window-y="24"
     inkscape:window-maximized="1"
     fit-margin-top="0"
     fit-margin-left="0"
     fit-margin-right="0"
     fit-margin-bottom="0" />
  <metadata
     id="metadata8500">
    <rdf:RDF>
      <cc:Work
         rdf:about="">
        <dc:format>image/svg+xml</dc:format>
        <dc:type
           rdf:resource="http://purl.org/dc/dcmitype/StillImage" />
        <dc:title></dc:title>
      </cc:Work>
    </rdf:RDF>
  </metadata>
  <g
     inkscape:label="Calque 1"
     inkscape:groupmode="layer"
     id="layer1"
     transform="translate(21.175368,-21.441685)">
    <path
       inkscape:connector-curvature="0"
       id="path8301"
       d="m 522.93039,987.43798 c -0.91723,-1.4841 -3.32705,-16.2011 -5.3552,-32.7046 -2.11523,-17.212 -5.13473,-30.0377 -7.08165,-30.0801 -1.86677,-0.041 -11.21149,-3.2899 -20.76607,-7.2205 l -17.37199,-7.1467 -24.39321,19.563 c -26.86309,21.5438 -25.51349,21.4257 -48.31181,4.2289 l -7.36656,-5.5566 10.15121,-26.0361 c 5.58316,-14.3199 10.39231,-27.5036 10.68703,-29.2972 0.29465,-1.7936 -6.03906,-10.6132 -14.075,-19.5991 l -14.61083,-16.3381 -24.90561,5.0466 c -33.52809,6.7936 -37.66148,5.8361 -46.85089,-10.853 l -7.63024,-13.8574 23.29584,-21.9618 23.29583,-21.9618 -5.11667,-20.0991 c -2.81417,-11.0545 -7.08149,-21.1412 -9.48297,-22.4149 -2.40148,-1.2737 -15.92969,-6.0101 -30.06272,-10.5252 l -25.6964,-8.2094 0,-18.0221 0,-18.022 17.90962,-4.9079 c 9.85028,-2.6993 23.17875,-5.8457 29.61883,-6.992 9.35138,-1.6644 12.07062,-3.7379 13.50395,-10.2974 0.98711,-4.5174 3.63462,-14.908 5.88332,-23.0903 l 4.0886,-14.8768 -14.65829,-12.3601 c -8.06207,-6.79795 -17.89371,-16.73615 -21.84806,-22.08465 l -7.18973,-9.7246 7.20375,-15.3803 c 7.12504,-15.2123 7.3322,-15.3586 18.96252,-13.3937 6.46733,1.0927 20.05117,4.4974 30.18634,7.5661 l 18.4275,5.5794 15.70213,-17.8385 15.70213,-17.8386 -7.18877,-19.9256 c -13.46838,-37.3312 -13.41399,-38.252 2.92313,-49.4923 16.43533,-11.3078 14.50019,-11.9882 42.54949,14.9615 l 17.59803,16.9081 21.91281,-8.9383 21.91281,-8.9383 5.30576,-30.1181 c 5.82726,-33.0786 6.29955,-33.6047 30.24914,-33.6911 11.08852,-0.04 12.17905,0.8388 18.30756,14.7524 3.58417,8.1372 8.22528,20.3369 10.31358,27.1103 4.13447,13.4104 6.9845,14.891 34.96431,18.1641 l 16.19675,1.8947 13.8023,-19.3018 c 7.59128,-10.616 16.5864,-21.8041 19.98913,-24.8624 5.94441,-5.3427 6.78261,-5.324 21.39378,0.477 l 15.20698,6.0376 -1.33702,21.326 c -2.74653,43.8082 -3.60485,40.8089 15.5571,54.3627 l 17.33483,12.2614 26.73018,-12.5262 c 14.70159,-6.8894 28.15788,-12.5262 29.90287,-12.5262 1.74499,0 7.73275,5.7575 13.30613,12.7945 10.08661,12.7354 10.10872,12.8404 4.78639,22.7234 -2.94089,5.4609 -10.61511,16.8732 -17.05386,25.3608 l -11.70681,15.4319 11.07555,20.9709 11.07556,20.97095 22.19236,0.053 c 37.3894,0.09 40.15932,1.3047 44.34752,19.4489 2.51912,10.9135 2.63415,16.8784 0.37782,19.5971 -1.78396,2.1495 -13.71578,9.0148 -26.51518,15.256 l -23.27158,11.3478 0,24.8241 c 0,13.6532 1.13971,24.8241 2.53271,24.8241 3.54408,0 45.32143,25.27 47.67777,28.839 1.06281,1.6098 0.33353,10.1462 -1.62061,18.9698 l -3.55302,16.0429 -32.0363,1.5573 -32.03629,1.5574 -10.15167,19.0228 -10.15168,19.0227 8.19822,12.1245 c 4.50905,6.6683 12.01452,18.7765 16.67887,26.9069 l 8.48066,14.7825 -12.52683,13.2499 -12.52683,13.2499 -27.97723,-14.6775 c -15.38748,-8.0727 -28.76281,-13.4065 -29.72298,-11.8529 -0.96018,1.5536 -8.83296,7.4171 -17.49505,13.0299 l -15.74929,10.2052 2.14511,31.4718 2.14513,31.4717 -16.68722,6.4021 c -9.17798,3.5212 -17.79116,5.7533 -19.14043,4.9603 -1.34926,-0.7931 -9.759,-12.1892 -18.6883,-25.3247 l -16.23509,-23.8829 -23.04884,3.1202 c -22.60945,3.0608 -23.12132,3.3296 -26.85222,14.1061 -2.09187,6.0422 -7.51176,18.304 -12.0442,27.2483 l -8.2408,16.2624 -16.89467,0 c -9.29204,0 -17.64508,-1.2142 -18.56227,-2.6983 z m 67.24247,-120.8158 c 9.78432,-8.8546 4.71858,-32.2218 -6.98534,-32.2218 -1.59072,0 -2.89223,-9.8113 -2.89223,-21.803 l 0,-21.803 15.57358,0 15.57358,0 0,-23.3604 0,-23.3603 -15.57358,0 -15.57358,0 0,-13.3677 c 0,-11.7305 1.7181,-15.0539 14.02784,-27.1351 l 14.02784,-13.7672 -14.02784,-14.242 c -12.15671,-12.3423 -14.02784,-15.9935 -14.02784,-27.3726 l 0,-13.1305 15.57358,0 c 15.22751,0 15.57358,-0.2078 15.57358,-9.3442 l 0,-9.3441 21.80302,0 21.80302,0 0,9.3441 0,9.3442 32.70452,0 32.70453,0 0,-21.803 0,-21.80305 -32.49765,0 -32.49764,0 -0.98556,8.56545 c -0.95435,8.2941 -1.65161,8.5947 -22.0099,9.4865 l -21.02434,0.921 0,-9.4865 c 0,-9.30725 -0.29415,-9.48645 -15.57358,-9.48645 l -15.57358,0 0,-17.1309 c 0,-12.9681 1.10868,-17.1309 4.56249,-17.1309 5.51987,0 11.01109,-9.4838 11.01109,-19.017 0,-15.866 -19.67725,-24.0677 -31.68059,-13.2048 -8.65166,7.8296 -7.51497,24.6569 2.09078,30.9508 6.54692,4.2897 7.78679,7.5248 7.78679,20.3175 l 0,15.2153 -15.57358,0 -15.5736,0 0,21.80305 0,21.803 15.5736,0 15.57358,0 0,13.3677 c 0,11.6539 -1.73144,15.067 -13.505,26.6218 l -13.50499,13.2542 -23.09295,-0.9255 -23.09291,-0.9254 -0.97603,-10.1228 -0.97603,-10.1229 -32.50717,0 -32.50718,0 0,23.3604 0,23.3604 15.57358,0 15.57359,0 0,49.7619 0,49.7619 53.72886,0.8523 53.72887,0.8522 0.91168,9.3441 c 0.70701,7.2466 -0.6914,10.0434 -6.22943,12.4589 -9.11401,3.9752 -11.587,23.1416 -3.96884,30.7598 6.52546,6.5254 19.68651,6.4789 26.95096,-0.095 z m -118.89267,-106.975 0,-46.7207 14.01623,0 c 13.49709,0 14.01622,-0.3461 14.01622,-9.3442 l 0,-9.3441 25.84296,0 c 25.80999,0 25.8577,0.016 37.37661,11.8115 9.60305,9.8344 11.53364,14.0054 11.53364,24.9177 l 0,13.1063 -15.57358,0 -15.5736,0 0,23.3603 0,23.3604 15.5736,0 c 14.53535,0 15.57358,0.5191 15.57358,7.7868 l 0,7.7868 -51.39283,0 -51.39283,0 0,-46.7208 z M 170.03693,570.51893 c -8.8081,-1.0976 -10.246,-2.6353 -11.9124,-12.739 -6.1687,-37.4022 -5.0344,-35.1632 -20.98881,-41.4302 l -14.8494,-5.8329 -17.1793,13.9928 c -9.448698,7.696 -18.010598,13.9928 -19.026598,13.9928 -3.8582,0 -22.8281,-13.0935 -22.8281,-15.7565 0,-1.5343 3.3187,-11.6067 7.375,-22.3831 l 7.3749,-19.5935 -11.2683,-13.0015 -11.2684,-13.0015 -21.4373,4.5301 c -23.8656,5.0432 -26.8033003,4.009 -33.32330027,-11.7316 -3.98210003,-9.6138 -3.79980003,-9.9672 13.20670027,-25.5932 l 17.2445,-15.8447 -3.4958,-15.1482 -3.4959,-15.1481 -21.7261003,-6.766 -21.7259997,-6.766 -0.9438,-14.5487 -0.9439,-14.5488 16.5174997,-4.61109 c 9.0845,-2.53609 19.2464003,-5.05459 22.5819003,-5.59668 4.464,-0.72548 6.9967,-5.09284 9.5967,-16.54827 l 3.5322,-15.56268 -16.915,-17.53473 C -1.4609783,257.17731 -2.4795783,255.23843 1.0480217,248.42993 10.260422,230.64893 11.849522,230.08977 34.684422,236.59431 l 20.7811,5.91954 11.6712,-13.19232 c 6.4191,-7.25578 11.0581,-14.59394 10.3087,-16.30704 -5.0299,-11.49876 -11.3488,-36.85141 -10.0369,-40.2701 0.8691,-2.26493 5.7738,-7.10417 10.8994,-10.75386 l 9.3191,-6.6358 16.912698,15.45725 16.9127,15.45726 15.9032,-5.31568 c 14.93221,-4.99107 16.02351,-6.07645 17.87151,-17.77454 1.0826,-6.85237 3.3309,-17.78872 4.9964,-24.303 3.0121,-11.78161 3.1044,-11.83916 17.4834,-10.90151 l 14.45535,0.94263 7.47653,18.6883 c 4.11205,10.27857 7.86831,19.09517 8.34719,19.59245 0.47889,0.49728 7.91406,2.01756 16.52261,3.37838 l 15.65189,2.47424 13.55288,-18.10751 c 7.45407,-9.95913 15.34991,-18.13711 17.54632,-18.17329 2.19637,-0.0362 8.97048,2.01377 15.05355,4.55543 9.67773,4.04363 10.85818,5.69815 9.4445,13.23755 -6.5485,34.92399 -6.33408,36.15905 8.0361,46.28809 l 13.34979,9.40979 18.66734,-8.59249 c 10.26704,-4.72588 20.85658,-8.66152 23.53234,-8.74587 4.80821,-0.1516 18.49537,15.54505 18.49537,21.21077 0,1.61045 -5.52597,10.28245 -12.27993,19.27111 l -12.27989,16.34303 7.44754,14.69698 7.4475,14.69701 23.57554,1.51297 c 12.96657,0.83216 24.18749,2.12496 24.93543,2.87289 0.74793,0.74794 2.27922,7.10922 3.40289,14.13621 l 2.04303,12.77635 -20.58871,11.51383 -20.58868,11.51387 0.12739,16.0842 0.12708,16.0842 19.33974,11.384 c 17.46098,10.2782 19.29458,12.3254 18.875,21.0746 -0.86923,18.1257 -2.04005,18.9342 -27.41748,18.9342 l -23.40567,0 -7.495,14.7949 -7.49501,14.7949 12.02739,19.8874 12.02738,19.8873 -6.52981,9.1703 c -3.5914,5.0436 -8.43497,9.9014 -10.7635,10.7949 -2.32853,0.8935 -13.26433,-3.3393 -24.3018,-9.4062 -17.55061,-9.6471 -20.55672,-10.4421 -23.96301,-6.3378 -2.14214,2.5811 -7.94056,6.7851 -12.88529,9.3421 l -8.99047,4.6492 2.12003,24.3035 2.12003,24.3035 -8.93002,3.2279 c -4.9115,1.7754 -11.13994,4.1288 -13.84099,5.23 -3.55093,1.4476 -8.5659,-3.2084 -18.10856,-16.8124 -11.46633,-16.3464 -14.49934,-18.8088 -23.12144,-18.7719 -19.71367,0.084 -23.31923,2.7857 -33.65785,25.2156 -5.44103,11.8045 -11.4373,21.2383 -13.32507,20.9642 -1.88776,-0.2741 -7.94005,-1.0603 -13.44955,-1.7469 z m -10.2284,-164.392 c 0,-7.5643 -0.6229,-7.7868 -21.80301,-7.7868 -21.1801,0 -21.803,0.2224 -21.803,7.7868 0,7.5643 0.6229,7.7868 21.803,7.7868 21.18011,0 21.80301,-0.2224 21.80301,-7.7868 z m 96.55622,-29.5898 0,-9.3442 -70.08113,0 -70.0811,0 0,9.3442 0,9.3441 70.0811,0 70.08113,0 0,-9.3441 z m -49.83547,-29.5898 0,-7.7868 -45.16335,0 -45.16341,0 0,7.7868 0,7.7868 45.16341,0 45.16335,0 0,-7.7868 z m 49.83547,-31.14719 0,-7.78679 -70.08113,0 -70.0811,0 0,7.78679 0,7.78679 70.0811,0 70.08113,0 0,-7.78679 z m 31.14717,-29.58981 0,-9.34415 -85.65471,0 -85.65469,0 0,7.26767 c 0,3.99724 0.9344,8.2021 2.0765,9.34415 1.142,1.14207 39.68661,2.07648 85.65467,2.07648 l 83.57823,0 0,-9.34415 z m 219.92076,38.67921 c -1.03985,-2.70974 -1.89061,-10.1968 -1.89061,-16.63791 0,-10.98377 -0.78154,-11.94525 -12.58407,-15.48139 -12.01801,-3.60068 -13.14193,-3.32848 -24.98442,6.05096 -11.99045,9.49658 -12.66064,9.65067 -20.27535,4.66133 -8.29109,-5.43257 -8.24437,-9.78747 0.28562,-26.61635 3.51945,-6.94363 3.05053,-8.859 -4.33064,-17.689 -8.13302,-9.72944 -8.54531,-9.84509 -23.62786,-6.62831 -14.26251,3.0419 -15.75944,2.76883 -21.12177,-3.85336 -5.73553,-7.08308 -5.69348,-7.20665 6.77404,-19.91014 11.97413,-12.20073 12.40125,-13.30492 9.37966,-24.24817 -2.80546,-10.16062 -4.83747,-11.93545 -17.85605,-15.59627 -13.15946,-3.70042 -14.79051,-5.15634 -15.6517,-13.97089 -0.88159,-9.02388 0.0218,-10.11319 10.90151,-13.13416 6.52458,-1.8118 13.56089,-3.30201 15.63622,-3.31156 2.07534,-0.01 5.282,-5.62013 7.12591,-12.46795 3.2475,-12.0602 3.00711,-12.75393 -7.66672,-22.12568 -11.7094,-10.28098 -13.37007,-16.57394 -6.69427,-25.367305 3.77139,-4.96772 5.39431,-5.0546 18.83849,-1.0085 l 14.71156,4.427515 8.68348,-9.718535 c 8.20108,-9.17859 8.4468,-10.28507 4.42284,-19.9158 -6.33618,-15.16461 -5.34168,-22.49722 3.60404,-26.57316 7.03253,-3.20424 8.99524,-2.48768 18.54876,6.77197 10.55219,10.22758 10.82981,10.2999 22.49454,5.86027 10.9639,-4.17289 11.99565,-5.65823 14.39333,-20.72142 2.5156,-15.80473 2.85305,-16.22631 12.98709,-16.22631 9.46435,0 10.80125,1.19056 14.79684,13.17733 3.82593,11.47783 5.93811,13.54289 16.37709,16.01164 11.61176,2.74612 12.34431,2.41249 23.54583,-10.72375 10.88936,-12.77017 12.04704,-13.33668 19.92166,-9.74876 7.94244,3.61882 8.26353,4.62522 6.42177,20.1281 -1.89406,15.94282 -1.69811,16.4716 8.50396,22.94899 10.26539,6.51763 10.62498,6.53306 21.18571,0.90923 13.72886,-7.31091 19.42533,-7.36744 25.86052,-0.25665 4.87117,5.38258 4.62168,6.49808 -4.16671,18.63009 -9.26665,12.792235 -9.30257,13.000185 -4.12176,23.864405 4.22449,8.85885 7.0562,11.01925 14.77226,11.27021 18.81214,0.61185 25.11953,3.97151 25.11953,13.38002 0,6.95578 -2.54064,10.15879 -12.45887,15.70698 -10.74113,6.00854 -12.54916,8.56293 -13.11373,18.52725 -0.60139,10.61421 0.47935,12.24291 13.23754,19.94915 13.40073,8.09433 16.02124,13.28113 12.00182,23.75552 -1.38907,3.61991 -6.19346,4.92683 -18.11143,4.92683 -15.51076,0 -16.45131,0.48337 -21.48646,11.04219 -5.15199,10.80383 -5.09721,11.29009 2.53784,22.52605 9.39725,13.82931 9.60977,16.78178 1.72191,23.92021 -5.83698,5.28237 -6.62604,5.19946 -19.61802,-2.06191 l -13.53643,-7.56568 -9.93096,6.43806 c -9.25,5.99658 -9.9338,7.66208 -9.9718,24.28834 -0.0383,16.76524 -0.55018,17.97812 -8.42042,19.95341 -6.68683,1.6783 -9.36097,0.62331 -13.23755,-5.22232 -12.12431,-18.28271 -14.08717,-19.57214 -26.30453,-17.28017 -10.02759,1.88119 -12.44781,4.08909 -17.56286,16.02204 -5.0906,11.87591 -7.22714,13.84015 -15.05418,13.84015 -5.44443,0 -9.88377,-1.98616 -11.0122,-4.92683 z m -1.89061,-113.43241 c 0,-5.59051 -2.07648,-6.22943 -20.24565,-6.22943 -18.16917,0 -20.24566,0.63892 -20.24566,6.22943 0,5.59052 2.07649,6.22944 20.24566,6.22944 18.16917,0 20.24565,-0.63892 20.24565,-6.22944 z m 52.9502,0 c 0,-5.59051 -2.07649,-6.22943 -20.24567,-6.22943 -18.16917,0 -20.24566,0.63892 -20.24566,6.22943 0,5.59052 2.07649,6.22944 20.24566,6.22944 18.16918,0 20.24567,-0.63892 20.24567,-6.22944 z m 52.95018,0 c 0,-5.59051 -2.07649,-6.22943 -20.24566,-6.22943 -18.16917,0 -20.24565,0.63892 -20.24565,6.22943 0,5.59052 2.07648,6.22944 20.24565,6.22944 18.16917,0 20.24566,-0.63892 20.24566,-6.22944 z M 505.54207,186.5394 c 0,-5.59052 -2.07648,-6.22943 -20.24565,-6.22943 -18.16917,0 -20.24566,0.63891 -20.24566,6.22943 0,5.59052 2.07649,6.22943 20.24566,6.22943 18.16917,0 20.24565,-0.63891 20.24565,-6.22943 z m 52.9502,0 c 0,-5.59052 -2.07649,-6.22943 -20.24567,-6.22943 -18.16917,0 -20.24566,0.63891 -20.24566,6.22943 0,5.59052 2.07649,6.22943 20.24566,6.22943 18.16918,0 20.24567,-0.63891 20.24567,-6.22943 z m 52.95018,0 c 0,-5.59052 -2.07649,-6.22943 -20.24566,-6.22943 -18.16917,0 -20.24565,0.63891 -20.24565,6.22943 0,5.59052 2.07648,6.22943 20.24565,6.22943 18.16917,0 20.24566,-0.63891 20.24566,-6.22943 z M 505.54207,161.62167 c 0,-5.59052 -2.07648,-6.22944 -20.24565,-6.22944 -18.16917,0 -20.24566,0.63892 -20.24566,6.22944 0,5.59051 2.07649,6.22943 20.24566,6.22943 18.16917,0 20.24565,-0.63892 20.24565,-6.22943 z m 52.9502,0 c 0,-5.59052 -2.07649,-6.22944 -20.24567,-6.22944 -18.16917,0 -20.24566,0.63892 -20.24566,6.22944 0,5.59051 2.07649,6.22943 20.24566,6.22943 18.16918,0 20.24567,-0.63892 20.24567,-6.22943 z m 52.95018,0 c 0,-5.59052 -2.07649,-6.22944 -20.24566,-6.22944 -18.16917,0 -20.24565,0.63892 -20.24565,6.22944 0,5.59051 2.07648,6.22943 20.24565,6.22943 18.16917,0 20.24566,-0.63892 20.24566,-6.22943 z M 505.54207,136.70393 c 0,-5.59051 -2.07648,-6.22943 -20.24565,-6.22943 -18.16917,0 -20.24566,0.63892 -20.24566,6.22943 0,5.59052 2.07649,6.22944 20.24566,6.22944 18.16917,0 20.24565,-0.63892 20.24565,-6.22944 z m 52.9502,0 c 0,-5.59051 -2.07649,-6.22943 -20.24567,-6.22943 -18.16917,0 -20.24566,0.63892 -20.24566,6.22943 0,5.59052 2.07649,6.22944 20.24566,6.22944 18.16918,0 20.24567,-0.63892 20.24567,-6.22944 z m 52.95018,0 c 0,-5.59051 -2.07649,-6.22943 -20.24566,-6.22943 -18.16917,0 -20.24565,0.63892 -20.24565,6.22943 0,5.59052 2.07648,6.22944 20.24565,6.22944 18.16917,0 20.24566,-0.63892 20.24566,-6.22944 z"
       style="fill:#ffd39e;fill-opacity:1" />
  </g>
</svg>
